<svg width="15" height="15" fill="none" xmlns="http://www.w3.org/2000/svg" viewBox="0 0 15 15">
  <path
    fill-rule="evenodd"
    clip-rule="evenodd"
    d="M13.75 2.00005C14.4403 2.00005 15 2.55969 15 3.25005L15 5.75004C15 6.4404 14.4403 7.00004 13.75 7.00004L5.24999 7.00004C4.55964 7.00004 4 6.4404 4 5.75004L4 3.25005C4 2.55969 4.55964 2.00005 5.25 2.00005L13.75 2.00005ZM14 3.25005C14 3.11198 13.8881 3.00005 13.75 3.00005L5.25 3.00005C5.11192 3.00005 5 3.11198 5 3.25005L5 5.75004C5 5.88812 5.11192 6.00004 5.24999 6.00004L13.75 6.00004C13.8881 6.00004 14 5.88812 14 5.75004L14 3.25005ZM2.49998 1.04968C2.7485 1.04968 2.94997 1.25115 2.94997 1.49968L2.94997 13.4997C2.94997 13.7482 2.7485 13.9497 2.49997 13.9497C2.25145 13.9497 2.04997 13.7482 2.04997 13.4997L2.04998 1.49968C2.04998 1.25115 2.25145 1.04968 2.49998 1.04968ZM11 9.25004C11 8.55969 10.4403 8.00004 9.74999 8.00004L5.25 8.00004C4.55964 8.00004 4 8.55969 4 9.25004L4 11.75C4 12.4404 4.55964 13 5.25 13L9.74999 13C10.4403 13 11 12.4404 11 11.75L11 9.25004Z"
    fill="currentColor"
  />
</svg>
