<svg width="15" height="15" viewBox="0 0 15 15" fill="none" xmlns="http://www.w3.org/2000/svg">
  <path
    fill-rule="evenodd"
    clip-rule="evenodd"
    d="M2.00005 12.75C2.00005 13.4404 2.55969 14 3.25005 14H5.75005C6.4404 14 7.00005 13.4404 7.00005 12.75V4.25C7.00005 3.55964 6.4404 3 5.75005 3H3.25005C2.55969 3 2.00005 3.55964 2.00005 4.25V12.75ZM3.25005 13C3.11198 13 3.00005 12.8881 3.00005 12.75V4.25C3.00005 4.11193 3.11198 4 3.25005 4H5.75005C5.88812 4 6.00005 4.11193 6.00005 4.25V12.75C6.00005 12.8881 5.88812 13 5.75005 13H3.25005ZM1.04968 1.49998C1.04968 1.74851 1.25115 1.94998 1.49968 1.94998H13.4997C13.7482 1.94998 13.9497 1.7485 13.9497 1.49998C13.9497 1.25145 13.7482 1.04998 13.4997 1.04998L1.49968 1.04998C1.25115 1.04998 1.04968 1.25145 1.04968 1.49998ZM9.25 10C8.55964 10 8 9.44036 8 8.75V4.25C8 3.55964 8.55964 3 9.25 3H11.75C12.4404 3 13 3.55964 13 4.25V8.75C13 9.44036 12.4404 10 11.75 10H9.25Z"
    fill="currentColor"
  />
</svg>
