<svg width="15" height="15" viewBox="0 0 15 15" fill="none" xmlns="http://www.w3.org/2000/svg">
  <path
    fill-rule="evenodd"
    clip-rule="evenodd"
    d="M2.00005 2.25C2.00005 1.55964 2.55969 1 3.25005 1H5.75005C6.4404 1 7.00005 1.55964 7.00005 2.25V10.75C7.00005 11.4404 6.4404 12 5.75005 12H3.25005C2.55969 12 2.00005 11.4404 2.00005 10.75V2.25ZM3.25005 2C3.11198 2 3.00005 2.11193 3.00005 2.25V10.75C3.00005 10.8881 3.11198 11 3.25005 11H5.75005C5.88812 11 6.00005 10.8881 6.00005 10.75V2.25C6.00005 2.11193 5.88812 2 5.75005 2H3.25005ZM1.04968 13.5C1.04968 13.2515 1.25115 13.05 1.49968 13.05H13.4997C13.7482 13.05 13.9497 13.2515 13.9497 13.5C13.9497 13.7486 13.7482 13.95 13.4997 13.95L1.49968 13.95C1.25115 13.95 1.04968 13.7486 1.04968 13.5ZM9.25 5C8.55964 5 8 5.55964 8 6.25V10.75C8 11.4404 8.55964 12 9.25 12H11.75C12.4404 12 13 11.4404 13 10.75V6.25C13 5.55964 12.4404 5 11.75 5H9.25Z"
    fill="currentColor"
  />
</svg>
