<svg width="15" height="15" viewBox="0 0 15 15" fill="none" xmlns="http://www.w3.org/2000/svg">
  <path
    fill-rule="evenodd"
    clip-rule="evenodd"
    d="M13.75 1.99999C14.4404 1.99999 15 2.55963 15 3.24999L15 5.74999C15 6.44034 14.4404 6.99999 13.75 6.99999L5.25 6.99999C4.55964 6.99999 4 6.44034 4 5.74999L4 3.24999C4 2.55963 4.55964 1.99999 5.25 1.99999L13.75 1.99999ZM14 3.24999C14 3.11192 13.8881 2.99999 13.75 2.99999L5.25 2.99999C5.11193 2.99999 5 3.11192 5 3.24999L5 5.74999C5 5.88806 5.11193 5.99999 5.25 5.99999L13.75 5.99999C13.8881 5.99999 14 5.88806 14 5.74999L14 3.24999ZM2.49998 1.04962C2.74851 1.04962 2.94998 1.25109 2.94998 1.49962L2.94998 13.4996C2.94998 13.7482 2.7485 13.9496 2.49998 13.9496C2.25145 13.9496 2.04998 13.7482 2.04998 13.4996L2.04998 1.49962C2.04998 1.25109 2.25145 1.04962 2.49998 1.04962ZM11 9.24999C11 8.55963 10.4404 7.99999 9.75 7.99999L5.25 7.99999C4.55964 7.99999 4 8.55963 4 9.24999L4 11.75C4 12.4403 4.55964 13 5.25 13L9.75 13C10.4404 13 11 12.4403 11 11.75L11 9.24999Z"
    fill="currentColor"
  />
</svg>
