<svg width="15" height="15" fill="none" xmlns="http://www.w3.org/2000/svg">
  <path
    fill-rule="evenodd"
    clip-rule="evenodd"
    d="M1.99999 2.25C1.99999 1.55964 2.55963 1 3.24999 1H5.74999C6.44034 1 6.99999 1.55964 6.99999 2.25V10.75C6.99999 11.4404 6.44034 12 5.74999 12H3.24999C2.55963 12 1.99999 11.4404 1.99999 10.75V2.25ZM3.24999 2C3.11192 2 2.99999 2.11193 2.99999 2.25V10.75C2.99999 10.8881 3.11192 11 3.24999 11H5.74999C5.88806 11 5.99999 10.8881 5.99999 10.75V2.25C5.99999 2.11193 5.88806 2 5.74999 2H3.24999ZM1.04962 13.5C1.04962 13.2515 1.25109 13.05 1.49962 13.05H13.4996C13.7482 13.05 13.9496 13.2515 13.9496 13.5C13.9496 13.7486 13.7482 13.95 13.4996 13.95L1.49962 13.95C1.25109 13.95 1.04962 13.7486 1.04962 13.5ZM9.24994 5C8.55958 5 7.99994 5.55964 7.99994 6.25V10.75C7.99994 11.4404 8.55958 12 9.24994 12H11.7499C12.4403 12 12.9999 11.4404 12.9999 10.75V6.25C12.9999 5.55964 12.4403 5 11.7499 5H9.24994Z"
    fill="currentColor"
  />
</svg>
