<svg width="15" height="15" fill="none" xmlns="http://www.w3.org/2000/svg">
  <path
    fill-rule="evenodd"
    clip-rule="evenodd"
    d="M10.5 1.75003C10.7107 1.75003 10.8988 1.88217 10.9703 2.08042L13.9703 10.4C14.064 10.6598 13.9294 10.9463 13.6696 11.04C13.4098 11.1336 13.1233 10.999 13.0296 10.7392L12.0477 8.01606H8.95229L7.97034 10.7392C7.87667 10.999 7.59014 11.1336 7.33037 11.04C7.0706 10.9463 6.93596 10.6598 7.02963 10.4L10.0296 2.08042C10.1011 1.88217 10.2892 1.75003 10.5 1.75003ZM10.5 3.72402L11.7412 7.16606H9.2588L10.5 3.72402ZM2.49951 2.09997C2.72042 2.09997 2.89951 2.27906 2.89951 2.49997L2.89951 9.53428L4.21667 8.21713C4.37288 8.06092 4.62614 8.06092 4.78235 8.21713C4.93856 8.37334 4.93856 8.6266 4.78235 8.78281L2.78235 10.7828C2.70734 10.8578 2.6056 10.9 2.49951 10.9C2.39342 10.9 2.29168 10.8578 2.21667 10.7828L0.216667 8.78281C0.0604578 8.6266 0.0604578 8.37334 0.216668 8.21713C0.372877 8.06092 0.626143 8.06092 0.782353 8.21713L2.09951 9.53428L2.09951 2.49997C2.09951 2.27906 2.2786 2.09997 2.49951 2.09997ZM0.0999924 13.5001C0.0999924 13.2791 0.279078 13.1001 0.499992 13.1001H14.5C14.7209 13.1001 14.9 13.2791 14.9 13.5001C14.9 13.721 14.7209 13.9001 14.5 13.9001H0.499992C0.279078 13.9001 0.0999924 13.721 0.0999924 13.5001Z"
    fill="currentColor"
  />
</svg>
