<svg width="15" height="15" viewBox="0 0 15 15" fill="none" xmlns="http://www.w3.org/2000/svg">
  <path
    fill-rule="evenodd"
    clip-rule="evenodd"
    d="M1.25 1.99999C0.559644 1.99999 -6.60046e-08 2.55963 -9.61811e-08 3.24999L-2.05459e-07 5.74999C-2.35636e-07 6.44034 0.559644 6.99999 1.25 6.99999L9.75 6.99999C10.4404 6.99999 11 6.44034 11 5.74999L11 3.24999C11 2.55963 10.4404 1.99999 9.75 1.99999L1.25 1.99999ZM1 3.24999C1 3.11192 1.11193 2.99999 1.25 2.99999L9.75 2.99999C9.88807 2.99999 10 3.11192 10 3.24999L10 5.74999C10 5.88806 9.88807 5.99999 9.75 5.99999L1.25 5.99999C1.11193 5.99999 1 5.88806 1 5.74999L1 3.24999ZM12.5 1.04962C12.2515 1.04962 12.05 1.25109 12.05 1.49962L12.05 13.4996C12.05 13.7482 12.2515 13.9496 12.5 13.9496C12.7485 13.9496 12.95 13.7482 12.95 13.4996L12.95 1.49962C12.95 1.25109 12.7486 1.04962 12.5 1.04962ZM4 9.24999C4 8.55963 4.55964 7.99999 5.25 7.99999L9.75 7.99999C10.4404 7.99999 11 8.55963 11 9.24999L11 11.75C11 12.4403 10.4404 13 9.75 13L5.25 13C4.55964 13 4 12.4403 4 11.75L4 9.24999Z"
    fill="currentColor"
  />
</svg>
