<svg width="15" height="15" viewBox="0 0 15 15" fill="none" xmlns="http://www.w3.org/2000/svg">
  <path
    fill-rule="evenodd"
    clip-rule="evenodd"
    d="M1.5 0.999939C1.22386 0.999939 1 1.2238 1 1.49994V5.99994H2V1.99994H6V0.999939H1.5ZM9 1.99994H13V5.99994H14V1.49994C14 1.2238 13.7761 0.999939 13.5 0.999939H9V1.99994ZM1 8.99994V13.4999C1 13.7761 1.22386 13.9999 1.5 13.9999H6V12.9999H2V8.99994H1ZM13 8.99994V12.9999H9.5V13.9999H13.5C13.7761 13.9999 14 13.7761 14 13.4999V8.99994H13ZM7 1.52499C7 1.24884 7.22386 1.02499 7.5 1.02499C7.77614 1.02499 8 1.24884 8 1.52499C8 1.80113 7.77614 2.02499 7.5 2.02499C7.22386 2.02499 7 1.80113 7 1.52499ZM7.5 3.02499C7.22386 3.02499 7 3.24884 7 3.52499C7 3.80113 7.22386 4.02499 7.5 4.02499C7.77614 4.02499 8 3.80113 8 3.52499C8 3.24884 7.77614 3.02499 7.5 3.02499ZM7.5 5.02499C7.22386 5.02499 7 5.24884 7 5.52499C7 5.80113 7.22386 6.02499 7.5 6.02499C7.77614 6.02499 8 5.80113 8 5.52499C8 5.24884 7.77614 5.02499 7.5 5.02499ZM7 7.52499C7 7.24884 7.22386 7.02499 7.5 7.02499C7.77614 7.02499 8 7.24884 8 7.52499C8 7.80113 7.77614 8.02499 7.5 8.02499C7.22386 8.02499 7 7.80113 7 7.52499ZM7.5 13.0254C7.22386 13.0254 7 13.2492 7 13.5254C7 13.8015 7.22386 14.0254 7.5 14.0254C7.77614 14.0254 8 13.8015 8 13.5254C8 13.2492 7.77614 13.0254 7.5 13.0254ZM13.5 7.02499C13.2239 7.02499 13 7.24884 13 7.52499C13 7.80113 13.2239 8.02499 13.5 8.02499C13.7761 8.02499 14 7.80113 14 7.52499C14 7.24884 13.7761 7.02499 13.5 7.02499ZM5 7.52499C5 7.24884 5.22386 7.02499 5.5 7.02499C5.77614 7.02499 6 7.24884 6 7.52499C6 7.80113 5.77614 8.02499 5.5 8.02499C5.22386 8.02499 5 7.80113 5 7.52499ZM3.5 7.02499C3.22386 7.02499 3 7.24884 3 7.52499C3 7.80113 3.22386 8.02499 3.5 8.02499C3.77614 8.02499 4 7.80113 4 7.52499C4 7.24884 3.77614 7.02499 3.5 7.02499ZM9 7.52499C9 7.24884 9.22386 7.02499 9.5 7.02499C9.77614 7.02499 10 7.24884 10 7.52499C10 7.80113 9.77614 8.02499 9.5 8.02499C9.22386 8.02499 9 7.80113 9 7.52499ZM11.5 7.02499C11.2239 7.02499 11 7.24884 11 7.52499C11 7.80113 11.2239 8.02499 11.5 8.02499C11.7761 8.02499 12 7.80113 12 7.52499C12 7.24884 11.7761 7.02499 11.5 7.02499ZM7 9.52499C7 9.24884 7.22386 9.02499 7.5 9.02499C7.77614 9.02499 8 9.24884 8 9.52499C8 9.80113 7.77614 10.025 7.5 10.025C7.22386 10.025 7 9.80113 7 9.52499ZM7.5 11.025C7.22386 11.025 7 11.2488 7 11.525C7 11.8011 7.22386 12.025 7.5 12.025C7.77614 12.025 8 11.8011 8 11.525C8 11.2488 7.77614 11.025 7.5 11.025ZM1 7.52499C1 7.24884 1.22386 7.02499 1.5 7.02499C1.77614 7.02499 2 7.24884 2 7.52499C2 7.80113 1.77614 8.02499 1.5 8.02499C1.22386 8.02499 1 7.80113 1 7.52499Z"
    fill="currentColor"
  />
</svg>
