<svg width="15" height="15" viewBox="0 0 15 15" fill="none" xmlns="http://www.w3.org/2000/svg">
  <path
    fill-rule="evenodd"
    clip-rule="evenodd"
    d="M1.75 1L1.75 14H0.25L0.25 1H1.75ZM9.5 7C9.77614 7 10 7.22386 10 7.5C10 7.77614 9.77614 8 9.5 8C9.22386 8 9 7.77614 9 7.5C9 7.22386 9.22386 7 9.5 7ZM10 13.5C10 13.2239 9.77614 13 9.5 13C9.22386 13 9 13.2239 9 13.5C9 13.7761 9.22386 14 9.5 14C9.77614 14 10 13.7761 10 13.5ZM11.5 7C11.7761 7 12 7.22386 12 7.5C12 7.77614 11.7761 8 11.5 8C11.2239 8 11 7.77614 11 7.5C11 7.22386 11.2239 7 11.5 7ZM12 13.5C12 13.2239 11.7761 13 11.5 13C11.2239 13 11 13.2239 11 13.5C11 13.7761 11.2239 14 11.5 14C11.7761 14 12 13.7761 12 13.5ZM7.5 7C7.77614 7 8 7.22386 8 7.5C8 7.77614 7.77614 8 7.5 8C7.22386 8 7 7.77614 7 7.5C7 7.22386 7.22386 7 7.5 7ZM14 7.5C14 7.22386 13.7761 7 13.5 7C13.2239 7 13 7.22386 13 7.5C13 7.77614 13.2239 8 13.5 8C13.7761 8 14 7.77614 14 7.5ZM7.5 13C7.77614 13 8 13.2239 8 13.5C8 13.7761 7.77614 14 7.5 14C7.22386 14 7 13.7761 7 13.5C7 13.2239 7.22386 13 7.5 13ZM14 13.5C14 13.2239 13.7761 13 13.5 13C13.2239 13 13 13.2239 13 13.5C13 13.7761 13.2239 14 13.5 14C13.7761 14 14 13.7761 14 13.5ZM7.5 5C7.77614 5 8 5.22386 8 5.5C8 5.77614 7.77614 6 7.5 6C7.22386 6 7 5.77614 7 5.5C7 5.22386 7.22386 5 7.5 5ZM14 5.5C14 5.22386 13.7761 5 13.5 5C13.2239 5 13 5.22386 13 5.5C13 5.77614 13.2239 6 13.5 6C13.7761 6 14 5.77614 14 5.5ZM7.5 3C7.77614 3 8 3.22386 8 3.5C8 3.77614 7.77614 4 7.5 4C7.22386 4 7 3.77614 7 3.5C7 3.22386 7.22386 3 7.5 3ZM14 3.5C14 3.22386 13.7761 3 13.5 3C13.2239 3 13 3.22386 13 3.5C13 3.77614 13.2239 4 13.5 4C13.7761 4 14 3.77614 14 3.5ZM7.5 9C7.77614 9 8 9.22386 8 9.5C8 9.77614 7.77614 10 7.5 10C7.22386 10 7 9.77614 7 9.5C7 9.22386 7.22386 9 7.5 9ZM14 9.5C14 9.22386 13.7761 9 13.5 9C13.2239 9 13 9.22386 13 9.5C13 9.77614 13.2239 10 13.5 10C13.7761 10 14 9.77614 14 9.5ZM7.5 11C7.77614 11 8 11.2239 8 11.5C8 11.7761 7.77614 12 7.5 12C7.22386 12 7 11.7761 7 11.5C7 11.2239 7.22386 11 7.5 11ZM14 11.5C14 11.2239 13.7761 11 13.5 11C13.2239 11 13 11.2239 13 11.5C13 11.7761 13.2239 12 13.5 12C13.7761 12 14 11.7761 14 11.5ZM5.5 7C5.77614 7 6 7.22386 6 7.5C6 7.77614 5.77614 8 5.5 8C5.22386 8 5 7.77614 5 7.5C5 7.22386 5.22386 7 5.5 7ZM6 13.5C6 13.2239 5.77614 13 5.5 13C5.22386 13 5 13.2239 5 13.5C5 13.7761 5.22386 14 5.5 14C5.77614 14 6 13.7761 6 13.5ZM3.5 7C3.77614 7 4 7.22386 4 7.5C4 7.77614 3.77614 8 3.5 8C3.22386 8 3 7.77614 3 7.5C3 7.22386 3.22386 7 3.5 7ZM4 13.5C4 13.2239 3.77614 13 3.5 13C3.22386 13 3 13.2239 3 13.5C3 13.7761 3.22386 14 3.5 14C3.77614 14 4 13.7761 4 13.5ZM9.5 1C9.77614 1 10 1.22386 10 1.5C10 1.77614 9.77614 2 9.5 2C9.22386 2 9 1.77614 9 1.5C9 1.22386 9.22386 1 9.5 1ZM12 1.5C12 1.22386 11.7761 1 11.5 1C11.2239 1 11 1.22386 11 1.5C11 1.77614 11.2239 2 11.5 2C11.7761 2 12 1.77614 12 1.5ZM7.5 1C7.77614 1 8 1.22386 8 1.5C8 1.77614 7.77614 2 7.5 2C7.22386 2 7 1.77614 7 1.5C7 1.22386 7.22386 1 7.5 1ZM14 1.5C14 1.22386 13.7761 1 13.5 1C13.2239 1 13 1.22386 13 1.5C13 1.77614 13.2239 2 13.5 2C13.7761 2 14 1.77614 14 1.5ZM5.5 1C5.77614 1 6 1.22386 6 1.5C6 1.77614 5.77614 2 5.5 2C5.22386 2 5 1.77614 5 1.5C5 1.22386 5.22386 1 5.5 1ZM4 1.5C4 1.22386 3.77614 1 3.5 1C3.22386 1 3 1.22386 3 1.5C3 1.77614 3.22386 2 3.5 2C3.77614 2 4 1.77614 4 1.5Z"
    fill="currentColor"
  />
</svg>
