<svg width="15" height="15" fill="none" xmlns="http://www.w3.org/2000/svg" viewBox="0 0 15 15">
  <path
    fill-rule="evenodd"
    clip-rule="evenodd"
    d="M13.25 0.999992L13.25 14L14.75 14L14.75 0.999992L13.25 0.999992ZM5.49997 7C5.22383 7 4.99997 7.22386 4.99997 7.5C4.99997 7.77614 5.22383 8 5.49997 8C5.77611 8 5.99997 7.77614 5.99997 7.5C5.99997 7.22386 5.77611 7 5.49997 7ZM4.99997 13.5C4.99997 13.2239 5.22383 13 5.49997 13C5.77611 13 5.99997 13.2239 5.99997 13.5C5.99997 13.7761 5.77611 14 5.49997 14C5.22383 14 4.99997 13.7761 4.99997 13.5ZM3.49997 7C3.22383 7 2.99997 7.22386 2.99997 7.5C2.99997 7.77614 3.22383 8 3.49997 8C3.77611 8 3.99997 7.77614 3.99997 7.5C3.99997 7.22386 3.77611 7 3.49997 7ZM2.99997 13.5C2.99997 13.2239 3.22383 13 3.49997 13C3.77611 13 3.99997 13.2239 3.99997 13.5C3.99997 13.7761 3.77611 14 3.49997 14C3.22383 14 2.99997 13.7761 2.99997 13.5ZM7.49997 7C7.22383 7 6.99997 7.22386 6.99997 7.5C6.99997 7.77614 7.22383 8 7.49997 8C7.77611 8 7.99997 7.77614 7.99997 7.5C7.99997 7.22386 7.77611 7 7.49997 7ZM0.999969 7.5C0.999969 7.22386 1.22383 7 1.49997 7C1.77611 7 1.99997 7.22386 1.99997 7.5C1.99997 7.77614 1.77611 8 1.49997 8C1.22383 8 0.999969 7.77614 0.999969 7.5ZM7.49997 13C7.22383 13 6.99997 13.2239 6.99997 13.5C6.99997 13.7761 7.22383 14 7.49997 14C7.77611 14 7.99997 13.7761 7.99997 13.5C7.99997 13.2239 7.77611 13 7.49997 13ZM0.999969 13.5C0.999969 13.2239 1.22383 13 1.49997 13C1.77611 13 1.99997 13.2239 1.99997 13.5C1.99997 13.7761 1.77611 14 1.49997 14C1.22383 14 0.999969 13.7761 0.999969 13.5ZM7.49997 5C7.22383 5 6.99997 5.22386 6.99997 5.5C6.99997 5.77614 7.22383 6 7.49997 6C7.77611 6 7.99997 5.77614 7.99997 5.5C7.99997 5.22386 7.77611 5 7.49997 5ZM0.99997 5.5C0.99997 5.22386 1.22383 5 1.49997 5C1.77611 5 1.99997 5.22386 1.99997 5.5C1.99997 5.77614 1.77611 6 1.49997 6C1.22383 6 0.99997 5.77614 0.99997 5.5ZM7.49997 3C7.22383 3 6.99997 3.22386 6.99997 3.5C6.99997 3.77614 7.22383 4 7.49997 4C7.77611 4 7.99997 3.77614 7.99997 3.5C7.99997 3.22386 7.77611 3 7.49997 3ZM0.999969 3.5C0.999969 3.22386 1.22383 3 1.49997 3C1.77611 3 1.99997 3.22386 1.99997 3.5C1.99997 3.77614 1.77611 4 1.49997 4C1.22383 4 0.999969 3.77614 0.999969 3.5ZM7.49997 9C7.22383 9 6.99997 9.22386 6.99997 9.5C6.99997 9.77614 7.22383 10 7.49997 10C7.77611 10 7.99997 9.77614 7.99997 9.5C7.99997 9.22386 7.77611 9 7.49997 9ZM0.999969 9.5C0.999969 9.22386 1.22383 9 1.49997 9C1.77611 9 1.99997 9.22386 1.99997 9.5C1.99997 9.77614 1.77611 10 1.49997 10C1.22383 10 0.999969 9.77614 0.999969 9.5ZM7.49997 11C7.22383 11 6.99997 11.2239 6.99997 11.5C6.99997 11.7761 7.22383 12 7.49997 12C7.77611 12 7.99997 11.7761 7.99997 11.5C7.99997 11.2239 7.77611 11 7.49997 11ZM0.99997 11.5C0.99997 11.2239 1.22383 11 1.49997 11C1.77611 11 1.99997 11.2239 1.99997 11.5C1.99997 11.7761 1.77611 12 1.49997 12C1.22383 12 0.99997 11.7761 0.99997 11.5ZM9.49997 7C9.22383 7 8.99997 7.22386 8.99997 7.5C8.99997 7.77614 9.22383 8 9.49997 8C9.77611 8 9.99997 7.77614 9.99997 7.5C9.99997 7.22386 9.77611 7 9.49997 7ZM8.99997 13.5C8.99997 13.2239 9.22383 13 9.49997 13C9.77611 13 9.99997 13.2239 9.99997 13.5C9.99997 13.7761 9.77611 14 9.49997 14C9.22383 14 8.99997 13.7761 8.99997 13.5ZM11.5 7C11.2238 7 11 7.22386 11 7.5C11 7.77614 11.2238 8 11.5 8C11.7761 8 12 7.77614 12 7.5C12 7.22386 11.7761 7 11.5 7ZM11 13.5C11 13.2239 11.2238 13 11.5 13C11.7761 13 12 13.2239 12 13.5C12 13.7761 11.7761 14 11.5 14C11.2238 14 11 13.7761 11 13.5ZM5.49997 0.999999C5.22383 0.999999 4.99997 1.22386 4.99997 1.5C4.99997 1.77614 5.22383 2 5.49997 2C5.77611 2 5.99997 1.77614 5.99997 1.5C5.99997 1.22386 5.77611 0.999999 5.49997 0.999999ZM2.99997 1.5C2.99997 1.22386 3.22383 0.999999 3.49997 0.999999C3.77611 0.999999 3.99997 1.22386 3.99997 1.5C3.99997 1.77614 3.77611 2 3.49997 2C3.22383 2 2.99997 1.77614 2.99997 1.5ZM7.49997 0.999999C7.22383 0.999999 6.99997 1.22386 6.99997 1.5C6.99997 1.77614 7.22383 2 7.49997 2C7.77611 2 7.99997 1.77614 7.99997 1.5C7.99997 1.22386 7.77611 0.999999 7.49997 0.999999ZM0.999969 1.5C0.999969 1.22386 1.22383 0.999999 1.49997 0.999999C1.77611 0.999999 1.99997 1.22386 1.99997 1.5C1.99997 1.77614 1.77611 2 1.49997 2C1.22383 2 0.999969 1.77614 0.999969 1.5ZM9.49997 0.999999C9.22383 0.999999 8.99997 1.22386 8.99997 1.5C8.99997 1.77614 9.22383 2 9.49997 2C9.77611 2 9.99997 1.77614 9.99997 1.5C9.99997 1.22386 9.77611 0.999999 9.49997 0.999999ZM11 1.5C11 1.22386 11.2238 0.999999 11.5 0.999999C11.7761 0.999999 12 1.22386 12 1.5C12 1.77614 11.7761 2 11.5 2C11.2238 2 11 1.77614 11 1.5Z"
    fill="currentColor"
  />
</svg>
