<svg width="15" height="15" viewBox="0 0 15 15" fill="none" xmlns="http://www.w3.org/2000/svg">
  <path
    fill-rule="evenodd"
    clip-rule="evenodd"
    d="M7.5 1.02499C7.22386 1.02499 7 1.24885 7 1.52499C7 1.80114 7.22386 2.02499 7.5 2.02499C7.77614 2.02499 8 1.80114 8 1.52499C8 1.24885 7.77614 1.02499 7.5 1.02499ZM7.5 3.02499C7.22386 3.02499 7 3.24885 7 3.52499C7 3.80114 7.22386 4.02499 7.5 4.02499C7.77614 4.02499 8 3.80114 8 3.52499C8 3.24885 7.77614 3.02499 7.5 3.02499ZM7 5.52499C7 5.24885 7.22386 5.02499 7.5 5.02499C7.77614 5.02499 8 5.24885 8 5.52499C8 5.80114 7.77614 6.02499 7.5 6.02499C7.22386 6.02499 7 5.80114 7 5.52499ZM13 5.52499C13 5.24885 13.2239 5.02499 13.5 5.02499C13.7761 5.02499 14 5.24885 14 5.52499C14 5.80114 13.7761 6.02499 13.5 6.02499C13.2239 6.02499 13 5.80114 13 5.52499ZM13 3.52499C13 3.24885 13.2239 3.02499 13.5 3.02499C13.7761 3.02499 14 3.24885 14 3.52499C14 3.80114 13.7761 4.02499 13.5 4.02499C13.2239 4.02499 13 3.80114 13 3.52499ZM7.5 7.02499C7.22386 7.02499 7 7.24885 7 7.52499C7 7.80114 7.22386 8.02499 7.5 8.02499C7.77614 8.02499 8 7.80114 8 7.52499C8 7.24885 7.77614 7.02499 7.5 7.02499ZM7 13.5254C7 13.2492 7.22386 13.0254 7.5 13.0254C7.77614 13.0254 8 13.2492 8 13.5254C8 13.8015 7.77614 14.0254 7.5 14.0254C7.22386 14.0254 7 13.8015 7 13.5254ZM13 7.52499C13 7.24885 13.2239 7.02499 13.5 7.02499C13.7761 7.02499 14 7.24885 14 7.52499C14 7.80114 13.7761 8.02499 13.5 8.02499C13.2239 8.02499 13 7.80114 13 7.52499ZM13.5 13.0254C13.2239 13.0254 13 13.2492 13 13.5254C13 13.8015 13.2239 14.0254 13.5 14.0254C13.7761 14.0254 14 13.8015 14 13.5254C14 13.2492 13.7761 13.0254 13.5 13.0254ZM13 1.52499C13 1.24885 13.2239 1.02499 13.5 1.02499C13.7761 1.02499 14 1.24885 14 1.52499C14 1.80114 13.7761 2.02499 13.5 2.02499C13.2239 2.02499 13 1.80114 13 1.52499ZM5.5 7.02499C5.22386 7.02499 5 7.24885 5 7.52499C5 7.80114 5.22386 8.02499 5.5 8.02499C5.77614 8.02499 6 7.80114 6 7.52499C6 7.24885 5.77614 7.02499 5.5 7.02499ZM5 13.5254C5 13.2492 5.22386 13.0254 5.5 13.0254C5.77614 13.0254 6 13.2492 6 13.5254C6 13.8015 5.77614 14.0254 5.5 14.0254C5.22386 14.0254 5 13.8015 5 13.5254ZM5.5 1.02499C5.22386 1.02499 5 1.24885 5 1.52499C5 1.80114 5.22386 2.02499 5.5 2.02499C5.77614 2.02499 6 1.80114 6 1.52499C6 1.24885 5.77614 1.02499 5.5 1.02499ZM3 7.52499C3 7.24885 3.22386 7.02499 3.5 7.02499C3.77614 7.02499 4 7.24885 4 7.52499C4 7.80114 3.77614 8.02499 3.5 8.02499C3.22386 8.02499 3 7.80114 3 7.52499ZM3.5 13.0254C3.22386 13.0254 3 13.2492 3 13.5254C3 13.8015 3.22386 14.0254 3.5 14.0254C3.77614 14.0254 4 13.8015 4 13.5254C4 13.2492 3.77614 13.0254 3.5 13.0254ZM3 1.52499C3 1.24885 3.22386 1.02499 3.5 1.02499C3.77614 1.02499 4 1.24885 4 1.52499C4 1.80114 3.77614 2.02499 3.5 2.02499C3.22386 2.02499 3 1.80114 3 1.52499ZM9.5 7.02499C9.22386 7.02499 9 7.24885 9 7.52499C9 7.80114 9.22386 8.02499 9.5 8.02499C9.77614 8.02499 10 7.80114 10 7.52499C10 7.24885 9.77614 7.02499 9.5 7.02499ZM9 13.5254C9 13.2492 9.22386 13.0254 9.5 13.0254C9.77614 13.0254 10 13.2492 10 13.5254C10 13.8015 9.77614 14.0254 9.5 14.0254C9.22386 14.0254 9 13.8015 9 13.5254ZM9.5 1.02499C9.22386 1.02499 9 1.24885 9 1.52499C9 1.80114 9.22386 2.02499 9.5 2.02499C9.77614 2.02499 10 1.80114 10 1.52499C10 1.24885 9.77614 1.02499 9.5 1.02499ZM11 7.52499C11 7.24885 11.2239 7.02499 11.5 7.02499C11.7761 7.02499 12 7.24885 12 7.52499C12 7.80114 11.7761 8.02499 11.5 8.02499C11.2239 8.02499 11 7.80114 11 7.52499ZM11.5 13.0254C11.2239 13.0254 11 13.2492 11 13.5254C11 13.8015 11.2239 14.0254 11.5 14.0254C11.7761 14.0254 12 13.8015 12 13.5254C12 13.2492 11.7761 13.0254 11.5 13.0254ZM11 1.52499C11 1.24885 11.2239 1.02499 11.5 1.02499C11.7761 1.02499 12 1.24885 12 1.52499C12 1.80114 11.7761 2.02499 11.5 2.02499C11.2239 2.02499 11 1.80114 11 1.52499ZM7.5 9.02499C7.22386 9.02499 7 9.24885 7 9.52499C7 9.80114 7.22386 10.025 7.5 10.025C7.77614 10.025 8 9.80114 8 9.52499C8 9.24885 7.77614 9.02499 7.5 9.02499ZM13 9.52499C13 9.24885 13.2239 9.02499 13.5 9.02499C13.7761 9.02499 14 9.24885 14 9.52499C14 9.80114 13.7761 10.025 13.5 10.025C13.2239 10.025 13 9.80114 13 9.52499ZM7.5 11.025C7.22386 11.025 7 11.2489 7 11.525C7 11.8011 7.22386 12.025 7.5 12.025C7.77614 12.025 8 11.8011 8 11.525C8 11.2489 7.77614 11.025 7.5 11.025ZM13 11.525C13 11.2489 13.2239 11.025 13.5 11.025C13.7761 11.025 14 11.2489 14 11.525C14 11.8011 13.7761 12.025 13.5 12.025C13.2239 12.025 13 11.8011 13 11.525ZM1.5 5.02499C1.22386 5.02499 1 5.24885 1 5.52499C1 5.80114 1.22386 6.02499 1.5 6.02499C1.77614 6.02499 2 5.80114 2 5.52499C2 5.24885 1.77614 5.02499 1.5 5.02499ZM1 3.52499C1 3.24885 1.22386 3.02499 1.5 3.02499C1.77614 3.02499 2 3.24885 2 3.52499C2 3.80114 1.77614 4.02499 1.5 4.02499C1.22386 4.02499 1 3.80114 1 3.52499ZM1.5 7.02499C1.22386 7.02499 1 7.24885 1 7.52499C1 7.80114 1.22386 8.02499 1.5 8.02499C1.77614 8.02499 2 7.80114 2 7.52499C2 7.24885 1.77614 7.02499 1.5 7.02499ZM1 13.5254C1 13.2492 1.22386 13.0254 1.5 13.0254C1.77614 13.0254 2 13.2492 2 13.5254C2 13.8015 1.77614 14.0254 1.5 14.0254C1.22386 14.0254 1 13.8015 1 13.5254ZM1.5 1.02499C1.22386 1.02499 1 1.24885 1 1.52499C1 1.80114 1.22386 2.02499 1.5 2.02499C1.77614 2.02499 2 1.80114 2 1.52499C2 1.24885 1.77614 1.02499 1.5 1.02499ZM1 9.52499C1 9.24885 1.22386 9.02499 1.5 9.02499C1.77614 9.02499 2 9.24885 2 9.52499C2 9.80114 1.77614 10.025 1.5 10.025C1.22386 10.025 1 9.80114 1 9.52499ZM1.5 11.025C1.22386 11.025 1 11.2489 1 11.525C1 11.8011 1.22386 12.025 1.5 12.025C1.77614 12.025 2 11.8011 2 11.525C2 11.2489 1.77614 11.025 1.5 11.025Z"
    fill="currentColor"
  />
</svg>
