<svg width="15" height="15" viewBox="0 0 15 15" fill="none" xmlns="http://www.w3.org/2000/svg">
  <path
    fill-rule="evenodd"
    clip-rule="evenodd"
    d="M13.25 1L13.25 14L14.75 14L14.75 1L13.25 1ZM5.5 7C5.22385 7 5 7.22386 5 7.5C5 7.77614 5.22385 8 5.5 8C5.77614 8 6 7.77614 6 7.5C6 7.22386 5.77614 7 5.5 7ZM5 13.5C5 13.2239 5.22385 13 5.5 13C5.77614 13 6 13.2239 6 13.5C6 13.7761 5.77614 14 5.5 14C5.22385 14 5 13.7761 5 13.5ZM3.5 7C3.22385 7 3 7.22386 3 7.5C3 7.77614 3.22385 8 3.5 8C3.77614 8 4 7.77614 4 7.5C4 7.22386 3.77614 7 3.5 7ZM3 13.5C3 13.2239 3.22386 13 3.5 13C3.77614 13 4 13.2239 4 13.5C4 13.7761 3.77614 14 3.5 14C3.22386 14 3 13.7761 3 13.5ZM7.5 7C7.22385 7 7 7.22386 7 7.5C7 7.77614 7.22385 8 7.5 8C7.77614 8 8 7.77614 8 7.5C8 7.22386 7.77614 7 7.5 7ZM0.999998 7.5C0.999998 7.22386 1.22386 7 1.5 7C1.77614 7 2 7.22386 2 7.5C2 7.77614 1.77614 8 1.5 8C1.22386 8 0.999998 7.77614 0.999998 7.5ZM7.5 13C7.22385 13 7 13.2239 7 13.5C7 13.7761 7.22385 14 7.5 14C7.77614 14 8 13.7761 8 13.5C8 13.2239 7.77614 13 7.5 13ZM0.999998 13.5C0.999998 13.2239 1.22386 13 1.5 13C1.77614 13 2 13.2239 2 13.5C2 13.7761 1.77614 14 1.5 14C1.22386 14 0.999998 13.7761 0.999998 13.5ZM7.5 5C7.22385 5 7 5.22386 7 5.5C7 5.77614 7.22385 6 7.5 6C7.77614 6 8 5.77614 8 5.5C8 5.22386 7.77614 5 7.5 5ZM0.999997 5.5C0.999997 5.22386 1.22386 5 1.5 5C1.77614 5 2 5.22386 2 5.5C2 5.77614 1.77614 6 1.5 6C1.22386 6 0.999997 5.77614 0.999997 5.5ZM7.5 3C7.22385 3 7 3.22386 7 3.5C7 3.77614 7.22385 4 7.5 4C7.77614 4 8 3.77614 8 3.5C8 3.22386 7.77614 3 7.5 3ZM0.999998 3.5C0.999998 3.22386 1.22386 3 1.5 3C1.77614 3 2 3.22386 2 3.5C2 3.77614 1.77614 4 1.5 4C1.22386 4 0.999998 3.77614 0.999998 3.5ZM7.5 9C7.22385 9 7 9.22386 7 9.5C7 9.77614 7.22385 10 7.5 10C7.77614 10 8 9.77614 8 9.5C8 9.22386 7.77614 9 7.5 9ZM0.999997 9.5C0.999997 9.22386 1.22385 9 1.5 9C1.77614 9 2 9.22386 2 9.5C2 9.77614 1.77614 10 1.5 10C1.22385 10 0.999997 9.77614 0.999997 9.5ZM7.5 11C7.22385 11 7 11.2239 7 11.5C7 11.7761 7.22386 12 7.5 12C7.77614 12 8 11.7761 8 11.5C8 11.2239 7.77614 11 7.5 11ZM0.999998 11.5C0.999998 11.2239 1.22386 11 1.5 11C1.77614 11 2 11.2239 2 11.5C2 11.7761 1.77614 12 1.5 12C1.22386 12 0.999998 11.7761 0.999998 11.5ZM9.5 7C9.22385 7 9 7.22386 9 7.5C9 7.77614 9.22385 8 9.5 8C9.77614 8 10 7.77614 10 7.5C10 7.22386 9.77614 7 9.5 7ZM9 13.5C9 13.2239 9.22385 13 9.5 13C9.77614 13 10 13.2239 10 13.5C10 13.7761 9.77614 14 9.5 14C9.22385 14 9 13.7761 9 13.5ZM11.5 7C11.2239 7 11 7.22386 11 7.5C11 7.77614 11.2239 8 11.5 8C11.7761 8 12 7.77614 12 7.5C12 7.22386 11.7761 7 11.5 7ZM11 13.5C11 13.2239 11.2239 13 11.5 13C11.7761 13 12 13.2239 12 13.5C12 13.7761 11.7761 14 11.5 14C11.2239 14 11 13.7761 11 13.5ZM5.5 0.999998C5.22386 0.999998 5 1.22386 5 1.5C5 1.77614 5.22385 2 5.5 2C5.77614 2 6 1.77614 6 1.5C6 1.22386 5.77614 0.999998 5.5 0.999998ZM3 1.5C3 1.22386 3.22386 0.999998 3.5 0.999998C3.77614 0.999998 4 1.22386 4 1.5C4 1.77614 3.77614 2 3.5 2C3.22386 2 3 1.77614 3 1.5ZM7.5 0.999999C7.22385 0.999999 7 1.22386 7 1.5C7 1.77614 7.22385 2 7.5 2C7.77614 2 8 1.77614 8 1.5C8 1.22386 7.77614 0.999999 7.5 0.999999ZM0.999998 1.5C0.999998 1.22386 1.22386 0.999998 1.5 0.999998C1.77614 0.999998 2 1.22386 2 1.5C2 1.77614 1.77614 2 1.5 2C1.22386 2 0.999998 1.77614 0.999998 1.5ZM9.5 0.999999C9.22386 0.999999 9 1.22386 9 1.5C9 1.77614 9.22385 2 9.5 2C9.77614 2 10 1.77614 10 1.5C10 1.22386 9.77614 0.999999 9.5 0.999999ZM11 1.5C11 1.22386 11.2239 0.999999 11.5 0.999999C11.7761 0.999999 12 1.22386 12 1.5C12 1.77614 11.7761 2 11.5 2C11.2239 2 11 1.77614 11 1.5Z"
    fill="currentColor"
  />
</svg>
