<svg width="15" height="15" fill="none" xmlns="http://www.w3.org/2000/svg" viewBox="0 0 15 15">
  <path
    fill-rule="evenodd"
    clip-rule="evenodd"
    d="M1.75 1L1.75 14H0.25V1H1.75ZM9.49999 7C9.77614 7 9.99999 7.22386 9.99999 7.5C9.99999 7.77614 9.77614 8 9.49999 8C9.22385 8 8.99999 7.77614 8.99999 7.5C8.99999 7.22386 9.22385 7 9.49999 7ZM9.99999 13.5C9.99999 13.2239 9.77614 13 9.49999 13C9.22385 13 8.99999 13.2239 8.99999 13.5C8.99999 13.7761 9.22385 14 9.49999 14C9.77614 14 9.99999 13.7761 9.99999 13.5ZM11.5 7C11.7761 7 12 7.22386 12 7.5C12 7.77614 11.7761 8 11.5 8C11.2239 8 11 7.77614 11 7.5C11 7.22386 11.2239 7 11.5 7ZM12 13.5C12 13.2239 11.7761 13 11.5 13C11.2239 13 11 13.2239 11 13.5C11 13.7761 11.2239 14 11.5 14C11.7761 14 12 13.7761 12 13.5ZM7.49999 7C7.77614 7 7.99999 7.22386 7.99999 7.5C7.99999 7.77614 7.77614 8 7.49999 8C7.22385 8 6.99999 7.77614 6.99999 7.5C6.99999 7.22386 7.22385 7 7.49999 7ZM14 7.5C14 7.22386 13.7761 7 13.5 7C13.2239 7 13 7.22386 13 7.5C13 7.77614 13.2239 8 13.5 8C13.7761 8 14 7.77614 14 7.5ZM7.49999 13C7.77614 13 7.99999 13.2239 7.99999 13.5C7.99999 13.7761 7.77614 14 7.49999 14C7.22385 14 6.99999 13.7761 6.99999 13.5C6.99999 13.2239 7.22385 13 7.49999 13ZM14 13.5C14 13.2239 13.7761 13 13.5 13C13.2239 13 13 13.2239 13 13.5C13 13.7761 13.2239 14 13.5 14C13.7761 14 14 13.7761 14 13.5ZM7.49999 5C7.77614 5 7.99999 5.22386 7.99999 5.5C7.99999 5.77614 7.77614 6 7.49999 6C7.22385 6 6.99999 5.77614 6.99999 5.5C6.99999 5.22386 7.22385 5 7.49999 5ZM14 5.5C14 5.22386 13.7761 5 13.5 5C13.2239 5 13 5.22386 13 5.5C13 5.77614 13.2239 6 13.5 6C13.7761 6 14 5.77614 14 5.5ZM7.49999 3C7.77614 3 7.99999 3.22386 7.99999 3.5C7.99999 3.77614 7.77614 4 7.49999 4C7.22385 4 6.99999 3.77614 6.99999 3.5C6.99999 3.22386 7.22385 3 7.49999 3ZM14 3.5C14 3.22386 13.7761 3 13.5 3C13.2239 3 13 3.22386 13 3.5C13 3.77614 13.2239 4 13.5 4C13.7761 4 14 3.77614 14 3.5ZM7.49999 9C7.77614 9 7.99999 9.22386 7.99999 9.5C7.99999 9.77614 7.77614 10 7.49999 10C7.22385 10 6.99999 9.77614 6.99999 9.5C6.99999 9.22386 7.22385 9 7.49999 9ZM14 9.5C14 9.22386 13.7761 9 13.5 9C13.2239 9 13 9.22386 13 9.5C13 9.77614 13.2239 10 13.5 10C13.7761 10 14 9.77614 14 9.5ZM7.49999 11C7.77614 11 7.99999 11.2239 7.99999 11.5C7.99999 11.7761 7.77614 12 7.49999 12C7.22385 12 6.99999 11.7761 6.99999 11.5C6.99999 11.2239 7.22385 11 7.49999 11ZM14 11.5C14 11.2239 13.7761 11 13.5 11C13.2239 11 13 11.2239 13 11.5C13 11.7761 13.2239 12 13.5 12C13.7761 12 14 11.7761 14 11.5ZM5.49999 7C5.77614 7 5.99999 7.22386 5.99999 7.5C5.99999 7.77614 5.77614 8 5.49999 8C5.22385 8 4.99999 7.77614 4.99999 7.5C4.99999 7.22386 5.22385 7 5.49999 7ZM5.99999 13.5C5.99999 13.2239 5.77614 13 5.49999 13C5.22385 13 4.99999 13.2239 4.99999 13.5C4.99999 13.7761 5.22385 14 5.49999 14C5.77614 14 5.99999 13.7761 5.99999 13.5ZM3.49999 7C3.77614 7 3.99999 7.22386 3.99999 7.5C3.99999 7.77614 3.77614 8 3.49999 8C3.22385 8 2.99999 7.77614 2.99999 7.5C2.99999 7.22386 3.22385 7 3.49999 7ZM3.99999 13.5C3.99999 13.2239 3.77614 13 3.49999 13C3.22385 13 2.99999 13.2239 2.99999 13.5C2.99999 13.7761 3.22385 14 3.49999 14C3.77614 14 3.99999 13.7761 3.99999 13.5ZM9.49999 1C9.77614 1 9.99999 1.22386 9.99999 1.5C9.99999 1.77614 9.77614 2 9.49999 2C9.22385 2 8.99999 1.77614 8.99999 1.5C8.99999 1.22386 9.22385 1 9.49999 1ZM12 1.5C12 1.22386 11.7761 1 11.5 1C11.2239 1 11 1.22386 11 1.5C11 1.77614 11.2239 2 11.5 2C11.7761 2 12 1.77614 12 1.5ZM7.49999 1C7.77614 1 7.99999 1.22386 7.99999 1.5C7.99999 1.77614 7.77614 2 7.49999 2C7.22385 2 6.99999 1.77614 6.99999 1.5C6.99999 1.22386 7.22385 1 7.49999 1ZM14 1.5C14 1.22386 13.7761 1 13.5 1C13.2239 1 13 1.22386 13 1.5C13 1.77614 13.2239 2 13.5 2C13.7761 2 14 1.77614 14 1.5ZM5.49999 1C5.77614 1 5.99999 1.22386 5.99999 1.5C5.99999 1.77614 5.77614 2 5.49999 2C5.22385 2 4.99999 1.77614 4.99999 1.5C4.99999 1.22386 5.22385 1 5.49999 1ZM3.99999 1.5C3.99999 1.22386 3.77614 1 3.49999 1C3.22385 1 2.99999 1.22386 2.99999 1.5C2.99999 1.77614 3.22385 2 3.49999 2C3.77614 2 3.99999 1.77614 3.99999 1.5Z"
    fill="currentColor"
  />
</svg>
