<svg width="15" height="15" fill="none" xmlns="http://www.w3.org/2000/svg" viewBox="0 0 15 15">
  <path
    fill-rule="evenodd"
    clip-rule="evenodd"
    d="M1.50001 0.999953C1.22386 0.999953 1.00001 1.22381 1.00001 1.49995V5.99995H2.00001V1.99995H6.00001V0.999953H1.50001ZM9.00001 1.99995H13V5.99995H14V1.49995C14 1.22381 13.7761 0.999953 13.5 0.999953H9.00001V1.99995ZM1.00001 8.99995V13.5C1.00001 13.7761 1.22386 14 1.50001 14H6.00001V13H2.00001V8.99995H1.00001ZM13 8.99995V13H9.50001V14H13.5C13.7761 14 14 13.7761 14 13.5V8.99995H13ZM7 1.525C7 1.24886 7.22386 1.025 7.5 1.025C7.77614 1.025 8 1.24886 8 1.525C8 1.80114 7.77614 2.025 7.5 2.025C7.22386 2.025 7 1.80114 7 1.525ZM7.5 3.025C7.22386 3.025 7 3.24886 7 3.525C7 3.80114 7.22386 4.025 7.5 4.025C7.77614 4.025 8 3.80114 8 3.525C8 3.24886 7.77614 3.025 7.5 3.025ZM7.5 5.025C7.22386 5.025 7 5.24886 7 5.525C7 5.80114 7.22386 6.025 7.5 6.025C7.77614 6.025 8 5.80114 8 5.525C8 5.24886 7.77614 5.025 7.5 5.025ZM7 7.525C7 7.24886 7.22386 7.025 7.5 7.025C7.77614 7.025 8 7.24886 8 7.525C8 7.80114 7.77614 8.025 7.5 8.025C7.22386 8.025 7 7.80114 7 7.525ZM7.5 13.0254C7.22386 13.0254 7 13.2492 7 13.5254C7 13.8015 7.22386 14.0254 7.5 14.0254C7.77614 14.0254 8 13.8015 8 13.5254C8 13.2492 7.77614 13.0254 7.5 13.0254ZM13.5 7.025C13.2239 7.025 13 7.24886 13 7.525C13 7.80114 13.2239 8.025 13.5 8.025C13.7761 8.025 14 7.80114 14 7.525C14 7.24886 13.7761 7.025 13.5 7.025ZM5 7.525C5 7.24886 5.22386 7.025 5.5 7.025C5.77614 7.025 6 7.24886 6 7.525C6 7.80114 5.77614 8.025 5.5 8.025C5.22386 8.025 5 7.80114 5 7.525ZM3.5 7.025C3.22386 7.025 3 7.24886 3 7.525C3 7.80114 3.22386 8.025 3.5 8.025C3.77614 8.025 4 7.80114 4 7.525C4 7.24886 3.77614 7.025 3.5 7.025ZM9 7.525C9 7.24886 9.22386 7.025 9.5 7.025C9.77614 7.025 10 7.24886 10 7.525C10 7.80114 9.77614 8.025 9.5 8.025C9.22386 8.025 9 7.80114 9 7.525ZM11.5 7.025C11.2239 7.025 11 7.24886 11 7.525C11 7.80114 11.2239 8.025 11.5 8.025C11.7761 8.025 12 7.80114 12 7.525C12 7.24886 11.7761 7.025 11.5 7.025ZM7 9.525C7 9.24886 7.22386 9.025 7.5 9.025C7.77614 9.025 8 9.24886 8 9.525C8 9.80114 7.77614 10.025 7.5 10.025C7.22386 10.025 7 9.80114 7 9.525ZM7.5 11.025C7.22386 11.025 7 11.2489 7 11.525C7 11.8011 7.22386 12.025 7.5 12.025C7.77614 12.025 8 11.8011 8 11.525C8 11.2489 7.77614 11.025 7.5 11.025ZM1 7.525C1 7.24886 1.22386 7.025 1.5 7.025C1.77614 7.025 2 7.24886 2 7.525C2 7.80114 1.77614 8.025 1.5 8.025C1.22386 8.025 1 7.80114 1 7.525Z"
    fill="currentColor"
  />
</svg>
