<svg width="15" height="15" viewBox="0 0 15 15" fill="none" xmlns="http://www.w3.org/2000/svg">
  <path
    fill-rule="evenodd"
    clip-rule="evenodd"
    d="M1.09998 1.99998C1.09998 1.50292 1.50292 1.09998 1.99998 1.09998H13C13.497 1.09998 13.9 1.50292 13.9 1.99998V13C13.9 13.497 13.497 13.9 13 13.9H1.99998C1.50292 13.9 1.09998 13.497 1.09998 13V1.99998ZM2.32424 1.89998L4.61194 4.18767C4.72943 4.13145 4.86102 4.09996 4.99996 4.09996H9.99996C10.1389 4.09996 10.2705 4.13145 10.388 4.18768L12.6757 1.89998H2.32424ZM13.1 2.32424L10.8123 4.61196C10.8685 4.72944 10.9 4.86103 10.9 4.99996V9.99996C10.9 10.1389 10.8685 10.2705 10.8123 10.388L13.1 12.6757V2.32424ZM12.6757 13.1L10.388 10.8123C10.2705 10.8685 10.1389 10.9 9.99996 10.9H4.99996C4.86103 10.9 4.72944 10.8685 4.61196 10.8123L2.32424 13.1H12.6757ZM1.89998 12.6757L4.18768 10.388C4.13145 10.2705 4.09996 10.1389 4.09996 9.99996V4.99996C4.09996 4.86102 4.13145 4.72943 4.18767 4.61194L1.89998 2.32424V12.6757ZM4.99996 4.89996C4.94473 4.89996 4.89996 4.94473 4.89996 4.99996V9.99996C4.89996 10.0552 4.94473 10.1 4.99996 10.1H9.99996C10.0552 10.1 10.1 10.0552 10.1 9.99996V4.99996C10.1 4.94473 10.0552 4.89996 9.99996 4.89996H4.99996Z"
    fill="currentColor"
  />
</svg>
