<svg width="15" height="15" fill="none" xmlns="http://www.w3.org/2000/svg">
  <path
    fill-rule="evenodd"
    clip-rule="evenodd"
    d="M7.1465 1.48957C7.34176 1.29431 7.65835 1.29431 7.85361 1.48957C8.04887 1.68483 8.04887 2.00142 7.85361 2.19668C7.78039 2.2699 7.6901 2.31567 7.59555 2.33397C7.52464 2.3477 7.45133 2.34598 7.38102 2.32882C7.29508 2.30785 7.21362 2.2638 7.1465 2.19668C6.95124 2.00142 6.95124 1.68483 7.1465 1.48957ZM8.56071 2.90378C8.75598 2.70852 9.07256 2.70852 9.26782 2.90378C9.46308 3.09905 9.46308 3.41563 9.26782 3.61089C9.07256 3.80615 8.75598 3.80615 8.56071 3.61089C8.36545 3.41563 8.36545 3.09905 8.56071 2.90378ZM9.97493 4.318C10.1702 4.12274 10.4868 4.12274 10.682 4.318C10.8773 4.51326 10.8773 4.82984 10.682 5.02511C10.4868 5.22037 10.1702 5.22037 9.97493 5.0251C9.77967 4.82984 9.77967 4.51326 9.97493 4.318ZM11.3891 5.73221C11.5844 5.53695 11.901 5.53695 12.0962 5.73221C12.2915 5.92747 12.2915 6.24406 12.0962 6.43932C11.901 6.63458 11.5844 6.63458 11.3891 6.43932C11.1939 6.24406 11.1939 5.92747 11.3891 5.73221ZM12.8034 7.14642C12.9986 6.95116 13.3152 6.95116 13.5105 7.14642C13.7057 7.34169 13.7057 7.65827 13.5105 7.85353C13.3152 8.04879 12.9986 8.04879 12.8034 7.85353C12.6081 7.65827 12.6081 7.34169 12.8034 7.14642ZM6.43939 2.90378C6.63466 3.09905 6.63466 3.41563 6.43939 3.61089C6.24413 3.80615 5.92755 3.80615 5.73229 3.61089C5.53703 3.41563 5.53703 3.09905 5.73229 2.90378C5.92755 2.70852 6.24413 2.70852 6.43939 2.90378ZM12.0962 8.56064C12.2915 8.7559 12.2915 9.07248 12.0962 9.26775C11.901 9.46301 11.5844 9.46301 11.3891 9.26775C11.1939 9.07248 11.1939 8.7559 11.3891 8.56064C11.5844 8.36538 11.901 8.36538 12.0962 8.56064ZM5.02518 4.318C5.22044 4.51326 5.22044 4.82984 5.02518 5.0251C4.82992 5.22037 4.51334 5.22037 4.31807 5.02511C4.12281 4.82984 4.12281 4.51326 4.31807 4.318C4.51334 4.12274 4.82992 4.12274 5.02518 4.318ZM10.682 9.97485C10.8773 10.1701 10.8773 10.4867 10.682 10.682C10.4868 10.8772 10.1702 10.8772 9.97493 10.682C9.77967 10.4867 9.77967 10.1701 9.97493 9.97485C10.1702 9.77959 10.4868 9.77959 10.682 9.97485ZM3.61097 5.73221C3.80623 5.92747 3.80623 6.24406 3.61097 6.43932C3.4157 6.63458 3.09912 6.63458 2.90386 6.43932C2.7086 6.24406 2.7086 5.92747 2.90386 5.73221C3.09912 5.53695 3.41571 5.53695 3.61097 5.73221ZM9.26782 11.3891C9.46308 11.5843 9.46308 11.9009 9.26782 12.0962C9.07256 12.2914 8.75598 12.2914 8.56071 12.0962C8.36545 11.9009 8.36545 11.5843 8.56072 11.3891C8.75598 11.1938 9.07256 11.1938 9.26782 11.3891ZM2.19675 7.14642C2.39202 7.34169 2.39202 7.65827 2.19675 7.85353C2.00149 8.04879 1.68491 8.04879 1.48965 7.85353C1.29439 7.65827 1.29439 7.34169 1.48965 7.14642C1.68491 6.95116 2.00149 6.95116 2.19675 7.14642ZM7.85361 12.8033C8.04887 12.9985 8.04887 13.3151 7.85361 13.5104C7.65835 13.7056 7.34176 13.7056 7.1465 13.5104C6.95124 13.3151 6.95124 12.9985 7.1465 12.8033C7.32956 12.6202 7.61925 12.6088 7.81563 12.769C7.82873 12.7796 7.8414 12.7911 7.85361 12.8033ZM2.90386 8.56064C3.09912 8.36538 3.41571 8.36538 3.61097 8.56064C3.80623 8.7559 3.80623 9.07248 3.61097 9.26775C3.41571 9.46301 3.09912 9.46301 2.90386 9.26775C2.7086 9.07248 2.7086 8.7559 2.90386 8.56064ZM4.31807 9.97485C4.51334 9.77959 4.82992 9.77959 5.02518 9.97485C5.22044 10.1701 5.22044 10.4867 5.02518 10.682C4.82992 10.8772 4.51334 10.8772 4.31807 10.682C4.12281 10.4867 4.12281 10.1701 4.31807 9.97485ZM5.73229 11.3891C5.92755 11.1938 6.24413 11.1938 6.43939 11.3891C6.63466 11.5843 6.63466 11.9009 6.43939 12.0962C6.24413 12.2914 5.92755 12.2914 5.73229 12.0962C5.53703 11.9009 5.53703 11.5843 5.73229 11.3891Z"
    fill="currentColor"
  />
</svg>
