<svg width="15" height="15" viewBox="0 0 15 15" fill="none" xmlns="http://www.w3.org/2000/svg">
  <path
    fill-rule="evenodd"
    clip-rule="evenodd"
    d="M7.85361 1.48959L9.79814 3.43412L9.09103 4.14122L7.50005 2.55025L2.55031 7.49999L4.14128 9.09097L3.43418 9.79808L1.48965 7.85355C1.29439 7.65829 1.29439 7.3417 1.48965 7.14644L7.1465 1.48959C7.34176 1.29432 7.65835 1.29432 7.85361 1.48959ZM10.8588 5.90899L11.5659 5.20188L13.5105 7.14644C13.7057 7.3417 13.7057 7.65829 13.5105 7.85355L7.85361 13.5104C7.65835 13.7057 7.34176 13.7057 7.1465 13.5104L5.20194 11.5658L5.90905 10.8587L7.50005 12.4497L12.4498 7.49999L10.8588 5.90899ZM13.3536 2.35355C13.5488 2.15829 13.5488 1.84171 13.3536 1.64645C13.1583 1.45118 12.8417 1.45118 12.6465 1.64645L1.64645 12.6464C1.45119 12.8417 1.45119 13.1583 1.64645 13.3536C1.84172 13.5488 2.1583 13.5488 2.35356 13.3536L13.3536 2.35355Z"
    fill="currentColor"
  />
</svg>
