<svg width="15" height="15" fill="none" xmlns="http://www.w3.org/2000/svg">
  <path
    fill-rule="evenodd"
    clip-rule="evenodd"
    d="M12.9 7.49994C12.9 4.78954 10.7877 2.09995 7.50001 2.09995C5.27015 2.09995 4.02317 3.3029 2.64208 4.99997H4.5C4.77614 4.99997 5 5.22382 5 5.49997C5 5.77611 4.77614 5.99997 4.5 5.99997H1.5C1.22386 5.99997 1 5.77611 1 5.49997V2.49997C1 2.22382 1.22386 1.99997 1.5 1.99997C1.77614 1.99997 2 2.22382 2 2.49997V4.20524C3.37298 2.53832 4.87335 1.09995 7.50001 1.09995C11.4103 1.09995 13.9 4.31034 13.9 7.49994C13.9 10.6895 11.4103 13.8999 7.50001 13.8999C5.62953 13.8999 4.07175 13.1597 2.96263 12.0312C2.36885 11.427 1.90516 10.7133 1.58902 9.94514C1.48393 9.68978 1.60574 9.39757 1.86111 9.29247C2.11647 9.18738 2.40868 9.30919 2.51377 9.56456C2.78222 10.2168 3.17528 10.8209 3.67584 11.3302C4.60449 12.2751 5.90831 12.8999 7.50001 12.8999C10.7877 12.8999 12.9 10.2103 12.9 7.49994ZM7 10V5H8V10H7Z"
    fill="currentColor"
  />
</svg>
