<svg width="15" height="15" fill="none" xmlns="http://www.w3.org/2000/svg" viewBox="0 0 15 15">
  <path
    fill-rule="evenodd"
    clip-rule="evenodd"
    d="M3.1 1H3.08073C2.81715 0.999991 2.58977 0.999983 2.40249 1.01529C2.20481 1.03144 2.00821 1.06709 1.81902 1.16349C1.53677 1.3073 1.3073 1.53677 1.16349 1.81901C1.06709 2.0082 1.03144 2.20481 1.01529 2.40249C0.999985 2.58977 0.999992 2.81714 1 3.08071V3.08073V3.1V4.9V4.91927V4.9193C0.999992 5.18286 0.999985 5.41023 1.01529 5.59751C1.03144 5.79519 1.06709 5.9918 1.16349 6.18099C1.3073 6.46323 1.53677 6.6927 1.81902 6.83651C2.00821 6.93291 2.20481 6.96857 2.40249 6.98472C2.58977 7.00002 2.81715 7.00001 3.08072 7H3.08074H3.1H4.9H4.91926H4.91928C5.18285 7.00001 5.41023 7.00002 5.59752 6.98472C5.79519 6.96857 5.9918 6.93291 6.18099 6.83651C6.46323 6.6927 6.6927 6.46323 6.83651 6.18099C6.93291 5.9918 6.96857 5.79519 6.98472 5.59751C7.00002 5.41023 7.00001 5.18285 7 4.91928V4.91926V4.9V3.1V3.08074V3.08072C7.00001 2.81715 7.00002 2.58977 6.98472 2.40249C6.96857 2.20481 6.93291 2.0082 6.83651 1.81901C6.6927 1.53677 6.46323 1.3073 6.18099 1.16349C5.9918 1.06709 5.79519 1.03144 5.59752 1.01529C5.41023 0.999983 5.18285 0.999991 4.91927 1H4.9H3.1ZM2.27301 2.0545C2.29773 2.0419 2.34809 2.02306 2.48392 2.01196C2.62559 2.00039 2.81172 2 3.1 2H4.9C5.18828 2 5.37441 2.00039 5.51608 2.01196C5.65192 2.02306 5.70227 2.0419 5.727 2.0545C5.82108 2.10243 5.89757 2.17892 5.9455 2.27301C5.9581 2.29773 5.97694 2.34809 5.98804 2.48392C5.99961 2.62559 6 2.81172 6 3.1V4.9C6 5.18828 5.99961 5.37441 5.98804 5.51608C5.97694 5.65191 5.9581 5.70227 5.9455 5.727C5.89757 5.82108 5.82108 5.89757 5.727 5.9455C5.70227 5.9581 5.65192 5.97694 5.51608 5.98804C5.37441 5.99961 5.18828 6 4.9 6H3.1C2.81172 6 2.62559 5.99961 2.48392 5.98804C2.34809 5.97694 2.29773 5.9581 2.27301 5.9455C2.17893 5.89757 2.10243 5.82108 2.0545 5.727C2.0419 5.70227 2.02306 5.65191 2.01196 5.51608C2.00039 5.37441 2 5.18828 2 4.9V3.1C2 2.81172 2.00039 2.62559 2.01196 2.48392C2.02306 2.34809 2.0419 2.29773 2.0545 2.27301C2.10243 2.17892 2.17893 2.10243 2.27301 2.0545ZM10.1 1H10.0807C9.81715 0.999991 9.58977 0.999983 9.40249 1.01529C9.20481 1.03144 9.00821 1.06709 8.81902 1.16349C8.53677 1.3073 8.3073 1.53677 8.16349 1.81901C8.06709 2.0082 8.03144 2.20481 8.01529 2.40249C7.99998 2.58977 7.99999 2.81715 8 3.08073L8 3.1V4.9L8 4.91927C7.99999 5.18285 7.99998 5.41023 8.01529 5.59751C8.03144 5.79519 8.06709 5.9918 8.16349 6.18099C8.3073 6.46323 8.53677 6.6927 8.81902 6.83651C9.00821 6.93291 9.20481 6.96857 9.40249 6.98472C9.58977 7.00002 9.81715 7.00001 10.0807 7H10.0807H10.1H11.9H11.9193H11.9193C12.1829 7.00001 12.4102 7.00002 12.5975 6.98472C12.7952 6.96857 12.9918 6.93291 13.181 6.83651C13.4632 6.6927 13.6927 6.46323 13.8365 6.18099C13.9329 5.9918 13.9686 5.79519 13.9847 5.59751C14 5.41025 14 5.18289 14 4.91935V4.91933V4.91932V4.91926V4.9V3.1V3.08074V3.08068V3.08067V3.08066C14 2.81711 14 2.58976 13.9847 2.40249C13.9686 2.20481 13.9329 2.0082 13.8365 1.81901C13.6927 1.53677 13.4632 1.3073 13.181 1.16349C12.9918 1.06709 12.7952 1.03144 12.5975 1.01529C12.4102 0.999983 12.1828 0.999991 11.9193 1H11.9H10.1ZM9.27301 2.0545C9.29773 2.0419 9.34809 2.02306 9.48392 2.01196C9.62559 2.00039 9.81172 2 10.1 2H11.9C12.1883 2 12.3744 2.00039 12.5161 2.01196C12.6519 2.02306 12.7023 2.0419 12.727 2.0545C12.8211 2.10243 12.8976 2.17892 12.9455 2.27301C12.9581 2.29773 12.9769 2.34809 12.988 2.48392C12.9996 2.62559 13 2.81172 13 3.1V4.9C13 5.18828 12.9996 5.37441 12.988 5.51608C12.9769 5.65191 12.9581 5.70227 12.9455 5.727C12.8976 5.82108 12.8211 5.89757 12.727 5.9455C12.7023 5.9581 12.6519 5.97694 12.5161 5.98804C12.3744 5.99961 12.1883 6 11.9 6H10.1C9.81172 6 9.62559 5.99961 9.48392 5.98804C9.34809 5.97694 9.29773 5.9581 9.27301 5.9455C9.17892 5.89757 9.10243 5.82108 9.0545 5.727C9.0419 5.70227 9.02306 5.65191 9.01196 5.51608C9.00039 5.37441 9 5.18828 9 4.9V3.1C9 2.81172 9.00039 2.62559 9.01196 2.48392C9.02306 2.34809 9.0419 2.29773 9.0545 2.27301C9.10243 2.17892 9.17892 2.10243 9.27301 2.0545ZM3.08073 8L3.1 8H4.9L4.91927 8C5.18285 7.99999 5.41023 7.99998 5.59752 8.01529C5.79519 8.03144 5.9918 8.0671 6.18099 8.16349C6.46323 8.3073 6.6927 8.53677 6.83651 8.81902C6.93291 9.00821 6.96857 9.20481 6.98472 9.40249C7.00002 9.58977 7.00001 9.81715 7 10.0807V10.0807V10.1V11.9V11.9193V11.9193C7.00001 12.1829 7.00002 12.4102 6.98472 12.5975C6.96857 12.7952 6.93291 12.9918 6.83651 13.181C6.6927 13.4632 6.46323 13.6927 6.18099 13.8365C5.9918 13.9329 5.79519 13.9686 5.59752 13.9847C5.41024 14 5.18288 14 4.91934 14H4.91932H4.91926H4.9H3.1H3.08074H3.08068H3.08067C2.81712 14 2.58976 14 2.40249 13.9847C2.20482 13.9686 2.00821 13.9329 1.81902 13.8365C1.53677 13.6927 1.3073 13.4632 1.16349 13.181C1.06709 12.9918 1.03144 12.7952 1.01529 12.5975C0.999985 12.4102 0.999992 12.1829 1 11.9193V11.9193V11.9V10.1V10.0807V10.0807C0.999992 9.81713 0.999985 9.58976 1.01529 9.40249C1.03144 9.20481 1.06709 9.00821 1.16349 8.81902C1.3073 8.53677 1.53677 8.3073 1.81902 8.16349C2.00821 8.0671 2.20482 8.03144 2.40249 8.01529C2.58977 7.99998 2.81716 7.99999 3.08073 8ZM2.48392 9.01196C2.34809 9.02306 2.29773 9.0419 2.27301 9.0545C2.17893 9.10244 2.10244 9.17893 2.0545 9.27301C2.0419 9.29773 2.02306 9.34809 2.01197 9.48392C2.00039 9.62559 2 9.81172 2 10.1V11.9C2 12.1883 2.00039 12.3744 2.01197 12.5161C2.02306 12.6519 2.0419 12.7023 2.0545 12.727C2.10244 12.8211 2.17893 12.8976 2.27301 12.9455C2.29773 12.9581 2.34809 12.9769 2.48392 12.988C2.62559 12.9996 2.81172 13 3.1 13H4.9C5.18828 13 5.37442 12.9996 5.51608 12.988C5.65192 12.9769 5.70228 12.9581 5.727 12.9455C5.82108 12.8976 5.89757 12.8211 5.94551 12.727C5.9581 12.7023 5.97694 12.6519 5.98804 12.5161C5.99961 12.3744 6 12.1883 6 11.9V10.1C6 9.81172 5.99961 9.62559 5.98804 9.48392C5.97694 9.34809 5.9581 9.29773 5.94551 9.27301C5.89757 9.17893 5.82108 9.10244 5.727 9.0545C5.70228 9.0419 5.65192 9.02306 5.51608 9.01196C5.37442 9.00039 5.18828 9 4.9 9H3.1C2.81172 9 2.62559 9.00039 2.48392 9.01196ZM10.1 8L10.0807 8C9.81715 7.99999 9.58977 7.99998 9.40249 8.01529C9.20481 8.03144 9.00821 8.0671 8.81902 8.16349C8.53677 8.3073 8.3073 8.53677 8.16349 8.81902C8.0671 9.00821 8.03144 9.20481 8.01529 9.40249C7.99998 9.58977 7.99999 9.81715 8 10.0807L8 10.1V11.9L8 11.9193C7.99999 12.1828 7.99998 12.4102 8.01529 12.5975C8.03144 12.7952 8.0671 12.9918 8.16349 13.181C8.3073 13.4632 8.53677 13.6927 8.81902 13.8365C9.00821 13.9329 9.20481 13.9686 9.40249 13.9847C9.58976 14 9.81713 14 10.0807 14H10.0807H10.1H11.9H11.9193H11.9193C12.1829 14 12.4102 14 12.5975 13.9847C12.7952 13.9686 12.9918 13.9329 13.181 13.8365C13.4632 13.6927 13.6927 13.4632 13.8365 13.181C13.9329 12.9918 13.9686 12.7952 13.9847 12.5975C14 12.4102 14 12.1829 14 11.9193V11.9193V11.9V10.1V10.0807V10.0807C14 9.81713 14 9.58976 13.9847 9.40249C13.9686 9.20481 13.9329 9.00821 13.8365 8.81902C13.6927 8.53677 13.4632 8.3073 13.181 8.16349C12.9918 8.0671 12.7952 8.03144 12.5975 8.01529C12.4102 7.99998 12.1828 7.99999 11.9193 8L11.9 8H10.1ZM9.27301 9.0545C9.29773 9.0419 9.34809 9.02306 9.48392 9.01196C9.62559 9.00039 9.81172 9 10.1 9H11.9C12.1883 9 12.3744 9.00039 12.5161 9.01196C12.6519 9.02306 12.7023 9.0419 12.727 9.0545C12.8211 9.10244 12.8976 9.17893 12.9455 9.27301C12.9581 9.29773 12.9769 9.34809 12.988 9.48392C12.9996 9.62559 13 9.81172 13 10.1V11.9C13 12.1883 12.9996 12.3744 12.988 12.5161C12.9769 12.6519 12.9581 12.7023 12.9455 12.727C12.8976 12.8211 12.8211 12.8976 12.727 12.9455C12.7023 12.9581 12.6519 12.9769 12.5161 12.988C12.3744 12.9996 12.1883 13 11.9 13H10.1C9.81172 13 9.62559 12.9996 9.48392 12.988C9.34809 12.9769 9.29773 12.9581 9.27301 12.9455C9.17893 12.8976 9.10244 12.8211 9.0545 12.727C9.0419 12.7023 9.02306 12.6519 9.01196 12.5161C9.00039 12.3744 9 12.1883 9 11.9V10.1C9 9.81172 9.00039 9.62559 9.01196 9.48392C9.02306 9.34809 9.0419 9.29773 9.0545 9.27301C9.10244 9.17893 9.17893 9.10244 9.27301 9.0545Z"
    fill="currentColor"
  />
</svg>
