<svg width="15" height="15" viewBox="0 0 15 15" fill="none" xmlns="http://www.w3.org/2000/svg">
  <path
    d="M5.10084 4.5C5.10084 4.83183 4.83183 5.10084 4.5 5.10084 4.16817 5.10084 3.89917 4.83183 3.89917 4.5 3.89917 4.16817 4.16817 3.89917 4.5 3.89917 4.83183 3.89917 5.10084 4.16817 5.10084 4.5zM5.10084 2.5C5.10084 2.83183 4.83183 3.10084 4.5 3.10084 4.16817 3.10084 3.89917 2.83183 3.89917 2.5 3.89917 2.16817 4.16817 1.89917 4.5 1.89917 4.83183 1.89917 5.10084 2.16817 5.10084 2.5zM5.10084 6.5C5.10084 6.83183 4.83183 7.10084 4.5 7.10084 4.16817 7.10084 3.89917 6.83183 3.89917 6.5 3.89917 6.16817 4.16817 5.89917 4.5 5.89917 4.83183 5.89917 5.10084 6.16817 5.10084 6.5zM5.10084 8.5C5.10084 8.83183 4.83183 9.10084 4.5 9.10084 4.16817 9.10084 3.89917 8.83183 3.89917 8.5 3.89917 8.16817 4.16817 7.89917 4.5 7.89917 4.83183 7.89917 5.10084 8.16817 5.10084 8.5zM5.10084 10.5C5.10084 10.8318 4.83183 11.1008 4.5 11.1008 4.16817 11.1008 3.89917 10.8318 3.89917 10.5 3.89917 10.1682 4.16817 9.89917 4.5 9.89917 4.83183 9.89917 5.10084 10.1682 5.10084 10.5zM5.10084 12.5C5.10084 12.8318 4.83183 13.1008 4.5 13.1008 4.16817 13.1008 3.89917 12.8318 3.89917 12.5 3.89917 12.1682 4.16817 11.8992 4.5 11.8992 4.83183 11.8992 5.10084 12.1682 5.10084 12.5zM7.10084 4.5C7.10084 4.83183 6.83183 5.10084 6.5 5.10084 6.16817 5.10084 5.89917 4.83183 5.89917 4.5 5.89917 4.16817 6.16817 3.89917 6.5 3.89917 6.83183 3.89917 7.10084 4.16817 7.10084 4.5zM7.10084 2.5C7.10084 2.83183 6.83183 3.10084 6.5 3.10084 6.16817 3.10084 5.89917 2.83183 5.89917 2.5 5.89917 2.16817 6.16817 1.89917 6.5 1.89917 6.83183 1.89917 7.10084 2.16817 7.10084 2.5zM7.10084 6.5C7.10084 6.83183 6.83183 7.10084 6.5 7.10084 6.16817 7.10084 5.89917 6.83183 5.89917 6.5 5.89917 6.16817 6.16817 5.89917 6.5 5.89917 6.83183 5.89917 7.10084 6.16817 7.10084 6.5zM7.10084 8.5C7.10084 8.83183 6.83183 9.10084 6.5 9.10084 6.16817 9.10084 5.89917 8.83183 5.89917 8.5 5.89917 8.16817 6.16817 7.89917 6.5 7.89917 6.83183 7.89917 7.10084 8.16817 7.10084 8.5zM7.10084 10.5C7.10084 10.8318 6.83183 11.1008 6.5 11.1008 6.16817 11.1008 5.89917 10.8318 5.89917 10.5 5.89917 10.1682 6.16817 9.89917 6.5 9.89917 6.83183 9.89917 7.10084 10.1682 7.10084 10.5zM7.10084 12.5C7.10084 12.8318 6.83183 13.1008 6.5 13.1008 6.16817 13.1008 5.89917 12.8318 5.89917 12.5 5.89917 12.1682 6.16817 11.8992 6.5 11.8992 6.83183 11.8992 7.10084 12.1682 7.10084 12.5zM9.10084 4.5C9.10084 4.83183 8.83183 5.10084 8.5 5.10084 8.16817 5.10084 7.89917 4.83183 7.89917 4.5 7.89917 4.16817 8.16817 3.89917 8.5 3.89917 8.83183 3.89917 9.10084 4.16817 9.10084 4.5zM9.10084 2.5C9.10084 2.83183 8.83183 3.10084 8.5 3.10084 8.16817 3.10084 7.89917 2.83183 7.89917 2.5 7.89917 2.16817 8.16817 1.89917 8.5 1.89917 8.83183 1.89917 9.10084 2.16817 9.10084 2.5zM9.10084 6.5C9.10084 6.83183 8.83183 7.10084 8.5 7.10084 8.16817 7.10084 7.89917 6.83183 7.89917 6.5 7.89917 6.16817 8.16817 5.89917 8.5 5.89917 8.83183 5.89917 9.10084 6.16817 9.10084 6.5zM9.10084 8.5C9.10084 8.83183 8.83183 9.10084 8.5 9.10084 8.16817 9.10084 7.89917 8.83183 7.89917 8.5 7.89917 8.16817 8.16817 7.89917 8.5 7.89917 8.83183 7.89917 9.10084 8.16817 9.10084 8.5zM9.10084 10.5C9.10084 10.8318 8.83183 11.1008 8.5 11.1008 8.16817 11.1008 7.89917 10.8318 7.89917 10.5 7.89917 10.1682 8.16817 9.89917 8.5 9.89917 8.83183 9.89917 9.10084 10.1682 9.10084 10.5zM9.10084 12.5C9.10084 12.8318 8.83183 13.1008 8.5 13.1008 8.16817 13.1008 7.89917 12.8318 7.89917 12.5 7.89917 12.1682 8.16817 11.8992 8.5 11.8992 8.83183 11.8992 9.10084 12.1682 9.10084 12.5zM11.1008 4.5C11.1008 4.83183 10.8318 5.10084 10.5 5.10084 10.1682 5.10084 9.89917 4.83183 9.89917 4.5 9.89917 4.16817 10.1682 3.89917 10.5 3.89917 10.8318 3.89917 11.1008 4.16817 11.1008 4.5z"
    fill="currentColor"
  />
  <path
    d="M11.1008 4.5C11.1008 4.83183 10.8318 5.10084 10.5 5.10084 10.1682 5.10084 9.89917 4.83183 9.89917 4.5 9.89917 4.16817 10.1682 3.89917 10.5 3.89917 10.8318 3.89917 11.1008 4.16817 11.1008 4.5zM11.1008 2.5C11.1008 2.83183 10.8318 3.10084 10.5 3.10084 10.1682 3.10084 9.89917 2.83183 9.89917 2.5 9.89917 2.16817 10.1682 1.89917 10.5 1.89917 10.8318 1.89917 11.1008 2.16817 11.1008 2.5zM11.1008 6.5C11.1008 6.83183 10.8318 7.10084 10.5 7.10084 10.1682 7.10084 9.89917 6.83183 9.89917 6.5 9.89917 6.16817 10.1682 5.89917 10.5 5.89917 10.8318 5.89917 11.1008 6.16817 11.1008 6.5z"
    fill="currentColor"
  />
  <path
    d="M11.1008 6.5C11.1008 6.83183 10.8318 7.10084 10.5 7.10084 10.1682 7.10084 9.89917 6.83183 9.89917 6.5 9.89917 6.16817 10.1682 5.89917 10.5 5.89917 10.8318 5.89917 11.1008 6.16817 11.1008 6.5zM11.1008 8.5C11.1008 8.83183 10.8318 9.10084 10.5 9.10084 10.1682 9.10084 9.89917 8.83183 9.89917 8.5 9.89917 8.16817 10.1682 7.89917 10.5 7.89917 10.8318 7.89917 11.1008 8.16817 11.1008 8.5z"
    fill="currentColor"
  />
  <path
    d="M11.1008 8.5C11.1008 8.83183 10.8318 9.10084 10.5 9.10084 10.1682 9.10084 9.89917 8.83183 9.89917 8.5 9.89917 8.16817 10.1682 7.89917 10.5 7.89917 10.8318 7.89917 11.1008 8.16817 11.1008 8.5zM11.1008 10.5C11.1008 10.8318 10.8318 11.1008 10.5 11.1008 10.1682 11.1008 9.89917 10.8318 9.89917 10.5 9.89917 10.1682 10.1682 9.89917 10.5 9.89917 10.8318 9.89917 11.1008 10.1682 11.1008 10.5z"
    fill="currentColor"
  />
  <path
    d="M11.1008 10.5C11.1008 10.8318 10.8318 11.1008 10.5 11.1008 10.1682 11.1008 9.89917 10.8318 9.89917 10.5 9.89917 10.1682 10.1682 9.89917 10.5 9.89917 10.8318 9.89917 11.1008 10.1682 11.1008 10.5zM11.1008 12.5C11.1008 12.8318 10.8318 13.1008 10.5 13.1008 10.1682 13.1008 9.89917 12.8318 9.89917 12.5 9.89917 12.1682 10.1682 11.8992 10.5 11.8992 10.8318 11.8992 11.1008 12.1682 11.1008 12.5z"
    fill="currentColor"
  />
</svg>
