<svg width="15" height="15" fill="none" xmlns="http://www.w3.org/2000/svg">
  <path
    fill-rule="evenodd"
    clip-rule="evenodd"
    d="M10.3284 1.13607C10.1332 0.940809 9.81659 0.940808 9.62133 1.13607C9.42606 1.33133 9.42606 1.64792 9.62133 1.84318L10.2743 2.49619L5.4256 6.13274L4.31802 5.02516C4.12276 4.8299 3.80618 4.8299 3.61092 5.02516C3.41566 5.22042 3.41566 5.537 3.61092 5.73226L5.02513 7.14648L6.08579 8.20714L2.81542 11.4775C2.62016 11.6728 2.62016 11.9894 2.81542 12.1846C3.01068 12.3799 3.32727 12.3799 3.52253 12.1846L6.7929 8.91425L7.85356 9.97491L9.26777 11.3891C9.46303 11.5844 9.77962 11.5844 9.97488 11.3891C10.1701 11.1939 10.1701 10.8773 9.97488 10.682L8.8673 9.57443L12.5038 4.7257L13.1569 5.37871C13.3521 5.57397 13.6687 5.57397 13.864 5.37871C14.0592 5.18345 14.0592 4.86687 13.864 4.6716L12.8033 3.61094L11.3891 2.19673L10.3284 1.13607ZM6.13989 6.84702L10.9886 3.21047L11.7896 4.01142L8.15301 8.86015L6.13989 6.84702Z"
    fill="currentColor"
  />
</svg>
