<svg width="22" height="22" fill="none" xmlns="http://www.w3.org/2000/svg">
  <path
    fill-rule="evenodd"
    clip-rule="evenodd"
    d="M13.2 4.4C13.4025 4.1975 13.7308 4.1975 13.9333 4.4L15.0333 5.5L16.5 6.96667L17.6 8.06667C17.8025 8.26917 17.8025 8.5975 17.6 8.8C17.3975 9.00251 17.0692 9.00251 16.8667 8.8L16.1894 8.12277L12.418 13.1513L13.5667 14.3C13.7692 14.5025 13.7692 14.8308 13.5667 15.0333C13.3642 15.2358 13.0358 15.2358 12.8333 15.0333L11.3667 13.5667L10.2667 12.4667L6.875 15.8583C6.67249 16.0608 6.34417 16.0608 6.14166 15.8583C5.93916 15.6558 5.93916 15.3275 6.14166 15.125L9.53333 11.7333L8.43333 10.6333L6.96666 9.16667C6.76416 8.96417 6.76416 8.63584 6.96666 8.43334C7.16917 8.23083 7.49749 8.23083 7.7 8.43334L8.84866 9.58199L13.8772 5.81057L13.2 5.13334C12.9975 4.93083 12.9975 4.60251 13.2 4.4Z"
    fill="currentColor"
  />
</svg>
