<svg width="15" height="15" fill="none" xmlns="http://www.w3.org/2000/svg">
  <path
    fill-rule="evenodd"
    clip-rule="evenodd"
    d="M9.62133 1.13607C9.81659 0.940808 10.1332 0.940809 10.3284 1.13607L11.3891 2.19673L12.8033 3.61094L13.864 4.6716C14.0592 4.86687 14.0592 5.18345 13.864 5.37871C13.6687 5.57397 13.3521 5.57397 13.1569 5.37871L12.5038 4.7257L8.8673 9.57443L9.97488 10.682C10.1701 10.8773 10.1701 11.1939 9.97488 11.3891C9.77962 11.5844 9.46303 11.5844 9.26777 11.3891L7.85356 9.97491L6.7929 8.91425L3.52253 12.1846C3.32727 12.3799 3.01068 12.3799 2.81542 12.1846C2.62016 11.9894 2.62016 11.6728 2.81542 11.4775L6.08579 8.20714L5.02513 7.14648L3.61092 5.73226C3.41566 5.537 3.41566 5.22042 3.61092 5.02516C3.80618 4.8299 4.12276 4.8299 4.31802 5.02516L5.4256 6.13274L10.2743 2.49619L9.62133 1.84318C9.42606 1.64792 9.42606 1.33133 9.62133 1.13607Z"
    fill="currentColor"
  />
  <path
    fill-rule="evenodd"
    clip-rule="evenodd"
    d="M9.62133 1.13607C9.81659 0.940808 10.1332 0.940809 10.3284 1.13607L11.3891 2.19673L12.8033 3.61094L13.864 4.6716C14.0592 4.86687 14.0592 5.18345 13.864 5.37871C13.6687 5.57397 13.3521 5.57397 13.1569 5.37871L12.5038 4.7257L8.8673 9.57443L9.97488 10.682C10.1701 10.8773 10.1701 11.1939 9.97488 11.3891C9.77962 11.5844 9.46303 11.5844 9.26777 11.3891L7.85356 9.97491L6.7929 8.91425L3.52253 12.1846C3.32727 12.3799 3.01068 12.3799 2.81542 12.1846C2.62016 11.9894 2.62016 11.6728 2.81542 11.4775L6.08579 8.20714L5.02513 7.14648L3.61092 5.73226C3.41566 5.537 3.41566 5.22042 3.61092 5.02516C3.80618 4.8299 4.12276 4.8299 4.31802 5.02516L5.4256 6.13274L10.2743 2.49619L9.62133 1.84318C9.42606 1.64792 9.42606 1.33133 9.62133 1.13607Z"
    fill="currentColor"
  />
</svg>
