<svg width="16" height="15" fill="none" xmlns="http://www.w3.org/2000/svg">
  <path
    fill-rule="evenodd"
    clip-rule="evenodd"
    d="M8.48987 0.671718C8.04321 -0.0727199 6.9643 -0.0727239 6.51764 0.671717L0.165659 11.2583C-0.294243 12.0248 0.257888 13 1.15178 13H13.8557C14.7496 13 15.3017 12.0249 14.8418 11.2583L8.48987 0.671718ZM7.37513 1.18621C7.43339 1.08911 7.57411 1.08911 7.63238 1.18621L13.9844 11.7728C14.0443 11.8728 13.9723 12 13.8557 12H1.15178C1.03518 12 0.963165 11.8728 1.02315 11.7728L7.37513 1.18621ZM6.83066 4.49952C6.81597 4.11763 7.12158 3.80003 7.50375 3.80003C7.88592 3.80003 8.19154 4.11763 8.17685 4.49952L8.02297 8.50042C8.01224 8.77941 7.78295 9.00005 7.50375 9.00005C7.22456 9.00005 6.99527 8.77941 6.98454 8.50042L6.83066 4.49952ZM8.25364 10.4894C8.25364 10.9036 7.91786 11.2394 7.50364 11.2394C7.08943 11.2394 6.75364 10.9036 6.75364 10.4894C6.75364 10.0752 7.08943 9.7394 7.50364 9.7394C7.91786 9.7394 8.25364 10.0752 8.25364 10.4894Z"
    fill="currentColor"
  />
</svg>
