<svg width="15" height="15" fill="none" xmlns="http://www.w3.org/2000/svg" viewBox="0 0 15 15">
  <path
    fill-rule="evenodd"
    clip-rule="evenodd"
    d="M7.49988 0.876892C3.84219 0.876892 0.877045 3.84204 0.877045 7.49972C0.877045 11.1574 3.84219 14.1226 7.49988 14.1226C11.1575 14.1226 14.1227 11.1574 14.1227 7.49972C14.1227 3.84204 11.1575 0.876892 7.49988 0.876892ZM1.82704 7.49972C1.82704 4.36671 4.36686 1.82689 7.49988 1.82689C10.6329 1.82689 13.1727 4.36671 13.1727 7.49972C13.1727 10.6327 10.6329 13.1726 7.49988 13.1726C4.36686 13.1726 1.82704 10.6327 1.82704 7.49972ZM5.03744 9.21395C4.87946 8.98746 4.56779 8.93193 4.3413 9.08991C4.11481 9.24789 4.05928 9.55956 4.21726 9.78605C4.93923 10.8211 6.1403 11.5 7.50001 11.5C8.85971 11.5 10.0608 10.8211 10.7828 9.78605C10.9407 9.55956 10.8852 9.24789 10.6587 9.08991C10.4322 8.93193 10.1205 8.98746 9.96257 9.21395C9.4196 9.99238 8.51904 10.5 7.50001 10.5C6.48097 10.5 5.58041 9.99238 5.03744 9.21395ZM5.375 6.84998C5.85824 6.84998 6.25 6.45815 6.25 5.97498C6.25 5.4918 5.85824 5.09998 5.375 5.09998C4.89176 5.09998 4.5 5.4918 4.5 5.97498C4.5 6.45815 4.89176 6.84998 5.375 6.84998ZM10.5 5.97498C10.5 6.45815 10.1082 6.84998 9.625 6.84998C9.14176 6.84998 8.75 6.45815 8.75 5.97498C8.75 5.4918 9.14176 5.09998 9.625 5.09998C10.1082 5.09998 10.5 5.4918 10.5 5.97498Z"
    fill="currentColor"
  />
</svg>
