<svg width="15" height="15" fill="none" xmlns="http://www.w3.org/2000/svg" viewBox="0 0 15 15">
  <path
    fill-rule="evenodd"
    clip-rule="evenodd"
    d="M7.00005 2.05005H5.52505C4.71043 2.05005 4.05005 2.71043 4.05005 3.52505C4.05005 4.33967 4.71043 5.00005 5.52505 5.00005H7.00005V2.05005ZM7.00005 1.05005H8.00005H9.47505C10.842 1.05005 11.95 2.15814 11.95 3.52505C11.95 4.33169 11.5642 5.04821 10.9669 5.50006C11.5642 5.9519 11.95 6.66842 11.95 7.47506C11.95 8.84197 10.842 9.95006 9.47505 9.95006C8.92236 9.95006 8.41198 9.7689 8.00005 9.46272V9.95006L8.00005 11.425C8.00005 12.7919 6.89195 13.9 5.52505 13.9C4.15814 13.9 3.05005 12.7919 3.05005 11.425C3.05005 10.6184 3.43593 9.9019 4.03317 9.45005C3.43593 8.9982 3.05005 8.28169 3.05005 7.47506C3.05005 6.66842 3.43594 5.95191 4.03319 5.50006C3.43594 5.04821 3.05005 4.33169 3.05005 3.52505C3.05005 2.15814 4.15814 1.05005 5.52505 1.05005H7.00005ZM8.00005 2.05005V5.00005H9.47505C10.2897 5.00005 10.95 4.33967 10.95 3.52505C10.95 2.71043 10.2897 2.05005 9.47505 2.05005H8.00005ZM5.52505 8.95004H7.00005L7.00005 7.47887L7.00005 7.47506L7.00005 7.47126V6.00006H5.52505C4.71043 6.00006 4.05005 6.66044 4.05005 7.47506C4.05005 8.28773 4.70727 8.9469 5.5192 8.95005L5.52505 8.95004ZM4.05005 11.425C4.05005 10.6124 4.70727 9.95321 5.5192 9.95005L5.52505 9.95006H7.00005L7.00005 11.425C7.00005 12.2397 6.33967 12.9 5.52505 12.9C4.71043 12.9 4.05005 12.2397 4.05005 11.425ZM8.00005 7.47212C8.00164 6.65885 8.66141 6.00006 9.47505 6.00006C10.2897 6.00006 10.95 6.66044 10.95 7.47506C10.95 8.28968 10.2897 8.95006 9.47505 8.95006C8.66141 8.95006 8.00164 8.29127 8.00005 7.478V7.47212Z"
    fill="currentColor"
  />
</svg>
