<svg width="15" height="15" fill="none" xmlns="http://www.w3.org/2000/svg" viewBox="0 0 15 15">
  <path
    fill-rule="evenodd"
    clip-rule="evenodd"
    d="M4.79999 3.50017C4.79999 3.25164 5.00146 3.05017 5.24999 3.05017H5.25798H5.26599H5.274H5.28202H5.29005H5.2981H5.30615H5.3142H5.32227H5.33035H5.33844H5.34653H5.35464H5.36275H5.37087H5.379H5.38714H5.39529H5.40345H5.41161H5.41979H5.42797H5.43616H5.44436H5.45257H5.46079H5.46901H5.47725H5.48549H5.49374H5.502H5.51026H5.51854H5.52682H5.53511H5.54341H5.55172H5.56004H5.56836H5.57669H5.58503H5.59338H5.60173H5.61009H5.61847H5.62684H5.63523H5.64362H5.65202H5.66043H5.66885H5.67727H5.6857H5.69414H5.70259H5.71104H5.7195H5.72797H5.73645H5.74493H5.75342H5.76191H5.77042H5.77893H5.78745H5.79597H5.8045H5.81304H5.82159H5.83014H5.8387H5.84727H5.85584H5.86442H5.873H5.8816H5.8902H5.8988H5.90742H5.91603H5.92466H5.93329H5.94193H5.95057H5.95922H5.96788H5.97654H5.98521H5.99389H6.00257H6.01126H6.01995H6.02865H6.03736H6.04607H6.05479H6.06351H6.07224H6.08097H6.08971H6.09846H6.10721H6.11597H6.12473H6.1335H6.14228H6.15106H6.15984H6.16863H6.17743H6.18623H6.19504H6.20385H6.21267H6.22149H6.23032H6.23915H6.24799H6.25683H6.26568H6.27453H6.28339H6.29225H6.30112H6.30999H6.31887H6.32775H6.33664H6.34553H6.35442H6.36332H6.37223H6.38114H6.39005H6.39897H6.40789H6.41682H6.42575H6.43469H6.44363H6.45257H6.46152H6.47048H6.47943H6.48839H6.49736H6.50633H6.5153H6.52428H6.53326H6.54225H6.55123H6.56023H6.56922H6.57822H6.58723H6.59623H6.60525H6.61426H6.62328H6.6323H6.64133H6.65035H6.65939H6.66842H6.67746H6.6865H6.69555H6.7046H6.71365H6.7227H6.73176H6.74082H6.74989H6.75895H6.76802H6.7771H6.78617H6.79525H6.80433H6.81342H6.8225H6.83159H6.84069H6.84978H6.85888H6.86798H6.87708H6.88619H6.89529H6.90441H6.91352H6.92263H6.93175H6.94087H6.94999H6.95911H6.96824H6.97737H6.9865H6.99563H7.00477H7.0139H7.02304H7.03218H7.04132H7.05047H7.05961H7.06876H7.07791H7.08706H7.09621H7.10536H7.11452H7.12368H7.13284H7.142H7.15116H7.16032H7.16948H7.17865H7.18782H7.19698H7.20615H7.21532H7.2245H7.23367H7.24284H7.25202H7.26119H7.27037H7.27955H7.28872H7.2979H7.30708H7.31627H7.32545H7.33463H7.34381H7.353H7.36218H7.37136H7.38055H7.38974H7.39892H7.40811H7.4173H7.42648H7.43567H7.44486H7.45405H7.46323H7.47242H7.48161H7.4908H7.49999H7.50918H7.51836H7.52755H7.53674H7.54593H7.55512H7.56431H7.57349H7.58268H7.59187H7.60105H7.61024H7.61943H7.62861H7.6378H7.64698H7.65616H7.66535H7.67453H7.68371H7.69289H7.70207H7.71125H7.72043H7.72961H7.73878H7.74796H7.75713H7.76631H7.77548H7.78465H7.79382H7.80299H7.81216H7.82133H7.83049H7.83966H7.84882H7.85798H7.86714H7.8763H7.88546H7.89461H7.90377H7.91292H7.92207H7.93122H7.94036H7.94951H7.95865H7.9678H7.97694H7.98607H7.99521H8.00434H8.01348H8.02261H8.03174H8.04086H8.04998H8.05911H8.06823H8.07734H8.08646H8.09557H8.10468H8.11379H8.12289H8.132H8.1411H8.15019H8.15929H8.16838H8.17747H8.18656H8.19564H8.20472H8.2138H8.22288H8.23195H8.24102H8.25009H8.25915H8.26821H8.27727H8.28633H8.29538H8.30443H8.31347H8.32251H8.33155H8.34059H8.34962H8.35865H8.36768H8.3767H8.38572H8.39473H8.40374H8.41275H8.42175H8.43075H8.43975H8.44874H8.45773H8.46672H8.4757H8.48467H8.49365H8.50262H8.51158H8.52054H8.5295H8.53845H8.5474H8.55635H8.56529H8.57422H8.58315H8.59208H8.601H8.60992H8.61884H8.62775H8.63665H8.64555H8.65445H8.66334H8.67223H8.68111H8.68999H8.69886H8.70773H8.71659H8.72545H8.7343H8.74315H8.75199H8.76083H8.76966H8.77849H8.78731H8.79613H8.80494H8.81375H8.82255H8.83134H8.84013H8.84892H8.8577H8.86647H8.87524H8.88401H8.89276H8.90152H8.91026H8.919H8.92774H8.93647H8.94519H8.95391H8.96262H8.97132H8.98002H8.98872H8.99741H9.00609H9.01476H9.02343H9.03209H9.04075H9.0494H9.05805H9.06668H9.07532H9.08394H9.09256H9.10117H9.10978H9.11838H9.12697H9.13556H9.14414H9.15271H9.16128H9.16983H9.17839H9.18693H9.19547H9.204H9.21253H9.22105H9.22956H9.23806H9.24656H9.25505H9.26353H9.272H9.28047H9.28893H9.29739H9.30583H9.31427H9.3227H9.33113H9.33954H9.34795H9.35635H9.36475H9.37313H9.38151H9.38988H9.39824H9.4066H9.41495H9.42328H9.43162H9.43994H9.44826H9.45656H9.46486H9.47315H9.48144H9.48971H9.49798H9.50624H9.51449H9.52273H9.53096H9.53919H9.54741H9.55561H9.56381H9.57201H9.58019H9.58836H9.59653H9.60469H9.61283H9.62097H9.6291H9.63723H9.64534H9.65344H9.66154H9.66962H9.6777H9.68577H9.69383H9.70188H9.70992H9.71795H9.72598H9.73399H9.74199H9.74999C9.99852 3.05017 10.2 3.25164 10.2 3.50017C10.2 3.7487 9.99852 3.95017 9.74999 3.95017H9.74199H9.73399H9.72598H9.71795H9.70992H9.70188H9.69383H9.68577H9.6777H9.66962H9.66154H9.65344H9.64534H9.63723H9.6291H9.62097H9.61283H9.60469H9.59653H9.58836H9.58019H9.57201H9.56381H9.55561H9.54741H9.53919H9.53096H9.52273H9.51449H9.50624H9.49798H9.48971H9.48144H9.47315H9.46486H9.45656H9.44826H9.43994H9.43162H9.42328H9.41495H9.4066H9.39824H9.38988H9.38151H9.37313H9.36475H9.35635H9.34795H9.33954H9.33113H9.3227H9.31427H9.30583H9.29739H9.28893H9.28047H9.272H9.26353H9.25505H9.24656H9.23806H9.22956H9.22105H9.21253H9.204H9.19547H9.18693H9.17839H9.16983H9.16128H9.15271H9.14414H9.13556H9.12697H9.11838H9.10978H9.10117H9.09256H9.08394H9.07532H9.06668H9.05805H9.0494H9.04075H9.03209H9.02343H9.01476H9.00609H8.99741H8.98872H8.98002H8.97132H8.96262H8.95391H8.94519H8.93647H8.92774H8.919H8.91026H8.90152H8.89276H8.88401H8.87524H8.86647H8.8577H8.84892H8.84013H8.83134H8.82255H8.81375H8.80494H8.79613H8.78731H8.77849H8.76966H8.76083H8.75199H8.74315H8.7343H8.72545H8.71659H8.70773H8.69886H8.68999H8.68111H8.67223H8.66334H8.65445H8.64555H8.63665H8.62775H8.61884H8.60992H8.601H8.59208H8.58315H8.57422H8.56529H8.55635H8.5474H8.53845H8.5295H8.52054H8.51158H8.50262H8.49365H8.48467H8.4757H8.46672H8.45773H8.44874H8.43975H8.43075H8.42175H8.41275H8.40374H8.39473H8.38572H8.3767H8.36768H8.35865H8.34962H8.34059H8.33155H8.32251H8.31347H8.30443H8.29538H8.28633H8.27727H8.26821H8.25915H8.25009H8.24102H8.23195H8.22288H8.2138H8.20472H8.19564H8.18656H8.17747H8.16838H8.15929H8.15019H8.1411H8.132H8.12289H8.11379H8.10468H8.1V11.0501H9.75C9.99852 11.0501 10.2 11.2515 10.2 11.5001C10.2 11.7486 9.99852 11.9501 9.75 11.9501H5.25C5.00147 11.9501 4.8 11.7486 4.8 11.5001C4.8 11.2515 5.00147 11.0501 5.25 11.0501H6.9V3.95017H6.89529H6.88619H6.87708H6.86798H6.85888H6.84978H6.84069H6.83159H6.8225H6.81342H6.80433H6.79525H6.78617H6.7771H6.76802H6.75895H6.74989H6.74082H6.73176H6.7227H6.71365H6.7046H6.69555H6.6865H6.67746H6.66842H6.65939H6.65035H6.64133H6.6323H6.62328H6.61426H6.60525H6.59623H6.58723H6.57822H6.56922H6.56023H6.55123H6.54225H6.53326H6.52428H6.5153H6.50633H6.49736H6.48839H6.47943H6.47048H6.46152H6.45257H6.44363H6.43469H6.42575H6.41682H6.40789H6.39897H6.39005H6.38114H6.37223H6.36332H6.35442H6.34553H6.33664H6.32775H6.31887H6.30999H6.30112H6.29225H6.28339H6.27453H6.26568H6.25683H6.24799H6.23915H6.23032H6.22149H6.21267H6.20385H6.19504H6.18623H6.17743H6.16863H6.15984H6.15106H6.14228H6.1335H6.12473H6.11597H6.10721H6.09846H6.08971H6.08097H6.07224H6.06351H6.05479H6.04607H6.03736H6.02865H6.01995H6.01126H6.00257H5.99389H5.98521H5.97654H5.96788H5.95922H5.95057H5.94193H5.93329H5.92466H5.91603H5.90742H5.8988H5.8902H5.8816H5.873H5.86442H5.85584H5.84727H5.8387H5.83014H5.82159H5.81304H5.8045H5.79597H5.78745H5.77893H5.77042H5.76191H5.75342H5.74493H5.73645H5.72797H5.7195H5.71104H5.70259H5.69414H5.6857H5.67727H5.66885H5.66043H5.65202H5.64362H5.63523H5.62684H5.61847H5.61009H5.60173H5.59338H5.58503H5.57669H5.56836H5.56004H5.55172H5.54341H5.53511H5.52682H5.51854H5.51026H5.502H5.49374H5.48549H5.47725H5.46901H5.46079H5.45257H5.44436H5.43616H5.42797H5.41979H5.41161H5.40345H5.39529H5.38714H5.379H5.37087H5.36275H5.35464H5.34653H5.33844H5.33035H5.32227H5.3142H5.30615H5.2981H5.29005H5.28202H5.274H5.26599H5.25798H5.24999C5.00146 3.95017 4.79999 3.7487 4.79999 3.50017Z"
    fill="currentColor"
  />
</svg>
