<svg width="15" height="15" fill="none" xmlns="http://www.w3.org/2000/svg" viewBox="0 0 15 15">
  <path
    fill-rule="evenodd"
    clip-rule="evenodd"
    d="M5.675 3.50017C5.675 3.25164 5.87647 3.05017 6.125 3.05017H6.13299H6.14099H6.14901H6.15703H6.16506H6.1731H6.18115H6.18921H6.19728H6.20536H6.21344H6.22154H6.22964H6.23776H6.24588H6.25401H6.26215H6.2703H6.27845H6.28662H6.29479H6.30298H6.31117H6.31937H6.32758H6.33579H6.34402H6.35225H6.3605H6.36875H6.377H6.38527H6.39355H6.40183H6.41012H6.41842H6.42673H6.43504H6.44337H6.4517H6.46004H6.46838H6.47674H6.4851H6.49347H6.50185H6.51024H6.51863H6.52703H6.53544H6.54386H6.55228H6.56071H6.56915H6.5776H6.58605H6.59451H6.60298H6.61145H6.61994H6.62843H6.63692H6.64543H6.65394H6.66246H6.67098H6.67951H6.68805H6.6966H6.70515H6.71371H6.72227H6.73085H6.73943H6.74801H6.75661H6.7652H6.77381H6.78242H6.79104H6.79967H6.8083H6.81694H6.82558H6.83423H6.84289H6.85155H6.86022H6.8689H6.87758H6.88627H6.89496H6.90366H6.91236H6.92108H6.92979H6.93852H6.94725H6.95598H6.96472H6.97347H6.98222H6.99098H6.99974H7.00851H7.01728H7.02606H7.03485H7.04364H7.05244H7.06124H7.07004H7.07886H7.08767H7.0965H7.10532H7.11416H7.12299H7.13184H7.14068H7.14954H7.1584H7.16726H7.17613H7.185H7.19387H7.20276H7.21164H7.22053H7.22943H7.23833H7.24724H7.25615H7.26506H7.27398H7.2829H7.29183H7.30076H7.3097H7.31864H7.32758H7.33653H7.34548H7.35444H7.3634H7.37237H7.38134H7.39031H7.39929H7.40827H7.41725H7.42624H7.43523H7.44423H7.45323H7.46223H7.47124H7.48025H7.48927H7.49829H7.50731H7.51633H7.52536H7.53439H7.54343H7.55247H7.56151H7.57056H7.5796H7.58866H7.59771H7.60677H7.61583H7.62489H7.63396H7.64303H7.6521H7.66118H7.67026H7.67934H7.68842H7.69751H7.7066H7.71569H7.72479H7.73389H7.74299H7.75209H7.7612H7.7703H7.77941H7.78853H7.79764H7.80676H7.81588H7.825H7.83412H7.84325H7.85238H7.86151H7.87064H7.87977H7.88891H7.89805H7.90719H7.91633H7.92547H7.93462H7.94377H7.95291H7.96207H7.97122H7.98037H7.98953H7.99868H8.00784H8.017H8.02616H8.03533H8.04449H8.05366H8.06282H8.07199H8.08116H8.09033H8.0995H8.10868H8.11785H8.12702H8.1362H8.14538H8.15455H8.16373H8.17291H8.18209H8.19127H8.20045H8.20964H8.21882H8.228H8.23719H8.24637H8.25556H8.26474H8.27393H8.28312H8.2923H8.30149H8.31068H8.31987H8.32905H8.33824H8.34743H8.35662H8.36581H8.375H8.38418H8.39337H8.40256H8.41175H8.42094H8.43013H8.43931H8.4485H8.45769H8.46688H8.47606H8.48525H8.49443H8.50362H8.5128H8.52199H8.53117H8.54035H8.54954H8.55872H8.5679H8.57708H8.58626H8.59544H8.60461H8.61379H8.62297H8.63214H8.64132H8.65049H8.65966H8.66883H8.678H8.68717H8.69633H8.7055H8.71466H8.72383H8.73299H8.74215H8.75131H8.76046H8.76962H8.77877H8.78793H8.79708H8.80622H8.81537H8.82452H8.83366H8.8428H8.85194H8.86108H8.87022H8.87935H8.88848H8.89761H8.90674H8.91587H8.92499H8.93411H8.94323H8.95235H8.96147H8.97058H8.97969H8.9888H8.9979H9.007H9.0161H9.0252H9.0343H9.04339H9.05248H9.06157H9.07065H9.07973H9.08881H9.09789H9.10696H9.11603H9.1251H9.13416H9.14322H9.15228H9.16133H9.17039H9.17943H9.18848H9.19752H9.20656H9.2156H9.22463H9.23366H9.24268H9.2517H9.26072H9.26974H9.27875H9.28776H9.29676H9.30576H9.31476H9.32375H9.33274H9.34172H9.3507H9.35968H9.36865H9.37762H9.38659H9.39555H9.40451H9.41346H9.42241H9.43135H9.44029H9.44923H9.45816H9.46709H9.47601H9.48493H9.49384H9.50276H9.51166H9.52056H9.52946H9.53835H9.54723H9.55612H9.56499H9.57387H9.58273H9.5916H9.60045H9.60931H9.61815H9.627H9.63583H9.64467H9.65349H9.66232H9.67113H9.67995H9.68875H9.69755H9.70635H9.71514H9.72393H9.73271H9.74148H9.75025H9.75901H9.76777H9.77652H9.78527H9.79401H9.80274H9.81147H9.8202H9.82891H9.83763H9.84633H9.85503H9.86372H9.87241H9.88109H9.88977H9.89844H9.9071H9.91576H9.92441H9.93305H9.94169H9.95032H9.95895H9.96757H9.97618H9.98479H9.99339H10.002H10.0106H10.0191H10.0277H10.0363H10.0448H10.0534H10.0619H10.0705H10.079H10.0875H10.0961H10.1046H10.1131H10.1216H10.1301H10.1385H10.147H10.1555H10.1639H10.1724H10.1808H10.1893H10.1977H10.2061H10.2146H10.223H10.2314H10.2398H10.2481H10.2565H10.2649H10.2733H10.2816H10.29H10.2983H10.3066H10.3149H10.3233H10.3316H10.3399H10.3482H10.3564H10.3647H10.373H10.3812H10.3895H10.3977H10.406H10.4142H10.4224H10.4306H10.4388H10.447H10.4552H10.4634H10.4715H10.4797H10.4878H10.496H10.5041H10.5122H10.5203H10.5285H10.5365H10.5446H10.5527H10.5608H10.5688H10.5769H10.5849H10.593H10.601H10.609H10.617H10.625C10.8735 3.05017 11.075 3.25164 11.075 3.50017C11.075 3.7487 10.8735 3.95017 10.625 3.95017H10.617H10.609H10.601H10.593H10.5849H10.5769H10.5688H10.5608H10.5527H10.5446H10.5365H10.5285H10.5203H10.5122H10.5041H10.496H10.4878H10.4797H10.4715H10.4634H10.4552H10.447H10.4388H10.4306H10.4224H10.4142H10.406H10.3977H10.3895H10.3812H10.373H10.3647H10.3564H10.3482H10.3399H10.3316H10.3233H10.3149H10.3066H10.2983H10.29H10.2816H10.2733H10.2649H10.2565H10.2481H10.2398H10.2314H10.223H10.2146H10.2061H10.1977H10.1893H10.1808H10.1724H10.1639H10.1555H10.147H10.1385H10.1301H10.1216H10.1131H10.1046H10.0961H10.0875H10.079H10.0705H10.0619H10.0534H10.0448H10.0363H10.0277H10.0191H10.0106H10.002H9.99339H9.98479H9.97618H9.96757H9.95895H9.95032H9.94169H9.93305H9.92441H9.91576H9.9071H9.89844H9.88977H9.88109H9.87241H9.86372H9.85503H9.84633H9.83763H9.82891H9.8202H9.81147H9.80274H9.79401H9.78527H9.77652H9.76777H9.75901H9.75025H9.74148H9.73271H9.72393H9.71514H9.70635H9.69755H9.68875H9.67995H9.67113H9.66232H9.65349H9.64467H9.63583H9.627H9.61815H9.60931H9.60045H9.5916H9.58273H9.57387H9.56499H9.55612H9.54723H9.53835H9.52946H9.52056H9.51166H9.50276H9.49384H9.48493H9.47601H9.46709H9.45816H9.44923H9.44029H9.43135H9.42241H9.41346H9.40451H9.39555H9.38659H9.37762H9.36865H9.35968H9.3507H9.34172H9.33274H9.32375H9.31476H9.30576H9.29676H9.28776H9.27875H9.26974H9.26072H9.2517H9.24268H9.23366H9.22463H9.2156H9.20656H9.19752H9.18848H9.17943H9.17039H9.16133H9.15228H9.14322H9.13416H9.1251H9.11603H9.10696H9.09789H9.08881H9.07973H9.07065H9.06157H9.05248H9.04339H9.0343H9.0252H9.0161H9.007H9.00593L7.23096 11.0501H8.87499C9.12352 11.0501 9.32499 11.2515 9.32499 11.5001C9.32499 11.7486 9.12352 11.9501 8.87499 11.9501H4.37499C4.12646 11.9501 3.92499 11.7486 3.92499 11.5001C3.92499 11.2515 4.12646 11.0501 4.37499 11.0501H5.99403L7.769 3.95017H7.7612H7.75209H7.74299H7.73389H7.72479H7.71569H7.7066H7.69751H7.68842H7.67934H7.67026H7.66118H7.6521H7.64303H7.63396H7.62489H7.61583H7.60677H7.59771H7.58866H7.5796H7.57056H7.56151H7.55247H7.54343H7.53439H7.52536H7.51633H7.50731H7.49829H7.48927H7.48025H7.47124H7.46223H7.45323H7.44423H7.43523H7.42624H7.41725H7.40827H7.39929H7.39031H7.38134H7.37237H7.3634H7.35444H7.34548H7.33653H7.32758H7.31864H7.3097H7.30076H7.29183H7.2829H7.27398H7.26506H7.25615H7.24724H7.23833H7.22943H7.22053H7.21164H7.20276H7.19387H7.185H7.17613H7.16726H7.1584H7.14954H7.14068H7.13184H7.12299H7.11416H7.10532H7.0965H7.08767H7.07886H7.07004H7.06124H7.05244H7.04364H7.03485H7.02606H7.01728H7.00851H6.99974H6.99098H6.98222H6.97347H6.96472H6.95598H6.94725H6.93852H6.92979H6.92108H6.91236H6.90366H6.89496H6.88627H6.87758H6.8689H6.86022H6.85155H6.84289H6.83423H6.82558H6.81694H6.8083H6.79967H6.79104H6.78242H6.77381H6.7652H6.75661H6.74801H6.73943H6.73085H6.72227H6.71371H6.70515H6.6966H6.68805H6.67951H6.67098H6.66246H6.65394H6.64543H6.63692H6.62843H6.61994H6.61145H6.60298H6.59451H6.58605H6.5776H6.56915H6.56071H6.55228H6.54386H6.53544H6.52703H6.51863H6.51024H6.50185H6.49347H6.4851H6.47674H6.46838H6.46004H6.4517H6.44337H6.43504H6.42673H6.41842H6.41012H6.40183H6.39355H6.38527H6.377H6.36875H6.3605H6.35225H6.34402H6.33579H6.32758H6.31937H6.31117H6.30298H6.29479H6.28662H6.27845H6.2703H6.26215H6.25401H6.24588H6.23776H6.22964H6.22154H6.21344H6.20536H6.19728H6.18921H6.18115H6.1731H6.16506H6.15703H6.14901H6.14099H6.13299H6.125C5.87647 3.95017 5.675 3.7487 5.675 3.50017Z"
    fill="currentColor"
  />
</svg>
