<svg width="15" height="15" fill="none" xmlns="http://www.w3.org/2000/svg" viewBox="0 0 15 15">
  <path
    fill-rule="evenodd"
    clip-rule="evenodd"
    d="M7.72074 1.30045C7.32371 1.30045 6.97958 1.5753 6.8918 1.96249L6.65372 3.01264C6.27477 3.12285 5.91327 3.27376 5.57434 3.46023L4.66309 2.8858C4.32723 2.67408 3.88954 2.72307 3.6088 3.00381L3.00273 3.60988C2.72199 3.89062 2.673 4.32831 2.88472 4.66417L3.45934 5.57571C3.27301 5.91459 3.12221 6.276 3.01211 6.65485L1.96204 6.89291C1.57484 6.98069 1.29999 7.32483 1.29999 7.72185L1.29999 8.57897C1.29999 8.97599 1.57484 9.32013 1.96204 9.40791L3.01223 9.646C3.1224 10.025 3.27328 10.3865 3.45972 10.7254L2.8853 11.6367C2.67358 11.9725 2.72258 12.4102 3.00331 12.6909L3.60939 13.297C3.89013 13.5778 4.32782 13.6268 4.66368 13.415L5.57497 12.8406C5.91372 13.0269 6.27501 13.1777 6.65372 13.2878L6.8918 14.338C6.97958 14.7252 7.32371 15 7.72074 15H8.57786C8.97488 15 9.31902 14.7252 9.4068 14.338L9.64478 13.2882C10.0239 13.1781 10.3855 13.0272 10.7246 12.8407L11.6355 13.4149C11.9714 13.6267 12.409 13.5777 12.6898 13.2969L13.2959 12.6909C13.5766 12.4101 13.6256 11.9724 13.4139 11.6366L12.8398 10.726C13.0264 10.3868 13.1774 10.0251 13.2877 9.64591L14.3375 9.40791C14.7247 9.32013 14.9995 8.97599 14.9995 8.57897V7.72185C14.9995 7.32483 14.7247 6.98069 14.3375 6.89291L13.2878 6.65493C13.1776 6.27585 13.0267 5.91422 12.8402 5.57516L13.4145 4.66426C13.6262 4.3284 13.5772 3.89071 13.2964 3.60997L12.6904 3.00389C12.4096 2.72316 11.9719 2.67416 11.6361 2.88588L10.7252 3.46006C10.386 3.27344 10.0241 3.12245 9.64478 3.01225L9.4068 1.96249C9.31902 1.5753 8.97488 1.30045 8.57786 1.30045H7.72074ZM5.5705 4.46257C6.09716 4.0935 6.70651 3.83438 7.36523 3.71854L7.72074 2.15042H8.57786L8.93331 3.7183C9.59243 3.83401 10.2022 4.09316 10.7291 4.46238L12.0893 3.60492L12.6954 4.21099L11.8379 5.57126C12.207 6.09806 12.4661 6.70755 12.5818 7.36642L14.1496 7.72185V8.57897L12.5817 8.93441C12.4659 9.59339 12.2067 10.203 11.8375 10.7298L12.6948 12.0898L12.0888 12.6959L10.7285 11.8385C10.2017 12.2075 9.59219 12.4665 8.93331 12.5821L8.57786 14.15H7.72074L7.36523 12.5819C6.70675 12.4661 6.09759 12.2071 5.57106 11.8383L4.21041 12.696L3.60434 12.0899L4.46204 10.7293C4.09301 10.2026 3.83395 9.59324 3.71817 8.9345L2.14996 8.57897L2.14996 7.72185L3.7181 7.36634C3.8338 6.70771 4.09274 6.09841 4.4616 5.57175L3.60375 4.21091L4.20983 3.60483L5.5705 4.46257ZM9.67476 8.15012C9.67476 8.99228 8.99206 9.67498 8.14989 9.67498C7.30773 9.67498 6.62502 8.99228 6.62502 8.15012C6.62502 7.30795 7.30773 6.62525 8.14989 6.62525C8.99206 6.62525 9.67476 7.30795 9.67476 8.15012ZM10.5747 8.15012C10.5747 9.48932 9.4891 10.575 8.14989 10.575C6.81069 10.575 5.72505 9.48932 5.72505 8.15012C5.72505 6.81091 6.81069 5.72527 8.14989 5.72527C9.4891 5.72527 10.5747 6.81091 10.5747 8.15012Z"
    fill="currentColor"
  />
</svg>
