<svg width="15" height="15" fill="none" xmlns="http://www.w3.org/2000/svg" viewBox="0 0 15 15">
  <path
    fill-rule="evenodd"
    clip-rule="evenodd"
    d="M7.07096 0.650249C6.67392 0.650249 6.32978 0.925107 6.24199 1.31232L6.00391 2.36248C5.62491 2.4727 5.26336 2.62364 4.92437 2.81014L4.01336 2.23586C3.67749 2.02414 3.23979 2.07313 2.95904 2.35388L2.35295 2.95997C2.07221 3.24071 2.02321 3.67842 2.23494 4.01429L2.80943 4.92562C2.62308 5.26451 2.47228 5.62595 2.36217 6.00482L1.3121 6.24288C0.924893 6.33066 0.650035 6.67481 0.650035 7.07184V7.92899C0.650035 8.32602 0.924893 8.67017 1.3121 8.75795L2.36229 8.99604C2.47247 9.37501 2.62336 9.73653 2.8098 10.0755L2.23541 10.9867C2.02368 11.3226 2.07268 11.7603 2.35342 12.041L2.95952 12.6471C3.24026 12.9278 3.67796 12.9768 4.01383 12.7651L4.92507 12.1907C5.26385 12.377 5.62517 12.5278 6.00391 12.638L6.24199 13.6881C6.32978 14.0753 6.67392 14.3502 7.07096 14.3502H7.9281C8.32513 14.3502 8.66928 14.0753 8.75706 13.6881L8.99506 12.6383C9.37412 12.5282 9.73574 12.3774 10.0748 12.1909L10.986 12.7653C11.3218 12.977 11.7595 12.928 12.0403 12.6473L12.6464 12.0412C12.9271 11.7605 12.9761 11.3228 12.7644 10.9869L12.1902 10.076C12.3768 9.73689 12.5278 9.37516 12.638 8.99597L13.6879 8.75795C14.0751 8.67017 14.35 8.32602 14.35 7.92898V7.07184C14.35 6.67481 14.0751 6.33066 13.6879 6.24288L12.6381 6.00489C12.528 5.62579 12.3771 5.26415 12.1906 4.92508L12.7649 4.01408C12.9766 3.67821 12.9276 3.24051 12.6468 2.95976L12.0408 2.35367C11.76 2.07293 11.3223 2.02393 10.9864 2.23566L10.0755 2.8099C9.73623 2.62329 9.37438 2.4723 8.99506 2.3621L8.75706 1.31232C8.66928 0.925107 8.32513 0.650249 7.9281 0.650249H7.07096ZM4.92054 3.81252C5.44725 3.4434 6.05666 3.18425 6.71544 3.0684L7.07096 1.50025H7.9281L8.28356 3.06817C8.94268 3.18388 9.55241 3.44303 10.0794 3.81225L11.4397 2.95471L12.0458 3.5608L11.1882 4.92118C11.5573 5.44799 11.8164 6.05751 11.9321 6.71639L13.5 7.07184V7.92898L11.9321 8.28445C11.8162 8.94343 11.557 9.55302 11.1878 10.0799L12.0453 11.4402L11.4392 12.0463L10.0787 11.1886C9.55193 11.5576 8.94242 11.8166 8.28356 11.9323L7.9281 13.5002H7.07096L6.71544 11.932C6.05692 11.8162 5.44773 11.5572 4.92117 11.1884L3.56056 12.0461L2.95446 11.44L3.81214 10.0794C3.44311 9.55267 3.18404 8.94327 3.06826 8.28451L1.50003 7.92899V7.07184L3.06819 6.71633C3.18389 6.05767 3.44284 5.44834 3.81172 4.92166L2.95399 3.56101L3.56009 2.95492L4.92054 3.81252ZM9.02502 7.50013C9.02502 8.34231 8.34229 9.02504 7.5001 9.02504C6.65792 9.02504 5.97519 8.34231 5.97519 7.50013C5.97519 6.65794 6.65792 5.97521 7.5001 5.97521C8.34229 5.97521 9.02502 6.65794 9.02502 7.50013ZM9.92502 7.50013C9.92502 8.83937 8.83935 9.92504 7.5001 9.92504C6.16086 9.92504 5.07519 8.83937 5.07519 7.50013C5.07519 6.16088 6.16086 5.07521 7.5001 5.07521C8.83935 5.07521 9.92502 6.16088 9.92502 7.50013Z"
    fill="currentColor"
  />
</svg>
