<svg width="15" height="15" fill="none" xmlns="http://www.w3.org/2000/svg" viewBox="0 0 15 15">
  <path
    fill-rule="evenodd"
    clip-rule="evenodd"
    d="M5.71115 2.08638C4.32157 2.5453 3.16858 3.52429 2.48267 4.79287C3.1119 4.54332 3.81836 4.35092 4.56562 4.21405C4.84376 3.44833 5.22511 2.72736 5.71115 2.08638ZM1.81384 7.09999C1.84629 6.63198 1.93523 6.17953 2.0739 5.7494C2.70156 5.41607 3.47372 5.15687 4.32674 4.97488C4.1424 5.66569 4.03639 6.38187 4.00771 7.09999H1.81384ZM4.70828 7.09999C4.74144 6.32556 4.87091 5.55987 5.09518 4.83495C5.73916 4.73671 6.41535 4.67891 7.10005 4.6627V7.09999H4.70828ZM7.90005 7.09999V4.6627C8.60772 4.67945 9.30631 4.74063 9.96964 4.84496C10.1995 5.56709 10.3321 6.32933 10.3662 7.09999H7.90005ZM7.90005 3.96252C8.50289 3.97624 9.10501 4.02104 9.69042 4.09764C9.32225 3.24574 8.80665 2.47205 8.14624 1.83625C8.06468 1.82705 7.98261 1.81957 7.90005 1.81384V3.96252ZM11.0668 7.09999C11.0375 6.38685 10.9295 5.6758 10.742 4.98972C11.5678 5.17084 12.3154 5.42498 12.9261 5.74931C13.0648 6.17946 13.1538 6.63195 13.1862 7.09999H11.0668ZM10.496 4.22545C11.2205 4.36151 11.9054 4.55013 12.5173 4.7928C11.8364 3.53347 10.6952 2.55954 9.31916 2.09647C9.81861 2.738 10.2105 3.45937 10.496 4.22545ZM5.3653 4.09047C5.93319 4.01824 6.51629 3.97581 7.10005 3.96252V1.81384C7.01843 1.8195 6.93728 1.82687 6.85663 1.83593C6.21957 2.46986 5.72152 3.24107 5.3653 4.09047ZM4.00771 7.89999H1.81384C1.84057 8.28567 1.90567 8.66078 2.00535 9.02154C2.63246 9.36588 3.41128 9.63375 4.27496 9.82192C4.12243 9.19433 4.03359 8.54794 4.00771 7.89999ZM4.49386 10.5806C3.72398 10.4354 2.99897 10.2307 2.35908 9.96492C3.02478 11.3508 4.2344 12.426 5.71125 12.9137C5.18194 12.2157 4.77678 11.4228 4.49386 10.5806ZM5.28359 10.7069C5.87719 10.7856 6.48825 10.8315 7.10005 10.8454V13.1862C7.01846 13.1806 6.93734 13.1732 6.85674 13.1641C6.16933 12.4801 5.64377 11.6363 5.28359 10.7069ZM7.10005 10.1453C6.39423 10.1285 5.69744 10.0676 5.03566 9.96379C4.8479 9.29904 4.73839 8.60312 4.70828 7.89999H7.10005V10.1453ZM7.90005 10.8454V13.1862C7.98258 13.1805 8.06462 13.173 8.14615 13.1638C8.85877 12.4778 9.40278 11.6312 9.77491 10.699C9.16302 10.7825 8.53193 10.8311 7.90005 10.8454ZM10.031 9.9532C9.34949 10.0635 8.62959 10.128 7.90005 10.1453V7.89999H10.3662C10.3353 8.59921 10.2232 9.29151 10.031 9.9532ZM10.5699 10.5684C10.2795 11.4113 9.86314 12.2048 9.31908 12.9036C10.7821 12.4113 11.9798 11.3414 12.6409 9.965C12.0187 10.2235 11.3161 10.4241 10.5699 10.5684ZM12.9947 9.02164C12.3846 9.35661 11.6309 9.6192 10.7952 9.80645C10.95 9.18383 11.0404 8.54276 11.0668 7.89999H13.1862C13.1595 8.2857 13.0944 8.66085 12.9947 9.02164ZM0.900024 7.50002C0.900024 3.85495 3.85495 0.900024 7.50002 0.900024C11.1451 0.900024 14.1 3.85495 14.1 7.50002C14.1 11.1451 11.1451 14.1 7.50002 14.1C3.85495 14.1 0.900024 11.1451 0.900024 7.50002Z"
    fill="currentColor"
  />
</svg>
