<svg width="15" height="15" viewBox="0 0 15 15" fill="none" xmlns="http://www.w3.org/2000/svg">
  <path
    fill-rule="evenodd"
    clip-rule="evenodd"
    d="M2.18179 2.18179C2.26618 2.0974 2.38064 2.04999 2.49999 2.04999H4C4.24853 2.04999 4.45 2.25146 4.45 2.49999C4.45 2.74852 4.24853 2.94999 4 2.94999H2.94999L2.95 3.99998C2.95001 4.24851 2.74854 4.44999 2.50001 4.44999C2.25148 4.44999 2.05001 4.24852 2.05 3.99999L2.04999 2.49999C2.04999 2.38064 2.0974 2.26618 2.18179 2.18179ZM6.04999 2.49999C6.04999 2.25146 6.25146 2.04999 6.49999 2.04999H8.49999C8.74852 2.04999 8.94999 2.25146 8.94999 2.49999C8.94999 2.74852 8.74852 2.94999 8.49999 2.94999H6.49999C6.25146 2.94999 6.04999 2.74852 6.04999 2.49999ZM10.55 2.49999C10.55 2.25146 10.7515 2.04999 11 2.04999H12.5C12.7485 2.04999 12.95 2.25146 12.95 2.49999V3.99999C12.95 4.24852 12.7485 4.44999 12.5 4.44999C12.2515 4.44999 12.05 4.24852 12.05 3.99999V2.94999H11C10.7515 2.94999 10.55 2.74852 10.55 2.49999ZM2.5 6.04999C2.74853 6.04999 2.95 6.25146 2.95 6.49999V8.49999C2.95 8.74852 2.74853 8.94999 2.5 8.94999C2.25147 8.94999 2.05 8.74852 2.05 8.49999V6.49999C2.05 6.25146 2.25147 6.04999 2.5 6.04999ZM12.5 6.04999C12.7485 6.04999 12.95 6.25146 12.95 6.49999V8.49999C12.95 8.74852 12.7485 8.94999 12.5 8.94999C12.2515 8.94999 12.05 8.74852 12.05 8.49999V6.49999C12.05 6.25146 12.2515 6.04999 12.5 6.04999ZM2.49999 10.55C2.74852 10.55 2.94999 10.7515 2.94999 11V12.05H4C4.24853 12.05 4.45 12.2515 4.45 12.5C4.45 12.7485 4.24853 12.95 4 12.95H2.49999C2.25146 12.95 2.04999 12.7485 2.04999 12.5V11C2.04999 10.7515 2.25146 10.55 2.49999 10.55ZM12.5 10.55C12.7485 10.55 12.95 10.7515 12.95 11L12.95 12.5C12.95 12.7485 12.7485 12.95 12.5 12.95H11C10.7515 12.95 10.55 12.7485 10.55 12.5C10.55 12.2515 10.7515 12.05 11 12.05H12.05L12.05 11C12.05 10.7515 12.2515 10.55 12.5 10.55ZM6.04999 12.5C6.04999 12.2515 6.25146 12.05 6.49999 12.05H8.49999C8.74852 12.05 8.94999 12.2515 8.94999 12.5C8.94999 12.7485 8.74852 12.95 8.49999 12.95H6.49999C6.25146 12.95 6.04999 12.7485 6.04999 12.5Z"
    fill="currentColor"
  />
</svg>
