<svg width="15" height="15" viewBox="0 0 15 15" fill="none" xmlns="http://www.w3.org/2000/svg">
  <path
    fill-rule="evenodd"
    clip-rule="evenodd"
    d="M6.8113 1.64706C6.62188 2.87918 6.68268 3.88523 6.76848 5.30499C6.78415 5.56426 6.80065 5.83732 6.81661 6.12808C6.83111 6.39208 6.63758 6.62172 6.37495 6.65217C6.11232 6.68262 5.87138 6.50334 5.82509 6.24304L5.74895 5.81488L5.74754 5.80698L5.74761 5.80697C5.64408 5.16528 5.48355 4.25481 5.17807 3.44741C4.86241 2.61312 4.4486 2.04121 3.93436 1.86044C3.64994 1.76104 3.41901 1.84279 3.25868 2.01052C3.08746 2.18962 2.9976 2.47065 3.0627 2.75399C3.2146 3.34424 3.44627 3.9167 3.69836 4.51802C3.72082 4.57158 3.74346 4.62543 3.76621 4.67954C3.9954 5.22457 4.23619 5.7972 4.41644 6.39081L4.41691 6.39238C4.562 6.87586 4.65646 7.2595 4.73086 7.56165C4.76034 7.68138 4.78667 7.78831 4.81175 7.88359C4.86768 8.09606 4.77836 8.32014 4.59161 8.43588C4.40486 8.55161 4.16445 8.53188 3.99907 8.38725C3.73749 8.15848 3.515 7.92784 3.31817 7.71802C3.27627 7.67335 3.23602 7.63018 3.19705 7.58838C3.04777 7.42826 2.91712 7.28812 2.78334 7.16029C2.45989 6.85122 2.18398 6.68004 1.80585 6.64369L1.80324 6.64343C1.56117 6.61888 1.41402 6.66441 1.31756 6.72627C1.21899 6.78947 1.11988 6.90414 1.03784 7.1123C0.976576 7.28492 1.01515 7.62987 1.1929 7.96911L1.19728 7.97747L1.1972 7.97751C1.40078 8.38456 1.74475 8.81587 2.18141 9.29299C2.39739 9.52898 2.62872 9.76849 2.86934 10.0174L2.87966 10.0281C3.11546 10.2721 3.35962 10.5247 3.59713 10.7827C4.4288 11.6863 5.27706 12.7538 5.4627 14H11.5087C11.5636 12.4353 11.8756 11.268 12.2875 10.1346C12.4454 9.70041 12.6121 9.28412 12.7826 8.85829C13.1097 8.04139 13.4509 7.18937 13.7705 6.10824C14.0989 4.99737 14.0097 4.37033 13.8613 4.03984C13.717 3.71857 13.4914 3.61786 13.3816 3.59606C13.1381 3.54774 13.0384 3.60947 12.9698 3.67901C12.867 3.78316 12.7698 3.98273 12.6921 4.30269C12.6166 4.61345 12.5752 4.96517 12.533 5.32501L12.5298 5.35285C12.4924 5.67242 12.4505 6.03016 12.3665 6.30098C12.3591 6.32872 12.3403 6.39048 12.3039 6.45073C12.2896 6.47431 12.2563 6.52576 12.1979 6.57539C12.1382 6.6261 12.0104 6.70818 11.8309 6.69312C11.652 6.6781 11.5401 6.57649 11.4902 6.51769C11.441 6.45982 11.4166 6.40431 11.4064 6.37905C11.3741 6.29889 11.3689 6.22183 11.3684 6.21495C11.3684 6.2147 11.3684 6.21455 11.3684 6.21449C11.3662 6.18952 11.3654 6.16555 11.365 6.14783C11.3638 6.09607 11.366 5.97483 11.366 5.99375V5.98124L11.3662 5.98125C11.3748 5.63581 11.3912 5.29816 11.4074 4.96608C11.4428 4.23646 11.477 3.5337 11.4245 2.8342L11.4242 2.82934L11.4242 2.82934C11.3916 2.32997 11.0493 2.00228 10.7007 1.9228C10.5305 1.88401 10.369 1.90601 10.2347 1.9835C10.103 2.05946 9.95535 2.21318 9.8574 2.51394L9.85631 2.51726C9.81525 2.6404 9.77298 2.87753 9.73606 3.2124C9.70044 3.53542 9.67337 3.91279 9.65156 4.29418C9.6329 4.62033 9.61785 4.9584 9.60434 5.26194C9.58728 5.64529 9.57267 5.97357 9.55633 6.1532C9.5557 6.16016 9.55492 6.1671 9.554 6.17402C9.55398 6.17418 9.55395 6.17442 9.55391 6.17475C9.55304 6.1816 9.54747 6.22574 9.53105 6.27504C9.52589 6.29055 9.51484 6.32156 9.49501 6.35785C9.48136 6.38282 9.43146 6.47226 9.32415 6.54051C9.26277 6.57954 9.1766 6.61517 9.07106 6.61843C8.96441 6.62172 8.8731 6.59085 8.80469 6.55119C8.68586 6.48232 8.63143 6.38545 8.61698 6.35919C8.58239 6.29634 8.56961 6.23952 8.56715 6.22859L8.56691 6.22752C8.56235 6.20761 8.55981 6.19113 8.55854 6.18225C8.5559 6.16376 8.55446 6.14728 8.55367 6.13737C8.55063 6.09904 8.54885 6.04539 8.54754 5.99283C8.54474 5.88064 8.54294 5.71798 8.54174 5.54767C8.53935 5.20582 8.53935 4.81919 8.53935 4.70952V4.70925C8.53935 3.66544 8.53838 2.65372 8.44714 1.64372C8.39183 1.24127 8.06278 1.00455 7.6436 1.00005C7.22399 0.995552 6.87918 1.22704 6.8113 1.64706ZM9.41219 1.3617C9.21469 0.448484 8.39913 0.00810324 7.65433 0.00011154C6.86452 -0.00836308 5.98761 0.465881 5.82365 1.49037L5.82364 1.49037L5.82318 1.49334C5.78239 1.7584 5.75229 2.01481 5.7309 2.26652C5.39423 1.67364 4.92622 1.14894 4.2655 0.916859L4.26494 0.91666C3.58604 0.679114 2.9492 0.887086 2.53582 1.31952C2.13415 1.73971 1.94438 2.36742 2.09031 2.98746L2.09022 2.98748L2.09269 2.99713C2.26478 3.66808 2.52396 4.30316 2.77613 4.90465C2.79814 4.95717 2.8201 5.00941 2.84194 5.06139C3.02139 5.48842 3.19378 5.89866 3.33871 6.31256C2.96404 5.98142 2.51925 5.70796 1.90276 5.6484C1.48865 5.60663 1.10391 5.67536 0.777805 5.88444C0.454239 6.0919 0.240671 6.40405 0.104187 6.75406L0.104105 6.75403L0.100868 6.76281C-0.10184 7.31286 0.0663312 7.97157 0.304895 8.42897C0.573704 8.96474 0.996104 9.47904 1.44372 9.96813C1.67046 10.2159 1.91136 10.4652 2.15033 10.7124L2.15682 10.7191C2.39524 10.9658 2.63217 11.2109 2.86134 11.4599C3.80937 12.49 4.50002 13.4632 4.50002 14.5C4.50002 14.7761 4.72388 15 5.00002 15H12C12.2762 15 12.5 14.7761 12.5 14.5C12.5 12.8212 12.8021 11.6462 13.2274 10.4762C13.3653 10.0968 13.5216 9.70579 13.6868 9.29247C14.0238 8.44922 14.398 7.51298 14.7295 6.39175C15.0956 5.15324 15.0559 4.25904 14.7735 3.63017C14.487 2.99208 13.9798 2.6953 13.5763 2.6152C13.1276 2.52614 12.7367 2.60475 12.4268 2.83081C12.4253 2.80773 12.4236 2.78468 12.4219 2.76167C12.3587 1.8105 11.6907 1.12285 10.923 0.947821C10.5346 0.859287 10.1111 0.900393 9.73509 1.11724C9.61852 1.18446 9.51055 1.26623 9.41219 1.3617ZM8.9071 2.20261C8.90728 2.20206 8.90747 2.20151 8.90765 2.20096L9.38198 2.35911L8.90656 2.20428C8.90674 2.20372 8.90692 2.20317 8.9071 2.20261Z"
    fill="currentColor"
  />
</svg>
