<svg width="15" height="15" viewBox="0 0 15 15" fill="none" xmlns="http://www.w3.org/2000/svg">
  <path
    fill-rule="evenodd"
    clip-rule="evenodd"
    d="M8.75435 2.0502C8.50582 2.0502 8.30435 2.25167 8.30435 2.5002C8.30435 2.74873 8.50582 2.9502 8.75435 2.9502H9.95V7.05004H5.05V2.9502H6.25435C6.50288 2.9502 6.70435 2.74873 6.70435 2.5002C6.70435 2.25167 6.50288 2.0502 6.25435 2.0502H2.75435C2.50582 2.0502 2.30435 2.25167 2.30435 2.5002C2.30435 2.74873 2.50582 2.9502 2.75435 2.9502H3.95V12.0502H2.75435C2.50582 12.0502 2.30435 12.2517 2.30435 12.5002C2.30435 12.7487 2.50582 12.9502 2.75435 12.9502H6.25435C6.50288 12.9502 6.70435 12.7487 6.70435 12.5002C6.70435 12.2517 6.50288 12.0502 6.25435 12.0502H5.05V7.95004H9.95V12.0502H8.75435C8.50582 12.0502 8.30435 12.2517 8.30435 12.5002C8.30435 12.7487 8.50582 12.9502 8.75435 12.9502H12.2544C12.5029 12.9502 12.7044 12.7487 12.7044 12.5002C12.7044 12.2517 12.5029 12.0502 12.2544 12.0502H11.05V2.9502H12.2544C12.5029 2.9502 12.7044 2.74873 12.7044 2.5002C12.7044 2.25167 12.5029 2.0502 12.2544 2.0502H8.75435Z"
    fill="currentColor"
  />
</svg>
