<svg width="15" height="15" fill="none" xmlns="http://www.w3.org/2000/svg" viewBox="0 0 15 15">
  <path
    fill-rule="evenodd"
    clip-rule="evenodd"
    d="M7.49988 0.876907C3.84219 0.876907 0.877045 3.84205 0.877045 7.49974C0.877045 11.1574 3.84219 14.1226 7.49988 14.1226C11.1575 14.1226 14.1227 11.1574 14.1227 7.49974C14.1227 3.84205 11.1575 0.876907 7.49988 0.876907ZM1.82704 7.49974C1.82704 4.36673 4.36686 1.82691 7.49988 1.82691C10.6329 1.82691 13.1727 4.36673 13.1727 7.49974C13.1727 10.6327 10.6329 13.1726 7.49988 13.1726C4.36686 13.1726 1.82704 10.6327 1.82704 7.49974ZM8.24989 4.5C8.24989 4.91421 7.9141 5.25 7.49989 5.25C7.08568 5.25 6.74989 4.91421 6.74989 4.5C6.74989 4.08579 7.08568 3.75 7.49989 3.75C7.9141 3.75 8.24989 4.08579 8.24989 4.5ZM6 6H6.5H7.5C7.77615 6 8 6.22386 8 6.5V10H8.5H9V11H8.5H7.5H6.5H6V10H6.5H7V7H6.5H6V6Z"
    fill="currentColor"
  />
</svg>
