<svg width="15" height="15" fill="none" xmlns="http://www.w3.org/2000/svg">
  <path
    fill-rule="evenodd"
    clip-rule="evenodd"
    d="M5.50001 0.5C5.50001 0.223858 5.72387 0 6.00001 0H7.50001H9.00001C9.27615 0 9.50001 0.223858 9.50001 0.5C9.50001 0.776142 9.27615 1 9.00001 1H8.00001V2.11922C9.09835 2.20409 10.119 2.56622 10.992 3.13572C11.0116 3.10851 11.0336 3.08252 11.0581 3.05806L12.0581 2.05806C12.3021 1.81398 12.6979 1.81398 12.9419 2.05806C13.186 2.30214 13.186 2.69786 12.9419 2.94194L11.9671 3.91682C13.1595 5.07925 13.9 6.70314 13.9 8.49998C13.9 12.0346 11.0346 14.9 7.50001 14.9C3.96538 14.9 1.10001 12.0346 1.10001 8.49998C1.10001 5.13361 3.69907 2.3743 7.00001 2.11922V1H6.00001C5.72387 1 5.50001 0.776142 5.50001 0.5ZM2.10001 8.49998C2.10001 5.51764 4.51767 3.09998 7.50001 3.09998C10.4823 3.09998 12.9 5.51764 12.9 8.49998C12.9 11.4823 10.4823 13.9 7.50001 13.9C4.51767 13.9 2.10001 11.4823 2.10001 8.49998ZM7.50001 8.49998V4.09998C5.06995 4.09998 3.10001 6.06992 3.10001 8.49998C3.10001 10.93 5.06995 12.9 7.50001 12.9C8.71503 12.9 9.81503 12.4075 10.6113 11.6112L7.50001 8.49998Z"
    fill="currentColor"
  />
</svg>
