<svg width="15" height="15" fill="none" xmlns="http://www.w3.org/2000/svg" viewBox="0 0 15 15">
  <path
    fill-rule="evenodd"
    clip-rule="evenodd"
    d="M4.55296 1C4.75298 1 4.93375 1.1192 5.01253 1.30304L8.01109 8.29985C8.11987 8.55366 8.00229 8.8476 7.74847 8.95638C7.49466 9.06515 7.20072 8.94757 7.09194 8.69376L6.11616 6.41688H2.98976L2.01398 8.69376C1.9052 8.94757 1.61126 9.06515 1.35745 8.95638C1.10363 8.8476 0.986054 8.55366 1.09483 8.29985L4.09339 1.30304C4.17217 1.1192 4.35294 1 4.55296 1ZM4.55296 2.76932L5.75189 5.56688H3.35403L4.55296 2.76932ZM11.0562 9.00217C11.2617 9.00217 11.4464 8.87636 11.5215 8.68505L14.2733 1.68302C14.3743 1.42601 14.2479 1.13578 13.9908 1.03478C13.7338 0.933777 13.4436 1.06024 13.3426 1.31725L11.0562 7.13517L8.76976 1.31725C8.66876 1.06024 8.37853 0.933777 8.12153 1.03478C7.86452 1.13578 7.73805 1.42601 7.83906 1.68302L10.5908 8.68505C10.666 8.87636 10.8506 9.00217 11.0562 9.00217ZM14.9537 12.4999C14.9537 12.606 14.9116 12.7078 14.8366 12.7828L12.8366 14.7828C12.6803 14.939 12.4271 14.939 12.2709 14.7828C12.1147 14.6266 12.1147 14.3733 12.2709 14.2171L13.588 12.8999H1.5194L2.83656 14.2171C2.99277 14.3733 2.99277 14.6266 2.83656 14.7828C2.68035 14.939 2.42708 14.939 2.27087 14.7828L0.270874 12.7828C0.195859 12.7078 0.153717 12.606 0.153717 12.4999C0.153717 12.3939 0.195859 12.2921 0.270874 12.2171L2.27087 10.2171C2.42708 10.0609 2.68035 10.0609 2.83656 10.2171C2.99277 10.3733 2.99277 10.6266 2.83656 10.7828L1.5194 12.0999L13.588 12.0999L12.2709 10.7828C12.1147 10.6266 12.1147 10.3733 12.2709 10.2171C12.4271 10.0609 12.6804 10.0609 12.8366 10.2171L14.8366 12.2171C14.9116 12.2921 14.9537 12.3939 14.9537 12.4999Z"
    fill="currentColor"
  />
</svg>
