<svg width="15" height="15" fill="none" xmlns="http://www.w3.org/2000/svg" viewBox="0 0 15 15">
  <path
    fill-rule="evenodd"
    clip-rule="evenodd"
    d="M3.6255 2.75C3.83479 2.75 4.02192 2.88034 4.09449 3.07664L7.16986 11.3962C7.2656 11.6552 7.13325 11.9428 6.87424 12.0386C6.61523 12.1343 6.32764 12.002 6.23189 11.7429L5.22388 9.01603H2.02713L1.01911 11.7429C0.92337 12.002 0.635782 12.1343 0.376769 12.0386C0.117757 11.9428 -0.0145976 11.6552 0.0811477 11.3962L3.15652 3.07664C3.22908 2.88034 3.41622 2.75 3.6255 2.75ZM3.6255 4.69207L4.90967 8.16603H2.34134L3.6255 4.69207ZM11.3719 2.75C11.5811 2.75 11.7683 2.88034 11.8408 3.07664L14.9162 11.3962C15.012 11.6552 14.8796 11.9428 14.6206 12.0386C14.3616 12.1343 14.074 12.002 13.9783 11.7429L12.9702 9.01603H9.77349L8.76547 11.7429C8.66973 12.002 8.38214 12.1343 8.12313 12.0386C7.86412 11.9428 7.73176 11.6552 7.82751 11.3962L10.9029 3.07664C10.9754 2.88034 11.1626 2.75 11.3719 2.75ZM11.3719 4.69207L12.656 8.16603H10.0877L11.3719 4.69207Z"
    fill="currentColor"
  />
</svg>
