<svg width="15" height="15" fill="none" xmlns="http://www.w3.org/2000/svg" viewBox="0 0 15 15">
  <path
    fill-rule="evenodd"
    clip-rule="evenodd"
    d="M3.69893 5.20703C2.05817 5.20703 0.809143 6.68569 0.809143 8.60972C0.809143 10.6337 2.15817 12.0124 3.69893 12.0124C4.5212 12.0124 5.37395 11.6693 5.95384 11.0223V11.53C5.95384 11.7785 6.15531 11.98 6.40384 11.98C6.65236 11.98 6.85384 11.7785 6.85384 11.53V5.72001C6.85384 5.47149 6.65236 5.27001 6.40384 5.27001C6.15531 5.27001 5.95384 5.47149 5.95384 5.72001V6.22269C5.405 5.60075 4.59212 5.20703 3.69893 5.20703ZM5.95384 9.799V7.30117C5.56332 6.58064 4.74112 6.05757 3.88674 6.05757C2.90883 6.05757 1.83502 6.96581 1.83502 8.60955C1.83502 10.1533 2.80883 11.1615 3.88674 11.1615C4.76978 11.1615 5.57135 10.4957 5.95384 9.799ZM10.7989 5.20703C9.15817 5.20703 7.90914 6.68569 7.90914 8.60972C7.90914 10.6337 9.25817 12.0124 10.7989 12.0124C11.6214 12.0124 12.4744 11.6692 13.0543 11.0218V11.53C13.0543 11.7785 13.2557 11.98 13.5043 11.98C13.7528 11.98 13.9543 11.7785 13.9543 11.53V5.72C13.9543 5.47147 13.7528 5.27 13.5043 5.27C13.2557 5.27 13.0543 5.47147 13.0543 5.72V6.22318C12.5054 5.60095 11.6924 5.20703 10.7989 5.20703ZM13.0543 9.79822V7.30196C12.6639 6.58102 11.8414 6.05757 10.9867 6.05757C10.0088 6.05757 8.93502 6.96581 8.93502 8.60955C8.93502 10.1533 9.90883 11.1615 10.9867 11.1615C11.8701 11.1615 12.6719 10.4952 13.0543 9.79822Z"
    fill="currentColor"
  />
</svg>
