<svg width="15" height="15" fill="none" xmlns="http://www.w3.org/2000/svg">
  <path
    fill-rule="evenodd"
    clip-rule="evenodd"
    d="M3.78236 2.21713C3.70735 2.14212 3.60561 2.09998 3.49952 2.09998C3.39343 2.09998 3.29169 2.14212 3.21668 2.21713L1.21668 4.21713C1.06047 4.37334 1.06047 4.62661 1.21668 4.78281C1.37289 4.93902 1.62616 4.93902 1.78237 4.78281L3.09952 3.46566L3.09952 11.5343L1.78237 10.2171C1.62616 10.0609 1.37289 10.0609 1.21668 10.2171C1.06047 10.3733 1.06047 10.6266 1.21668 10.7828L3.21668 12.7828C3.29169 12.8578 3.39343 12.9 3.49952 12.9C3.60561 12.9 3.70735 12.8578 3.78236 12.7828L5.78236 10.7828C5.93857 10.6266 5.93857 10.3733 5.78236 10.2171C5.62615 10.0609 5.37288 10.0609 5.21668 10.2171L3.89952 11.5343L3.89952 3.46566L5.21668 4.78282C5.37288 4.93902 5.62615 4.93902 5.78236 4.78282C5.93857 4.62661 5.93857 4.37334 5.78236 4.21713L3.78236 2.21713ZM8.5 3.99996C8.22386 3.99996 8 4.22382 8 4.49996C8 4.7761 8.22386 4.99996 8.5 4.99996H14.5C14.7761 4.99996 15 4.7761 15 4.49996C15 4.22382 14.7761 3.99996 14.5 3.99996H8.5ZM8 7.49996C8 7.22382 8.22386 6.99996 8.5 6.99996H14.5C14.7761 6.99996 15 7.22382 15 7.49996C15 7.7761 14.7761 7.99996 14.5 7.99996H8.5C8.22386 7.99996 8 7.7761 8 7.49996ZM8.5 9.99995C8.22386 9.99995 8 10.2238 8 10.5C8 10.7761 8.22386 11 8.5 11H14.5C14.7761 11 15 10.7761 15 10.5C15 10.2238 14.7761 9.99995 14.5 9.99995H8.5Z"
    fill="currentColor"
  />
</svg>
