<svg width="15" height="15" viewBox="0 0 15 15" fill="none" xmlns="http://www.w3.org/2000/svg">
  <path
    fill-rule="evenodd"
    clip-rule="evenodd"
    d="M3.78235 2.21714C3.70734 2.14212 3.6056 2.09998 3.49951 2.09998C3.39342 2.09998 3.29168 2.14212 3.21667 2.21714L1.21667 4.21714C1.06046 4.37335 1.06046 4.62661 1.21667 4.78282C1.37288 4.93903 1.62614 4.93903 1.78235 4.78282L3.09951 3.46567L3.09951 11.5343L1.78235 10.2171C1.62614 10.0609 1.37288 10.0609 1.21667 10.2171C1.06046 10.3733 1.06046 10.6266 1.21667 10.7828L3.21667 12.7828C3.29168 12.8578 3.39342 12.9 3.49951 12.9C3.6056 12.9 3.70734 12.8578 3.78235 12.7828L5.78235 10.7828C5.93856 10.6266 5.93856 10.3733 5.78235 10.2171C5.62614 10.0609 5.37288 10.0609 5.21667 10.2171L3.89951 11.5343L3.89951 3.46567L5.21667 4.78282C5.37288 4.93903 5.62614 4.93903 5.78235 4.78282C5.93856 4.62661 5.93856 4.37335 5.78235 4.21714L3.78235 2.21714ZM8.5 3.99997C8.22386 3.99997 8 4.22383 8 4.49997C8 4.77611 8.22386 4.99997 8.5 4.99997H14.5C14.7761 4.99997 15 4.77611 15 4.49997C15 4.22383 14.7761 3.99997 14.5 3.99997H8.5ZM8 7.49997C8 7.22383 8.22386 6.99997 8.5 6.99997H14.5C14.7761 6.99997 15 7.22383 15 7.49997C15 7.77611 14.7761 7.99997 14.5 7.99997H8.5C8.22386 7.99997 8 7.77611 8 7.49997ZM8.5 9.99997C8.22386 9.99997 8 10.2238 8 10.5C8 10.7761 8.22386 11 8.5 11H14.5C14.7761 11 15 10.7761 15 10.5C15 10.2238 14.7761 9.99997 14.5 9.99997H8.5Z"
    fill="currentColor"
  />
</svg>
