<svg width="15" height="15" fill="none" xmlns="http://www.w3.org/2000/svg" viewBox="0 0 15 15">
  <path
    fill-rule="evenodd"
    clip-rule="evenodd"
    d="M4.59899 8.75142C4.6131 8.73731 4.62741 8.72301 4.64191 8.70851L5.26061 8.08981C5.45587 7.89455 5.77245 7.89455 5.9677 8.08981C6.16296 8.28507 6.16296 8.60164 5.9677 8.7969L5.349 9.4156C4.92201 9.84259 4.75971 10.0081 4.65485 10.1624C4.19539 10.8388 4.1864 11.6939 4.60363 12.3292C4.69837 12.4735 4.84874 12.6276 5.26061 13.0394C5.67249 13.4513 5.82656 13.6017 5.97082 13.6964C6.60615 14.1137 7.46129 14.1047 8.13763 13.6452C8.29199 13.5403 8.45746 13.378 8.88445 12.951L9.50315 12.3323C9.69841 12.1371 10.015 12.1371 10.2102 12.3323C10.4055 12.5276 10.4055 12.8442 10.2102 13.0394L9.59154 13.6581C9.57704 13.6726 9.56274 13.6869 9.54863 13.7011C9.1791 14.0707 8.94264 14.3072 8.69954 14.4724C7.70559 15.1476 6.41192 15.1824 5.4219 14.5323C5.18045 14.3737 4.94944 14.1426 4.59815 13.7912C4.58349 13.7765 4.56861 13.7616 4.55352 13.7465C4.53843 13.7314 4.52355 13.7166 4.50888 13.7019C4.15745 13.3506 3.92635 13.1196 3.76779 12.8781C3.11761 11.8881 3.15247 10.5945 3.82768 9.6005C3.99282 9.35741 4.22936 9.12095 4.59899 8.75142ZM10.1616 4.65568C10.0072 4.76055 9.84176 4.92284 9.41476 5.34984L8.79606 5.96854C8.6008 6.1638 8.28423 6.1638 8.08897 5.96854C7.89371 5.77328 7.89371 5.45671 8.08897 5.26145L8.70767 4.64275C8.72218 4.62824 8.73648 4.61394 8.75058 4.59983C9.12011 4.23019 9.35657 3.99366 9.59967 3.82852C10.5936 3.1533 11.8873 3.11845 12.8773 3.76862C13.1188 3.92719 13.3498 4.15829 13.7011 4.50972C13.7157 4.52439 13.7306 4.53927 13.7457 4.55436C13.7608 4.56945 13.7757 4.58433 13.7903 4.59899C14.1418 4.95028 14.3729 5.18129 14.5314 5.42273C15.1816 6.41276 15.1467 7.70643 14.4715 8.70038C14.3064 8.94348 14.0699 9.17994 13.7002 9.54947C13.6861 9.56357 13.6718 9.57787 13.6573 9.59237L13.0386 10.2111C12.8433 10.4063 12.5268 10.4063 12.3315 10.2111C12.1363 10.0158 12.1363 9.69924 12.3315 9.50399L12.9502 8.88528C13.3772 8.45829 13.5395 8.29283 13.6444 8.13847C14.1038 7.46213 14.1128 6.60698 13.6956 5.97166C13.6008 5.82739 13.4505 5.67333 13.0386 5.26145C12.6267 4.84957 12.4727 4.69921 12.3284 4.60447C11.6931 4.18723 10.8379 4.19623 10.1616 4.65568Z"
    fill="currentColor"
  />
</svg>
