<svg width="15" height="15" fill="none" xmlns="http://www.w3.org/2000/svg" viewBox="0 0 15 15">
  <path
    fill-rule="evenodd"
    clip-rule="evenodd"
    d="M4.6422 8.70861L4.59928 8.75152C4.22965 9.12104 3.99312 9.3575 3.82799 9.60059C3.15278 10.5945 3.11793 11.8882 3.76809 12.8782C3.92666 13.1196 4.15775 13.3506 4.50918 13.7019L4.55382 13.7465L4.59844 13.7912C4.94973 14.1426 5.18073 14.3737 5.42218 14.5323C6.41218 15.1824 7.70583 15.1476 8.69977 14.4724C8.94286 14.3072 9.17932 14.0707 9.54884 13.7011L9.59175 13.6582L10.2104 13.0395C10.4057 12.8442 10.4057 12.5276 10.2104 12.3324C10.0152 12.1371 9.69862 12.1371 9.50336 12.3324L8.88467 12.9511C8.45768 13.3781 8.29222 13.5404 8.13786 13.6452C7.46154 14.1047 6.60641 14.1137 5.97109 13.6964C5.82683 13.6017 5.67276 13.4513 5.26089 13.0395C4.84902 12.6276 4.69866 12.4735 4.60392 12.3293C4.18669 11.694 4.19569 10.8388 4.65514 10.1625C4.76 10.0081 4.92229 9.84268 5.34928 9.41569L5.96797 8.797C6.16323 8.60174 6.16323 8.28517 5.96797 8.08992C5.77272 7.89467 5.45615 7.89467 5.26089 8.08992L4.6422 8.70861ZM9.41498 5.34999C9.84196 4.92301 10.0074 4.76071 10.1618 4.65585C10.8381 4.19641 11.6932 4.18741 12.3286 4.60464C12.4728 4.69938 12.6269 4.84974 13.0388 5.26161C13.4506 5.67348 13.601 5.82754 13.6957 5.9718C14.113 6.60712 14.104 7.46225 13.6445 8.13858C13.5396 8.29294 13.3774 8.4584 12.9504 8.88538L12.3317 9.50408C12.1364 9.69933 12.1364 10.0159 12.3317 10.2112C12.5269 10.4064 12.8435 10.4064 13.0388 10.2112L13.6574 9.59246L13.7004 9.54956C14.07 9.18004 14.3065 8.94357 14.4717 8.70048C15.1469 7.70655 15.1817 6.4129 14.5316 5.42289C14.373 5.18145 14.1419 4.95044 13.7905 4.59916L13.7458 4.55453L13.7012 4.50989C13.3499 4.15846 13.1189 3.92737 12.8775 3.76881C11.8875 3.11864 10.5938 3.1535 9.59988 3.8287C9.35679 3.99384 9.12033 4.23037 8.75081 4.6L8.7079 4.64291L8.08921 5.26161C7.89395 5.45686 7.89395 5.77343 8.08921 5.96869C8.28446 6.16394 8.60103 6.16394 8.79628 5.96869L9.41498 5.34999ZM7.02905 10.5642C6.8338 10.7595 6.8338 11.076 7.02905 11.2713C7.22431 11.4665 7.54088 11.4665 7.73613 11.2713L11.2715 7.7359C11.4668 7.54065 11.4668 7.22408 11.2715 7.02882C11.0763 6.83357 10.7597 6.83357 10.5644 7.02882L7.02905 10.5642Z"
    fill="currentColor"
  />
</svg>
