<svg width="15" height="15" viewBox="0 0 15 15" fill="none" xmlns="http://www.w3.org/2000/svg">
  <mask id="a" fill="currentColor">
    <path
      fill-rule="evenodd"
      clip-rule="evenodd"
      d="M7.25925 3.16667L4.37036 5.33333V1L7.25925 3.16667ZM1 8.22222L3.88889 6.05555L1 3.88889V8.22222ZM1 14L3.88889 11.8333L1 9.66666V14ZM7.74072 8.22222L10.6296 6.05555L7.74072 3.88889V8.22222ZM14 3.16667L11.1111 5.33333V1L14 3.16667ZM11.1111 11.1111L14 8.94444L11.1111 6.77777V11.1111ZM3.88889 11.1111L1 8.94444L3.88889 6.77777V11.1111ZM4.37036 6.05555L7.25925 8.22222V3.88889L4.37036 6.05555ZM3.88889 5.33333L1 3.16667L3.88889 1V5.33333ZM7.74072 3.16667L10.6296 5.33333V1L7.74072 3.16667ZM14 8.22222L11.1111 6.05555L14 3.88889V8.22222ZM11.1111 11.8333L14 14V9.66666L11.1111 11.8333Z"
    />
  </mask>
  <path
    fill-rule="evenodd"
    clip-rule="evenodd"
    d="M7.25925 3.16667L4.37036 5.33333V1L7.25925 3.16667ZM1 8.22222L3.88889 6.05555L1 3.88889V8.22222ZM1 14L3.88889 11.8333L1 9.66666V14ZM7.74072 8.22222L10.6296 6.05555L7.74072 3.88889V8.22222ZM14 3.16667L11.1111 5.33333V1L14 3.16667ZM11.1111 11.1111L14 8.94444L11.1111 6.77777V11.1111ZM3.88889 11.1111L1 8.94444L3.88889 6.77777V11.1111ZM4.37036 6.05555L7.25925 8.22222V3.88889L4.37036 6.05555ZM3.88889 5.33333L1 3.16667L3.88889 1V5.33333ZM7.74072 3.16667L10.6296 5.33333V1L7.74072 3.16667ZM14 8.22222L11.1111 6.05555L14 3.88889V8.22222ZM11.1111 11.8333L14 14V9.66666L11.1111 11.8333Z"
    fill="currentColor"
  />
  <path
    d="M4.37036 5.33333H4.27036V5.53333L4.43036 5.41333L4.37036 5.33333ZM7.25925 3.16667L7.31925 3.24667L7.42592 3.16667L7.31925 3.08667L7.25925 3.16667ZM4.37036 1L4.43036 0.92L4.27036 0.8V1H4.37036ZM3.88889 6.05555L3.94889 6.13555L4.05556 6.05555L3.94889 5.97555L3.88889 6.05555ZM1 8.22222H0.9V8.42222L1.06 8.30222L1 8.22222ZM1 3.88889L1.06 3.80889L0.9 3.68889V3.88889H1ZM3.88889 11.8333L3.94889 11.9133L4.05556 11.8333L3.94889 11.7533L3.88889 11.8333ZM1 14H0.9V14.2L1.06 14.08L1 14ZM1 9.66666L1.06 9.58666L0.9 9.46666V9.66666H1ZM10.6296 6.05555L10.6896 6.13555L10.7963 6.05555L10.6896 5.97555L10.6296 6.05555ZM7.74072 8.22222H7.64072V8.42222L7.80072 8.30222L7.74072 8.22222ZM7.74072 3.88889L7.80072 3.80889L7.64072 3.68889V3.88889H7.74072ZM11.1111 5.33333H11.0111V5.53333L11.1711 5.41333L11.1111 5.33333ZM14 3.16667L14.06 3.24667L14.1666 3.16667L14.06 3.08667L14 3.16667ZM11.1111 1L11.1711 0.92L11.0111 0.8V1H11.1111ZM14 8.94444L14.06 9.02444L14.1666 8.94444L14.06 8.86444L14 8.94444ZM11.1111 11.1111H11.0111V11.3111L11.1711 11.1911L11.1111 11.1111ZM11.1111 6.77777L11.1711 6.69777L11.0111 6.57777V6.77777H11.1111ZM1 8.94444L0.94 8.86444L0.833333 8.94444L0.94 9.02444L1 8.94444ZM3.88889 11.1111L3.82889 11.1911L3.98889 11.3111V11.1111H3.88889ZM3.88889 6.77777H3.98889V6.57777L3.82889 6.69777L3.88889 6.77777ZM7.25925 8.22222L7.19925 8.30222L7.35925 8.42222V8.22222H7.25925ZM4.37036 6.05555L4.31036 5.97555L4.20369 6.05555L4.31036 6.13555L4.37036 6.05555ZM7.25925 3.88889H7.35925V3.68889L7.19925 3.80889L7.25925 3.88889ZM1 3.16667L0.94 3.08667L0.833333 3.16667L0.94 3.24667L1 3.16667ZM3.88889 5.33333L3.82889 5.41333L3.98889 5.53333V5.33333H3.88889ZM3.88889 1H3.98889V0.8L3.82889 0.92L3.88889 1ZM10.6296 5.33333L10.5696 5.41333L10.7296 5.53333V5.33333H10.6296ZM7.74072 3.16667L7.68072 3.08667L7.57406 3.16667L7.68072 3.24667L7.74072 3.16667ZM10.6296 1H10.7296V0.8L10.5696 0.92L10.6296 1ZM11.1111 6.05555L11.0511 5.97555L10.9444 6.05555L11.0511 6.13555L11.1111 6.05555ZM14 8.22222L13.94 8.30222L14.1 8.42222V8.22222H14ZM14 3.88889H14.1V3.68889L13.94 3.80889L14 3.88889ZM14 14L13.94 14.08L14.1 14.2V14H14ZM11.1111 11.8333L11.0511 11.7533L10.9444 11.8333L11.0511 11.9133L11.1111 11.8333ZM14 9.66666H14.1V9.46666L13.94 9.58666L14 9.66666ZM4.43036 5.41333L7.31925 3.24667L7.19925 3.08667L4.31036 5.25333L4.43036 5.41333ZM4.27036 1V5.33333H4.47036V1H4.27036ZM7.31925 3.08667L4.43036 0.92L4.31036 1.08L7.19925 3.24667L7.31925 3.08667ZM3.82889 5.97555L0.94 8.14222L1.06 8.30222L3.94889 6.13555L3.82889 5.97555ZM0.94 3.96889L3.82889 6.13555L3.94889 5.97555L1.06 3.80889L0.94 3.96889ZM1.1 8.22222V3.88889H0.9V8.22222H1.1ZM3.82889 11.7533L0.94 13.92L1.06 14.08L3.94889 11.9133L3.82889 11.7533ZM0.94 9.74666L3.82889 11.9133L3.94889 11.7533L1.06 9.58666L0.94 9.74666ZM1.1 14V9.66666H0.9V14H1.1ZM10.5696 5.97555L7.68072 8.14222L7.80072 8.30222L10.6896 6.13555L10.5696 5.97555ZM7.68072 3.96889L10.5696 6.13555L10.6896 5.97555L7.80072 3.80889L7.68072 3.96889ZM7.84072 8.22222V3.88889H7.64072V8.22222H7.84072ZM11.1711 5.41333L14.06 3.24667L13.94 3.08667L11.0511 5.25333L11.1711 5.41333ZM11.0111 1V5.33333H11.2111V1H11.0111ZM14.06 3.08667L11.1711 0.92L11.0511 1.08L13.94 3.24667L14.06 3.08667ZM13.94 8.86444L11.0511 11.0311L11.1711 11.1911L14.06 9.02444L13.94 8.86444ZM11.0511 6.85777L13.94 9.02444L14.06 8.86444L11.1711 6.69777L11.0511 6.85777ZM11.2111 11.1111V6.77777H11.0111V11.1111H11.2111ZM0.94 9.02444L3.82889 11.1911L3.94889 11.0311L1.06 8.86444L0.94 9.02444ZM3.82889 6.69777L0.94 8.86444L1.06 9.02444L3.94889 6.85777L3.82889 6.69777ZM3.98889 11.1111V6.77777H3.78889V11.1111H3.98889ZM7.31925 8.14222L4.43036 5.97555L4.31036 6.13555L7.19925 8.30222L7.31925 8.14222ZM7.15925 3.88889V8.22222H7.35925V3.88889H7.15925ZM4.43036 6.13555L7.31925 3.96889L7.19925 3.80889L4.31036 5.97555L4.43036 6.13555ZM0.94 3.24667L3.82889 5.41333L3.94889 5.25333L1.06 3.08667L0.94 3.24667ZM3.82889 0.92L0.94 3.08667L1.06 3.24667L3.94889 1.08L3.82889 0.92ZM3.98889 5.33333V1H3.78889V5.33333H3.98889ZM10.6896 5.25333L7.80072 3.08667L7.68072 3.24667L10.5696 5.41333L10.6896 5.25333ZM10.5296 1V5.33333H10.7296V1H10.5296ZM7.80072 3.24667L10.6896 1.08L10.5696 0.92L7.68072 3.08667L7.80072 3.24667ZM11.0511 6.13555L13.94 8.30222L14.06 8.14222L11.1711 5.97555L11.0511 6.13555ZM13.94 3.80889L11.0511 5.97555L11.1711 6.13555L14.06 3.96889L13.94 3.80889ZM14.1 8.22222V3.88889H13.9V8.22222H14.1ZM14.06 13.92L11.1711 11.7533L11.0511 11.9133L13.94 14.08L14.06 13.92ZM13.9 9.66666V14H14.1V9.66666H13.9ZM11.1711 11.9133L14.06 9.74666L13.94 9.58666L11.0511 11.7533L11.1711 11.9133Z"
    fill="currentColor"
    mask="url(#a)"
  />
</svg>
