<svg width="15" height="15" fill="none" xmlns="http://www.w3.org/2000/svg" viewBox="0 0 15 15">
  <path
    fill-rule="evenodd"
    clip-rule="evenodd"
    d="M7.8182 0.93179C7.64247 0.756054 7.35754 0.756054 7.1818 0.93179L5.4318 2.68179C5.25607 2.85753 5.25607 3.14245 5.4318 3.31819C5.60754 3.49392 5.89247 3.49392 6.0682 3.31819L7 2.38638V5.49999C7 5.77613 7.22386 5.99999 7.5 5.99999C7.77615 5.99999 8 5.77613 8 5.49999V2.38638L8.9318 3.31819C9.10754 3.49392 9.39246 3.49392 9.5682 3.31819C9.74394 3.14245 9.74394 2.85753 9.5682 2.68179L7.8182 0.93179ZM8 9.49999C8 9.22385 7.77615 8.99999 7.5 8.99999C7.22386 8.99999 7 9.22385 7 9.49999V12.6136L6.0682 11.6818C5.89247 11.5061 5.60754 11.5061 5.4318 11.6818C5.25607 11.8575 5.25607 12.1424 5.4318 12.3182L7.1818 14.0682C7.35754 14.2439 7.64247 14.2439 7.8182 14.0682L9.5682 12.3182C9.74394 12.1424 9.74394 11.8575 9.5682 11.6818C9.39246 11.5061 9.10754 11.5061 8.9318 11.6818L8 12.6136V9.49999ZM9 7.49999C9 7.22385 9.22386 6.99999 9.5 6.99999H12.6136L11.6818 6.06819C11.5061 5.89245 11.5061 5.60753 11.6818 5.43179C11.8575 5.25605 12.1425 5.25605 12.3182 5.43179L14.0682 7.18179C14.2439 7.35753 14.2439 7.64245 14.0682 7.81819L12.3182 9.56819C12.1425 9.74392 11.8575 9.74392 11.6818 9.56819C11.5061 9.39245 11.5061 9.10753 11.6818 8.93179L12.6136 7.99999H9.5C9.22386 7.99999 9 7.77613 9 7.49999ZM3.3182 6.06819L2.3864 6.99999H5.5C5.77615 6.99999 6 7.22385 6 7.49999C6 7.77613 5.77615 7.99999 5.5 7.99999H2.3864L3.3182 8.93179C3.49394 9.10753 3.49394 9.39245 3.3182 9.56819C3.14247 9.74392 2.85754 9.74392 2.6818 9.56819L0.931805 7.81819C0.756069 7.64245 0.756069 7.35753 0.931805 7.18179L2.6818 5.43179C2.85754 5.25605 3.14247 5.25605 3.3182 5.43179C3.49394 5.60753 3.49394 5.89245 3.3182 6.06819Z"
    fill="currentColor"
  />
</svg>
