<svg width="15" height="15" viewBox="0 0 15 15" fill="none" xmlns="http://www.w3.org/2000/svg">
  <path
    fill-rule="evenodd"
    clip-rule="evenodd"
    d="M1.84998 7.50043C1.84998 4.37975 4.3796 1.85001 7.49998 1.85001C10.6204 1.85001 13.15 4.37975 13.15 7.50043C13.15 10.6211 10.6204 13.1509 7.49998 13.1509C4.3796 13.1509 1.84998 10.6211 1.84998 7.50043ZM7.49998 0.850006C3.82725 0.850006 0.849976 3.82753 0.849976 7.50043C0.849976 11.1733 3.82725 14.1509 7.49998 14.1509C11.1727 14.1509 14.15 11.1733 14.15 7.50043C14.15 3.82753 11.1727 0.850006 7.49998 0.850006ZM6.99998 8.00001V3.12811C7.16408 3.10954 7.33091 3.10001 7.49998 3.10001C9.93003 3.10001 11.9 5.07014 11.9 7.50043C11.9 7.66935 11.8905 7.83604 11.8719 8.00001H6.99998Z"
    fill="currentColor"
  />
</svg>
