<svg width="15" height="15" fill="none" xmlns="http://www.w3.org/2000/svg">
  <path
    fill-rule="evenodd"
    clip-rule="evenodd"
    d="M1.85001 7.50046C1.85001 4.37979 4.37963 1.85004 7.50001 1.85004C10.6204 1.85004 13.15 4.37979 13.15 7.50046C13.15 10.6211 10.6204 13.1509 7.50001 13.1509C4.37963 13.1509 1.85001 10.6211 1.85001 7.50046ZM7.50001 0.850037C3.82728 0.850037 0.850006 3.82757 0.850006 7.50046C0.850006 11.1734 3.82728 14.1509 7.50001 14.1509C11.1727 14.1509 14.15 11.1734 14.15 7.50046C14.15 3.82757 11.1727 0.850037 7.50001 0.850037ZM7.00001 8.00004V3.12814C7.16411 3.10957 7.33094 3.10004 7.50001 3.10004C9.93006 3.10004 11.9 5.07017 11.9 7.50046C11.9 7.66938 11.8905 7.83607 11.872 8.00004H7.00001Z"
    fill="currentColor"
  />
</svg>
