<svg width="15" height="15" fill="none" xmlns="http://www.w3.org/2000/svg">
  <path
    fill-rule="evenodd"
    clip-rule="evenodd"
    d="M7.49988 0.876907C3.84219 0.876907 0.877045 3.84205 0.877045 7.49974C0.877045 11.1574 3.84219 14.1226 7.49988 14.1226C11.1575 14.1226 14.1227 11.1574 14.1227 7.49974C14.1227 3.84205 11.1575 0.876907 7.49988 0.876907ZM1.82704 7.49974C1.82704 4.36673 4.36686 1.82691 7.49988 1.82691C10.6329 1.82691 13.1727 4.36673 13.1727 7.49974C13.1727 10.6327 10.6329 13.1726 7.49988 13.1726C4.36686 13.1726 1.82704 10.6327 1.82704 7.49974ZM7.5 4.00002C7.77614 4.00002 8 4.22387 8 4.50002V7.00002H10.5C10.7761 7.00002 11 7.22387 11 7.50002C11 7.77616 10.7761 8.00002 10.5 8.00002H8V10.5C8 10.7762 7.77614 11 7.5 11C7.22386 11 7 10.7762 7 10.5V8.00002H4.5C4.22386 8.00002 4 7.77616 4 7.50002C4 7.22387 4.22386 7.00002 4.5 7.00002H7V4.50002C7 4.22387 7.22386 4.00002 7.5 4.00002Z"
    fill="currentColor"
  />
</svg>
