<svg width="15" height="15" fill="none" xmlns="http://www.w3.org/2000/svg" viewBox="0 0 15 15">
  <path
    fill-rule="evenodd"
    clip-rule="evenodd"
    d="M5.07499 4.10001C5.07499 2.91103 6.25721 1.92502 7.49999 1.92502C8.74277 1.92502 9.92499 2.91103 9.92499 4.10001C9.92499 5.19861 9.36776 5.71436 8.61847 6.37884L8.58751 6.4063C7.84475 7.06467 6.92499 7.87995 6.92499 9.5C6.92499 9.81757 7.18242 10.075 7.49999 10.075C7.81755 10.075 8.07499 9.81757 8.07499 9.5C8.07499 8.41517 8.62939 7.90623 9.3815 7.23925L9.40232 7.22079C10.1495 6.55829 11.075 5.73775 11.075 4.10001C11.075 2.12757 9.21863 0.775024 7.49999 0.775024C5.78134 0.775024 3.92499 2.12757 3.92499 4.10001C3.92499 4.41758 4.18242 4.67501 4.49999 4.67501C4.81755 4.67501 5.07499 4.41758 5.07499 4.10001ZM7.49999 13.3575C7.98324 13.3575 8.37499 12.9657 8.37499 12.4825C8.37499 11.9992 7.98324 11.6075 7.49999 11.6075C7.01674 11.6075 6.62499 11.9992 6.62499 12.4825C6.62499 12.9657 7.01674 13.3575 7.49999 13.3575Z"
    fill="currentColor"
  />
</svg>
