<svg width="15" height="15" viewBox="0 0 15 15" fill="none" xmlns="http://www.w3.org/2000/svg">
  <path
    fill-rule="evenodd"
    clip-rule="evenodd"
    d="M7.49991 1.12704C3.98029 1.12704 1.12708 3.98026 1.12708 7.49988C1.12708 11.0195 3.98029 13.8727 7.49991 13.8727C11.0195 13.8727 13.8727 11.0195 13.8727 7.49988C13.8727 3.98026 11.0195 1.12704 7.49991 1.12704ZM2.07708 7.49988C2.07708 4.50493 4.50496 2.07704 7.49991 2.07704C10.4948 2.07704 12.9227 4.50493 12.9227 7.49988C12.9227 10.4948 10.4948 12.9227 7.49991 12.9227C4.50497 12.9227 2.07708 10.4948 2.07708 7.49988ZM7.50003 9.5C8.6046 9.5 9.50003 8.60457 9.50003 7.5C9.50003 6.39543 8.6046 5.5 7.50003 5.5C6.39546 5.5 5.50003 6.39543 5.50003 7.5C5.50003 8.60457 6.39546 9.5 7.50003 9.5Z"
    fill="currentColor"
  />
</svg>
