<svg width="15" height="15" viewBox="0 0 15 15" fill="none" xmlns="http://www.w3.org/2000/svg">
  <path
    fill-rule="evenodd"
    clip-rule="evenodd"
    d="M2.10646 7.49998C2.10646 4.67474 4.30828 1.87117 7.73527 1.87117C8.93051 1.87117 9.90183 2.40897 10.7058 3.1235C11.3867 3.72855 11.9134 4.42693 12.3444 4.9984L12.3444 4.99841L12.3444 4.9985C12.3448 4.99899 12.3452 4.99948 12.3456 4.99998H10.5C10.2239 4.99998 10 5.22383 10 5.49998C10 5.77612 10.2239 5.99998 10.5 5.99998H13.5C13.7762 5.99998 14 5.77612 14 5.49998V2.49998C14 2.22383 13.7762 1.99998 13.5 1.99998C13.2239 1.99998 13 2.22383 13 2.49998V4.13641C12.5907 3.59829 12.0564 2.9292 11.3983 2.34435C10.4796 1.52792 9.27195 0.828796 7.73527 0.828796C3.65926 0.828796 1.06409 4.17523 1.06409 7.49998C1.06409 10.8247 3.65926 14.1712 7.73527 14.1712C9.68502 14.1712 11.3088 13.3996 12.4649 12.2232C13.0839 11.5935 13.5672 10.8495 13.8967 10.0488C14.0063 9.78261 13.8793 9.47802 13.6131 9.36847C13.3469 9.25892 13.0424 9.3859 12.9328 9.65209C12.653 10.332 12.2433 10.9617 11.7215 11.4926C10.7535 12.4775 9.39443 13.1288 7.73527 13.1288C4.30828 13.1288 2.10646 10.3252 2.10646 7.49998Z"
    fill="currentColor"
  />
</svg>
