<svg width="15" height="15" viewBox="0 0 15 15" fill="none" xmlns="http://www.w3.org/2000/svg">
  <path
    fill-rule="evenodd"
    clip-rule="evenodd"
    d="M7.81831 0.68179C7.64257 0.506054 7.35765 0.506054 7.18191 0.68179L5.18191 2.68179C5.00618 2.85753 5.00618 3.14245 5.18191 3.31819C5.35765 3.49392 5.64257 3.49392 5.81831 3.31819L7.05011 2.08638L7.05011 5.50023C7.05011 5.74876 7.25158 5.95023 7.50011 5.95023C7.74864 5.95023 7.95011 5.74876 7.95011 5.50023L7.95011 2.08638L9.18191 3.31819C9.35765 3.49392 9.64257 3.49392 9.81831 3.31819C9.99404 3.14245 9.99404 2.85753 9.81831 2.68179L7.81831 0.68179ZM7.95011 12.9136V9.50023C7.95011 9.2517 7.74864 9.05023 7.50011 9.05023C7.25158 9.05023 7.05011 9.2517 7.05011 9.50023V12.9136L5.81831 11.6818C5.64257 11.5061 5.35765 11.5061 5.18191 11.6818C5.00618 11.8575 5.00618 12.1424 5.18191 12.3182L7.18191 14.3182C7.2663 14.4026 7.38076 14.45 7.50011 14.45C7.61946 14.45 7.73392 14.4026 7.81831 14.3182L9.81831 12.3182C9.99404 12.1424 9.99404 11.8575 9.81831 11.6818C9.64257 11.5061 9.35765 11.5061 9.18191 11.6818L7.95011 12.9136ZM3.49993 7.00017C3.22378 7.00017 2.99993 7.22403 2.99993 7.50017C2.99993 7.77631 3.22378 8.00017 3.49993 8.00017L11.4999 8.00017C11.7761 8.00017 11.9999 7.77631 11.9999 7.50017C11.9999 7.22403 11.7761 7.00017 11.4999 7.00017L3.49993 7.00017Z"
    fill="currentColor"
  />
</svg>
