<svg width="15" height="15" viewBox="0 0 15 15" fill="none" xmlns="http://www.w3.org/2000/svg">
  <path
    fill-rule="evenodd"
    clip-rule="evenodd"
    d="M7.49991 0.877075C3.84222 0.877075 0.877075 3.84222 0.877075 7.49991C0.877075 11.1576 3.84222 14.1227 7.49991 14.1227C11.1576 14.1227 14.1227 11.1576 14.1227 7.49991C14.1227 3.84222 11.1576 0.877075 7.49991 0.877075ZM1.82708 7.49991C1.82708 4.36689 4.36689 1.82708 7.49991 1.82708C10.6329 1.82708 13.1727 4.36689 13.1727 7.49991C13.1727 10.6329 10.6329 13.1727 7.49991 13.1727C4.36689 13.1727 1.82708 10.6329 1.82708 7.49991ZM7.50002 3.10002C7.27911 3.10002 7.10002 3.2791 7.10002 3.50002C7.10002 3.72093 7.27911 3.90002 7.50002 3.90002H8.89752C9.11843 3.90002 9.29752 3.72093 9.29752 3.50002C9.29752 3.2791 9.11843 3.10002 8.89752 3.10002H7.50002ZM7.50002 5.10002C7.27911 5.10002 7.10002 5.2791 7.10002 5.50002C7.10002 5.72093 7.27911 5.90002 7.50002 5.90002H10.65C10.8709 5.90002 11.05 5.72093 11.05 5.50002C11.05 5.2791 10.8709 5.10002 10.65 5.10002H7.50002ZM7.50002 7.10002C7.27911 7.10002 7.10002 7.2791 7.10002 7.50002C7.10002 7.72093 7.27911 7.90002 7.50002 7.90002H11.7C11.9209 7.90002 12.1 7.72093 12.1 7.50002C12.1 7.2791 11.9209 7.10002 11.7 7.10002H7.50002ZM7.50002 9.10002C7.27911 9.10002 7.10002 9.2791 7.10002 9.50002C7.10002 9.72093 7.27911 9.90002 7.50002 9.90002H10.65C10.8709 9.90002 11.05 9.72093 11.05 9.50002C11.05 9.2791 10.8709 9.10002 10.65 9.10002H7.50002ZM7.50002 11.1C7.27911 11.1 7.10002 11.2791 7.10002 11.5C7.10002 11.7209 7.27911 11.9 7.50002 11.9H8.89752C9.11843 11.9 9.29752 11.7209 9.29752 11.5C9.29752 11.2791 9.11843 11.1 8.89752 11.1H7.50002Z"
    fill="currentColor"
  />
</svg>
