<svg width="15" height="15" fill="none" xmlns="http://www.w3.org/2000/svg">
  <path
    fill-rule="evenodd"
    clip-rule="evenodd"
    d="M7.49988 0.87706C3.84219 0.87706 0.877045 3.84221 0.877045 7.49989C0.877045 11.1576 3.84219 14.1227 7.49988 14.1227C11.1575 14.1227 14.1227 11.1576 14.1227 7.49989C14.1227 3.84221 11.1575 0.87706 7.49988 0.87706ZM1.82704 7.49989C1.82704 4.36688 4.36686 1.82706 7.49988 1.82706C10.6329 1.82706 13.1727 4.36688 13.1727 7.49989C13.1727 10.6329 10.6329 13.1727 7.49988 13.1727C4.36686 13.1727 1.82704 10.6329 1.82704 7.49989ZM7.49999 3.1C7.27908 3.1 7.09999 3.27909 7.09999 3.5C7.09999 3.72092 7.27908 3.9 7.49999 3.9H8.89749C9.1184 3.9 9.29749 3.72092 9.29749 3.5C9.29749 3.27909 9.1184 3.1 8.89749 3.1H7.49999ZM7.49999 5.1C7.27908 5.1 7.09999 5.27909 7.09999 5.5C7.09999 5.72092 7.27908 5.9 7.49999 5.9H10.65C10.8709 5.9 11.05 5.72092 11.05 5.5C11.05 5.27909 10.8709 5.1 10.65 5.1H7.49999ZM7.49999 7.1C7.27908 7.1 7.09999 7.27909 7.09999 7.5C7.09999 7.72092 7.27908 7.9 7.49999 7.9H11.7C11.9209 7.9 12.1 7.72092 12.1 7.5C12.1 7.27909 11.9209 7.1 11.7 7.1H7.49999ZM7.49999 9.1C7.27908 9.1 7.09999 9.27909 7.09999 9.5C7.09999 9.72092 7.27908 9.9 7.49999 9.9H10.65C10.8709 9.9 11.05 9.72092 11.05 9.5C11.05 9.27909 10.8709 9.1 10.65 9.1H7.49999ZM7.49999 11.1C7.27908 11.1 7.09999 11.2791 7.09999 11.5C7.09999 11.7209 7.27908 11.9 7.49999 11.9H8.89749C9.1184 11.9 9.29749 11.7209 9.29749 11.5C9.29749 11.2791 9.1184 11.1 8.89749 11.1H7.49999Z"
    fill="currentColor"
  />
</svg>
