<svg width="15" height="15" fill="none" xmlns="http://www.w3.org/2000/svg" viewBox="0 0 15 15">
  <path
    fill-rule="evenodd"
    clip-rule="evenodd"
    d="M11.2155 2.01678C10.156 1.29741 8.87701 0.877075 7.49988 0.877075C3.84219 0.877075 0.877045 3.84222 0.877045 7.49991C0.877045 8.87704 1.29738 10.156 2.01675 11.2155L2.70286 10.5294C2.14815 9.6529 1.82704 8.6139 1.82704 7.49991C1.82704 4.36689 4.36686 1.82708 7.49988 1.82708C8.61387 1.82708 9.65287 2.14818 10.5294 2.70289L11.2155 2.01678ZM12.9832 3.78459L12.2971 4.47071C12.8517 5.34714 13.1727 6.38604 13.1727 7.49991C13.1727 10.6329 10.6329 13.1727 7.49988 13.1727C6.38601 13.1727 5.34711 12.8517 4.47068 12.2971L3.78456 12.9832C4.844 13.7025 6.12286 14.1227 7.49988 14.1227C11.1575 14.1227 14.1227 11.1576 14.1227 7.49991C14.1227 6.12289 13.7025 4.84403 12.9832 3.78459ZM7.49999 9.90002C7.32904 9.90002 7.18314 9.79278 7.12589 9.64191L7.66778 9.10002H10.65C10.8709 9.10002 11.05 9.2791 11.05 9.50002C11.05 9.72093 10.8709 9.90002 10.65 9.90002H7.49999ZM8.86778 7.90002H11.7C11.9209 7.90002 12.1 7.72093 12.1 7.50002C12.1 7.2791 11.9209 7.10002 11.7 7.10002H9.66778L8.86778 7.90002ZM7.49999 5.10002H8.13224L7.35813 5.87413C7.20724 5.81689 7.09999 5.67098 7.09999 5.50002C7.09999 5.2791 7.27908 5.10002 7.49999 5.10002ZM7.09999 3.50002C7.09999 3.2791 7.27908 3.10002 7.49999 3.10002H8.89749C9.1184 3.10002 9.29749 3.2791 9.29749 3.50002C9.29749 3.72093 9.1184 3.90002 8.89749 3.90002H7.49999C7.27908 3.90002 7.09999 3.72093 7.09999 3.50002ZM7.09999 11.5C7.09999 11.2791 7.27908 11.1 7.49999 11.1H8.89749C9.1184 11.1 9.29749 11.2791 9.29749 11.5C9.29749 11.7209 9.1184 11.9 8.89749 11.9H7.49999C7.27908 11.9 7.09999 11.7209 7.09999 11.5ZM13.3535 2.3536C13.5488 2.15833 13.5488 1.84175 13.3535 1.64649C13.1583 1.45123 12.8417 1.45123 12.6464 1.64649L1.64643 12.6465C1.45117 12.8418 1.45117 13.1583 1.64643 13.3536C1.84169 13.5489 2.15828 13.5489 2.35354 13.3536L13.3535 2.3536Z"
    fill="currentColor"
  />
</svg>
