<svg width="15" height="15" viewBox="0 0 15 15" fill="none" xmlns="http://www.w3.org/2000/svg">
  <path
    fill-rule="evenodd"
    clip-rule="evenodd"
    d="M11.2155 2.01675C10.156 1.29738 8.87704 0.877045 7.49991 0.877045C3.84222 0.877045 0.877075 3.84219 0.877075 7.49988C0.877075 8.87701 1.29741 10.156 2.01678 11.2155L2.70289 10.5294C2.14818 9.65287 1.82708 8.61387 1.82708 7.49988C1.82708 4.36686 4.36689 1.82704 7.49991 1.82704C8.6139 1.82704 9.6529 2.14815 10.5294 2.70286L11.2155 2.01675ZM12.9832 3.78456L12.2971 4.47068C12.8517 5.34711 13.1727 6.38601 13.1727 7.49988C13.1727 10.6329 10.6329 13.1727 7.49991 13.1727C6.38604 13.1727 5.34714 12.8517 4.47071 12.2971L3.78459 12.9832C4.84403 13.7025 6.12289 14.1227 7.49991 14.1227C11.1576 14.1227 14.1227 11.1575 14.1227 7.49988C14.1227 6.12286 13.7025 4.844 12.9832 3.78456ZM7.50002 9.89999C7.32907 9.89999 7.18317 9.79275 7.12592 9.64188L7.66781 9.09999H10.65C10.8709 9.09999 11.05 9.27907 11.05 9.49999C11.05 9.7209 10.8709 9.89999 10.65 9.89999H7.50002ZM8.86781 7.89999H11.7C11.9209 7.89999 12.1 7.7209 12.1 7.49999C12.1 7.27907 11.9209 7.09999 11.7 7.09999H9.66781L8.86781 7.89999ZM7.50002 5.09999H8.13227L7.35816 5.8741C7.20727 5.81686 7.10002 5.67095 7.10002 5.49999C7.10002 5.27907 7.27911 5.09999 7.50002 5.09999ZM7.10002 3.49999C7.10002 3.27907 7.27911 3.09999 7.50002 3.09999H8.89752C9.11843 3.09999 9.29752 3.27907 9.29752 3.49999C9.29752 3.7209 9.11843 3.89999 8.89752 3.89999H7.50002C7.27911 3.89999 7.10002 3.7209 7.10002 3.49999ZM7.10002 11.5C7.10002 11.2791 7.27911 11.1 7.50002 11.1H8.89752C9.11843 11.1 9.29752 11.2791 9.29752 11.5C9.29752 11.7209 9.11843 11.9 8.89752 11.9H7.50002C7.27911 11.9 7.10002 11.7209 7.10002 11.5ZM13.3536 2.35357C13.5488 2.1583 13.5488 1.84172 13.3536 1.64646C13.1583 1.4512 12.8417 1.4512 12.6465 1.64646L1.64646 12.6465C1.4512 12.8417 1.4512 13.1583 1.64646 13.3536C1.84172 13.5488 2.15831 13.5488 2.35357 13.3536L13.3536 2.35357Z"
    fill="currentColor"
  />
</svg>
