<svg width="15" height="15" fill="none" xmlns="http://www.w3.org/2000/svg" viewBox="0 0 15 15">
  <path
    fill-rule="evenodd"
    clip-rule="evenodd"
    d="M7.49988 0.877075C3.84219 0.877075 0.877045 3.84222 0.877045 7.49991C0.877045 11.1576 3.84219 14.1227 7.49988 14.1227C11.1575 14.1227 14.1227 11.1576 14.1227 7.49991C14.1227 3.84222 11.1575 0.877075 7.49988 0.877075ZM1.82704 7.49991C1.82704 4.36689 4.36686 1.82708 7.49988 1.82708C10.6329 1.82708 13.1727 4.36689 13.1727 7.49991C13.1727 10.6329 10.6329 13.1727 7.49988 13.1727C4.36686 13.1727 1.82704 10.6329 1.82704 7.49991ZM7.49999 3.10002C7.27908 3.10002 7.09999 3.2791 7.09999 3.50002C7.09999 3.72093 7.27908 3.90002 7.49999 3.90002H8.89749C9.1184 3.90002 9.29749 3.72093 9.29749 3.50002C9.29749 3.2791 9.1184 3.10002 8.89749 3.10002H7.49999ZM7.49999 5.10002C7.27908 5.10002 7.09999 5.2791 7.09999 5.50002C7.09999 5.72093 7.27908 5.90002 7.49999 5.90002H10.65C10.8709 5.90002 11.05 5.72093 11.05 5.50002C11.05 5.2791 10.8709 5.10002 10.65 5.10002H7.49999ZM7.49999 7.10002C7.27908 7.10002 7.09999 7.2791 7.09999 7.50002C7.09999 7.72093 7.27908 7.90002 7.49999 7.90002H11.7C11.9209 7.90002 12.1 7.72093 12.1 7.50002C12.1 7.2791 11.9209 7.10002 11.7 7.10002H7.49999ZM7.49999 9.10002C7.27908 9.10002 7.09999 9.2791 7.09999 9.50002C7.09999 9.72093 7.27908 9.90002 7.49999 9.90002H10.65C10.8709 9.90002 11.05 9.72093 11.05 9.50002C11.05 9.2791 10.8709 9.10002 10.65 9.10002H7.49999ZM7.49999 11.1C7.27908 11.1 7.09999 11.2791 7.09999 11.5C7.09999 11.7209 7.27908 11.9 7.49999 11.9H8.89749C9.1184 11.9 9.29749 11.7209 9.29749 11.5C9.29749 11.2791 9.1184 11.1 8.89749 11.1H7.49999Z"
    fill="currentColor"
  />
</svg>
