<svg width="15" height="15" fill="none" xmlns="http://www.w3.org/2000/svg" viewBox="0 0 15 15">
  <path
    fill-rule="evenodd"
    clip-rule="evenodd"
    d="M4.99997 7.50003C4.99997 8.32845 4.3284 9.00003 3.49997 9.00003C2.67154 9.00003 1.99997 8.32845 1.99997 7.50003C1.99997 6.6716 2.67154 6.00003 3.49997 6.00003C4.3284 6.00003 4.99997 6.6716 4.99997 7.50003ZM5.7131 8.66388C5.29442 9.45838 4.46045 10 3.49997 10C2.11926 10 0.999969 8.88074 0.999969 7.50003C0.999969 6.11931 2.11926 5.00003 3.49997 5.00003C4.46045 5.00003 5.29442 5.54167 5.7131 6.33616L9.10421 4.21671C9.0364 3.98968 8.99997 3.74911 8.99997 3.50003C8.99997 2.11932 10.1193 1.00003 11.5 1.00003C12.8807 1.00003 14 2.11932 14 3.50003C14 4.88074 12.8807 6.00003 11.5 6.00003C10.6915 6.00003 9.97261 5.61624 9.51563 5.0209L5.98527 7.22738C5.99499 7.31692 5.99997 7.40789 5.99997 7.50003C5.99997 7.59216 5.99499 7.68312 5.98527 7.77267L9.51564 9.97915C9.97262 9.38382 10.6915 9.00003 11.5 9.00003C12.8807 9.00003 14 10.1193 14 11.5C14 12.8807 12.8807 14 11.5 14C10.1193 14 8.99997 12.8807 8.99997 11.5C8.99997 11.2509 9.0364 11.0104 9.10422 10.7833L5.7131 8.66388ZM11.5 5.00003C12.3284 5.00003 13 4.32846 13 3.50003C13 2.6716 12.3284 2.00003 11.5 2.00003C10.6715 2.00003 9.99997 2.6716 9.99997 3.50003C9.99997 4.32846 10.6715 5.00003 11.5 5.00003ZM13 11.5C13 12.3285 12.3284 13 11.5 13C10.6715 13 9.99997 12.3285 9.99997 11.5C9.99997 10.6716 10.6715 10 11.5 10C12.3284 10 13 10.6716 13 11.5Z"
    fill="currentColor"
  />
</svg>
