<svg width="15" height="15" viewBox="0 0 15 15" fill="none" xmlns="http://www.w3.org/2000/svg">
  <path
    fill-rule="evenodd"
    clip-rule="evenodd"
    d="M11.5 3.04999C11.7485 3.04999 11.95 3.25146 11.95 3.49999V7.49998C11.95 7.74851 11.7485 7.94998 11.5 7.94998C11.2515 7.94998 11.05 7.74851 11.05 7.49998V4.58638L4.58638 11.05H7.49999C7.74852 11.05 7.94999 11.2515 7.94999 11.5C7.94999 11.7485 7.74852 11.95 7.49999 11.95L3.49999 11.95C3.38064 11.95 3.26618 11.9026 3.18179 11.8182C3.0974 11.7338 3.04999 11.6193 3.04999 11.5L3.04999 7.49998C3.04999 7.25145 3.25146 7.04998 3.49999 7.04998C3.74852 7.04998 3.94999 7.25146 3.94999 7.49998L3.94999 10.4136L10.4136 3.94999L7.49999 3.94998C7.25146 3.94998 7.04999 3.74851 7.04999 3.49998C7.04999 3.25145 7.25146 3.04998 7.49999 3.04998L11.5 3.04999Z"
    fill="currentColor"
  />
</svg>
