<svg width="15" height="15" fill="none" xmlns="http://www.w3.org/2000/svg" viewBox="0 0 15 15">
  <path
    fill-rule="evenodd"
    clip-rule="evenodd"
    d="M7.53731 0.826812C7.5125 0.824331 7.4875 0.824331 7.46269 0.826812L3.96269 1.17681C3.85672 1.18741 3.76025 1.24256 3.69736 1.32851L0.699771 5.42522C0.654046 5.48621 0.62647 5.56159 0.625057 5.64334C0.625019 5.64554 0.625 5.64774 0.625 5.64995C0.625 5.65046 0.625001 5.65097 0.625003 5.65147C0.625363 5.74231 0.658021 5.82553 0.712087 5.89024L7.21042 13.7882C7.28165 13.8748 7.38789 13.925 7.5 13.925C7.61211 13.925 7.71835 13.8748 7.78958 13.7882L14.2879 5.89025C14.342 5.82554 14.3746 5.74231 14.375 5.65147C14.375 5.65097 14.375 5.65046 14.375 5.64995C14.375 5.64843 14.375 5.6469 14.375 5.64538C14.3749 5.63957 14.3747 5.63376 14.3744 5.62795C14.37 5.55213 14.3431 5.48235 14.3002 5.42521L11.3026 1.32851C11.2397 1.24256 11.1433 1.18741 11.0373 1.17681L7.53731 0.826812ZM10.925 5.27495V5.2523L10.9223 5.27495H10.925ZM10.9342 5.17491H13.1877L11.2495 2.52604L10.9342 5.17491ZM10.5707 1.88389L8.04432 1.63125L10.1747 5.21028L10.5707 1.88389ZM6.95568 1.63125L4.42931 1.88389L4.82531 5.21028L6.95568 1.63125ZM3.75046 2.52604L1.81226 5.17491H4.0658L3.75046 2.52604ZM1.79416 6.02495L6.75861 12.0587L4.22371 6.06684C4.21787 6.05304 4.21314 6.03904 4.20949 6.02495H1.79416ZM5.15055 6.02495L7.49999 12.1084L9.84943 6.02495H9.78681H5.21319H5.15055ZM10.7905 6.02495C10.7869 6.03904 10.7821 6.05304 10.7763 6.06684L8.24139 12.0587L13.2058 6.02495H10.7905ZM7.5 2.18311L9.34038 5.27495H5.65962L7.5 2.18311Z"
    fill="currentColor"
  />
</svg>
