<svg width="15" height="15" fill="none" xmlns="http://www.w3.org/2000/svg" viewBox="0 0 15 15">
  <path
    fill-rule="evenodd"
    clip-rule="evenodd"
    d="M7.49991 0.877075C3.84222 0.877075 0.877075 3.84222 0.877075 7.49991C0.877075 11.1576 3.84222 14.1227 7.49991 14.1227C11.1576 14.1227 14.1227 11.1576 14.1227 7.49991C14.1227 3.84222 11.1576 0.877075 7.49991 0.877075ZM1.82708 7.49991C1.82708 4.36689 4.36689 1.82708 7.49991 1.82708C8.88644 1.82708 10.1568 2.32452 11.1422 3.15067L3.15067 11.1422C2.32452 10.1568 1.82708 8.88644 1.82708 7.49991ZM3.8578 11.8493C4.84321 12.6754 6.11348 13.1727 7.49991 13.1727C10.6329 13.1727 13.1727 10.6329 13.1727 7.49991C13.1727 6.11348 12.6754 4.84321 11.8493 3.8578L3.8578 11.8493Z"
    fill="currentColor"
  />
</svg>
