<svg width="15" height="15" fill="none" xmlns="http://www.w3.org/2000/svg">
  <path
    fill-rule="evenodd"
    clip-rule="evenodd"
    d="M5.50001 0.5C5.50001 0.223858 5.72386 0 6.00001 0H7.50001H9.00001C9.27615 0 9.50001 0.223858 9.50001 0.5C9.50001 0.776142 9.27615 1 9.00001 1H8.00001V2.11922C9.09835 2.20409 10.119 2.56622 10.992 3.13572C11.0116 3.10851 11.0336 3.08252 11.0581 3.05806L11.8581 2.25806C12.1021 2.01398 12.4979 2.01398 12.7419 2.25806C12.986 2.50214 12.986 2.89786 12.7419 3.14194L11.9671 3.91682C13.1595 5.07925 13.9 6.70314 13.9 8.49998C13.9 12.0346 11.0346 14.9 7.50001 14.9C3.96538 14.9 1.10001 12.0346 1.10001 8.49998C1.10001 5.13362 3.69907 2.3743 7.00001 2.11922V1H6.00001C5.72386 1 5.50001 0.776142 5.50001 0.5ZM2.10001 8.49998C2.10001 5.51764 4.51767 3.09998 7.50001 3.09998C10.4823 3.09998 12.9 5.51764 12.9 8.49998C12.9 11.4823 10.4823 13.9 7.50001 13.9C4.51767 13.9 2.10001 11.4823 2.10001 8.49998ZM8.00001 4.5C8.00001 4.22386 7.77615 4 7.50001 4C7.22386 4 7.00001 4.22386 7.00001 4.5V9.5C7.00001 9.77614 7.22386 10 7.50001 10C7.77615 10 8.00001 9.77614 8.00001 9.5V4.5Z"
    fill="currentColor"
  />
</svg>
