<svg width="15" height="15" viewBox="0 0 15 15" fill="none" xmlns="http://www.w3.org/2000/svg">
  <path
    fill-rule="evenodd"
    clip-rule="evenodd"
    d="M1.90321 7.29677C1.90321 10.341 4.11041 12.4147 6.58892 12.8439C6.87254 12.893 7.06265 13.1627 7.01355 13.4464C6.96444 13.73 6.6947 13.9201 6.41108 13.871C3.49941 13.3668 0.860832 10.9127 0.860832 7.29677C0.860832 5.76009 1.55995 4.55245 2.37638 3.63377C2.96123 2.97568 3.63033 2.44135 4.16845 2.03202L2.53204 2.03202C2.2559 2.03202 2.03204 1.80816 2.03204 1.53202C2.03204 1.25588 2.2559 1.03202 2.53204 1.03202L5.53204 1.03202C5.80819 1.03202 6.03204 1.25588 6.03204 1.53202L6.03204 4.53202C6.03204 4.80816 5.80819 5.03202 5.53204 5.03202C5.2559 5.03202 5.03204 4.80816 5.03204 4.53202L5.03204 2.68645L5.03053 2.68759L5.03045 2.68766L5.03043 2.68767L5.03042 2.68767C4.45895 3.11868 3.76058 3.64538 3.15554 4.3262C2.44101 5.13021 1.90321 6.10154 1.90321 7.29677ZM13.0108 7.70321C13.0108 4.69115 10.8504 2.6296 8.40383 2.17029C8.12093 2.11718 7.93464 1.84479 7.98775 1.56188C8.04086 1.27898 8.31326 1.0927 8.59616 1.14581C11.4704 1.68541 14.0532 4.12605 14.0532 7.70321C14.0532 9.23988 13.3541 10.4475 12.5377 11.3662C11.9528 12.0243 11.2837 12.5586 10.7456 12.968L12.382 12.968C12.6582 12.968 12.882 13.1918 12.882 13.468C12.882 13.7441 12.6582 13.968 12.382 13.968L9.38204 13.968C9.1059 13.968 8.88204 13.7441 8.88204 13.468L8.88204 10.468C8.88204 10.1918 9.1059 9.96796 9.38204 9.96796C9.65818 9.96796 9.88204 10.1918 9.88204 10.468L9.88204 12.3135L9.88361 12.3123C10.4551 11.8813 11.1535 11.3546 11.7585 10.6738C12.473 9.86976 13.0108 8.89844 13.0108 7.70321Z"
    fill="currentColor"
  />
</svg>
