<svg width="15" height="15" viewBox="0 0 15 15" fill="none" xmlns="http://www.w3.org/2000/svg">
  <path
    fill-rule="evenodd"
    clip-rule="evenodd"
    d="M3.94999 2.95002L3.94999 4.49998C3.94999 4.74851 3.74852 4.94998 3.49999 4.94998C3.25146 4.94998 3.04999 4.74851 3.04999 4.49998V2.50004C3.04999 2.45246 3.05737 2.40661 3.07105 2.36357C3.12884 2.18175 3.29903 2.05002 3.49999 2.05002H11.5C11.6553 2.05002 11.7923 2.12872 11.8731 2.24842C11.9217 2.32024 11.95 2.40682 11.95 2.50002L11.95 2.50004V4.49998C11.95 4.74851 11.7485 4.94998 11.5 4.94998C11.2515 4.94998 11.05 4.74851 11.05 4.49998V2.95002H8.05V12.05H9.25434C9.50287 12.05 9.70434 12.2515 9.70434 12.5C9.70434 12.7486 9.50287 12.95 9.25434 12.95H5.75434C5.50581 12.95 5.30434 12.7486 5.30434 12.5C5.30434 12.2515 5.50581 12.05 5.75434 12.05H6.95V2.95002H3.94999Z"
    fill="currentColor"
  />
</svg>
