<svg width="15" height="15" viewBox="0 0 15 15" fill="none" xmlns="http://www.w3.org/2000/svg">
  <path
    d="M2.38663 2.54901C3.68244 4.13804 5.61715 5.18406 7.80109 5.29402C7.7571 5.10117 7.73342 4.90155 7.73342 4.69629C7.73342 3.24485 8.90969 2.06857 10.36 2.06857C11.9487 2.06857 12.9956 3.52127 12.9956 5.00079C12.9956 8.47209 10.3538 12.4746 5.52128 12.4746C4.03826 12.4746 2.65786 12.0404 1.49512 11.2944"
    stroke="currentColor"
    stroke-linecap="round"
    stroke-linejoin="round"
  />
  <path
    d="M2.29578 2.51804C2.04278 2.92585 2.03122 3.38915 2.03122 3.86958C2.03122 4.78082 2.4953 5.58549 3.1996 6.05634C2.76879 6.04224 2.36391 5.92439 2.00979 5.72759V5.76143C2.00979 7.03412 2.91483 8.09593 4.11704 8.33727C3.896 8.39704 3.66424 8.42862 3.42515 8.42862C3.25599 8.42862 3.09077 8.41283 2.93062 8.38238C3.26501 9.42558 4.2349 10.1857 5.38467 10.206C4.2902 11.0637 2.88173 11.3616 1.50281 11.1992"
    stroke="currentColor"
    stroke-width=".9"
    stroke-linecap="round"
    stroke-linejoin="round"
  />
  <path
    d="M13.1965 3.56879C13.7282 3.50507 14.234 3.3641 14.7049 3.15546L14.7038 3.15715C14.3525 3.68326 13.907 4.14508 13.3939 4.51612L12.6833 2.75228C13.2816 2.63499 13.8438 2.4162 14.3513 2.11508C14.1551 2.72859 13.7389 3.24399 13.1965 3.56879Z"
    fill="currentColor"
  />
</svg>
