<svg width="15" height="15" fill="none" xmlns="http://www.w3.org/2000/svg" viewBox="0 0 15 15">
  <path
    fill-rule="evenodd"
    clip-rule="evenodd"
    d="M7.49988 0.877045C8.87701 0.877045 10.156 1.29737 11.2155 2.01674L10.5294 2.70285C9.65287 2.14815 8.61387 1.82704 7.49988 1.82704C4.36686 1.82704 1.82704 4.36686 1.82704 7.49988C1.82704 8.61387 2.14815 9.65287 2.70285 10.5294L2.01674 11.2155C1.29737 10.156 0.877045 8.87701 0.877045 7.49988C0.877045 3.84219 3.84219 0.877045 7.49988 0.877045ZM12.2971 4.47067L12.9832 3.78455C13.7025 4.844 14.1227 6.12286 14.1227 7.49988C14.1227 11.1575 11.1575 14.1227 7.49988 14.1227C6.12286 14.1227 4.844 13.7024 3.78455 12.9832L4.47067 12.2971C5.34711 12.8517 6.386 13.1727 7.49988 13.1727C10.6329 13.1727 13.1727 10.6329 13.1727 7.49988C13.1727 6.386 12.8517 5.34711 12.2971 4.47067ZM13.3535 2.35354C13.5488 2.15828 13.5488 1.8417 13.3535 1.64643C13.1583 1.45117 12.8417 1.45117 12.6464 1.64643L1.64644 12.6464C1.45118 12.8417 1.45118 13.1583 1.64644 13.3535C1.8417 13.5488 2.15829 13.5488 2.35355 13.3535L13.3535 2.35354Z"
    fill="currentColor"
  />
</svg>
