<svg width="15" height="15" viewBox="0 0 15 15" fill="none" xmlns="http://www.w3.org/2000/svg">
  <path
    fill-rule="evenodd"
    clip-rule="evenodd"
    d="M7.49991 0.877045C8.87704 0.877045 10.156 1.29737 11.2155 2.01674L10.5294 2.70285C9.6529 2.14815 8.6139 1.82704 7.49991 1.82704C4.36689 1.82704 1.82708 4.36686 1.82708 7.49988C1.82708 8.61387 2.14818 9.65287 2.70288 10.5294L2.01677 11.2155C1.2974 10.156 0.877075 8.87701 0.877075 7.49988C0.877075 3.84219 3.84222 0.877045 7.49991 0.877045ZM12.2971 4.47067L12.9832 3.78455C13.7025 4.844 14.1227 6.12286 14.1227 7.49988C14.1227 11.1575 11.1576 14.1227 7.49991 14.1227C6.12289 14.1227 4.84403 13.7024 3.78458 12.9832L4.4707 12.2971C5.34714 12.8517 6.38603 13.1727 7.49991 13.1727C10.6329 13.1727 13.1727 10.6329 13.1727 7.49988C13.1727 6.386 12.8517 5.34711 12.2971 4.47067ZM13.3536 2.35357C13.5488 2.1583 13.5488 1.84172 13.3536 1.64646C13.1583 1.4512 12.8417 1.4512 12.6465 1.64646L1.64647 12.6465C1.4512 12.8417 1.4512 13.1583 1.64647 13.3536C1.84173 13.5488 2.15831 13.5488 2.35357 13.3536L13.3536 2.35357Z"
    fill="currentColor"
  />
</svg>
