<svg width="15" height="15" viewBox="0 0 15 15" fill="none" xmlns="http://www.w3.org/2000/svg"><path d="M11.4998 12C11.6322 12 11.7596 11.9471 11.8533 11.8535C11.9468 11.7599 11.9997 11.6323 11.9998 11.5V6L11.99 5.89844C11.9432 5.67099 11.7411 5.50009 11.4998 5.5C11.2582 5.50009 11.0561 5.67154 11.0096 5.89941L10.9998 6V10.293L4.35333 3.64648C4.15816 3.45132 3.84158 3.45152 3.6463 3.64648C3.45133 3.84177 3.45114 4.15835 3.6463 4.35352L10.2928 11H5.99981C5.7238 11 5.49996 11.224 5.49981 11.5C5.49996 11.776 5.7238 12 5.99981 12H11.4998Z" fill="currentColor"/></svg>