<svg width="15" height="15" viewBox="0 0 15 15" fill="none" xmlns="http://www.w3.org/2000/svg"><path d="M12.5 2C13.3284 2 14 2.67157 14 3.5V9.5C14 10.1528 13.5822 10.706 13 10.9121V11.5C13 12.3284 12.3284 13 11.5 13H3.5C2.67157 13 2 12.3284 2 11.5V10.9121C1.41782 10.706 1 10.1528 1 9.5V3.5C1 2.67157 1.67157 2 2.5 2H12.5ZM3 11V11.5C3 11.7761 3.22386 12 3.5 12H11.5C11.7761 12 12 11.7761 12 11.5V11H3ZM2.5 3C2.22386 3 2 3.22386 2 3.5V9.5C2 9.77614 2.22386 10 2.5 10H12.5C12.7761 10 13 9.77614 13 9.5V3.5C13 3.22386 12.7761 3 12.5 3H2.5Z" fill="currentColor"/></svg>