<svg width="15" height="15" viewBox="0 0 15 15" fill="none" xmlns="http://www.w3.org/2000/svg"><path d="M10.25 0C10.6642 0 11 0.335786 11 0.75V1H11.5C12.3284 1 13 1.67157 13 2.5V12.5C13 13.3284 12.3284 14 11.5 14H3.5C2.67157 14 2 13.3284 2 12.5V2.5C2 1.67157 2.67157 1 3.5 1H4V0.75C4 0.335786 4.33579 9.39539e-09 4.75 0H10.25ZM3.5 2C3.22386 2 3 2.22386 3 2.5V12.5C3 12.7761 3.22386 13 3.5 13H11.5C11.7761 13 12 12.7761 12 12.5V2.5C12 2.22386 11.7761 2 11.5 2H11V2.25C11 2.66421 10.6642 3 10.25 3H4.75C4.33579 3 4 2.66421 4 2.25V2H3.5ZM5 2H10V1H5V2Z" fill="currentColor"/></svg>