<svg width="15" height="15" viewBox="0 0 15 15" fill="none" xmlns="http://www.w3.org/2000/svg"><path d="M7.50009 1C7.77623 1 8.00009 1.22386 8.00009 1.5V13.5C8.00009 13.7761 7.77623 14 7.50009 14C7.22395 14 7.00009 13.7761 7.00009 13.5V1.5C7.00009 1.22386 7.22395 1 7.50009 1ZM11.6817 5.18164C11.8356 5.0278 12.0734 5.00851 12.2481 5.12402L12.3184 5.18164L14.3184 7.18164L14.3761 7.25195C14.4914 7.42662 14.4722 7.66458 14.3184 7.81836L12.3184 9.81836C12.1428 9.99403 11.8575 9.9939 11.6817 9.81836C11.506 9.64262 11.506 9.35738 11.6817 9.18164L12.9132 7.9502H9.50009C9.25174 7.95006 9.05 7.74836 9.04989 7.5C9.04989 7.25155 9.25167 7.04994 9.50009 7.0498H12.9132L11.6817 5.81836L11.6241 5.74805C11.5086 5.57335 11.5279 5.33548 11.6817 5.18164ZM2.75204 5.12402C2.92673 5.00854 3.16462 5.02781 3.31845 5.18164C3.47211 5.33549 3.49153 5.57343 3.37606 5.74805L3.31845 5.81836L2.087 7.0498H5.50009L5.59091 7.05957C5.79587 7.10161 5.95028 7.28261 5.95028 7.5C5.95019 7.71733 5.79584 7.89843 5.59091 7.94043L5.50009 7.9502H2.087L3.31845 9.18164L3.37606 9.25195C3.49141 9.42662 3.47222 9.66458 3.31845 9.81836C3.16467 9.97214 2.92671 9.99132 2.75204 9.87598L2.68173 9.81836L0.681729 7.81836C0.505993 7.64262 0.505993 7.35738 0.681729 7.18164L2.68173 5.18164L2.75204 5.12402Z" fill="currentColor"/></svg>