<svg width="15" height="15" viewBox="0 0 15 15" fill="none" xmlns="http://www.w3.org/2000/svg"><path d="M7.2249 12.7395C7.41898 12.6113 7.68295 12.6321 7.85381 12.803C8.0489 12.9981 8.04875 13.3147 7.85381 13.51C7.65857 13.7052 7.34204 13.7052 7.14677 13.51C6.95151 13.3147 6.95151 12.9982 7.14677 12.803C7.17106 12.7787 7.19733 12.7577 7.2249 12.7395ZM5.73174 11.3889C5.92692 11.1937 6.24348 11.1939 6.43877 11.3889C6.63403 11.5842 6.63403 11.9007 6.43877 12.0959C6.24349 12.291 5.92694 12.2911 5.73174 12.0959C5.53678 11.9007 5.53674 11.5841 5.73174 11.3889ZM8.56084 11.3889C8.75611 11.1938 9.07266 11.1937 9.26787 11.3889C9.46299 11.5841 9.46295 11.9007 9.26787 12.0959C9.07264 12.2912 8.75611 12.2911 8.56084 12.0959C8.36557 11.9007 8.36557 11.5842 8.56084 11.3889ZM4.31767 9.97483C4.5129 9.7796 4.82943 9.77968 5.0247 9.97483C5.21997 10.1701 5.21997 10.4866 5.0247 10.6819C4.82943 10.8769 4.51287 10.8771 4.31767 10.6819C4.12258 10.4867 4.12264 10.1701 4.31767 9.97483ZM9.9749 9.97483C10.1702 9.77957 10.4867 9.77957 10.6819 9.97483C10.8771 10.1701 10.8772 10.4866 10.6819 10.6819C10.4867 10.8771 10.1702 10.877 9.9749 10.6819C9.77964 10.4866 9.77965 10.1701 9.9749 9.97483ZM2.90361 8.56077C3.09887 8.36551 3.41538 8.36551 3.61064 8.56077C3.80584 8.75604 3.80588 9.07256 3.61064 9.2678C3.41539 9.46286 3.09882 9.46294 2.90361 9.2678C2.70841 9.0726 2.70853 8.75605 2.90361 8.56077ZM11.389 8.56077C11.5842 8.36551 11.9007 8.36551 12.096 8.56077C12.2912 8.75604 12.2912 9.07257 12.096 9.2678C11.9007 9.46288 11.5842 9.46292 11.389 9.2678C11.1938 9.07259 11.1939 8.75604 11.389 8.56077ZM1.48955 7.14671C1.71053 6.92572 2.09066 6.9668 2.26103 7.22483C2.38899 7.41888 2.36736 7.68295 2.19658 7.85374C2.00137 8.04874 1.68476 8.04874 1.48955 7.85374C1.29435 7.65854 1.29448 7.34198 1.48955 7.14671ZM12.803 7.14671C12.9983 6.95144 13.3148 6.95144 13.5101 7.14671C13.7052 7.34197 13.7053 7.6585 13.5101 7.85374C13.3148 8.04865 12.9982 8.04882 12.803 7.85374C12.6079 7.65858 12.6081 7.34199 12.803 7.14671ZM2.90361 5.73167C3.09879 5.53665 3.41541 5.53673 3.61064 5.73167C3.80585 5.92688 3.80575 6.24342 3.61064 6.4387C3.41538 6.63396 3.09887 6.63396 2.90361 6.4387C2.70862 6.24341 2.70844 5.92684 2.90361 5.73167ZM11.389 5.73167C11.5842 5.53667 11.9008 5.53671 12.096 5.73167C12.2912 5.92687 12.2911 6.24342 12.096 6.4387C11.9007 6.63396 11.5842 6.63396 11.389 6.4387C11.1939 6.24342 11.1938 5.92685 11.389 5.73167ZM4.31767 4.3176C4.51284 4.12244 4.82942 4.12263 5.0247 4.3176C5.21997 4.51287 5.21997 4.82937 5.0247 5.02464C4.82944 5.21988 4.51293 5.21989 4.31767 5.02464C4.12271 4.82936 4.12252 4.51277 4.31767 4.3176ZM9.9749 4.3176C10.1701 4.12255 10.4867 4.1225 10.6819 4.3176C10.8771 4.51281 10.877 4.82936 10.6819 5.02464C10.4867 5.2199 10.1702 5.2199 9.9749 5.02464C9.77974 4.82936 9.77967 4.51283 9.9749 4.3176ZM5.73174 2.90354C5.92691 2.70837 6.24348 2.70855 6.43877 2.90354C6.63403 3.0988 6.63403 3.41531 6.43877 3.61057C6.24349 3.80568 5.92695 3.80578 5.73174 3.61057C5.5368 3.41534 5.53672 3.09872 5.73174 2.90354ZM8.56084 2.90354C8.75611 2.70846 9.07267 2.70834 9.26787 2.90354C9.46301 3.09875 9.46293 3.41532 9.26787 3.61057C9.07263 3.80581 8.7561 3.80578 8.56084 3.61057C8.36557 3.41531 8.36557 3.0988 8.56084 2.90354ZM7.14677 1.48948C7.34205 1.2944 7.65861 1.29428 7.85381 1.48948C8.04882 1.6847 8.04882 2.00129 7.85381 2.19651C7.6586 2.39171 7.34205 2.39159 7.14677 2.19651C6.95151 2.00125 6.95151 1.68474 7.14677 1.48948Z" fill="currentColor"/></svg>