<svg width="15" height="15" viewBox="0 0 15 15" fill="none" xmlns="http://www.w3.org/2000/svg"><path d="M2.5 9C2.77614 9 3 9.22386 3 9.5V10.0996C3 10.5279 3.00017 10.8199 3.01855 11.0449C3.03647 11.2639 3.06956 11.376 3.10938 11.4541C3.20521 11.6421 3.35793 11.7948 3.5459 11.8906C3.62405 11.9304 3.73615 11.9635 3.95508 11.9814C4.18012 11.9998 4.4721 12 4.90039 12H5.5C5.77614 12 6 12.2239 6 12.5C6 12.7761 5.77614 13 5.5 13H4.87891C4.47662 13 4.14452 12.9996 3.87402 12.9775C3.59301 12.9546 3.33444 12.9059 3.0918 12.7822C2.71554 12.5905 2.40951 12.2845 2.21777 11.9082C2.09414 11.6656 2.04543 11.407 2.02246 11.126C2.00036 10.8555 1.99999 10.5234 2 10.1211V9.5C2 9.22386 2.22386 9 2.5 9ZM12.5 9C12.7761 9 13 9.22386 13 9.5V10.1211C13 10.5234 12.9996 10.8555 12.9775 11.126C12.9546 11.407 12.9059 11.6656 12.7822 11.9082C12.5905 12.2845 12.2845 12.5905 11.9082 12.7822C11.6656 12.9059 11.407 12.9546 11.126 12.9775C10.8555 12.9996 10.5234 13 10.1211 13H9.5C9.22386 13 9 12.7761 9 12.5C9 12.2239 9.22386 12 9.5 12H10.0996C10.5279 12 10.8199 11.9998 11.0449 11.9814C11.2639 11.9635 11.376 11.9304 11.4541 11.8906C11.6421 11.7948 11.7948 11.6421 11.8906 11.4541C11.9304 11.376 11.9635 11.2639 11.9814 11.0449C11.9998 10.8199 12 10.5279 12 10.0996V9.5C12 9.22386 12.2239 9 12.5 9ZM5.5 2C5.77614 2 6 2.22386 6 2.5C6 2.77614 5.77614 3 5.5 3H4.90039C4.4721 3 4.18012 3.00017 3.95508 3.01855C3.73615 3.03647 3.62405 3.06956 3.5459 3.10938C3.35793 3.20522 3.20521 3.35793 3.10938 3.5459C3.06956 3.62405 3.03647 3.73615 3.01855 3.95508C3.00017 4.18012 3 4.4721 3 4.90039V5.5C3 5.77614 2.77614 6 2.5 6C2.22386 6 2 5.77614 2 5.5V4.87891C1.99999 4.47662 2.00036 4.14452 2.02246 3.87402C2.04543 3.59301 2.09414 3.33444 2.21777 3.0918C2.40951 2.71554 2.71554 2.40951 3.0918 2.21777C3.33444 2.09414 3.59301 2.04543 3.87402 2.02246C4.14452 2.00036 4.47662 1.99999 4.87891 2H5.5ZM10.1211 2C10.5234 1.99999 10.8555 2.00036 11.126 2.02246C11.407 2.04543 11.6656 2.09414 11.9082 2.21777C12.2845 2.40951 12.5905 2.71554 12.7822 3.0918C12.9059 3.33444 12.9546 3.59301 12.9775 3.87402C12.9996 4.14452 13 4.47662 13 4.87891V5.5C13 5.77614 12.7761 6 12.5 6C12.2239 6 12 5.77614 12 5.5V4.90039C12 4.4721 11.9998 4.18012 11.9814 3.95508C11.9635 3.73615 11.9304 3.62405 11.8906 3.5459C11.7948 3.35793 11.6421 3.20522 11.4541 3.10938C11.376 3.06956 11.2639 3.03647 11.0449 3.01855C10.8199 3.00017 10.5279 3 10.0996 3H9.5C9.22386 3 9 2.77614 9 2.5C9 2.22386 9.22386 2 9.5 2H10.1211Z" fill="currentColor"/></svg>