<svg width="15" height="15" viewBox="0 0 15 15" fill="none" xmlns="http://www.w3.org/2000/svg"><path d="M7.5 0C7.77614 0 8 0.223858 8 0.5V1.80762C10.6919 2.09438 12.8147 4.28034 13.0049 7H14.5C14.7761 7 15 7.22386 15 7.5C15 7.77614 14.7761 8 14.5 8H12.9873C12.7077 10.624 10.624 12.7077 8 12.9873V14.5C8 14.7761 7.77614 15 7.5 15C7.22386 15 7 14.7761 7 14.5V13.0039C4.28041 12.8137 2.09539 10.6919 1.80859 8H0.5C0.223858 8 0 7.77614 0 7.5C0 7.22386 0.223858 7 0.5 7H1.79102C1.98595 4.21179 4.21179 1.98595 7 1.79102V0.5C7 0.223858 7.22386 0 7.5 0ZM7 2.74219C4.73667 2.93307 2.93409 4.73668 2.74316 7H5.5C5.77614 7 6 7.22386 6 7.5C6 7.77614 5.77614 8 5.5 8H2.76465C3.0437 10.1665 4.8054 11.8667 7 12.0518V9.5C7 9.22386 7.22386 9 7.5 9C7.77614 9 8 9.22386 8 9.5V12.0303C10.0987 11.76 11.76 10.0987 12.0303 8H9.5C9.22386 8 9 7.77614 9 7.5C9 7.22386 9.22386 7 9.5 7H12.0518C11.8667 4.8054 10.1665 3.0437 8 2.76465V5.5C8 5.77614 7.77614 6 7.5 6C7.22386 6 7 5.77614 7 5.5V2.74219Z" fill="currentColor"/></svg>