<svg width="15" height="15" viewBox="0 0 15 15" fill="none" xmlns="http://www.w3.org/2000/svg"><path d="M12.2248 2.08224C12.4189 1.95407 12.6829 1.97583 12.8537 2.14669C13.0246 2.31756 13.0463 2.58152 12.9182 2.7756L12.8537 2.85372L8.20724 7.50021L12.8537 12.1467L12.9182 12.2248C13.0463 12.4189 13.0246 12.6829 12.8537 12.8537C12.6829 13.0246 12.4189 13.0463 12.2248 12.9182L12.1467 12.8537L7.50021 8.20724L2.85372 12.8537C2.65846 13.049 2.34195 13.049 2.14669 12.8537C1.95143 12.6585 1.95143 12.342 2.14669 12.1467L6.79318 7.50021L2.14669 2.85372L2.08224 2.7756C1.95407 2.58152 1.97583 2.31756 2.14669 2.14669C2.31756 1.97583 2.58152 1.95407 2.7756 2.08224L2.85372 2.14669L7.50021 6.79318L12.1467 2.14669L12.2248 2.08224Z" fill="currentColor"/></svg>