<svg width="15" height="15" viewBox="0 0 15 15" fill="none" xmlns="http://www.w3.org/2000/svg"><path d="M7.50098 1C8.92616 1.00005 10.2341 1.17101 11.2002 1.45801C11.6803 1.60065 12.1023 1.77911 12.4141 1.99805C12.7132 2.20815 13.0037 2.52435 13.0039 2.95312C13.0039 2.96153 13.0012 2.9702 13.001 2.97852C13.0013 2.98567 13.0039 2.99276 13.0039 3V11.7324L12.9932 11.8867C12.9443 12.2389 12.7317 12.5363 12.4629 12.7695C12.1543 13.0371 11.7281 13.2615 11.2246 13.4424C10.2154 13.8049 8.87594 13.9999 7.50098 14C6.12589 14 4.78574 13.8049 3.77637 13.4424C3.27287 13.2615 2.84664 13.0371 2.53809 12.7695C2.26925 12.5364 2.05767 12.2389 2.00879 11.8867L1.99805 11.7324V3C1.99805 2.99244 1.99963 2.98501 2 2.97754C1.9998 2.96955 1.99805 2.9612 1.99805 2.95312C1.99821 2.52441 2.28785 2.20815 2.58691 1.99805C2.8986 1.77923 3.32086 1.60059 3.80078 1.45801C4.76702 1.17103 6.07571 1 7.50098 1ZM12.0967 8.30078C11.8458 8.45474 11.5519 8.59139 11.2246 8.70898C10.2154 9.07155 8.87595 9.26752 7.50098 9.26758C6.12587 9.26758 4.78574 9.07155 3.77637 8.70898C3.4492 8.59142 3.15514 8.45468 2.9043 8.30078V11.7324L2.91309 11.7891C2.93137 11.8568 2.98615 11.9568 3.13281 12.084C3.32691 12.2523 3.64001 12.4297 4.08301 12.5889C4.96749 12.9066 6.19793 13.0928 7.50098 13.0928C8.8039 13.0927 10.0336 12.9066 10.918 12.5889C11.361 12.4297 11.6741 12.2523 11.8682 12.084C12.0147 11.9568 12.0696 11.8567 12.0879 11.7891L12.0967 11.7324V8.30078ZM12.0967 4.0957C11.837 4.23069 11.5333 4.34927 11.2002 4.44824C10.2341 4.73524 8.92616 4.9062 7.50098 4.90625C6.07561 4.90625 4.76704 4.73526 3.80078 4.44824C3.46798 4.34937 3.16389 4.23153 2.9043 4.09668V7L2.91211 7.05664C2.93053 7.12435 2.98611 7.22433 3.13281 7.35156C3.32687 7.51979 3.64019 7.69634 4.08301 7.85547C4.96749 8.17317 6.19791 8.36035 7.50098 8.36035C8.80391 8.36029 10.0336 8.17316 10.918 7.85547C11.3608 7.69634 11.6741 7.5198 11.8682 7.35156C12.0146 7.22449 12.0696 7.12433 12.0879 7.05664L12.0967 7V4.0957ZM7.50098 1.90625C6.13806 1.90625 4.92078 2.07141 4.05957 2.32715C3.62628 2.45586 3.30767 2.60037 3.1084 2.74023C3.01018 2.80923 2.9547 2.86778 2.92676 2.9082C2.91402 2.92674 2.90851 2.93984 2.90625 2.94629C2.90534 2.94896 2.90456 2.95121 2.9043 2.95215V2.9541C2.90442 2.95483 2.90522 2.95695 2.90625 2.95996C2.90842 2.96626 2.9138 2.97916 2.92676 2.99805C2.95461 3.03848 3.00987 3.09681 3.1084 3.16602C3.30765 3.30595 3.62603 3.45031 4.05957 3.5791C4.92079 3.83487 6.13796 4 7.50098 4C8.86397 3.99995 10.0813 3.83491 10.9424 3.5791C11.3755 3.45037 11.6934 3.30586 11.8926 3.16602C11.9909 3.09689 12.0464 3.03844 12.0742 2.99805C12.087 2.97932 12.0926 2.96626 12.0947 2.95996C12.0957 2.95708 12.0966 2.95482 12.0967 2.9541V2.95215C12.0964 2.95124 12.0957 2.94908 12.0947 2.94629C12.0925 2.93987 12.0871 2.92691 12.0742 2.9082C12.0463 2.86776 11.9911 2.8094 11.8926 2.74023C11.6934 2.60036 11.3756 2.45589 10.9424 2.32715C10.0813 2.07134 8.86397 1.9063 7.50098 1.90625Z" fill="currentColor"/></svg>