<svg width="15" height="15" viewBox="0 0 15 15" fill="none" xmlns="http://www.w3.org/2000/svg">
<path fill-rule="evenodd" clip-rule="evenodd" d="M2.13713 11.844C2.22824 11.9401 2.35712 12 2.5 12H11.6916C11.9274 12 12.1311 11.8353 12.1805 11.6048L13.2519 6.60477C13.3186 6.29351 13.0813 6 12.763 6H12.5L3.80842 6C3.57265 6 3.36892 6.1647 3.31951 6.39524L3.1139 7.35476L2.7389 9.10476L2.3639 10.8548L2.1764 11.7298C2.16774 11.7702 2.15442 11.8084 2.13713 11.844ZM2 7.78036L2.1361 7.14524L2.34171 6.18571C2.48991 5.4941 3.10111 5 3.80842 5L12 5C12 4.72386 11.7761 4.5 11.5 4.5H9.5H7.83333C7.50878 4.5 7.19298 4.39473 6.93333 4.2L5.33333 3H2.5C2.22386 3 2 3.22386 2 3.5L2 6.5L2 7.78036ZM13 5.01844V5C13 4.17157 12.3284 3.5 11.5 3.5H9.5H7.83333C7.72515 3.5 7.61988 3.46491 7.53333 3.4L5.86667 2.15C5.73684 2.05263 5.57894 2 5.41667 2H2.5C1.67157 2 1 2.67157 1 3.5L1 6.5L1 11.5C1 12.3284 1.67157 13 2.5 13H11.6916C12.3989 13 13.0101 12.5059 13.1583 11.8143L14.2297 6.81429C14.4129 5.95961 13.832 5.14952 13 5.01844Z" fill="black"/>
</svg>
