<svg width="15" height="15" viewBox="0 0 15 15" fill="none" xmlns="http://www.w3.org/2000/svg"><path d="M10.1088 2.41855C10.1464 2.23674 10.3074 2.09921 10.5004 2.09921C10.6932 2.0994 10.8544 2.23678 10.892 2.41855L10.9008 2.4996L10.9008 12.4996C10.9008 12.7204 10.7211 12.8998 10.5004 12.9C10.2795 12.9 10.1 12.7205 10.1 12.4996L10.1 2.4996L10.1088 2.41855ZM8.10876 2.41855C8.14642 2.23674 8.30739 2.09921 8.50037 2.09921C8.69322 2.0994 8.8544 2.23678 8.89197 2.41855L8.90076 2.4996L8.90076 12.4996C8.90076 12.7204 8.7211 12.8998 8.50037 12.9C8.27945 12.9 8.09998 12.7205 8.09998 12.4996L8.09998 2.4996L8.10876 2.41855ZM6.10876 2.41855C6.14642 2.23674 6.30739 2.09921 6.50037 2.09921C6.69322 2.0994 6.8544 2.23678 6.89197 2.41855L6.90076 2.4996L6.90076 12.4996C6.90076 12.7204 6.7211 12.8998 6.50037 12.9C6.27945 12.9 6.09998 12.7205 6.09998 12.4996L6.09998 2.4996L6.10876 2.41855ZM4.10876 2.41855C4.14642 2.23674 4.30739 2.09921 4.50037 2.09921C4.69322 2.0994 4.8544 2.23678 4.89197 2.41855L4.90076 2.4996L4.90076 12.4996C4.90076 12.7204 4.7211 12.8998 4.50037 12.9C4.27945 12.9 4.09998 12.7205 4.09998 12.4996L4.09998 2.4996L4.10876 2.41855Z" fill="currentColor"/></svg>