<svg width="15" height="15" viewBox="0 0 15 15" fill="none" xmlns="http://www.w3.org/2000/svg"><path d="M12.6465 1.64651C12.8418 1.45125 13.1583 1.45125 13.3535 1.64651C13.5488 1.84177 13.5488 2.15828 13.3535 2.35354L11.6377 4.06838C12.9756 4.81468 14.0967 5.91192 14.9239 7.23537C15.0124 7.37719 15.0235 7.55204 14.9571 7.70217L14.9239 7.76467C13.3435 10.2933 10.6922 12 7.50002 12C6.36232 12 5.29371 11.7822 4.31741 11.3887L2.35354 13.3535C2.15828 13.5488 1.84177 13.5488 1.64651 13.3535C1.45125 13.1583 1.45125 12.8418 1.64651 12.6465L3.36135 10.9307C2.02399 10.1844 0.903113 9.08773 0.0761963 7.76467C-0.0249881 7.60262 -0.0249956 7.39742 0.0761963 7.23537L0.227563 7.00002C1.82294 4.60124 4.4078 3.00002 7.50002 3.00002C8.63727 3.00002 9.70568 3.21714 10.6817 3.61037L12.6465 1.64651ZM5.09573 10.6104C5.84657 10.8632 6.65217 11 7.50002 11C10.1963 11 12.4661 9.62071 13.8994 7.50002C13.1227 6.35087 12.0992 5.42186 10.8965 4.80959L5.09573 10.6104ZM7.50002 4.00002C4.80354 4.00002 2.53299 5.37907 1.09963 7.50002C1.87617 8.64906 2.89999 9.57724 4.10256 10.1895L9.90335 4.3887C9.15289 4.13599 8.34748 4.00002 7.50002 4.00002Z" fill="currentColor"/></svg>