<svg width="15" height="15" viewBox="0 0 15 15" fill="none" xmlns="http://www.w3.org/2000/svg"><path d="M9.59766 1.00977C9.69389 1.02894 9.78311 1.07608 9.85352 1.14648L12.7803 4.07324C12.9209 4.21389 13 4.40462 13 4.60352V12.5C13 13.3284 12.3284 14 11.5 14H3.5C2.67157 14 2 13.3284 2 12.5V2.5C2 1.67157 2.67157 1 3.5 1H9.5L9.59766 1.00977ZM3.5 2C3.22386 2 3 2.22386 3 2.5V12.5C3 12.7761 3.22386 13 3.5 13H11.5C11.7761 13 12 12.7761 12 12.5V4.70703L9.29297 2H3.5ZM9.75 7C10.0261 7 10.25 7.22386 10.25 7.5C10.25 7.77614 10.0261 8 9.75 8H5.25C4.97386 8 4.75 7.77614 4.75 7.5C4.75 7.22386 4.97386 7 5.25 7H9.75Z" fill="currentColor"/></svg>