<svg width="15" height="15" viewBox="0 0 15 15" fill="none" xmlns="http://www.w3.org/2000/svg"><path d="M7.50049 0.900055C11.1453 0.900372 14.1001 3.85576 14.1001 7.50064C14.0998 11.1453 11.1451 14.0999 7.50049 14.1003C3.8556 14.1003 0.900219 11.1455 0.899902 7.50064C0.899902 3.85556 3.85541 0.900055 7.50049 0.900055ZM5.28369 10.7047C5.64404 11.6351 6.17083 12.4782 6.85889 13.1628C6.93847 13.1717 7.01858 13.1777 7.09912 13.1833V10.8454C6.48761 10.8314 5.87706 10.7834 5.28369 10.7047ZM9.77295 10.6989C9.16164 10.7822 8.53116 10.83 7.8999 10.8444V13.1833C7.98109 13.1776 8.06187 13.1717 8.14209 13.1628C8.85531 12.4766 9.40048 11.6314 9.77295 10.6989ZM2.35791 9.96158C3.02351 11.3493 4.23482 12.4239 5.71338 12.9118C5.18397 12.2135 4.77849 11.4213 4.49561 10.5788C3.72434 10.4334 2.99871 10.2279 2.35791 9.96158ZM12.6411 9.96158C12.0184 10.2204 11.3158 10.4226 10.5688 10.567C10.2783 11.4105 9.86035 12.2028 9.31592 12.902C10.781 12.4097 11.98 11.3401 12.6411 9.96158ZM4.7085 7.90005C4.7386 8.60278 4.84803 9.29815 5.03564 9.96255C5.69719 10.0665 6.39354 10.1284 7.09912 10.1452V7.90005H4.7085ZM7.8999 10.1452C8.6291 10.1279 9.34852 10.0631 10.0298 9.95279C10.222 9.29117 10.3348 8.59924 10.3657 7.90005H7.8999V10.1452ZM1.81494 7.90005C1.84166 8.28532 1.90683 8.65978 2.00635 9.02017C2.63373 9.36462 3.41278 9.63163 4.27686 9.81998C4.12456 9.19287 4.03416 8.54747 4.0083 7.90005H1.81494ZM11.0669 7.90005C11.0404 8.54266 10.9472 9.18283 10.7925 9.80533C11.5283 9.64052 12.2013 9.4188 12.7681 9.13931L12.9917 9.02115C13.0914 8.66036 13.1573 8.28578 13.1841 7.90005H11.0669ZM4.32666 4.97525C3.47332 5.15752 2.70151 5.41806 2.07373 5.75162C1.9355 6.18085 1.8484 6.63234 1.81592 7.09927H4.0083C4.03702 6.38157 4.14246 5.66569 4.32666 4.97525ZM7.09912 4.66177C6.4151 4.67804 5.73957 4.73639 5.09619 4.83463C4.87181 5.55952 4.74173 6.32486 4.7085 7.09927H7.09912V4.66177ZM7.8999 7.09927H10.3657C10.3315 6.32843 10.1973 5.56661 9.96729 4.84439C9.30461 4.7402 8.60679 4.67852 7.8999 4.66177V7.09927ZM10.7397 4.98892C10.9274 5.67521 11.0375 6.38592 11.0669 7.09927H13.1841C13.1516 6.63184 13.0628 6.18029 12.9243 5.75064L12.7681 5.66861C12.1877 5.38241 11.4964 5.15481 10.7397 4.98892ZM5.71338 2.08658C4.32274 2.54535 3.16814 3.52413 2.48193 4.79361C3.11198 4.54372 3.81949 4.35141 4.56787 4.21451C4.84612 3.44854 5.22711 2.7277 5.71338 2.08658ZM9.31592 2.09732C9.81554 2.73886 10.2079 3.45908 10.4937 4.22525C11.2182 4.36119 11.9031 4.55008 12.5151 4.79263C11.8338 3.53304 10.6926 2.55992 9.31592 2.09732ZM7.8999 3.96255C8.50199 3.97625 9.10328 4.02188 9.68799 4.0983C9.31948 3.24599 8.80407 2.47253 8.14307 1.83658C8.06252 1.82753 7.98143 1.82075 7.8999 1.81509V3.96255ZM7.09912 1.81509C7.01824 1.82072 6.93782 1.82761 6.85791 1.83658C6.2206 2.47064 5.72306 3.24178 5.3667 4.09146C5.9339 4.01939 6.51613 3.97585 7.09912 3.96255V1.81509Z" fill="currentColor"/></svg>