<svg width="15" height="15" viewBox="0 0 15 15" fill="none" xmlns="http://www.w3.org/2000/svg"><path d="M7.65376 0.000106587C8.39848 0.00809746 9.21494 0.44839 9.41253 1.36142C9.51074 1.26615 9.61844 1.1844 9.7348 1.11728C10.1108 0.900442 10.5349 0.859808 10.9233 0.948341C11.6908 1.12355 12.3581 1.81083 12.4213 2.7618C12.423 2.78481 12.4246 2.80806 12.4262 2.83114C12.7361 2.60508 13.1279 2.52626 13.5766 2.61532C13.98 2.69554 14.4874 2.99214 14.7738 3.62996C15.0562 4.25881 15.095 5.15317 14.7289 6.39166C14.3975 7.51265 14.0239 8.44892 13.6869 9.29202C13.5217 9.70535 13.3649 10.0971 13.227 10.4766C12.8018 11.6464 12.4994 12.8214 12.4994 14.5C12.4994 14.7761 12.2756 15 11.9994 15H4.99948C4.72355 14.9997 4.49949 14.776 4.49949 14.5C4.49949 13.4632 3.80885 12.49 2.86083 11.46C2.63172 11.2111 2.39509 10.9654 2.15673 10.7188L2.1499 10.7129C1.91093 10.4657 1.67058 10.2155 1.44385 9.9678C0.99627 9.47875 0.573975 8.96448 0.305186 8.42875C0.0666417 7.97136 -0.101611 7.31277 0.101086 6.76275L0.104016 6.75396C0.240488 6.40402 0.45435 6.09227 0.777839 5.88482C1.10394 5.67574 1.48872 5.60674 1.90283 5.6485C2.51915 5.70808 2.96376 5.98152 3.33836 6.31256C3.19348 5.89879 3.02166 5.48847 2.84227 5.06159C2.82043 5.0096 2.79789 4.95689 2.77587 4.90436C2.52376 4.30299 2.26433 3.66797 2.09228 2.99715L2.09033 2.98739C1.94445 2.3674 2.13399 1.73959 2.53564 1.31943C2.94896 0.887079 3.58633 0.679682 4.26511 0.917091C4.92582 1.14917 5.39425 1.67382 5.73092 2.26669C5.75231 2.01497 5.78193 1.75832 5.82272 1.49326L5.8237 1.49033C5.98769 0.466156 6.86411 -0.00817682 7.65376 0.000106587ZM7.64302 1.0001C7.22362 0.995776 6.87884 1.2277 6.81099 1.64755C6.62167 2.87938 6.68224 3.88534 6.76802 5.30475C6.78369 5.56398 6.80089 5.83728 6.81685 6.12799C6.83135 6.39197 6.6371 6.62195 6.37447 6.6524C6.11202 6.68262 5.87097 6.50336 5.82467 6.24322L5.74752 5.8067C5.644 5.16503 5.48362 4.2546 5.17819 3.44734C4.86255 2.61309 4.44828 2.04121 3.93406 1.86044C3.64974 1.76116 3.41858 1.84315 3.25829 2.01083C3.08725 2.18995 2.99791 2.4708 3.06298 2.75399C3.21485 3.34416 3.44666 3.91642 3.69871 4.51765C3.72117 4.57121 3.74334 4.62564 3.7661 4.67976C3.99525 5.22471 4.23625 5.79717 4.41648 6.39068V6.39263C4.56153 6.87602 4.65654 7.25945 4.73093 7.56157C4.76041 7.68129 4.7869 7.78855 4.81199 7.88383C4.86777 8.09622 4.77795 8.3199 4.59128 8.43559C4.40454 8.5513 4.16389 8.53236 3.99852 8.38773C3.73696 8.15899 3.51468 7.92763 3.31786 7.71782C3.27604 7.67324 3.23567 7.62966 3.19676 7.58794C3.04769 7.42803 2.91731 7.2879 2.78368 7.1602C2.46033 6.85123 2.1841 6.68003 1.80615 6.64361H1.80322C1.56127 6.61907 1.41434 6.66481 1.31787 6.72661C1.2193 6.78981 1.11964 6.9042 1.0376 7.11235C0.976384 7.28495 1.01527 7.62968 1.19287 7.96879L1.19678 7.97758C1.40034 8.38459 1.74454 8.81593 2.18115 9.293C2.39712 9.52899 2.62899 9.76866 2.86962 10.0176L2.87938 10.0283C3.11512 10.2722 3.35971 10.5243 3.59715 10.7822C4.42881 11.6858 5.27672 12.7538 5.46237 14H11.5082C11.5632 12.4354 11.8756 11.2681 12.2875 10.1348C12.4453 9.70058 12.6121 9.28425 12.7826 8.85843C13.1097 8.0416 13.4503 7.18945 13.7699 6.10846C14.0983 4.99761 14.0092 4.37061 13.8607 4.04011C13.7165 3.71885 13.4911 3.61758 13.3813 3.59578C13.138 3.54754 13.0377 3.60927 12.9691 3.67879C12.8664 3.78297 12.7695 3.98295 12.6918 4.30281C12.6163 4.61355 12.5748 4.96546 12.5326 5.32526L12.5297 5.3526C12.4923 5.67206 12.4506 6.03006 12.3666 6.30084C12.3385 6.40682 12.2816 6.50394 12.1977 6.57525C12.1379 6.62596 12.01 6.70847 11.8305 6.69341C11.5421 6.66908 11.3709 6.42104 11.3647 6.14752C11.3558 5.75435 11.3886 5.35832 11.4076 4.96589C11.4431 4.23637 11.4767 3.53348 11.4242 2.83407V2.82919C11.3916 2.32997 11.0491 2.00242 10.7006 1.92294C10.5305 1.88417 10.3691 1.90611 10.2348 1.98349C10.1031 2.05944 9.95482 2.21308 9.85687 2.51376L9.85589 2.51766C9.81487 2.6409 9.77266 2.87844 9.73577 3.21297C9.70019 3.5358 9.67359 3.91291 9.65179 4.29402C9.63314 4.62009 9.61745 4.9583 9.60394 5.26178C9.58688 5.64513 9.57242 5.97374 9.55609 6.15338C9.54958 6.22465 9.52886 6.29464 9.49456 6.35748C9.47311 6.39674 9.36083 6.60926 9.07074 6.61822C8.7791 6.62712 8.63949 6.40093 8.61664 6.35943C8.55605 6.24932 8.55043 6.11836 8.54731 5.99322C8.54451 5.88107 8.54264 5.71815 8.54145 5.54791C8.53906 5.20653 8.53949 4.8203 8.53949 4.71003C8.53949 3.66623 8.53796 2.65363 8.44672 1.64365C8.39133 1.24132 8.06212 1.0046 7.64302 1.0001Z" fill="currentColor"/></svg>