<svg width="15" height="15" viewBox="0 0 15 15" fill="none" xmlns="http://www.w3.org/2000/svg"><path d="M8.15623 0.136828C8.29885 0.0017736 8.5108 -0.038992 8.69627 0.0401498C8.90813 0.130807 9.03093 0.354826 8.99314 0.582135L8.08983 6.00004H12.4999C12.6893 6.00004 12.8625 6.10703 12.9472 6.2764C13.0318 6.44567 13.0137 6.64836 12.9003 6.79983L6.90039 14.7997C6.76218 14.984 6.51554 15.0503 6.30372 14.9599C6.09185 14.8692 5.96904 14.6452 6.00685 14.4179L6.91016 9H2.50005C2.31067 9 2.13749 8.89303 2.05279 8.72364C1.96818 8.55437 1.98625 8.35167 2.09967 8.20021L8.09959 0.200304L8.15623 0.136828ZM3.50004 8.00001H7.49999C7.64696 8.00001 7.78682 8.06464 7.88182 8.17677C7.9767 8.28885 8.01724 8.43718 7.99315 8.58204L7.33007 12.5586L11.4999 7.00003H7.49999C7.35302 7.00003 7.21316 6.93541 7.11816 6.82327C7.02329 6.71118 6.98274 6.56286 7.00683 6.418L7.66894 2.44051L3.50004 8.00001Z" fill="currentColor"/></svg>