<svg width="15" height="15" viewBox="0 0 15 15" fill="none" xmlns="http://www.w3.org/2000/svg"><path d="M10.5001 11.9998C10.7762 11.9998 11.0001 12.2236 11.0001 12.4997V14.4997C11.0001 14.7758 10.7762 14.9997 10.5001 14.9997C10.224 14.9997 10.0001 14.7758 10.0001 14.4997V12.4997C10.0001 12.2236 10.224 11.9998 10.5001 11.9998ZM12.1465 12.1462C12.3173 11.9757 12.5805 11.954 12.7745 12.0818L12.8536 12.1462L14.3535 13.6462L14.417 13.7243C14.5454 13.9184 14.5243 14.1823 14.3535 14.3532C14.1827 14.524 13.9187 14.5457 13.7246 14.4177L13.6465 14.3532L12.1465 12.8533L12.0821 12.7751C11.9539 12.5811 11.9757 12.3171 12.1465 12.1462ZM3.61058 6.43932C3.80581 6.24409 4.12234 6.24415 4.3176 6.43932C4.51286 6.63458 4.51286 6.95108 4.3176 7.14634L3.69945 7.76547C3.27281 8.1921 3.11 8.35729 3.00513 8.51155C2.54575 9.18777 2.53636 10.0432 2.95337 10.6785C3.04811 10.8228 3.1987 10.9775 3.61058 11.3894C4.02196 11.8008 4.1764 11.9509 4.32053 12.0457C4.9558 12.4628 5.81117 12.4542 6.48748 11.9949C6.64184 11.89 6.80754 11.7275 7.23453 11.3006L7.85366 10.6814C8.04894 10.4866 8.36557 10.4864 8.56068 10.6814C8.75594 10.8767 8.75594 11.1942 8.56068 11.3894L7.94155 12.0076C7.92705 12.0221 7.91269 12.0364 7.89858 12.0505C7.52917 12.4201 7.29298 12.6569 7.04997 12.822C6.05601 13.4972 4.76174 13.5318 3.77171 12.8816C3.53036 12.723 3.29965 12.4917 2.94849 12.1404C2.93389 12.1258 2.91859 12.1115 2.90357 12.0964C2.88847 12.0813 2.87331 12.0662 2.85865 12.0515C2.50728 11.7003 2.276 11.4687 2.11745 11.2273C1.46757 10.2373 1.50288 8.94384 2.178 7.95003C2.34313 7.70699 2.5799 7.47087 2.94946 7.10142C2.96357 7.08731 2.97793 7.07295 2.99243 7.05845L3.61058 6.43932ZM14.5 9.9998C14.7761 9.9998 15 10.2236 15 10.4998C15 10.7759 14.7761 10.9998 14.5 10.9998H12.5001C12.2239 10.9997 12.0001 10.7759 12.0001 10.4998C12.0001 10.2237 12.2239 9.99982 12.5001 9.9998H14.5ZM7.94936 2.17769C8.94332 1.50247 10.2376 1.46795 11.2276 2.11812C11.469 2.27667 11.6997 2.50802 12.0508 2.85932C12.0655 2.87399 12.0807 2.88914 12.0958 2.90424C12.1108 2.91926 12.1261 2.93358 12.1407 2.94818C12.4921 3.29947 12.7233 3.53093 12.8819 3.77238C13.5319 4.76236 13.4965 6.0558 12.8213 7.04966C12.6562 7.29276 12.4195 7.52972 12.0499 7.89925L11.3887 8.56037C11.1935 8.75563 10.877 8.75563 10.6817 8.56037C10.4865 8.36511 10.4865 8.0486 10.6817 7.85336L11.2999 7.2352C11.7267 6.80841 11.8893 6.64245 11.9942 6.48815C12.4536 5.81186 12.4631 4.95651 12.046 4.3212C11.9512 4.17696 11.8005 4.023 11.3887 3.61125C10.9771 3.19962 10.823 3.04879 10.6788 2.95404C10.0436 2.53687 9.18814 2.54558 8.51185 3.00482C8.3575 3.10968 8.19172 3.27222 7.7648 3.69914L7.14567 4.31827C6.95038 4.5132 6.6338 4.51342 6.43865 4.31827C6.24359 4.12312 6.24375 3.80651 6.43865 3.61125L7.10075 2.94916C7.47014 2.57965 7.70633 2.34281 7.94936 2.17769ZM2.50025 3.99992C2.77639 3.99992 3.00024 4.22377 3.00024 4.49991C3.00023 4.77603 2.77638 4.9999 2.50025 4.9999H0.500295C0.224189 4.99987 0.00031831 4.77602 0.00030517 4.49991C0.00030517 4.22379 0.224181 3.99994 0.500295 3.99992H2.50025ZM4.50021 0C4.77635 0 5.0002 0.223853 5.0002 0.49999V2.49995C5.00019 2.77607 4.77634 2.99994 4.50021 2.99994C4.22411 2.99991 4.00024 2.77606 4.00022 2.49995V0.49999C4.00022 0.223869 4.2241 2.62845e-05 4.50021 0ZM0.646776 0.646471C0.817489 0.475912 1.08073 0.454279 1.27469 0.582019L1.35379 0.646471L2.85376 2.14644L2.91724 2.22456C3.04561 2.41861 3.02458 2.68249 2.85376 2.85346C2.68296 3.02423 2.41891 3.04593 2.22487 2.91791L2.14675 2.85346L0.646776 1.35349L0.582325 1.27536C0.454098 1.08129 0.47592 0.817362 0.646776 0.646471Z" fill="currentColor"/></svg>