<svg width="15" height="15" viewBox="0 0 15 15" fill="none" xmlns="http://www.w3.org/2000/svg"><path d="M3.68931 6.3753C3.88336 6.2473 4.14741 6.26897 4.31821 6.43975C4.51324 6.63498 4.51326 6.95157 4.31821 7.14678L3.69907 7.76592C3.37876 8.08624 3.20737 8.25925 3.09751 8.39092L3.00474 8.51202C2.54529 9.18834 2.53677 10.0437 2.95396 10.679L3.03892 10.7933C3.14049 10.9167 3.30255 11.0803 3.61118 11.389C4.02302 11.8008 4.17689 11.9515 4.32114 12.0462L4.44224 12.1194C5.06223 12.4608 5.85392 12.4263 6.48813 11.9954L6.60923 11.9026C6.74094 11.7928 6.91471 11.6216 7.23521 11.3011L7.85337 10.6819C8.04855 10.4869 8.36517 10.487 8.5604 10.6819C8.75561 10.8772 8.75551 11.1937 8.5604 11.389L7.94224 12.0081C7.64647 12.3039 7.434 12.5174 7.24009 12.678L7.04966 12.8226C6.11778 13.4555 4.9223 13.5259 3.96079 12.9964L3.77231 12.8821C3.52089 12.717 3.28054 12.4734 2.90415 12.097C2.62182 11.8146 2.41358 11.6085 2.25767 11.4173L2.11802 11.2278C1.468 10.2379 1.50252 8.94438 2.17759 7.95049L2.32212 7.76006C2.48279 7.56615 2.69628 7.35368 2.99204 7.05792L3.61118 6.43975L3.68931 6.3753ZM8.1395 2.05889C9.1042 1.5011 10.2992 1.50904 11.2274 2.11846L11.4168 2.25811C11.6081 2.41402 11.8142 2.62226 12.0965 2.9046C12.4729 3.28099 12.7166 3.52133 12.8817 3.77276L12.9959 3.96124C13.4902 4.85871 13.4619 5.96014 12.9413 6.86065L12.8221 7.0501C12.7365 7.17618 12.6315 7.30069 12.4989 7.44268L12.0077 7.94268L11.3885 8.56085C11.1933 8.75596 10.8767 8.75606 10.6815 8.56085C10.4866 8.36561 10.4865 8.04899 10.6815 7.85381L11.3006 7.23565L11.7684 6.75909C11.8753 6.64519 11.9426 6.5657 11.995 6.48858L12.076 6.35967C12.4289 5.74954 12.4376 5.02133 12.119 4.44268L12.0458 4.32159C11.951 4.17734 11.8004 4.02347 11.3885 3.61163C11.0799 3.30299 10.9163 3.14094 10.7928 3.03936L10.6786 2.9544C10.083 2.5633 9.29402 2.54612 8.64048 2.92413L8.51157 3.00518C8.43446 3.05758 8.35496 3.12483 8.24106 3.23174L7.76548 3.69952L7.14634 4.31866C6.95113 4.51371 6.63453 4.51368 6.43931 4.31866C6.24411 4.12345 6.2442 3.8069 6.43931 3.61163L7.05747 2.99249L7.55747 2.50225C7.69966 2.36938 7.82383 2.26377 7.95005 2.17803L8.1395 2.05889Z" fill="currentColor"/></svg>