<svg width="15" height="15" viewBox="0 0 15 15" fill="none" xmlns="http://www.w3.org/2000/svg"><path d="M9.5 8C10.7108 8 11.72 8.8609 11.9502 10.0039C11.9666 10.0023 11.9831 10 12 10H13.5C13.7761 10 14 10.2239 14 10.5C14 10.7761 13.7761 11 13.5 11H12C11.9831 11 11.9667 10.9968 11.9502 10.9951C11.7204 12.1386 10.7112 13 9.5 13C8.28878 13 7.27856 12.1387 7.04883 10.9951C7.03268 10.9967 7.01656 11 7 11H1.5C1.22386 11 1 10.7761 1 10.5C1 10.2239 1.22386 10 1.5 10H7C7.01653 10 7.03271 10.0023 7.04883 10.0039C7.27892 8.8608 8.28911 8 9.5 8ZM9.5 9C8.67157 9 8 9.67157 8 10.5C8 11.3284 8.67157 12 9.5 12C10.3284 12 11 11.3284 11 10.5C11 9.67157 10.3284 9 9.5 9ZM5.5 2C6.71082 2 7.72003 2.8609 7.9502 4.00391C7.96662 4.00228 7.98314 4 8 4H13.5L13.6006 4.00977C13.8286 4.05629 14 4.25829 14 4.5C14 4.74171 13.8286 4.94371 13.6006 4.99023L13.5 5H8C7.98311 5 7.96665 4.99675 7.9502 4.99512C7.72039 6.13859 6.71115 7 5.5 7C4.28878 7 3.27856 6.13869 3.04883 4.99512C3.03268 4.99669 3.01656 5 3 5H1.5C1.22386 5 1 4.77614 1 4.5C1 4.22386 1.22386 4 1.5 4H3C3.01653 4 3.03271 4.00234 3.04883 4.00391C3.27892 2.8608 4.28911 2 5.5 2ZM5.5 3C4.67157 3 4 3.67157 4 4.5C4 5.32843 4.67157 6 5.5 6C6.32843 6 7 5.32843 7 4.5C7 3.67157 6.32843 3 5.5 3Z" fill="currentColor"/></svg>