<svg width="15" height="15" viewBox="0 0 15 15" fill="none" xmlns="http://www.w3.org/2000/svg"><mask id="a" fill="currentColor"><path d="M13.6533 2.00781C14.4097 2.08461 15 2.72334 15 3.5V11.5L14.9922 11.6533C14.9205 12.3593 14.3593 12.9205 13.6533 12.9922L13.5 13H1.5L1.34668 12.9922C0.64069 12.9205 0.0794913 12.3593 0.0078125 11.6533L0 11.5V3.5C0 2.72334 0.590277 2.08461 1.34668 2.00781L1.5 2H13.5L13.6533 2.00781ZM1.5 2.98438C1.21523 2.98438 0.984375 3.21523 0.984375 3.5V11.5C0.984375 11.7848 1.21523 12.0156 1.5 12.0156H13.5C13.7848 12.0156 14.0156 11.7848 14.0156 11.5V3.5C14.0156 3.21523 13.7848 2.98438 13.5 2.98438H1.5ZM3.5 4C3.77614 4 4 4.22386 4 4.5V10.5C4 10.7761 3.77614 11 3.5 11C3.22386 11 3 10.7761 3 10.5V4.5C3 4.22386 3.22386 4 3.5 4Z"/></mask><path d="M13.6533 2.00781C14.4097 2.08461 15 2.72334 15 3.5V11.5L14.9922 11.6533C14.9205 12.3593 14.3593 12.9205 13.6533 12.9922L13.5 13H1.5L1.34668 12.9922C0.64069 12.9205 0.0794913 12.3593 0.0078125 11.6533L0 11.5V3.5C0 2.72334 0.590277 2.08461 1.34668 2.00781L1.5 2H13.5L13.6533 2.00781ZM1.5 2.98438C1.21523 2.98438 0.984375 3.21523 0.984375 3.5V11.5C0.984375 11.7848 1.21523 12.0156 1.5 12.0156H13.5C13.7848 12.0156 14.0156 11.7848 14.0156 11.5V3.5C14.0156 3.21523 13.7848 2.98438 13.5 2.98438H1.5ZM3.5 4C3.77614 4 4 4.22386 4 4.5V10.5C4 10.7761 3.77614 11 3.5 11C3.22386 11 3 10.7761 3 10.5V4.5C3 4.22386 3.22386 4 3.5 4Z" fill="currentColor"/><path d="M13.6533 2.00781L13.7793 0.767315L13.7481 0.764148L13.7168 0.762553L13.6533 2.00781ZM15 3.5H16.2469H15ZM15 11.5L16.2453 11.5635L16.2469 11.5317V11.5H15ZM14.9922 11.6533L16.2327 11.7793L16.2359 11.7481L16.2374 11.7168L14.9922 11.6533ZM13.6533 12.9922L13.7168 14.2374L13.7481 14.2359L13.7793 14.2327L13.6533 12.9922ZM13.5 13V14.2469H13.5317L13.5635 14.2453L13.5 13ZM1.5 13L1.43655 14.2453L1.46825 14.2469H1.5V13ZM1.34668 12.9922L1.22073 14.2327L1.25192 14.2359L1.28323 14.2374L1.34668 12.9922ZM0.0078125 11.6533L-1.23745 11.7168L-1.23585 11.7481L-1.23269 11.7793L0.0078125 11.6533ZM0 11.5H-1.24688V11.5317L-1.24526 11.5635L0 11.5ZM1.34668 2.00781L1.28323 0.762553L1.25192 0.764148L1.22073 0.767315L1.34668 2.00781ZM1.5 2V0.753125H1.46825L1.43655 0.75474L1.5 2ZM13.5 2L13.5635 0.75474L13.5317 0.753125H13.5V2ZM1.5 2.98438V1.7375V2.98438ZM0.984375 11.5H-0.2625H0.984375ZM1.5 12.0156L1.5 13.2625H1.5V12.0156ZM13.5 12.0156V13.2625V12.0156ZM14.0156 3.5H15.2625V3.5L14.0156 3.5ZM13.5 2.98438L13.5 1.7375H13.5V2.98438ZM4 4.5H5.24688H5.24687H4ZM4 10.5H5.24687H4ZM3 10.5H1.75312H3ZM3 4.5L1.75312 4.5V4.5H3ZM13.6533 2.00781L13.5274 3.24831C13.6538 3.26114 13.7531 3.36979 13.7531 3.5H15H16.2469C16.2469 2.07688 15.1657 0.908077 13.7793 0.767315L13.6533 2.00781ZM15 3.5H13.7531V11.5H15H16.2469V3.5H15ZM15 11.5L13.7547 11.4365L13.7469 11.5899L14.9922 11.6533L16.2374 11.7168L16.2453 11.5635L15 11.5ZM14.9922 11.6533L13.7517 11.5274C13.7398 11.6444 13.6444 11.7398 13.5274 11.7517L13.6533 12.9922L13.7793 14.2327C15.0743 14.1012 16.1012 13.0743 16.2327 11.7793L14.9922 11.6533ZM13.6533 12.9922L13.5899 11.7469L13.4365 11.7547L13.5 13L13.5635 14.2453L13.7168 14.2374L13.6533 12.9922ZM13.5 13V11.7531H1.5V13V14.2469H13.5V13ZM1.5 13L1.56345 11.7547L1.41013 11.7469L1.34668 12.9922L1.28323 14.2374L1.43655 14.2453L1.5 13ZM1.34668 12.9922L1.47263 11.7517C1.35564 11.7398 1.26019 11.6444 1.24831 11.5274L0.0078125 11.6533L-1.23269 11.7793C-1.10121 13.0743 -0.0742617 14.1012 1.22073 14.2327L1.34668 12.9922ZM0.0078125 11.6533L1.25307 11.5899L1.24526 11.4365L0 11.5L-1.24526 11.5635L-1.23745 11.7168L0.0078125 11.6533ZM0 11.5H1.24688V3.5H0H-1.24688V11.5H0ZM0 3.5H1.24688C1.24688 3.36979 1.34623 3.26114 1.47263 3.24831L1.34668 2.00781L1.22073 0.767315C-0.165678 0.908076 -1.24688 2.07688 -1.24688 3.5H0ZM1.34668 2.00781L1.41013 3.25307L1.56345 3.24526L1.5 2L1.43655 0.75474L1.28323 0.762553L1.34668 2.00781ZM1.5 2V3.24688H13.5V2V0.753125H1.5V2ZM13.5 2L13.4365 3.24526L13.5899 3.25307L13.6533 2.00781L13.7168 0.762553L13.5635 0.75474L13.5 2ZM1.5 2.98438V1.7375C0.526598 1.7375 -0.2625 2.5266 -0.2625 3.5H0.984375H2.23125C2.23125 3.90386 1.90386 4.23125 1.5 4.23125V2.98438ZM0.984375 3.5H-0.2625V11.5H0.984375H2.23125V3.5H0.984375ZM0.984375 11.5H-0.2625C-0.2625 12.4734 0.526598 13.2625 1.5 13.2625L1.5 12.0156L1.5 10.7688C1.90386 10.7688 2.23125 11.0961 2.23125 11.5H0.984375ZM1.5 12.0156V13.2625H13.5V12.0156V10.7688H1.5V12.0156ZM13.5 12.0156V13.2625C14.4734 13.2625 15.2625 12.4734 15.2625 11.5H14.0156H12.7688C12.7688 11.0961 13.0961 10.7688 13.5 10.7688V12.0156ZM14.0156 11.5H15.2625V3.5H14.0156H12.7688V11.5H14.0156ZM14.0156 3.5L15.2625 3.5C15.2625 2.5266 14.4734 1.7375 13.5 1.7375L13.5 2.98438L13.5 4.23125C13.0961 4.23125 12.7688 3.90386 12.7688 3.5L14.0156 3.5ZM13.5 2.98438V1.7375H1.5V2.98438V4.23125H13.5V2.98438ZM3.5 4V5.24688C3.08751 5.24688 2.75312 4.91249 2.75312 4.5H4H5.24687C5.24687 3.53523 4.46477 2.75312 3.5 2.75312V4ZM4 4.5H2.75312V10.5H4H5.24687V4.5H4ZM4 10.5H2.75312C2.75313 10.0875 3.08751 9.75313 3.5 9.75313V11V12.2469C4.46477 12.2469 5.24687 11.4648 5.24687 10.5H4ZM3.5 11V9.75313C3.91249 9.75313 4.24687 10.0875 4.24687 10.5H3H1.75312C1.75312 11.4648 2.53523 12.2469 3.5 12.2469V11ZM3 10.5H4.24687V4.5H3H1.75312V10.5H3ZM3 4.5L4.24687 4.5C4.24687 4.91249 3.91249 5.24688 3.5 5.24688V4V2.75312C2.53523 2.75312 1.75313 3.53523 1.75312 4.5L3 4.5Z" fill="currentColor" mask="url(#a)"/></svg>