<svg width="15" height="15" viewBox="0 0 15 15" fill="none" xmlns="http://www.w3.org/2000/svg"><path d="M7.2522 4.12427C7.40205 4.02515 7.59844 4.02515 7.74829 4.12427L7.8186 4.18188L11.0686 7.43188C11.2441 7.60764 11.2443 7.89295 11.0686 8.0686C10.8929 8.24416 10.6076 8.24405 10.4319 8.0686L7.95044 5.58716V13.5002C7.95032 13.7486 7.74862 13.9503 7.50024 13.9504C7.25179 13.9504 7.05017 13.7487 7.05005 13.5002V5.58716L4.5686 8.0686L4.49829 8.12622C4.3237 8.24163 4.08572 8.22219 3.93188 8.0686C3.77809 7.91481 3.75888 7.67687 3.87427 7.5022L3.93188 7.43188L7.18188 4.18188L7.2522 4.12427ZM13.5002 1.05005C13.7487 1.05015 13.9504 1.25178 13.9504 1.50024C13.9503 1.74862 13.7486 1.95033 13.5002 1.95044H1.50024C1.25178 1.95044 1.05015 1.74868 1.05005 1.50024C1.05005 1.25172 1.25172 1.05005 1.50024 1.05005H13.5002Z" fill="currentColor"/></svg>