<svg width="15" height="15" viewBox="0 0 15 15" fill="none" xmlns="http://www.w3.org/2000/svg"><path d="M10.7998 1C11.1175 1 11.3914 0.999318 11.6143 1.02051C11.8445 1.04243 12.0723 1.09085 12.2842 1.22071L12.4287 1.32227C12.5674 1.43161 12.6865 1.56449 12.7793 1.71582L12.8623 1.87793C12.9317 2.04202 12.9631 2.21314 12.9795 2.38574C13.0007 2.60863 13 2.88254 13 3.2002V11.7998C13 12.1175 13.0007 12.3914 12.9795 12.6143C12.9631 12.7869 12.9317 12.958 12.8623 13.1221L12.7793 13.2842C12.6865 13.4355 12.5674 13.5684 12.4287 13.6777L12.2842 13.7793C12.0723 13.9092 11.8445 13.9576 11.6143 13.9795C11.3914 14.0007 11.1175 14 10.7998 14H4.2002C3.88254 14 3.60863 14.0007 3.38574 13.9795C3.21314 13.9631 3.04202 13.9317 2.87793 13.8623L2.71582 13.7793C2.56449 13.6865 2.43161 13.5674 2.32227 13.4287L2.22071 13.2842C2.09085 13.0723 2.04243 12.8445 2.02051 12.6143C1.99932 12.3914 2 12.1175 2 11.7998V3.2002C2 2.88254 1.99932 2.60863 2.02051 2.38574C2.04243 2.15553 2.09085 1.92772 2.22071 1.71582L2.32227 1.57129C2.43161 1.43264 2.56449 1.31347 2.71582 1.22071L2.87793 1.1377C3.04202 1.06828 3.21314 1.03694 3.38574 1.02051C3.60863 0.999318 3.88254 1 4.2002 1H10.7998ZM4.2002 2C3.86317 2 3.64504 2.00096 3.48047 2.0166C3.4021 2.02407 3.34877 2.03364 3.31153 2.04395L3.23828 2.07324C3.2047 2.09384 3.17415 2.11882 3.14649 2.14649L3.07324 2.23828C3.05581 2.26673 3.03155 2.32358 3.0166 2.48047C3.00096 2.64504 3 2.86317 3 3.2002V11.7998C3 12.1368 3.00096 12.355 3.0166 12.5195C3.03155 12.6764 3.05581 12.7333 3.07324 12.7617L3.14649 12.8535C3.17415 12.8812 3.2047 12.9062 3.23828 12.9268L3.31153 12.9561C3.34877 12.9664 3.4021 12.9759 3.48047 12.9834C3.64504 12.999 3.86317 13 4.2002 13H10.7998C11.1368 13 11.355 12.999 11.5195 12.9834C11.6764 12.9685 11.7333 12.9442 11.7617 12.9268L11.8535 12.8535C11.8812 12.8259 11.9062 12.7953 11.9268 12.7617L11.9561 12.6885C11.9664 12.6512 11.9759 12.5979 11.9834 12.5195C11.999 12.355 12 12.1368 12 11.7998V3.2002C12 2.86317 11.999 2.64504 11.9834 2.48047C11.9759 2.4021 11.9664 2.34877 11.9561 2.31153L11.9268 2.23828C11.9062 2.2047 11.8812 2.17415 11.8535 2.14649L11.7617 2.07324C11.7333 2.05581 11.6764 2.03155 11.5195 2.0166C11.355 2.00096 11.1368 2 10.7998 2H4.2002ZM8 10C8.27614 10 8.5 10.2239 8.5 10.5C8.5 10.7761 8.27614 11 8 11H5C4.72386 11 4.5 10.7761 4.5 10.5C4.5 10.2239 4.72386 10 5 10H8ZM10 7C10.2761 7 10.5 7.22386 10.5 7.5C10.5 7.77614 10.2761 8 10 8H5C4.72386 8 4.5 7.77614 4.5 7.5C4.5 7.22386 4.72386 7 5 7H10ZM10.1006 4.00977C10.3286 4.05629 10.5 4.25829 10.5 4.5C10.5 4.74172 10.3286 4.94371 10.1006 4.99024L10 5H5C4.72386 5 4.5 4.77614 4.5 4.5C4.5 4.22386 4.72386 4 5 4H10L10.1006 4.00977Z" fill="currentColor"/></svg>