<svg width="15" height="15" viewBox="0 0 15 15" fill="none" xmlns="http://www.w3.org/2000/svg"><path d="M4.64642 12.6465C4.84166 12.4513 5.1582 12.4513 5.35345 12.6465C5.54869 12.8417 5.54865 13.1583 5.35345 13.3535L4.35345 14.3535C4.15819 14.5488 3.84168 14.5488 3.64642 14.3535C3.45121 14.1583 3.45117 13.8417 3.64642 13.6465L4.64642 12.6465ZM10.4101 0.811541C11.0375 0.721911 11.6611 0.710766 12.204 0.79201C12.732 0.871073 13.2551 1.04818 13.6034 1.3965C13.9518 1.74487 14.1289 2.26794 14.2079 2.79592C14.2892 3.33885 14.2781 3.96237 14.1884 4.58986C14.0114 5.8289 13.5086 7.19833 12.6533 8.05373L12.0302 8.67678L12.495 11.9297C12.5172 12.0854 12.4646 12.2423 12.3534 12.3535L10.3534 14.3535C10.2446 14.4624 10.0912 14.5149 9.93841 14.4961C9.78591 14.4772 9.65039 14.3895 9.57122 14.2578L8.40032 12.3067L7.85345 12.8535C7.65819 13.0488 7.34168 13.0488 7.14642 12.8535L5.64642 11.3535C5.45121 11.1583 5.45117 10.8417 5.64642 10.6465C5.84167 10.4513 6.15821 10.4513 6.35345 10.6465L7.49993 11.793L11.9462 7.3467C12.5908 6.70213 13.0387 5.57162 13.1992 4.44826C13.2782 3.89464 13.2827 3.37066 13.2187 2.94338C13.1524 2.50125 13.023 2.23011 12.8964 2.10353C12.7698 1.97696 12.4987 1.8475 12.0566 1.78127C11.6293 1.71728 11.1053 1.72269 10.5517 1.80178C9.49859 1.95225 8.43956 2.3548 7.78021 2.93556L7.65325 3.05373L3.20696 7.50002L4.35345 8.6465C4.54869 8.84175 4.54865 9.15827 4.35345 9.35353C4.15819 9.54879 3.84168 9.5488 3.64642 9.35353L2.14642 7.85353C2.05269 7.75977 1.99993 7.63259 1.99993 7.50002C1.99997 7.36746 2.05268 7.24024 2.14642 7.1465L2.69329 6.59963L0.743096 5.42873C0.611161 5.34957 0.522733 5.21423 0.503839 5.06154C0.485026 4.90873 0.537545 4.75537 0.646417 4.6465L2.64642 2.6465C2.75759 2.53537 2.91462 2.48281 3.07024 2.5049L6.32317 2.96974L6.94622 2.3467C7.80158 1.49137 9.17108 0.988597 10.4101 0.811541ZM3.14642 11.1465C3.34166 10.9513 3.6582 10.9513 3.85345 11.1465C4.04869 11.3417 4.04866 11.6583 3.85345 11.8535L1.85345 13.8535C1.65818 14.0488 1.34168 14.0488 1.14642 13.8535C0.951212 13.6583 0.951171 13.3417 1.14642 13.1465L3.14642 11.1465ZM9.12982 11.5781L10.0995 13.1934L11.4697 11.8233L11.1464 9.56056L9.12982 11.5781ZM1.64642 9.6465C1.84166 9.45131 2.1582 9.45132 2.35345 9.6465C2.54869 9.84175 2.54865 10.1583 2.35345 10.3535L1.35345 11.3535C1.15819 11.5488 0.841679 11.5488 0.646417 11.3535C0.451214 11.1583 0.451174 10.8417 0.646417 10.6465L1.64642 9.6465ZM9.49993 4.25099C10.1896 4.25101 10.7489 4.81038 10.749 5.50002C10.749 6.18971 10.1896 6.74902 9.49993 6.74904C8.81023 6.74904 8.25091 6.18972 8.25091 5.50002C8.25097 4.81037 8.81027 4.25099 9.49993 4.25099ZM1.80657 4.90041L3.42278 5.87013L5.43939 3.85353L3.17669 3.53029L1.80657 4.90041Z" fill="currentColor"/></svg>