<svg width="15" height="15" viewBox="0 0 15 15" fill="none" xmlns="http://www.w3.org/2000/svg"><path opacity=".05" fill-rule="evenodd" clip-rule="evenodd" d="M6.78293 13.376C8.73901 9.95282 8.73901 5.04717 6.78293 1.62403L7.21705 1.37596C9.26097 4.95282 9.26097 10.0472 7.21705 13.624L6.78293 13.376Z" fill="currentColor"/><path opacity=".1" fill-rule="evenodd" clip-rule="evenodd" d="M7.28207 13.4775C9.23932 9.99523 9.23932 5.00475 7.28207 1.52248L7.71794 1.2775C9.7607 4.9119 9.7607 10.0881 7.71794 13.7225L7.28207 13.4775Z" fill="currentColor"/><path opacity=".15" fill-rule="evenodd" clip-rule="evenodd" d="M7.82098 13.5064C9.72502 9.99522 9.72636 5.01409 7.82492 1.50082L8.26465 1.26283C10.2465 4.92465 10.2451 10.085 8.26052 13.7448L7.82098 13.5064Z" fill="currentColor"/><path opacity=".2" fill-rule="evenodd" clip-rule="evenodd" d="M8.41284 13.429C10.1952 9.92841 10.1957 5.07535 8.41435 1.574L8.85999 1.34727C10.7139 4.99111 10.7133 10.0128 8.85841 13.6558L8.41284 13.429Z" fill="currentColor"/><path opacity=".25" fill-rule="evenodd" clip-rule="evenodd" d="M9.02438 13.2956C10.6566 9.8379 10.6585 5.17715 9.03002 1.71656L9.48242 1.50366C11.1744 5.09919 11.1725 9.91629 9.47654 13.5091L9.02438 13.2956Z" fill="currentColor"/><path opacity=".3" fill-rule="evenodd" clip-rule="evenodd" d="M9.66809 13.0655C11.1097 9.6957 11.1107 5.31209 9.67088 1.94094L10.1307 1.74455C11.6241 5.2412 11.6231 9.76682 10.1278 13.2622L9.66809 13.0655Z" fill="currentColor"/><path opacity=".35" fill-rule="evenodd" clip-rule="evenodd" d="M10.331 12.7456C11.5551 9.52073 11.5563 5.49103 10.3347 2.26444L10.8023 2.0874C12.0672 5.42815 12.0659 9.58394 10.7984 12.9231L10.331 12.7456Z" fill="currentColor"/><path opacity=".4" fill-rule="evenodd" clip-rule="evenodd" d="M11.0155 12.2986C11.9938 9.29744 11.9948 5.71296 11.0184 2.71067L11.4939 2.55603C12.503 5.6589 12.502 9.35178 11.4909 12.4535L11.0155 12.2986Z" fill="currentColor"/><path opacity=".45" fill-rule="evenodd" clip-rule="evenodd" d="M11.7214 11.668C12.4254 9.01301 12.4262 5.9969 11.7237 3.34114L12.2071 3.21327C12.9318 5.95291 12.931 9.05726 12.2047 11.7961L11.7214 11.668Z" fill="currentColor"/><path opacity=".5" fill-rule="evenodd" clip-rule="evenodd" d="M12.4432 10.752C12.8524 8.63761 12.8523 6.36088 12.4429 4.24659L12.9338 4.15154C13.3553 6.32859 13.3554 8.66984 12.9341 10.847L12.4432 10.752Z" fill="currentColor"/><path d="M7.49911 0.877045C9.14783 0.877045 10.6553 1.48093 11.8145 2.47763L12.6466 1.64658C12.8418 1.45131 13.1583 1.45131 13.3536 1.64658C13.5488 1.84185 13.5488 2.15838 13.3536 2.35361L12.5216 3.18466C13.5185 4.34363 14.122 5.85045 14.1222 7.49911C14.1222 11.1568 11.1568 14.1222 7.49911 14.1222C5.85045 14.122 4.34363 13.5185 3.18466 12.5216L2.35361 13.3536C2.15838 13.5488 1.84185 13.5488 1.64658 13.3536C1.45131 13.1583 1.45131 12.8418 1.64658 12.6466L2.47763 11.8145C1.48093 10.6553 0.877045 9.14783 0.877045 7.49911C0.877456 3.84203 3.84203 0.877456 7.49911 0.877045ZM3.85751 11.8487C4.84285 12.6747 6.11291 13.1718 7.49911 13.172C10.6321 13.172 13.172 10.6321 13.172 7.49911C13.1718 6.11291 12.6747 4.84285 11.8487 3.85751L3.85751 11.8487ZM7.49911 1.82626C4.3667 1.82667 1.82667 4.3667 1.82626 7.49911C1.82626 8.88557 2.32529 10.1553 3.15146 11.1407L11.1407 3.15146C10.1553 2.32529 8.88557 1.82626 7.49911 1.82626Z" fill="currentColor"/></svg>