<svg width="15" height="15" viewBox="0 0 15 15" fill="none" xmlns="http://www.w3.org/2000/svg"><path d="M0.999991 13.4999C0.999991 13.776 0.776135 13.9999 0.499995 13.9999C0.223855 13.9999 -5.58458e-07 13.776 -5.46388e-07 13.4999L-2.18555e-08 1.49999C1.89755e-06 1.22385 0.223857 0.999991 0.499996 0.999991C0.776135 0.999991 0.99999 1.22385 0.999992 1.49999L0.999991 13.4999ZM6.99994 7.99993C6.99994 8.55221 6.55223 8.99993 5.99995 8.99993L2.99998 8.99993C2.4477 8.99993 1.99998 8.55221 1.99998 7.99993L1.99998 6.99994C1.99998 6.44766 2.4477 5.99995 2.99998 5.99995L5.99995 5.99995C6.55223 5.99995 6.99994 6.44766 6.99994 6.99994L6.99994 7.99993ZM12.9999 7.99993C12.9999 8.55222 12.5522 8.99993 11.9999 8.99993L8.99993 8.99993C8.44765 8.99993 7.99993 8.55221 7.99993 7.99993L7.99993 6.99994C7.99993 6.44766 8.44765 5.99995 8.99993 5.99995L11.9999 5.99995C12.5522 5.99995 12.9999 6.44766 12.9999 6.99994L12.9999 7.99993ZM14.9999 13.4999C14.9999 13.776 14.776 13.9999 14.4999 13.9999C14.2237 13.9999 13.9999 13.776 13.9999 13.4999L13.9999 1.49999C13.9999 1.22385 14.2237 0.999992 14.4999 0.999992C14.776 0.999992 14.9999 1.22385 14.9999 1.49999L14.9999 13.4999Z" fill="currentColor"/></svg>