<svg width="15" height="15" viewBox="0 0 15 15" fill="none" xmlns="http://www.w3.org/2000/svg"><path d="M5.99995 7.99993C5.99995 8.55221 5.55224 8.99993 4.99996 8.99993L0.999992 8.99993L0.999991 13.4999C0.999991 13.776 0.776135 13.9999 0.499995 13.9999C0.223855 13.9999 -5.58458e-07 13.776 -5.46388e-07 13.4999L-2.18555e-08 1.49999C1.89755e-06 1.22385 0.223857 0.999991 0.499996 0.999991C0.776135 0.999991 0.99999 1.22385 0.999992 1.49999L0.999992 5.99995L4.99996 5.99995C5.55224 5.99995 5.99995 6.44766 5.99995 6.99994L5.99995 7.99993ZM9.99992 8.99993C9.44764 8.99993 8.99993 8.55221 8.99993 7.99993L8.99993 6.99994C8.99993 6.44766 9.44764 5.99995 9.99992 5.99995L13.9999 5.99995L13.9999 1.49999C13.9999 1.22385 14.2237 0.999992 14.4999 0.999992C14.776 0.999992 14.9999 1.22385 14.9999 1.49999L14.9999 13.4999C14.9999 13.776 14.776 13.9999 14.4999 13.9999C14.2237 13.9999 13.9999 13.776 13.9999 13.4999L13.9999 8.99993L9.99992 8.99993Z" fill="currentColor"/></svg>