<svg width="15" height="15" viewBox="0 0 15 15" fill="none" xmlns="http://www.w3.org/2000/svg"><path d="M12.4999 2.19987C12.8036 2.19987 13.0496 2.44601 13.0497 2.74968V12.2497C13.0497 12.5534 12.8037 12.7995 12.4999 12.7995C12.1963 12.7994 11.9501 12.5534 11.9501 12.2497V7.7155C11.9046 7.81069 11.83 7.89103 11.7333 7.94206L2.73334 12.6921C2.57839 12.7738 2.39217 12.7679 2.24213 12.6774C2.09212 12.5869 1.99994 12.4249 1.99994 12.2497V2.74968C2.00003 2.57453 2.09212 2.41239 2.24213 2.32195C2.39212 2.23159 2.57845 2.22563 2.73334 2.3073L11.7333 7.0573C11.8299 7.10825 11.9046 7.18882 11.9501 7.28386V2.74968C11.9502 2.44609 12.1964 2.20001 12.4999 2.19987ZM2.99994 11.4196L10.4277 7.49968L2.99994 3.57878V11.4196Z" fill="currentColor"/></svg>