<svg width="15" height="15" fill="none" xmlns="http://www.w3.org/2000/svg">
  <path
    fill-rule="evenodd"
    clip-rule="evenodd"
    d="M7.49988 1.12705C3.98027 1.12705 1.12705 3.98027 1.12705 7.49988C1.12705 11.0195 3.98027 13.8727 7.49988 13.8727C11.0195 13.8727 13.8727 11.0195 13.8727 7.49988C13.8727 3.98027 11.0195 1.12705 7.49988 1.12705ZM2.07705 7.49988C2.07705 4.50494 4.50494 2.07705 7.49988 2.07705C10.4948 2.07705 12.9227 4.50494 12.9227 7.49988C12.9227 10.4948 10.4948 12.9227 7.49988 12.9227C4.50494 12.9227 2.07705 10.4948 2.07705 7.49988ZM9.91603 5.77735C10.0692 5.54759 10.0071 5.23715 9.77735 5.08398C9.54759 4.9308 9.23715 4.99289 9.08398 5.22265L6.7594 8.70952L5.85738 7.78767C5.66425 7.5903 5.34768 7.58686 5.15031 7.77999C4.95294 7.97312 4.9495 8.28968 5.14263 8.48705L6.47596 9.84969C6.58139 9.95744 6.72981 10.0119 6.8799 9.99783C7.02999 9.98379 7.16574 9.90278 7.24936 9.77735L9.91603 5.77735Z"
    fill="currentColor"
  />
</svg>
