<svg width="15" height="15" fill="none" xmlns="http://www.w3.org/2000/svg">
  <path
    fill-rule="evenodd"
    clip-rule="evenodd"
    d="M7.50009 1.127C3.98048 1.127 1.12726 3.98022 1.12726 7.49983C1.12726 11.0194 3.98048 13.8727 7.50009 13.8727C11.0197 13.8727 13.8729 11.0194 13.8729 7.49983C13.8729 3.98022 11.0197 1.127 7.50009 1.127ZM2.07726 7.49983C2.07726 4.50489 4.50515 2.077 7.50009 2.077C10.495 2.077 12.9229 4.50489 12.9229 7.49983C12.9229 10.4948 10.495 12.9227 7.50009 12.9227C4.50515 12.9227 2.07726 10.4948 2.07726 7.49983ZM8.00001 4.5C8.00001 4.22386 7.77615 4 7.50001 4C7.22387 4 7.00001 4.22386 7.00001 4.5V7.5C7.00001 7.63261 7.05269 7.75979 7.14646 7.85355L9.14646 9.85355C9.34172 10.0488 9.6583 10.0488 9.85357 9.85355C10.0488 9.65829 10.0488 9.34171 9.85357 9.14645L8.00001 7.29289V4.5Z"
    fill="currentColor"
  />
</svg>
