<svg width="15" height="15" fill="none" xmlns="http://www.w3.org/2000/svg">
  <path
    fill-rule="evenodd"
    clip-rule="evenodd"
    d="M4.1 2h-.02c-.263 0-.49 0-.678.015a1.527 1.527 0 00-.583.148 1.5 1.5 0 00-.656.656c-.096.19-.132.386-.148.583C2 3.59 2 3.817 2 4.081V4.92c0 .263 0 .49.015.678.016.197.052.394.148.583a1.5 1.5 0 00.656.656c.19.096.386.132.583.148C3.59 7 3.817 7 4.081 7H4.92c.263 0 .49 0 .678-.015.197-.016.394-.052.583-.148a1.5 1.5 0 00.656-.656c.096-.19.132-.386.148-.583C7 5.41 7 5.183 7 4.919V4.08c0-.263 0-.49-.015-.678a1.527 1.527 0 00-.148-.583 1.5 1.5 0 00-.656-.656 1.527 1.527 0 00-.583-.148C5.41 2 5.183 2 4.919 2H4.1zm-.827 1.054a.57.57 0 01.21-.042C3.627 3 3.813 3 4.1 3h.8c.288 0 .474 0 .616.012a.57.57 0 01.211.042.5.5 0 01.218.219.57.57 0 01.043.21C6 3.627 6 3.813 6 4.1v.8c0 .288 0 .474-.012.616a.57.57 0 01-.043.211.5.5 0 01-.218.218.57.57 0 01-.21.043A8.505 8.505 0 014.9 6h-.8c-.288 0-.474 0-.616-.012a.57.57 0 01-.211-.043.5.5 0 01-.219-.218.57.57 0 01-.042-.21A8.505 8.505 0 013 4.9v-.8c0-.288 0-.474.012-.616a.57.57 0 01.042-.211.5.5 0 01.219-.219zM10.1 2h-.02c-.263 0-.49 0-.678.015a1.527 1.527 0 00-.583.148 1.5 1.5 0 00-.656.656c-.096.19-.132.386-.148.583C8 3.59 8 3.817 8 4.081V4.92c0 .263 0 .49.015.678.016.197.052.394.148.583a1.5 1.5 0 00.656.656c.19.096.386.132.583.148.188.015.415.015.679.015H10.92c.263 0 .49 0 .678-.015.197-.016.394-.052.583-.148a1.5 1.5 0 00.655-.656c.097-.19.133-.386.149-.583C13 5.41 13 5.183 13 4.919V4.08c0-.263 0-.49-.015-.678a1.526 1.526 0 00-.149-.583 1.5 1.5 0 00-.655-.656 1.527 1.527 0 00-.583-.148C11.41 2 11.183 2 10.918 2H10.1zm-.827 1.054a.57.57 0 01.21-.042C9.627 3 9.813 3 10.1 3h.8c.288 0 .474 0 .616.012a.57.57 0 01.211.042.5.5 0 01.218.219.57.57 0 01.043.21c.012.143.012.329.012.617v.8c0 .288 0 .474-.012.616a.57.57 0 01-.043.211.5.5 0 01-.218.218.57.57 0 01-.21.043A8.506 8.506 0 0110.9 6h-.8c-.288 0-.474 0-.616-.012a.57.57 0 01-.211-.043.5.5 0 01-.218-.218.57.57 0 01-.043-.21A8.505 8.505 0 019 4.9v-.8c0-.288 0-.474.012-.616a.57.57 0 01.043-.211.5.5 0 01.218-.219zM4.081 8H4.92c.263 0 .49 0 .678.015.197.016.394.052.583.148a1.5 1.5 0 01.656.656c.096.19.132.386.148.583.015.188.015.415.015.679V10.92c0 .263 0 .49-.015.678a1.527 1.527 0 01-.148.583 1.5 1.5 0 01-.656.655c-.19.097-.386.133-.583.149C5.41 13 5.183 13 4.919 13H4.08c-.263 0-.49 0-.678-.015a1.526 1.526 0 01-.583-.149 1.5 1.5 0 01-.656-.655 1.527 1.527 0 01-.148-.583C2 11.41 2 11.183 2 10.918V10.08c0-.263 0-.49.015-.678.016-.197.052-.394.148-.583a1.5 1.5 0 01.656-.656c.19-.096.386-.132.583-.148C3.59 8 3.817 8 4.081 8zm-.597 1.012a.57.57 0 00-.211.043.5.5 0 00-.219.218.57.57 0 00-.042.21A8.505 8.505 0 003 10.1v.8c0 .288 0 .474.012.616a.57.57 0 00.042.211.5.5 0 00.219.218.57.57 0 00.21.043c.143.012.329.012.617.012h.8c.288 0 .474 0 .616-.012a.57.57 0 00.211-.043.5.5 0 00.218-.218.57.57 0 00.043-.21C6 11.373 6 11.187 6 10.9v-.8c0-.288 0-.474-.012-.616a.57.57 0 00-.043-.211.5.5 0 00-.218-.218.57.57 0 00-.21-.043A8.505 8.505 0 004.9 9h-.8c-.288 0-.474 0-.616.012zM10.1 8h-.02c-.263 0-.49 0-.678.015a1.527 1.527 0 00-.583.148 1.5 1.5 0 00-.656.656c-.096.19-.132.386-.148.583C8 9.59 8 9.817 8 10.081V10.92c0 .263 0 .49.015.678.016.197.052.394.148.583a1.5 1.5 0 00.656.655c.19.097.386.133.583.149.188.015.415.015.679.015H10.92c.263 0 .49 0 .678-.015.197-.016.394-.052.583-.149a1.5 1.5 0 00.655-.655c.097-.19.133-.386.149-.583.015-.188.015-.415.015-.679V10.08c0-.263 0-.49-.015-.678a1.526 1.526 0 00-.149-.583 1.5 1.5 0 00-.655-.656 1.527 1.527 0 00-.583-.148C11.41 8 11.183 8 10.918 8H10.1zm-.827 1.055a.57.57 0 01.21-.043C9.627 9 9.813 9 10.1 9h.8c.288 0 .474 0 .616.012a.57.57 0 01.211.043.5.5 0 01.218.218.57.57 0 01.043.21c.012.143.012.329.012.617v.8c0 .288 0 .474-.012.616a.57.57 0 01-.043.211.5.5 0 01-.218.218.57.57 0 01-.21.043A8.483 8.483 0 0110.9 12h-.8c-.288 0-.474 0-.616-.012a.57.57 0 01-.211-.043.5.5 0 01-.218-.218.57.57 0 01-.043-.21A8.506 8.506 0 019 10.9v-.8c0-.288 0-.474.012-.616a.57.57 0 01.043-.211.5.5 0 01.218-.218z"
    fill="currentColor"
  />
</svg>
