<svg width="15" height="15" fill="none" xmlns="http://www.w3.org/2000/svg">
  <path
    fill-rule="evenodd"
    clip-rule="evenodd"
    d="M2 2.99997C1.44772 2.99997 1 3.44768 1 3.99997V11C1 11.5523 1.44772 12 2 12H13C13.5523 12 14 11.5523 14 11V3.99997C14 3.44768 13.5523 2.99997 13 2.99997H2ZM12.7512 3.99997H2.24877C2.25594 4.00474 2.26302 4.00974 2.27 4.01497L7.5 7.93747L12.73 4.01497C12.737 4.00974 12.7441 4.00474 12.7512 3.99997ZM2 4.93747V11H13V4.93747L7.77 8.85997C7.61 8.97997 7.39 8.97997 7.23 8.85997L2 4.93747Z"
    fill="currentColor"
  />
</svg>
