<svg width="15" height="15" fill="none" xmlns="http://www.w3.org/2000/svg">
  <g clip-path="url(#clip0)">
    <path
      fill-rule="evenodd"
      clip-rule="evenodd"
      d="M7.5 11c-2.697 0-4.97-1.378-6.404-3.5C2.53 5.378 4.803 4 7.5 4s4.97 1.378 6.404 3.5C12.47 9.622 10.197 11 7.5 11zm0-8C4.308 3 1.656 4.706.076 7.235a.5.5 0 000 .53C1.656 10.294 4.308 12 7.5 12s5.844-1.706 7.424-4.235a.5.5 0 000-.53C13.344 4.706 10.692 3 7.5 3zm0 6.5a2 2 0 100-4 2 2 0 000 4z"
      fill="currentColor"
    />
  </g>
  <defs>
    <clipPath id="clip0"><path fill="currentColor" d="M0 0h15v15H0z" /></clipPath>
  </defs>
</svg>
