<svg width="15" height="15" fill="none" xmlns="http://www.w3.org/2000/svg">
  <path
    fill-rule="evenodd"
    clip-rule="evenodd"
    d="M3.7823 2.21709C3.70729 2.14207 3.60555 2.09993 3.49946 2.09993C3.39338 2.09993 3.29164 2.14207 3.21662 2.21709L1.21664 4.21707C1.06043 4.37328 1.06043 4.62654 1.21664 4.78275C1.37284 4.93896 1.62611 4.93896 1.78232 4.78275L3.09947 3.46561L3.09946 11.5342L1.78232 10.217C1.62611 10.0608 1.37284 10.0608 1.21664 10.217C1.06043 10.3732 1.06043 10.6265 1.21664 10.7827L3.21662 12.7827C3.29164 12.8577 3.39338 12.8999 3.49946 12.8999C3.60555 12.8999 3.70729 12.8577 3.7823 12.7827L5.78229 10.7827C5.9385 10.6265 5.9385 10.3732 5.78229 10.217C5.62608 10.0608 5.37282 10.0608 5.21661 10.217L3.89946 11.5342L3.89946 3.46561L5.21661 4.78275C5.37282 4.93896 5.62608 4.93896 5.78229 4.78275C5.9385 4.62654 5.9385 4.37328 5.78229 4.21707L3.7823 2.21709ZM11.4999 2.74998C11.7106 2.74998 11.8988 2.88212 11.9702 3.08037L14.9702 11.3999C15.0639 11.6597 14.9292 11.9462 14.6695 12.0398C14.4097 12.1335 14.1232 11.9989 14.0295 11.7391L13.0476 9.01596H9.95221L8.97026 11.7391C8.87659 11.9989 8.59007 12.1335 8.3303 12.0398C8.07054 11.9462 7.93589 11.6597 8.02956 11.3999L11.0295 3.08037C11.101 2.88212 11.2891 2.74998 11.4999 2.74998ZM11.4999 4.72395L12.7411 8.16597H10.2587L11.4999 4.72395Z"
    fill="currentColor"
  />
</svg>
