<svg width="15" height="15" fill="none" xmlns="http://www.w3.org/2000/svg">
  <path
    fill-rule="evenodd"
    clip-rule="evenodd"
    d="M7.07093 0.650238C6.67389 0.650238 6.32975 0.925097 6.24196 1.31231L6.00388 2.36249C5.62492 2.47269 5.26341 2.62361 4.92446 2.81008L4.01319 2.23564C3.67732 2.02391 3.23962 2.0729 2.95888 2.35365L2.35278 2.95974C2.07204 3.24049 2.02304 3.67819 2.23477 4.01406L2.80941 4.92563C2.62307 5.26451 2.47227 5.62594 2.36217 6.0048L1.31206 6.24286C0.924852 6.33065 0.649994 6.67479 0.649994 7.07183V7.92897C0.649994 8.326 0.924852 8.67015 1.31206 8.75793L2.36228 8.99603C2.47245 9.375 2.62334 9.73653 2.80979 10.0755L2.23536 10.9867C2.02363 11.3226 2.07262 11.7603 2.35337 12.0411L2.95946 12.6472C3.24021 12.9279 3.67791 12.9769 4.01378 12.7652L4.9251 12.1907C5.26386 12.377 5.62516 12.5278 6.00388 12.6379L6.24196 13.6881C6.32975 14.0753 6.67389 14.3502 7.07093 14.3502H7.92807C8.32511 14.3502 8.66925 14.0753 8.75703 13.6881L8.99503 12.6383C9.37414 12.5282 9.73579 12.3773 10.0749 12.1909L10.9858 12.7651C11.3217 12.9768 11.7594 12.9278 12.0401 12.6471L12.6462 12.041C12.927 11.7602 12.9759 11.3225 12.7642 10.9867L12.1902 10.076C12.3768 9.73689 12.5278 9.37515 12.638 8.99594L13.6879 8.75793C14.0751 8.67015 14.3499 8.326 14.3499 7.92897V7.07183C14.3499 6.67479 14.0751 6.33065 13.6879 6.24286L12.6381 6.00488C12.528 5.62579 12.3771 5.26415 12.1906 4.92508L12.7648 4.01415C12.9765 3.67827 12.9275 3.24057 12.6468 2.95983L12.0407 2.35374C11.76 2.07299 11.3223 2.024 10.9864 2.23572L10.0755 2.80991C9.73624 2.62329 9.37437 2.47229 8.99503 2.36209L8.75703 1.31231C8.66925 0.925096 8.32511 0.650238 7.92807 0.650238H7.07093ZM4.92062 3.81245C5.4473 3.44337 6.05667 3.18424 6.71541 3.0684L7.07093 1.50024H7.92807L8.28353 3.06816C8.94267 3.18387 9.55241 3.44303 10.0794 3.81226L11.4397 2.95478L12.0457 3.56087L11.1882 4.92118C11.5573 5.44799 11.8164 6.0575 11.9321 6.71639L13.4999 7.07183V7.92897L11.932 8.28443C11.8162 8.94342 11.557 9.55302 11.1878 10.0799L12.0452 11.4399L11.4391 12.046L10.0788 11.1886C9.55198 11.5576 8.94244 11.8166 8.28353 11.9323L7.92807 13.5002H7.07093L6.71541 11.932C6.05691 11.8162 5.44773 11.5572 4.92119 11.1884L3.5605 12.0461L2.95441 11.44L3.81213 10.0794C3.4431 9.55267 3.18403 8.94327 3.06825 8.28451L1.49999 7.92897V7.07183L3.06818 6.71631C3.18388 6.05766 3.44282 5.44834 3.8117 4.92167L2.95382 3.56078L3.55992 2.95469L4.92062 3.81245ZM9.02501 7.5001C9.02501 8.34229 8.34229 9.02501 7.5001 9.02501C6.65792 9.02501 5.97519 8.34229 5.97519 7.5001C5.97519 6.65792 6.65792 5.97519 7.5001 5.97519C8.34229 5.97519 9.02501 6.65792 9.02501 7.5001ZM9.92502 7.5001C9.92502 8.83934 8.83934 9.92502 7.5001 9.92502C6.16086 9.92502 5.07519 8.83934 5.07519 7.5001C5.07519 6.16086 6.16086 5.07519 7.5001 5.07519C8.83934 5.07519 9.92502 6.16086 9.92502 7.5001Z"
    fill="currentColor"
  />
</svg>
