<svg width="15" height="15" fill="none" xmlns="http://www.w3.org/2000/svg">
  <path
    fill-rule="evenodd"
    clip-rule="evenodd"
    d="M7.07.5a1 1 0 00-.974.78l-.219.964c-.33.102-.647.234-.947.392l-.837-.527a1 1 0 00-1.24.139l-.606.606a1 1 0 00-.14 1.24l.529.838c-.159.3-.29.616-.392.946l-.965.219a1 1 0 00-.779.975v.857a1 1 0 00.779.975l.965.219c.101.33.233.647.392.947l-.528.837a1 1 0 00.14 1.24l.605.606a1 1 0 001.24.14l.838-.529c.3.159.616.29.946.393l.219.964a1 1 0 00.975.78h.857a1 1 0 00.975-.78l.219-.964c.33-.102.647-.234.947-.393l.837.528a1 1 0 001.24-.139l.606-.606a1 1 0 00.14-1.24l-.528-.837c.159-.3.29-.617.393-.947l.964-.219a1 1 0 00.779-.975v-.857a1 1 0 00-.779-.975l-.964-.219a5.475 5.475 0 00-.393-.947l.528-.837a1 1 0 00-.14-1.24l-.605-.606a1 1 0 00-1.24-.14l-.837.528a5.47 5.47 0 00-.948-.392l-.219-.965A1 1 0 007.928.5h-.857zM4.92 3.812a4.476 4.476 0 011.795-.744l.272-1.197.037-.166.047-.205h.857l.047.205.037.166.272 1.197c.659.116 1.268.375 1.795.744l1.039-.654.144-.091.178-.112.606.606-.112.178-.091.144-.655 1.038c.37.527.628 1.137.744 1.795l1.197.272.166.037.205.047v.857l-.205.046-.166.038-1.197.271a4.476 4.476 0 01-.744 1.796l.654 1.038.091.144.112.178-.606.606-.178-.112-.144-.09-1.038-.655a4.476 4.476 0 01-1.795.743l-.272 1.197-.037.166-.047.205h-.857l-.047-.205-.037-.166-.272-1.197a4.477 4.477 0 01-1.794-.744l-1.039.655-.144.091-.177.112-.607-.606.112-.178.091-.144.655-1.039a4.476 4.476 0 01-.744-1.794l-1.197-.272-.166-.038L1.5 7.93v-.857l.205-.047.166-.037 1.197-.272a4.476 4.476 0 01.744-1.794l-.655-1.04-.091-.144-.112-.177.606-.606.178.112.144.09 1.039.655zM8.926 7.5a1.425 1.425 0 11-2.85 0 1.425 1.425 0 012.85 0zm1 0a2.425 2.425 0 11-4.85 0 2.425 2.425 0 014.85 0z"
    fill="currentColor"
  />
</svg>
