<svg width="15" height="15" fill="none" xmlns="http://www.w3.org/2000/svg">
  <path
    fill-rule="evenodd"
    clip-rule="evenodd"
    d="M1.12704 7.49988C1.12704 3.98027 3.98026 1.12705 7.49988 1.12705C11.0195 1.12705 13.8727 3.98027 13.8727 7.49988C13.8727 11.0195 11.0195 13.8727 7.49988 13.8727C3.98026 13.8727 1.12704 11.0195 1.12704 7.49988ZM7.49988 2.07705C4.50493 2.07705 2.07704 4.50494 2.07704 7.49988C2.07704 10.4948 4.50493 12.9227 7.49988 12.9227C10.4948 12.9227 12.9227 10.4948 12.9227 7.49988C12.9227 4.50494 10.4948 2.07705 7.49988 2.07705ZM5.99999 6H6.49999H7.49999C7.77614 6 7.99999 6.22386 7.99999 6.5V10H8.00114H8.00597H8.01084H8.01573H8.02065H8.0256H8.03058H8.03559H8.04063H8.04569H8.05079H8.05591H8.06107H8.06626H8.07147H8.07671H8.08199H8.08729H8.09262H8.09799H8.10338H8.10881H8.11426H8.11975H8.12526H8.13081H8.13638H8.14199H8.14763H8.1533H8.159H8.16473H8.17049H8.17628H8.1821H8.18796H8.19385H8.19976H8.20571H8.2117H8.21771H8.22375H8.22983H8.23594H8.24208H8.24825H8.25446H8.2607H8.26697H8.27327H8.2796H8.28597H8.29237H8.29881H8.30527H8.31177H8.3183H8.32487H8.33147H8.3381H8.34476H8.35146H8.35819H8.36496H8.37176H8.37859H8.38546H8.39236H8.39929H8.40626H8.41326H8.4203H8.42737H8.43448H8.44162H8.44879H8.456H8.46325H8.47053H8.47784H8.48519H8.49257H8.49999H8.99999V11H8.49999H8.49257H8.48519H8.47784H8.47053H8.46325H8.456H8.44879H8.44162H8.43448H8.42737H8.4203H8.41326H8.40626H8.39929H8.39236H8.38546H8.37859H8.37176H8.36496H8.35819H8.35146H8.34476H8.3381H8.33147H8.32487H8.3183H8.31177H8.30527H8.29881H8.29237H8.28597H8.2796H8.27327H8.26697H8.2607H8.25446H8.24825H8.24208H8.23594H8.22983H8.22375H8.21771H8.2117H8.20571H8.19976H8.19385H8.18796H8.1821H8.17628H8.17049H8.16473H8.159H8.1533H8.14763H8.14199H8.13638H8.13081H8.12526H8.11975H8.11426H8.10881H8.10338H8.09799H8.09262H8.08729H8.08199H8.07671H8.07147H8.06626H8.06107H8.05591H8.05079H8.04569H8.04063H8.03559H8.03058H8.0256H8.02065H8.01573H8.01084H8.00597H8.00114H7.99633H7.99155H7.9868H7.98208H7.97739H7.97272H7.96808H7.96348H7.95889H7.95434H7.94982H7.94532H7.94085H7.93641H7.93199H7.9276H7.92324H7.91891H7.9146H7.91032H7.90607H7.90185H7.89765H7.89348H7.88933H7.88521H7.88112H7.87706H7.87302H7.869H7.86502H7.86106H7.85712H7.85321H7.84933H7.84547H7.84164H7.83783H7.83405H7.8303H7.82657H7.82286H7.81919H7.81553H7.8119H7.8083H7.80472H7.80116H7.79764H7.79413H7.79065H7.78719H7.78376H7.78035H7.77697H7.77361H7.77028H7.76697H7.76368H7.76042H7.75718H7.75396H7.75077H7.7476H7.74445H7.74133H7.73823H7.73516H7.7321H7.72907H7.72607H7.72308H7.72012H7.71718H7.71427H7.71138H7.7085H7.70566H7.70283H7.70003H7.69724H7.69448H7.69175H7.68903H7.68634H7.68366H7.68101H7.67838H7.67578H7.67319H7.67063H7.66808H7.66556H7.66306H7.66058H7.65812H7.65568H7.65326H7.65086H7.64849H7.64613H7.64379H7.64148H7.63918H7.63691H7.63465H7.63242H7.6302H7.62801H7.62583H7.62368H7.62154H7.61942H7.61733H7.61525H7.61319H7.61115H7.60913H7.60713H7.60515H7.60318H7.60124H7.59931H7.59741H7.59552H7.59365H7.5918H7.58996H7.58815H7.58635H7.58457H7.58281H7.58107H7.57934H7.57764H7.57595H7.57428H7.57262H7.57098H7.56936H7.56776H7.56618H7.56461H7.56306H7.56152H7.56001H7.55851H7.55702H7.55555H7.5541H7.55267H7.55125H7.54985H7.54846H7.5471H7.54574H7.54441H7.54308H7.54178H7.54049H7.53922H7.53796H7.53671H7.53549H7.53428H7.53308H7.5319H7.53073H7.52958H7.52844H7.52732H7.52621H7.52512H7.52404H7.52388H7.52386H7.52384H7.52381H7.52379H7.52375H7.52374H7.52371H7.5237H7.52366H7.52365H7.52361H7.52359H7.52355H7.52352H7.52349H7.52345H7.52342H7.52337H7.52335H7.52328H7.52327H7.52319H7.5231H7.52309H7.52301H7.52298H7.52291H7.52286H7.52281H7.52274H7.5227H7.52261H7.52259H7.52247H7.52235H7.52232H7.52223H7.52216H7.5221H7.522H7.52196H7.52193H7.52183H7.52169H7.52165H7.52154H7.52146H7.52139H7.52127H7.52124H7.52108H7.52106H7.52093H7.5209H7.52085H7.52076H7.52063H7.5206H7.52043H7.5204H7.52025H7.52016H7.52008H7.51991H7.5199H7.51988H7.51972H7.51966H7.51953H7.51939H7.51935H7.51916H7.51912H7.51896H7.51887H7.51884H7.51877H7.51857H7.51854H7.51837H7.51824H7.51817H7.51796H7.51793H7.51788H7.51775H7.51761H7.51755H7.51733H7.51728H7.51712H7.51694H7.51691H7.51669H7.51659H7.51647H7.51625H7.51623H7.51603H7.51594H7.51586H7.51581H7.51558H7.51548H7.51536H7.51513H7.51509H7.51499H7.5149H7.5147H7.51467H7.51444H7.51429H7.51421H7.51405H7.51398H7.51387H7.51375H7.51352H7.51344H7.51328H7.51313H7.51305H7.513H7.51282H7.51258H7.51255H7.51235H7.51222H7.51211H7.51209H7.51188H7.51164H7.51161H7.51141H7.51132H7.51117H7.51113H7.51094H7.5107H7.51064H7.51047H7.51044H7.51024H7.51013H7.51H7.50977H7.50962H7.50957H7.50954H7.50931H7.50909H7.50908H7.50885H7.50872H7.50863H7.50856H7.5084H7.50818H7.50801H7.50795H7.50788H7.50773H7.50751H7.50745H7.50729H7.50707H7.50705H7.50688H7.50686H7.50664H7.50643H7.50629H7.50623H7.50622H7.50601H7.50581H7.5057H7.5056H7.50543H7.5054H7.5052H7.50509H7.505H7.50481H7.50464H7.50462H7.50448H7.50443H7.50424H7.50406H7.50388H7.50386H7.50385H7.5037H7.50353H7.50336H7.50321H7.50319H7.5031H7.50303H7.50286H7.50271H7.50255H7.5024H7.50235H7.50226H7.50211H7.50197H7.50189H7.50184H7.50171H7.50161H7.50158H7.50146H7.50134H7.50123H7.50121H7.50112H7.50101H7.50091H7.50088H7.50082H7.50073H7.50064H7.50056H7.50052H7.50048H7.50041H7.50035H7.50029H7.50023H7.50018H7.50017H7.50014H7.5001H7.50007H7.50004H7.50002H7.50001H7.5H7.49998H7.49997H7.49995H7.49992H7.49989H7.49985H7.49982H7.4998H7.49975H7.4997H7.49964H7.49957H7.4995H7.49947H7.49943H7.49935H7.49926H7.49917H7.49911H7.49907H7.49897H7.49887H7.49878H7.49876H7.49865H7.49853H7.49841H7.49838H7.49828H7.49815H7.4981H7.49801H7.49787H7.49773H7.49764H7.49758H7.49743H7.49728H7.49712H7.49696H7.49689H7.4968H7.49678H7.49663H7.49646H7.49628H7.49614H7.49612H7.49611H7.49593H7.49574H7.49556H7.49551H7.49537H7.49535H7.49518H7.49498H7.49489H7.49479H7.49459H7.49456H7.49439H7.49429H7.49418H7.49398H7.49377H7.49376H7.49369H7.49356H7.49334H7.49313H7.49311H7.49294H7.49292H7.4927H7.49254H7.49248H7.49226H7.49211H7.49204H7.49198H7.49181H7.49159H7.49143H7.49136H7.49127H7.49113H7.49091H7.49089H7.49068H7.49045H7.49041H7.49037H7.49021H7.48998H7.48985H7.48975H7.48955H7.48952H7.48935H7.48928H7.48905H7.48886H7.48882H7.48866H7.48858H7.48837H7.48835H7.48811H7.4879H7.48788H7.48777H7.48764H7.48744H7.48741H7.48717H7.48699H7.48694H7.48686H7.4867H7.48655H7.48647H7.48624H7.48612H7.48601H7.48594H7.48577H7.4857H7.48554H7.48531H7.48529H7.48509H7.485H7.48489H7.48486H7.48463H7.4845H7.48441H7.48418H7.48413H7.48405H7.48396H7.48376H7.48374H7.48352H7.4834H7.4833H7.48309H7.48305H7.48287H7.48271H7.48265H7.48244H7.48238H7.48223H7.48211H7.48206H7.48203H7.48182H7.48175H7.48162H7.48144H7.48142H7.48122H7.48115H7.48112H7.48102H7.48087H7.48083H7.48064H7.4806H7.48045H7.48033H7.48027H7.48011H7.48009H7.48007H7.47991H7.47983H7.47973H7.47959H7.47956H7.47939H7.47936H7.47922H7.47914H7.47909H7.47906H7.47892H7.4789H7.47875H7.47872H7.47859H7.47852H7.47845H7.47834H7.4783H7.47816H7.47806H7.47802H7.47799H7.47789H7.47782H7.47776H7.47767H7.47764H7.47752H7.4774H7.47738H7.47729H7.47725H7.47718H7.47713H7.47708H7.47701H7.47698H7.4769H7.47689H7.4768H7.47672H7.47671H7.47664H7.47662H7.47657H7.47654H7.4765H7.47647H7.47643H7.4764H7.47638H7.47634H7.47633H7.47629H7.47628H7.47624H7.47624H7.47621H7.47617H7.47615H7.47613H7.47612H7.47595H7.47487H7.47377H7.47267H7.47155H7.47041H7.46926H7.46809H7.46691H7.46571H7.4645H7.46327H7.46203H7.46077H7.4595H7.45821H7.4569H7.45558H7.45424H7.45289H7.45152H7.45014H7.44874H7.44732H7.44588H7.44443H7.44297H7.44148H7.43998H7.43846H7.43693H7.43538H7.43381H7.43223H7.43062H7.429H7.42737H7.42571H7.42404H7.42235H7.42064H7.41892H7.41718H7.41541H7.41364H7.41184H7.41002H7.40819H7.40634H7.40447H7.40258H7.40067H7.39875H7.3968H7.39484H7.39286H7.39086H7.38884H7.3868H7.38474H7.38266H7.38056H7.37845H7.37631H7.37416H7.37198H7.36979H7.36757H7.36533H7.36308H7.3608H7.35851H7.35619H7.35386H7.3515H7.34912H7.34673H7.34431H7.34187H7.33941H7.33693H7.33443H7.33191H7.32936H7.3268H7.32421H7.3216H7.31897H7.31632H7.31365H7.31096H7.30824H7.3055H7.30274H7.29996H7.29716H7.29433H7.29148H7.28861H7.28572H7.2828H7.27986H7.2769H7.27392H7.27091H7.26788H7.26483H7.26176H7.25866H7.25553H7.25239H7.24922H7.24603H7.24281H7.23957H7.23631H7.23302H7.22971H7.22638H7.22302H7.21963H7.21623H7.21279H7.20934H7.20586H7.20235H7.19882H7.19527H7.19169H7.18809H7.18446H7.1808H7.17712H7.17342H7.16969H7.16593H7.16215H7.15835H7.15452H7.15066H7.14678H7.14287H7.13893H7.13497H7.13098H7.12697H7.12293H7.11887H7.11477H7.11066H7.10651H7.10234H7.09814H7.09392H7.08966H7.08538H7.08108H7.07675H7.07239H7.068H7.06358H7.05914H7.05467H7.05017H7.04565H7.04109H7.03651H7.0319H7.02727H7.0226H7.01791H7.01319H7.00844H7.00366H6.99885H6.99402H6.98915H6.98426H6.97934H6.97439H6.96941H6.9644H6.95936H6.95429H6.9492H6.94407H6.93892H6.93373H6.92852H6.92327H6.918H6.9127H6.90736H6.902H6.89661H6.89118H6.88573H6.88024H6.87473H6.86918H6.86361H6.858H6.85236H6.84669H6.84099H6.83526H6.8295H6.82371H6.81788H6.81203H6.80614H6.80022H6.79427H6.78829H6.78228H6.77623H6.77016H6.76405H6.75791H6.75173H6.74553H6.73929H6.73302H6.72672H6.72038H6.71402H6.70761H6.70118H6.69472H6.68822H6.68168H6.67512H6.66852H6.66189H6.65522H6.64853H6.64179H6.63503H6.62823H6.6214H6.61453H6.60763H6.60069H6.59373H6.58672H6.57969H6.57261H6.56551H6.55837H6.55119H6.54398H6.53674H6.52946H6.52215H6.5148H6.50741H6.49999H5.99999V10H6.49999H6.50741H6.5148H6.52215H6.52946H6.53674H6.54398H6.55119H6.55837H6.56551H6.57261H6.57969H6.58672H6.59373H6.60069H6.60763H6.61453H6.6214H6.62823H6.63503H6.64179H6.64853H6.65522H6.66189H6.66852H6.67512H6.68168H6.68822H6.69472H6.70118H6.70761H6.71402H6.72038H6.72672H6.73302H6.73929H6.74553H6.75173H6.75791H6.76405H6.77016H6.77623H6.78228H6.78829H6.79427H6.80022H6.80614H6.81203H6.81788H6.82371H6.8295H6.83526H6.84099H6.84669H6.85236H6.858H6.86361H6.86918H6.87473H6.88024H6.88573H6.89118H6.89661H6.902H6.90736H6.9127H6.918H6.92327H6.92852H6.93373H6.93892H6.94407H6.9492H6.95429H6.95936H6.9644H6.96941H6.97439H6.97934H6.98426H6.98915H6.99402H6.99885H6.99999V7H6.49999H5.99999V6ZM7.505 5.13C7.85018 5.13 8.13 4.85018 8.13 4.505C8.13 4.15982 7.85018 3.88 7.505 3.88C7.15983 3.88 6.88 4.15982 6.88 4.505C6.88 4.85018 7.15983 5.13 7.505 5.13Z"
    fill="currentColor"
  />
</svg>
