<svg width="15" height="15" fill="none" xmlns="http://www.w3.org/2000/svg">
  <path
    fill-rule="evenodd"
    clip-rule="evenodd"
    d="M3.69893 5.20703C2.05817 5.20703 0.809143 6.68569 0.809143 8.60972C0.809143 10.6337 2.15817 12.0124 3.69893 12.0124C4.5212 12.0124 5.37395 11.6693 5.95384 11.0223V11.0277V11.0357V11.0436V11.0515V11.0593V11.0671V11.0748V11.0825V11.0901V11.0976V11.1051V11.1125V11.1199V11.1272V11.1345V11.1417V11.1488V11.1559V11.1629V11.1699V11.1768V11.1836V11.1904V11.1971V11.2038V11.2104V11.2169V11.2234V11.2298V11.2361V11.2424V11.2487V11.2548V11.2609V11.267V11.273V11.2789V11.2847V11.2905V11.2963V11.3019V11.3075V11.3131V11.3185V11.3239V11.3293V11.3346V11.3398V11.3449V11.35V11.355V11.36V11.3649V11.3697V11.3744V11.3791V11.3837V11.3883V11.3928V11.3972V11.4015V11.4058V11.41V11.4142V11.4182V11.4222V11.4262V11.43V11.4338V11.4375V11.4412V11.4448V11.4483V11.4517V11.4551V11.4584V11.4616V11.4648V11.4679V11.4709V11.4738V11.4767V11.4795V11.4822V11.4849V11.4875V11.49V11.4924V11.4947V11.497V11.4992V11.5014V11.5034V11.5054V11.5073V11.5092V11.5109V11.5126V11.5142V11.5157V11.5172V11.5186V11.5199V11.5211V11.5222V11.5233V11.5243V11.5252V11.526V11.5268V11.5275V11.5281V11.5286V11.529V11.5294V11.5297V11.5299V11.53L6.40384 11.53H5.95384C5.95384 11.7785 6.15531 11.98 6.40384 11.98C6.65236 11.98 6.85384 11.7785 6.85384 11.53H6.40384L6.85384 11.53V11.5299V11.5297V11.5294V11.529V11.5286V11.5281V11.5275V11.5268V11.526V11.5252V11.5243V11.5233V11.5222V11.5211V11.5199V11.5186V11.5172V11.5157V11.5142V11.5126V11.5109V11.5092V11.5073V11.5054V11.5034V11.5014V11.4992V11.497V11.4947V11.4924V11.49V11.4875V11.4849V11.4822V11.4795V11.4767V11.4738V11.4709V11.4679V11.4648V11.4616V11.4584V11.4551V11.4517V11.4483V11.4448V11.4412V11.4375V11.4338V11.43V11.4262V11.4222V11.4182V11.4142V11.41V11.4058V11.4015V11.3972V11.3928V11.3883V11.3837V11.3791V11.3744V11.3697V11.3649V11.36V11.355V11.35V11.3449V11.3398V11.3346V11.3293V11.3239V11.3185V11.3131V11.3075V11.3019V11.2963V11.2905V11.2847V11.2789V11.273V11.267V11.2609V11.2548V11.2487V11.2424V11.2361V11.2298V11.2234V11.2169V11.2104V11.2038V11.1971V11.1904V11.1836V11.1768V11.1699V11.1629V11.1559V11.1488V11.1417V11.1345V11.1272V11.1199V11.1125V11.1051V11.0976V11.0901V11.0825V11.0748V11.0671V11.0593V11.0515V11.0436V11.0357V11.0277V11.0196V11.0115V11.0034V10.9952V10.9869V10.9786V10.9702V10.9617V10.9533V10.9447V10.9361V10.9275V10.9188V10.91V10.9012V10.8924V10.8835V10.8745V10.8655V10.8564V10.8473V10.8381V10.8289V10.8197V10.8103V10.801V10.7915V10.7821V10.7726V10.763V10.7534V10.7437V10.734V10.7242V10.7144V10.7046V10.6947V10.6847V10.6747V10.6647V10.6546V10.6444V10.6342V10.624V10.6137V10.6034V10.593V10.5826V10.5721V10.5616V10.5511V10.5405V10.5298V10.5191V10.5084V10.4976V10.4868V10.4759V10.465V10.4541V10.4431V10.4321V10.421V10.4099V10.3987V10.3875V10.3763V10.365V10.3537V10.3423V10.3309V10.3194V10.3079V10.2964V10.2848V10.2732V10.2616V10.2499V10.2382V10.2264V10.2146V10.2028V10.1909V10.179V10.167V10.155V10.143V10.1309V10.1188V10.1067V10.0945V10.0823V10.0701V10.0578V10.0455V10.0331V10.0207V10.0083V9.99582V9.98333V9.9708V9.95824V9.94564V9.93301V9.92034V9.90765V9.89492V9.88215V9.86936V9.85653V9.84367V9.83078V9.81786V9.8049V9.79191V9.7789V9.76585V9.75277V9.73966V9.72652V9.71335V9.70015V9.68692V9.67366V9.66037V9.64705V9.63371V9.62033V9.60693V9.5935V9.58004V9.56655V9.55304V9.5395V9.52593V9.51233V9.49871V9.48506V9.47139V9.45769V9.44396V9.43021V9.41643V9.40263V9.3888V9.37494V9.36107V9.34717V9.33324V9.31929V9.30532V9.29132V9.2773V9.26326V9.24919V9.2351V9.22099V9.20686V9.1927V9.17852V9.16432V9.1501V9.13586V9.1216V9.10732V9.09301V9.07869V9.06435V9.04998V9.0356V9.0212V9.00677V8.99233V8.97787V8.96339V8.9489V8.93438V8.91985V8.9053V8.89073V8.87614V8.86154V8.84692V8.83228V8.81763V8.80296V8.78827V8.77357V8.75885V8.74412V8.72937V8.71461V8.69983V8.68504V8.67023V8.65541V8.64058V8.62573V8.61087V8.59599V8.5811V8.5662V8.55129V8.53636V8.52142V8.50647V8.49151V8.47653V8.46155V8.44655V8.43154V8.41653V8.4015V8.38646V8.37141V8.35635V8.34128V8.3262V8.31111V8.29601V8.28091V8.26579V8.25067V8.23554V8.2204V8.20525V8.1901V8.17493V8.15976V8.14459V8.1294V8.11421V8.09902V8.08382V8.06861V8.05339V8.03817V8.02295V8.00772V7.99248V7.97725V7.962V7.94675V7.9315V7.91625V7.90099V7.88573V7.87046V7.85519V7.83992V7.82465V7.80937V7.79409V7.77881V7.76353V7.74825V7.73296V7.71768V7.70239V7.6871V7.67182V7.65653V7.64124V7.62595V7.61067V7.59538V7.58009V7.56481V7.54953V7.53425V7.51897V7.50369V7.48841V7.47314V7.45787V7.4426V7.42734V7.41207V7.39682V7.38156V7.36631V7.35106V7.33582V7.32058V7.30535V7.29012V7.2749V7.25968V7.24447V7.22926V7.21406V7.19887V7.18368V7.1685V7.15332V7.13815V7.12299V7.10784V7.09269V7.07756V7.06243V7.04731V7.03219V7.01709V7.00199V6.98691V6.97183V6.95676V6.94171V6.92666V6.91162V6.8966V6.88158V6.86657V6.85158V6.8366V6.82163V6.80667V6.79172V6.77678V6.76186V6.74695V6.73205V6.71716V6.70229V6.68743V6.67259V6.65776V6.64294V6.62814V6.61335V6.59857V6.58381V6.56907V6.55434V6.53963V6.52493V6.51025V6.49558V6.48093V6.4663V6.45168V6.43709V6.4225V6.40794V6.39339V6.37886V6.36435V6.34986V6.33539V6.32093V6.30649V6.29208V6.27768V6.2633V6.24894V6.2346V6.22028V6.20598V6.19171V6.17745V6.16321V6.149V6.1348V6.12063V6.10648V6.09235V6.07825V6.06417V6.05011V6.03607V6.02205V6.00806V5.99409V5.98015V5.96623V5.95234V5.93846V5.92462V5.9108V5.897V5.88323V5.86948V5.85576V5.84207V5.8284V5.81475V5.80114V5.78755V5.77399V5.76045V5.74695V5.73347V5.72001C6.85384 5.47149 6.65236 5.27001 6.40384 5.27001C6.15531 5.27001 5.95384 5.47149 5.95384 5.72001V5.73347V5.74695V5.76045V5.77399V5.78755V5.80114V5.81475V5.8284V5.84207V5.85576V5.86948V5.88323V5.897V5.9108V5.92462V5.93846V5.95234V5.96623V5.98015V5.99409V6.00806V6.02205V6.03607V6.05011V6.06417V6.07825V6.09235V6.10648V6.12063V6.1348V6.149V6.16321V6.17745V6.19171V6.20598V6.22028V6.22269C5.405 5.60075 4.59212 5.20703 3.69893 5.20703ZM5.95384 7.30535V7.30117C5.56332 6.58064 4.74112 6.05757 3.88674 6.05757C2.90883 6.05757 1.83502 6.96581 1.83502 8.60955C1.83502 10.1533 2.80883 11.1615 3.88674 11.1615C4.76978 11.1615 5.57135 10.4957 5.95384 9.799V9.79191V9.7789V9.76585V9.75277V9.73966V9.72652V9.71335V9.70015V9.68692V9.67366V9.66037V9.64705V9.63371V9.62033V9.60693V9.5935V9.58004V9.56655V9.55304V9.5395V9.52593V9.51233V9.49871V9.48506V9.47139V9.45769V9.44396V9.43021V9.41643V9.40263V9.3888V9.37494V9.36107V9.34717V9.33324V9.31929V9.30532V9.29132V9.2773V9.26326V9.24919V9.2351V9.22099V9.20686V9.1927V9.17852V9.16432V9.1501V9.13586V9.1216V9.10732V9.09301V9.07869V9.06435V9.04998V9.0356V9.0212V9.00677V8.99233V8.97787V8.96339V8.9489V8.93438V8.91985V8.9053V8.89073V8.87614V8.86154V8.84692V8.83228V8.81763V8.80296V8.78827V8.77357V8.75885V8.74412V8.72937V8.71461V8.69983V8.68504V8.67023V8.65541V8.64058V8.62573V8.61087V8.59599V8.5811V8.5662V8.55129V8.53636V8.52142V8.50647V8.49151V8.47653V8.46155V8.44655V8.43154V8.41653V8.4015V8.38646V8.37141V8.35635V8.34128V8.3262V8.31111V8.29601V8.28091V8.26579V8.25067V8.23554V8.2204V8.20525V8.1901V8.17493V8.15976V8.14459V8.1294V8.11421V8.09902V8.08382V8.06861V8.05339V8.03817V8.02295V8.00772V7.99248V7.97725V7.962V7.94675V7.9315V7.91625V7.90099V7.88573V7.87046V7.85519V7.83992V7.82465V7.80937V7.79409V7.77881V7.76353V7.74825V7.73296V7.71768V7.70239V7.6871V7.67182V7.65653V7.64124V7.62595V7.61067V7.59538V7.58009V7.56481V7.54953V7.53425V7.51897V7.50369V7.48841V7.47314V7.45787V7.4426V7.42734V7.41207V7.39682V7.38156V7.36631V7.35106V7.33582V7.32058V7.30535ZM10.7989 5.20703C9.15817 5.20703 7.90914 6.68569 7.90914 8.60972C7.90914 10.6337 9.25817 12.0124 10.7989 12.0124C11.6214 12.0124 12.4744 11.6692 13.0543 11.0218V11.0277V11.0357V11.0436V11.0515V11.0593V11.0671V11.0748V11.0825V11.0901V11.0976V11.1051V11.1125V11.1199V11.1272V11.1344V11.1416V11.1488V11.1559V11.1629V11.1698V11.1767V11.1836V11.1904V11.1971V11.2037V11.2103V11.2169V11.2234V11.2298V11.2361V11.2424V11.2487V11.2548V11.2609V11.267V11.273V11.2789V11.2847V11.2905V11.2963V11.3019V11.3075V11.3131V11.3185V11.3239V11.3293V11.3346V11.3398V11.3449V11.35V11.355V11.36V11.3649V11.3697V11.3744V11.3791V11.3837V11.3883V11.3928V11.3972V11.4015V11.4058V11.41V11.4141V11.4182V11.4222V11.4261V11.43V11.4338V11.4375V11.4412V11.4448V11.4483V11.4517V11.4551V11.4584V11.4616V11.4648V11.4679V11.4709V11.4738V11.4767V11.4795V11.4822V11.4849V11.4874V11.4899V11.4924V11.4947V11.497V11.4992V11.5014V11.5034V11.5054V11.5073V11.5091V11.5109V11.5126V11.5142V11.5157V11.5172V11.5185V11.5198V11.5211V11.5222V11.5233V11.5243V11.5252V11.526V11.5268V11.5274V11.528V11.5286V11.529V11.5294V11.5296V11.5298V11.53L13.5043 11.53H13.0543C13.0543 11.7785 13.2557 11.98 13.5043 11.98C13.7528 11.98 13.9543 11.7785 13.9543 11.53H13.5043L13.9543 11.53V11.5298V11.5296V11.5294V11.529V11.5286V11.528V11.5274V11.5268V11.526V11.5252V11.5243V11.5233V11.5222V11.5211V11.5198V11.5185V11.5172V11.5157V11.5142V11.5126V11.5109V11.5091V11.5073V11.5054V11.5034V11.5014V11.4992V11.497V11.4947V11.4924V11.4899V11.4874V11.4849V11.4822V11.4795V11.4767V11.4738V11.4709V11.4679V11.4648V11.4616V11.4584V11.4551V11.4517V11.4483V11.4448V11.4412V11.4375V11.4338V11.43V11.4261V11.4222V11.4182V11.4141V11.41V11.4058V11.4015V11.3972V11.3928V11.3883V11.3837V11.3791V11.3744V11.3697V11.3649V11.36V11.355V11.35V11.3449V11.3398V11.3346V11.3293V11.3239V11.3185V11.3131V11.3075V11.3019V11.2963V11.2905V11.2847V11.2789V11.273V11.267V11.2609V11.2548V11.2487V11.2424V11.2361V11.2298V11.2234V11.2169V11.2103V11.2037V11.1971V11.1904V11.1836V11.1767V11.1698V11.1629V11.1559V11.1488V11.1416V11.1344V11.1272V11.1199V11.1125V11.1051V11.0976V11.0901V11.0825V11.0748V11.0671V11.0593V11.0515V11.0436V11.0357V11.0277V11.0196V11.0115V11.0034V10.9951V10.9869V10.9785V10.9702V10.9617V10.9532V10.9447V10.9361V10.9275V10.9188V10.91V10.9012V10.8924V10.8834V10.8745V10.8655V10.8564V10.8473V10.8381V10.8289V10.8196V10.8103V10.801V10.7915V10.7821V10.7726V10.763V10.7534V10.7437V10.734V10.7242V10.7144V10.7046V10.6947V10.6847V10.6747V10.6646V10.6545V10.6444V10.6342V10.624V10.6137V10.6034V10.593V10.5826V10.5721V10.5616V10.5511V10.5405V10.5298V10.5191V10.5084V10.4976V10.4868V10.4759V10.465V10.4541V10.4431V10.4321V10.421V10.4099V10.3987V10.3875V10.3763V10.365V10.3536V10.3423V10.3309V10.3194V10.3079V10.2964V10.2848V10.2732V10.2616V10.2499V10.2382V10.2264V10.2146V10.2028V10.1909V10.179V10.167V10.155V10.143V10.1309V10.1188V10.1067V10.0945V10.0823V10.07V10.0578V10.0454V10.0331V10.0207V10.0083V9.99581V9.98331V9.97079V9.95822V9.94563V9.933V9.92033V9.90764V9.89491V9.88214V9.86935V9.85652V9.84366V9.83077V9.81784V9.80489V9.7919V9.77888V9.76584V9.75276V9.73965V9.72651V9.71334V9.70014V9.68691V9.67365V9.66036V9.64704V9.6337V9.62032V9.60692V9.59349V9.58003V9.56654V9.55303V9.53948V9.52592V9.51232V9.4987V9.48505V9.47137V9.45767V9.44395V9.43019V9.41642V9.40261V9.38878V9.37493V9.36105V9.34715V9.33323V9.31928V9.3053V9.29131V9.27729V9.26324V9.24918V9.23509V9.22098V9.20684V9.19269V9.17851V9.16431V9.15009V9.13585V9.12159V9.10731V9.093V9.07868V9.06433V9.04997V9.03559V9.02118V9.00676V8.99232V8.97786V8.96338V8.94888V8.93437V8.91984V8.90528V8.89072V8.87613V8.86153V8.84691V8.83227V8.81762V8.80295V8.78826V8.77356V8.75884V8.74411V8.72936V8.7146V8.69982V8.68503V8.67022V8.6554V8.64057V8.62572V8.61086V8.59598V8.58109V8.56619V8.55128V8.53635V8.52141V8.50646V8.4915V8.47652V8.46154V8.44654V8.43153V8.41651V8.40148V8.38644V8.37139V8.35633V8.34127V8.32619V8.3111V8.296V8.28089V8.26578V8.25066V8.23552V8.22039V8.20524V8.19008V8.17492V8.15975V8.14457V8.12939V8.1142V8.09901V8.0838V8.06859V8.05338V8.03816V8.02294V8.00771V7.99247V7.97723V7.96199V7.94674V7.93149V7.91623V7.90098V7.88571V7.87045V7.85518V7.83991V7.82463V7.80936V7.79408V7.7788V7.76352V7.74823V7.73295V7.71766V7.70238V7.68709V7.6718V7.65652V7.64123V7.62594V7.61065V7.59537V7.58008V7.5648V7.54952V7.53423V7.51895V7.50368V7.4884V7.47313V7.45786V7.44259V7.42732V7.41206V7.3968V7.38155V7.3663V7.35105V7.33581V7.32057V7.30534V7.29011V7.27489V7.25967V7.24446V7.22925V7.21405V7.19885V7.18366V7.16848V7.15331V7.13814V7.12298V7.10783V7.09268V7.07754V7.06241V7.04729V7.03218V7.01708V7.00198V6.9869V6.97182V6.95675V6.94169V6.92665V6.91161V6.89658V6.88157V6.86656V6.85157V6.83658V6.82161V6.80665V6.79171V6.77677V6.76185V6.74694V6.73204V6.71715V6.70228V6.68742V6.67258V6.65774V6.64293V6.62812V6.61334V6.59856V6.5838V6.56906V6.55433V6.53962V6.52492V6.51024V6.49557V6.48092V6.46629V6.45167V6.43707V6.42249V6.40793V6.39338V6.37885V6.36434V6.34985V6.33537V6.32092V6.30648V6.29206V6.27767V6.26329V6.24893V6.23459V6.22027V6.20597V6.19169V6.17744V6.1632V6.14899V6.13479V6.12062V6.10647V6.09234V6.07824V6.06415V6.05009V6.03606V6.02204V6.00805V5.99408V5.98014V5.96622V5.95232V5.93845V5.92461V5.91078V5.89699V5.88321V5.86947V5.85575V5.84205V5.82838V5.81474V5.80113V5.78754V5.77398V5.76044V5.74693V5.73345V5.72C13.9543 5.47147 13.7528 5.27 13.5043 5.27C13.2557 5.27 13.0543 5.47147 13.0543 5.72V5.73345V5.74693V5.76044V5.77398V5.78754V5.80113V5.81474V5.82838V5.84205V5.85575V5.86947V5.88321V5.89699V5.91078V5.92461V5.93845V5.95232V5.96622V5.98014V5.99408V6.00805V6.02204V6.03606V6.05009V6.06415V6.07824V6.09234V6.10647V6.12062V6.13479V6.14899V6.1632V6.17744V6.19169V6.20597V6.22027V6.22318C12.5054 5.60095 11.6924 5.20703 10.7989 5.20703ZM13.0543 7.30534V7.30196C12.6639 6.58102 11.8414 6.05757 10.9867 6.05757C10.0088 6.05757 8.93502 6.96581 8.93502 8.60955C8.93502 10.1533 9.90883 11.1615 10.9867 11.1615C11.8701 11.1615 12.6719 10.4952 13.0543 9.79822V9.7919V9.77888V9.76584V9.75276V9.73965V9.72651V9.71334V9.70014V9.68691V9.67365V9.66036V9.64704V9.6337V9.62032V9.60692V9.59349V9.58003V9.56654V9.55303V9.53948V9.52592V9.51232V9.4987V9.48505V9.47137V9.45767V9.44395V9.43019V9.41642V9.40261V9.38878V9.37493V9.36105V9.34715V9.33323V9.31928V9.3053V9.29131V9.27729V9.26324V9.24918V9.23509V9.22098V9.20684V9.19269V9.17851V9.16431V9.15009V9.13585V9.12159V9.10731V9.093V9.07868V9.06433V9.04997V9.03559V9.02118V9.00676V8.99232V8.97786V8.96338V8.94888V8.93437V8.91984V8.90528V8.89072V8.87613V8.86153V8.84691V8.83227V8.81762V8.80295V8.78826V8.77356V8.75884V8.74411V8.72936V8.7146V8.69982V8.68503V8.67022V8.6554V8.64057V8.62572V8.61086V8.59598V8.58109V8.56619V8.55128V8.53635V8.52141V8.50646V8.4915V8.47652V8.46154V8.44654V8.43153V8.41651V8.40148V8.38644V8.37139V8.35633V8.34127V8.32619V8.3111V8.296V8.28089V8.26578V8.25066V8.23552V8.22039V8.20524V8.19008V8.17492V8.15975V8.14457V8.12939V8.1142V8.09901V8.0838V8.06859V8.05338V8.03816V8.02294V8.00771V7.99247V7.97723V7.96199V7.94674V7.93149V7.91623V7.90098V7.88571V7.87045V7.85518V7.83991V7.82463V7.80936V7.79408V7.7788V7.76352V7.74823V7.73295V7.71766V7.70238V7.68709V7.6718V7.65652V7.64123V7.62594V7.61065V7.59537V7.58008V7.5648V7.54952V7.53423V7.51895V7.50368V7.4884V7.47313V7.45786V7.44259V7.42732V7.41206V7.3968V7.38155V7.3663V7.35105V7.33581V7.32057V7.30534Z"
    fill="currentColor"
  />
</svg>
