<svg width="15" height="15" fill="none" xmlns="http://www.w3.org/2000/svg">
  <path
    fill-rule="evenodd"
    clip-rule="evenodd"
    d="M4.5002 0C4.77634 0 5.00019 0.223853 5.00019 0.49999V2.49995C5.00019 2.77609 4.77634 2.99994 4.5002 2.99994C4.22407 2.99994 4.00021 2.77609 4.00021 2.49995V0.49999C4.00021 0.223853 4.22407 0 4.5002 0ZM12.0001 10.4998C12.0001 10.2237 12.2239 9.99981 12.5 9.99981H14.5C14.7761 9.99981 15 10.2237 15 10.4998C15 10.7759 14.7761 10.9998 14.5 10.9998H12.5C12.2239 10.9998 12.0001 10.7759 12.0001 10.4998ZM10.5001 11.9998C10.7762 11.9998 11.0001 12.2236 11.0001 12.4998V14.4997C11.0001 14.7759 10.7762 14.9997 10.5001 14.9997C10.224 14.9997 10.0001 14.7759 10.0001 14.4997V12.4998C10.0001 12.2236 10.224 11.9998 10.5001 11.9998ZM12.8533 12.1462C12.658 11.951 12.3415 11.951 12.1462 12.1462C11.951 12.3415 11.951 12.6581 12.1462 12.8533L13.6462 14.3533C13.8414 14.5486 14.158 14.5486 14.3533 14.3533C14.5485 14.158 14.5485 13.8415 14.3533 13.6462L12.8533 12.1462ZM1.35353 0.646471C1.15827 0.451212 0.841695 0.451212 0.646437 0.646471C0.451179 0.841729 0.451179 1.15831 0.646437 1.35356L2.14641 2.85353C2.34167 3.04879 2.65824 3.04879 2.8535 2.85353C3.04876 2.65828 3.04876 2.3417 2.8535 2.14644L1.35353 0.646471ZM0.000289911 4.49991C0.000289911 4.22378 0.224143 3.99992 0.50028 3.99992H2.50024C2.77638 3.99992 3.00023 4.22378 3.00023 4.49991C3.00023 4.77605 2.77638 4.9999 2.50024 4.9999H0.50028C0.224143 4.9999 0.000289911 4.77605 0.000289911 4.49991ZM2.99189 7.05807L2.94898 7.10098C2.57934 7.47051 2.3428 7.70697 2.17766 7.95007C1.50244 8.94402 1.46759 10.2377 2.11777 11.2277C2.27633 11.4692 2.50744 11.7002 2.85887 12.0515L2.90351 12.0961L2.94813 12.1407C3.29943 12.4922 3.53044 12.7233 3.77189 12.8819C4.76191 13.532 6.05559 13.4972 7.04955 12.822C7.29264 12.6568 7.52911 12.4203 7.89864 12.0506L7.89864 12.0506L7.94155 12.0077L8.56025 11.389C8.75551 11.1938 8.75551 10.8772 8.56025 10.6819C8.36499 10.4867 8.04842 10.4867 7.85316 10.6819L7.23445 11.3006C6.80746 11.7276 6.64199 11.8899 6.48763 11.9948C5.81129 12.4542 4.95614 12.4632 4.32081 12.046C4.17655 11.9513 4.02248 11.8009 3.6106 11.389C3.19872 10.9771 3.04836 10.8231 2.95362 10.6788C2.53638 10.0435 2.54538 9.18833 3.00483 8.51199C3.10969 8.35762 3.27199 8.19216 3.69899 7.76517L4.31769 7.14646C4.51295 6.9512 4.51295 6.63462 4.31769 6.43937C4.12243 6.24411 3.80586 6.24411 3.6106 6.43937L2.99189 7.05807ZM7.76477 3.69938C8.19176 3.27239 8.35723 3.11009 8.51159 3.00523C9.18794 2.54577 10.0431 2.53677 10.6784 2.95401C10.8227 3.04875 10.9767 3.19911 11.3886 3.61099C11.8005 4.02287 11.9509 4.17694 12.0456 4.3212C12.4628 4.95653 12.4538 5.81168 11.9944 6.48803C11.8895 6.64239 11.7272 6.80785 11.3002 7.23485L10.6815 7.85355C10.4863 8.04881 10.4863 8.36539 10.6815 8.56065C10.8768 8.7559 11.1934 8.7559 11.3886 8.56065L12.0073 7.94194L12.0502 7.89904C12.4199 7.5295 12.6564 7.29304 12.8216 7.04994C13.4968 6.05599 13.5316 4.76231 12.8815 3.77228C12.7229 3.53083 12.4918 3.29982 12.1404 2.94853L12.0957 2.9039L12.0511 2.85926C11.6998 2.50783 11.4688 2.27673 11.2273 2.11816C10.2373 1.46798 8.94363 1.50284 7.94968 2.17806C7.70658 2.3432 7.47011 2.57973 7.10059 2.94937L7.05768 2.99229L6.43897 3.61099C6.24371 3.80625 6.24371 4.12283 6.43897 4.31809C6.63423 4.51335 6.95081 4.51335 7.14607 4.31809L7.76477 3.69938Z"
    fill="currentColor"
  />
</svg>
