<svg width="19" height="19" fill="none" xmlns="http://www.w3.org/2000/svg">
  <path
    fill-rule="evenodd"
    clip-rule="evenodd"
    d="M8.13096 12.3981L8.08593 12.4432C7.69805 12.8309 7.44985 13.079 7.27656 13.3341C6.56803 14.3771 6.53146 15.7346 7.21371 16.7735C7.3801 17.0269 7.6226 17.2693 7.99137 17.6379L8.03821 17.6847L8.08504 17.7316C8.45366 18.1003 8.69607 18.3428 8.94943 18.5092C9.9883 19.1915 11.3458 19.1549 12.3888 18.4464C12.6439 18.2731 12.892 18.0249 13.2798 17.637L13.3248 17.592L13.974 16.9427C14.1789 16.7378 14.1789 16.4057 13.974 16.2008C13.7691 15.9959 13.4369 15.9959 13.232 16.2008L12.5828 16.85C12.1348 17.2981 11.9611 17.4684 11.7992 17.5784C11.0894 18.0605 10.1921 18.07 9.52544 17.6321C9.37406 17.5327 9.21239 17.3749 8.78019 16.9427C8.34799 16.5105 8.19021 16.3489 8.09079 16.1975C7.65297 15.5308 7.66242 14.6335 8.14454 13.9238C8.25457 13.7618 8.42488 13.5882 8.87294 13.1401L9.52217 12.4909C9.72706 12.286 9.72706 11.9538 9.52217 11.7489C9.31728 11.544 8.98508 11.544 8.78019 11.7489L8.13096 12.3981ZM13.1393 8.87375C13.5874 8.42569 13.761 8.25538 13.923 8.14535C14.6327 7.66322 15.53 7.65378 16.1967 8.0916C16.3481 8.19102 16.5097 8.3488 16.9419 8.781C17.3741 9.2132 17.5319 9.37487 17.6313 9.52625C18.0691 10.1929 18.0597 11.0903 17.5776 11.8C17.4675 11.9619 17.2972 12.1356 16.8492 12.5836L16.2 13.2329C15.9951 13.4377 15.9951 13.7699 16.2 13.9748C16.4048 14.1797 16.737 14.1797 16.9419 13.9748L17.5912 13.3256L17.6362 13.2806C18.0241 12.8928 18.2723 12.6447 18.4456 12.3896C19.1541 11.3466 19.1907 9.98911 18.5084 8.95024C18.342 8.69688 18.0995 8.45448 17.7308 8.08586L17.6839 8.03902L17.6371 7.99218C17.2685 7.62341 17.026 7.38091 16.7727 7.21452C15.7338 6.53227 14.3763 6.56884 13.3333 7.27737C13.0782 7.45066 12.8301 7.69886 12.4423 8.08674L12.3973 8.13177L11.7481 8.781C11.5432 8.98589 11.5432 9.31808 11.7481 9.52298C11.953 9.72787 12.2852 9.72787 12.4901 9.52298L13.1393 8.87375ZM10.6356 14.3453C10.4307 14.5502 10.4307 14.8824 10.6356 15.0873C10.8405 15.2922 11.1727 15.2922 11.3776 15.0873L15.0875 11.3774C15.2924 11.1725 15.2924 10.8403 15.0875 10.6354C14.8826 10.4305 14.5504 10.4305 14.3455 10.6354L10.6356 14.3453Z"
    fill="currentColor"
  />
</svg>
