<svg width="19" height="19" fill="none" xmlns="http://www.w3.org/2000/svg">
  <path
    fill-rule="evenodd"
    clip-rule="evenodd"
    d="M8.08583 12.4431C8.10063 12.4283 8.11564 12.4133 8.13086 12.3981L8.7801 11.7488C8.98499 11.544 9.31719 11.544 9.52208 11.7488C9.72697 11.9537 9.72697 12.2859 9.52208 12.4908L8.87284 13.1401C8.42478 13.5881 8.25447 13.7618 8.14444 13.9237C7.66231 14.6334 7.65287 15.5308 8.09069 16.1975C8.19011 16.3489 8.34789 16.5105 8.7801 16.9427C9.2123 17.3749 9.37397 17.5327 9.52535 17.6321C10.192 18.0699 11.0894 18.0605 11.7991 17.5784C11.9611 17.4683 12.1347 17.298 12.5828 16.85L13.232 16.2007C13.4369 15.9958 13.7691 15.9958 13.974 16.2007C14.1789 16.4056 14.1789 16.7378 13.974 16.9427L13.3247 17.592C13.3095 17.6072 13.2945 17.6222 13.2797 17.637C12.892 18.0249 12.6438 18.2731 12.3887 18.4464C11.3457 19.1549 9.98822 19.1915 8.94934 18.5092C8.69598 18.3428 8.45357 18.1003 8.08494 17.7315C8.06956 17.7162 8.05395 17.7005 8.03811 17.6847C8.02228 17.6689 8.00666 17.6533 7.99127 17.6379C7.6225 17.2693 7.37999 17.0268 7.2136 16.7735C6.53134 15.7346 6.56792 14.3771 7.27645 13.3341C7.44974 13.079 7.69795 12.8309 8.08583 12.4431ZM13.9229 8.14526C13.7609 8.25529 13.5873 8.4256 13.1392 8.87366L12.49 9.5229C12.2851 9.72779 11.9529 9.72779 11.748 9.5229C11.5431 9.318 11.5431 8.98581 11.748 8.78091L12.3973 8.13168C12.4125 8.11646 12.4275 8.10145 12.4423 8.08664C12.83 7.69877 13.0782 7.45056 13.3333 7.27727C14.3763 6.56874 15.7338 6.53216 16.7727 7.21442C17.026 7.38081 17.2684 7.62331 17.6371 7.99208C17.6524 8.00748 17.668 8.02309 17.6839 8.03893C17.6997 8.05477 17.7153 8.07038 17.7307 8.08577C18.0995 8.45439 18.342 8.69679 18.5084 8.95016C19.1907 9.98904 19.1541 11.3465 18.4455 12.3895C18.2723 12.6446 18.0241 12.8928 17.6362 13.2805C17.6214 13.2953 17.6064 13.3103 17.5911 13.3256L16.9419 13.9748C16.737 14.1797 16.4048 14.1797 16.1999 13.9748C15.995 13.7699 15.995 13.4377 16.1999 13.2328L16.8492 12.5836C17.2972 12.1355 17.4675 11.9619 17.5776 11.7999C18.0597 11.0902 18.0691 10.1928 17.6313 9.52617C17.5319 9.37478 17.3741 9.21312 16.9419 8.78091C16.5097 8.34871 16.348 8.19093 16.1967 8.09151C15.53 7.65369 14.6326 7.66313 13.9229 8.14526Z"
    fill="currentColor"
  />
</svg>
