<svg width="25" height="25" fill="none" xmlns="http://www.w3.org/2000/svg">
  <path
    fill-rule="evenodd"
    clip-rule="evenodd"
    d="M11.917 3.25a1 1 0 00-.992.87l-.142 1.078c-.151.035-.3.075-.447.12l-.663-.863a1 1 0 00-1.293-.257l-1.01.583a1 1 0 00-.424 1.248l.416 1.007c-.112.106-.22.214-.326.327l-1.007-.417a1 1 0 00-1.248.424l-.583 1.01a1 1 0 00.257 1.294l.862.662a7.433 7.433 0 00-.12.447l-1.077.143a1 1 0 00-.87.991v1.167a1 1 0 00.87.991l1.078.143c.035.15.075.3.12.447l-.863.662a1 1 0 00-.257 1.293l.584 1.01a1 1 0 001.248.425l1.007-.417c.105.112.214.221.326.327l-.416 1.006a1 1 0 00.424 1.248l1.01.584a1 1 0 001.293-.257l.663-.863c.146.044.295.084.446.12l.142 1.078a1 1 0 00.992.869h1.166a1 1 0 00.992-.87l.142-1.078c.15-.035.3-.075.447-.12l.663.864a1 1 0 001.293.256l1.01-.583a1 1 0 00.424-1.248l-.416-1.007c.112-.105.22-.214.326-.326l1.007.416a1 1 0 001.248-.423l.583-1.01a1 1 0 00-.256-1.294l-.863-.663c.044-.147.084-.296.12-.446l1.078-.143a1 1 0 00.87-.991v-1.167a1 1 0 00-.87-.991l-1.079-.143c-.035-.15-.075-.3-.119-.446l.863-.663a1 1 0 00.257-1.293l-.583-1.01a1 1 0 00-1.249-.425l-1.007.417a7.513 7.513 0 00-.326-.326l.417-1.007a1 1 0 00-.424-1.249l-1.01-.583a1 1 0 00-1.293.257l-.663.862a7.446 7.446 0 00-.448-.12l-.142-1.078a1 1 0 00-.992-.869h-1.166zm-.238 2.801c-.593.075-1.16.23-1.693.453L8.88 5.064l-1.01.583.695 1.68a6.538 6.538 0 00-1.239 1.238L5.647 7.87l-.583 1.01 1.44 1.107a6.456 6.456 0 00-.453 1.692l-1.8.238v1.167l1.8.238c.075.592.23 1.16.453 1.692l-1.44 1.106.584 1.01 1.679-.694c.355.466.772.883 1.238 1.238l-.694 1.68 1.01.583 1.106-1.44c.532.223 1.1.377 1.692.452l.238 1.801h1.166l.238-1.801a6.457 6.457 0 001.693-.453l1.106 1.44 1.01-.583-.695-1.68a6.54 6.54 0 001.239-1.237l1.68.695.582-1.01-1.44-1.107a6.46 6.46 0 00.453-1.692l1.801-.238v-1.167l-1.801-.238a6.458 6.458 0 00-.453-1.692l1.441-1.106-.583-1.01-1.68.694a6.536 6.536 0 00-1.238-1.238l.695-1.68-1.01-.583-1.106 1.44a6.456 6.456 0 00-1.694-.453l-.238-1.801h-1.166l-.238 1.801zm2.246 6.449a1.425 1.425 0 11-2.85 0 1.425 1.425 0 012.85 0zm1 0a2.425 2.425 0 11-4.85 0 2.425 2.425 0 014.85 0z"
    fill="currentColor"
  />
</svg>
