<svg width="15" height="15" fill="none" xmlns="http://www.w3.org/2000/svg">
  <path
    fill-rule="evenodd"
    clip-rule="evenodd"
    d="M7.207 2.793a1 1 0 010 1.414L4.914 6.5H12.5a1 1 0 110 2H4.914l2.293 2.293a1 1 0 11-1.414 1.414l-4-4a1 1 0 010-1.414l4-4a1 1 0 011.414 0z"
    fill="currentColor"
    opacity=".2"
  />
  <path
    fill-rule="evenodd"
    clip-rule="evenodd"
    d="M6.854 3.146a.5.5 0 010 .708L3.707 7H12.5a.5.5 0 010 1H3.707l3.147 3.146a.5.5 0 01-.708.708l-4-4a.5.5 0 010-.708l4-4a.5.5 0 01.708 0z"
    fill="currentColor"
  />
</svg>
