<svg width="15" height="15" fill="none" xmlns="http://www.w3.org/2000/svg">
  <path
    fill-rule="evenodd"
    clip-rule="evenodd"
    d="M6.793 1.793a1 1 0 011.414 0l4 4a1 1 0 01-1.414 1.414L8.5 4.914V12.5a1 1 0 11-2 0V4.914L4.207 7.207a1 1 0 01-1.414-1.414l4-4z"
    fill="currentColor"
    opacity=".2"
  />
  <path
    fill-rule="evenodd"
    clip-rule="evenodd"
    d="M7.146 2.146a.5.5 0 01.708 0l4 4a.5.5 0 01-.708.708L8 3.707V12.5a.5.5 0 01-1 0V3.707L3.854 6.854a.5.5 0 11-.708-.708l4-4z"
    fill="currentColor"
  />
</svg>
