<svg width="15" height="15" fill="none" xmlns="http://www.w3.org/2000/svg">
  <path
    fill-rule="evenodd"
    clip-rule="evenodd"
    d="M11.815 11.52a5.898 5.898 0 10-8.629 0 5.087 5.087 0 00-.055.1l.334.182A5.877 5.877 0 007.5 13.398c1.56 0 2.979-.606 4.034-1.595l.335-.184a5.246 5.246 0 00-.054-.098z"
    fill="currentColor"
    opacity=".15"
  />
  <path
    fill-rule="evenodd"
    clip-rule="evenodd"
    d="M1.127 7.5a6.373 6.373 0 1112.746 0 6.373 6.373 0 01-12.746 0zM7.5 2.077a5.423 5.423 0 00-4.048 9.031A4.969 4.969 0 017.5 9.025c1.67 0 3.146.822 4.049 2.083A5.423 5.423 0 007.5 2.078zm3.349 9.688A4.02 4.02 0 007.5 9.976a4.02 4.02 0 00-3.348 1.79A5.4 5.4 0 007.5 12.924a5.4 5.4 0 003.349-1.158zM5.15 6.505a2.35 2.35 0 114.7 0 2.35 2.35 0 01-4.7 0zm2.35-1.4a1.4 1.4 0 100 2.8 1.4 1.4 0 000-2.8z"
    fill="currentColor"
  />
</svg>
