<svg width="15" height="15" fill="none" xmlns="http://www.w3.org/2000/svg">
  <path
    fill-rule="evenodd"
    clip-rule="evenodd"
    d="M1.75 14L1.75 1L0.250001 1L0.25 14L1.75 14ZM9.50003 7.99999C9.77617 7.99999 10 7.77614 10 7.49999C10 7.22385 9.77617 6.99999 9.50003 6.99999C9.22389 6.99999 9.00003 7.22385 9.00003 7.49999C9.00003 7.77614 9.22389 7.99999 9.50003 7.99999ZM10 1.49999C10 1.77614 9.77617 1.99999 9.50003 1.99999C9.22389 1.99999 9.00003 1.77614 9.00003 1.49999C9.00003 1.22385 9.22389 0.999993 9.50003 0.999993C9.77617 0.999993 10 1.22385 10 1.49999ZM11.5 7.99999C11.7762 7.99999 12 7.77614 12 7.49999C12 7.22385 11.7762 6.99999 11.5 6.99999C11.2239 6.99999 11 7.22385 11 7.49999C11 7.77613 11.2239 7.99999 11.5 7.99999ZM12 1.49999C12 1.77613 11.7762 1.99999 11.5 1.99999C11.2239 1.99999 11 1.77613 11 1.49999C11 1.22385 11.2239 0.999992 11.5 0.999992C11.7762 0.999992 12 1.22385 12 1.49999ZM7.50003 7.99999C7.77617 7.99999 8.00003 7.77614 8.00003 7.49999C8.00003 7.22385 7.77617 6.99999 7.50003 6.99999C7.22389 6.99999 7.00003 7.22385 7.00003 7.49999C7.00003 7.77614 7.22389 7.99999 7.50003 7.99999ZM14 7.49999C14 7.77613 13.7762 7.99999 13.5 7.99999C13.2239 7.99999 13 7.77613 13 7.49999C13 7.22385 13.2239 6.99999 13.5 6.99999C13.7762 6.99999 14 7.22385 14 7.49999ZM7.50003 1.99999C7.77617 1.99999 8.00003 1.77614 8.00003 1.49999C8.00003 1.22385 7.77617 0.999993 7.50003 0.999993C7.22389 0.999993 7.00003 1.22385 7.00003 1.49999C7.00003 1.77613 7.22389 1.99999 7.50003 1.99999ZM14 1.49999C14 1.77613 13.7762 1.99999 13.5 1.99999C13.2239 1.99999 13 1.77613 13 1.49999C13 1.22385 13.2239 0.999992 13.5 0.999993C13.7762 0.999993 14 1.22385 14 1.49999ZM7.50003 9.99999C7.77617 9.99999 8.00003 9.77614 8.00003 9.49999C8.00003 9.22385 7.77617 8.99999 7.50003 8.99999C7.22389 8.99999 7.00003 9.22385 7.00003 9.49999C7.00003 9.77613 7.22389 9.99999 7.50003 9.99999ZM14 9.49999C14 9.77613 13.7762 9.99999 13.5 9.99999C13.2239 9.99999 13 9.77613 13 9.49999C13 9.22385 13.2239 8.99999 13.5 8.99999C13.7762 8.99999 14 9.22385 14 9.49999ZM7.50003 12C7.77617 12 8.00003 11.7761 8.00003 11.5C8.00003 11.2239 7.77617 11 7.50003 11C7.22389 11 7.00003 11.2239 7.00003 11.5C7.00003 11.7761 7.22389 12 7.50003 12ZM14 11.5C14 11.7761 13.7762 12 13.5 12C13.2239 12 13 11.7761 13 11.5C13 11.2238 13.2239 11 13.5 11C13.7762 11 14 11.2238 14 11.5ZM7.50003 5.99999C7.77617 5.99999 8.00003 5.77613 8.00003 5.49999C8.00003 5.22385 7.77617 4.99999 7.50003 4.99999C7.22389 4.99999 7.00003 5.22385 7.00003 5.49999C7.00003 5.77613 7.22389 5.99999 7.50003 5.99999ZM14 5.49999C14 5.77613 13.7762 5.99999 13.5 5.99999C13.2239 5.99999 13 5.77613 13 5.49999C13 5.22385 13.2239 4.99999 13.5 4.99999C13.7762 4.99999 14 5.22385 14 5.49999ZM7.50003 3.99999C7.77617 3.99999 8.00003 3.77613 8.00003 3.49999C8.00003 3.22385 7.77617 2.99999 7.50003 2.99999C7.22389 2.99999 7.00003 3.22385 7.00003 3.49999C7.00003 3.77613 7.22389 3.99999 7.50003 3.99999ZM14 3.49999C14 3.77613 13.7762 3.99999 13.5 3.99999C13.2239 3.99999 13 3.77613 13 3.49999C13 3.22385 13.2239 2.99999 13.5 2.99999C13.7762 2.99999 14 3.22385 14 3.49999ZM5.50003 7.99999C5.77617 7.99999 6.00003 7.77614 6.00003 7.49999C6.00003 7.22385 5.77617 6.99999 5.50003 6.99999C5.22389 6.99999 5.00003 7.22385 5.00003 7.49999C5.00003 7.77614 5.22389 7.99999 5.50003 7.99999ZM6.00003 1.49999C6.00003 1.77614 5.77617 1.99999 5.50003 1.99999C5.22389 1.99999 5.00003 1.77614 5.00003 1.49999C5.00003 1.22385 5.22389 0.999994 5.50003 0.999994C5.77617 0.999994 6.00003 1.22385 6.00003 1.49999ZM3.50003 7.99999C3.77617 7.99999 4.00003 7.77614 4.00003 7.49999C4.00003 7.22385 3.77617 6.99999 3.50003 6.99999C3.22389 6.99999 3.00003 7.22385 3.00003 7.49999C3.00003 7.77614 3.22389 7.99999 3.50003 7.99999ZM4.00003 1.49999C4.00003 1.77614 3.77617 1.99999 3.50003 1.99999C3.22389 1.99999 3.00003 1.77614 3.00003 1.49999C3.00003 1.22385 3.22389 0.999994 3.50003 0.999994C3.77617 0.999994 4.00003 1.22385 4.00003 1.49999ZM9.50003 14C9.77617 14 10 13.7761 10 13.5C10 13.2238 9.77617 13 9.50003 13C9.22389 13 9.00003 13.2238 9.00003 13.5C9.00003 13.7761 9.22389 14 9.50003 14ZM12 13.5C12 13.7761 11.7762 14 11.5 14C11.2239 14 11 13.7761 11 13.5C11 13.2238 11.2239 13 11.5 13C11.7762 13 12 13.2238 12 13.5ZM7.50003 14C7.77617 14 8.00003 13.7761 8.00003 13.5C8.00003 13.2239 7.77617 13 7.50003 13C7.22389 13 7.00003 13.2238 7.00003 13.5C7.00003 13.7761 7.22389 14 7.50003 14ZM14 13.5C14 13.7761 13.7762 14 13.5 14C13.2239 14 13 13.7761 13 13.5C13 13.2238 13.2239 13 13.5 13C13.7762 13 14 13.2238 14 13.5ZM5.50003 14C5.77617 14 6.00003 13.7761 6.00003 13.5C6.00003 13.2239 5.77617 13 5.50003 13C5.22389 13 5.00003 13.2239 5.00003 13.5C5.00003 13.7761 5.22389 14 5.50003 14ZM4.00003 13.5C4.00003 13.7761 3.77617 14 3.50003 14C3.22389 14 3.00003 13.7761 3.00003 13.5C3.00003 13.2239 3.22389 13 3.50003 13C3.77617 13 4.00003 13.2239 4.00003 13.5Z"
    fill="currentColor"
    opacity=".2"
  />
  <path
    fill-rule="evenodd"
    clip-rule="evenodd"
    d="M1.75 14L1.75 1L0.250001 1L0.25 14L1.75 14ZM9.50003 7.99999C9.77617 7.99999 10 7.77614 10 7.49999C10 7.22385 9.77617 6.99999 9.50003 6.99999C9.22389 6.99999 9.00003 7.22385 9.00003 7.49999C9.00003 7.77614 9.22389 7.99999 9.50003 7.99999ZM10 1.49999C10 1.77614 9.77617 1.99999 9.50003 1.99999C9.22389 1.99999 9.00003 1.77614 9.00003 1.49999C9.00003 1.22385 9.22389 0.999993 9.50003 0.999993C9.77617 0.999993 10 1.22385 10 1.49999ZM11.5 7.99999C11.7762 7.99999 12 7.77614 12 7.49999C12 7.22385 11.7762 6.99999 11.5 6.99999C11.2239 6.99999 11 7.22385 11 7.49999C11 7.77613 11.2239 7.99999 11.5 7.99999ZM12 1.49999C12 1.77613 11.7762 1.99999 11.5 1.99999C11.2239 1.99999 11 1.77613 11 1.49999C11 1.22385 11.2239 0.999992 11.5 0.999992C11.7762 0.999992 12 1.22385 12 1.49999ZM7.50003 7.99999C7.77617 7.99999 8.00003 7.77614 8.00003 7.49999C8.00003 7.22385 7.77617 6.99999 7.50003 6.99999C7.22389 6.99999 7.00003 7.22385 7.00003 7.49999C7.00003 7.77614 7.22389 7.99999 7.50003 7.99999ZM14 7.49999C14 7.77613 13.7762 7.99999 13.5 7.99999C13.2239 7.99999 13 7.77613 13 7.49999C13 7.22385 13.2239 6.99999 13.5 6.99999C13.7762 6.99999 14 7.22385 14 7.49999ZM7.50003 1.99999C7.77617 1.99999 8.00003 1.77614 8.00003 1.49999C8.00003 1.22385 7.77617 0.999993 7.50003 0.999993C7.22389 0.999993 7.00003 1.22385 7.00003 1.49999C7.00003 1.77613 7.22389 1.99999 7.50003 1.99999ZM14 1.49999C14 1.77613 13.7762 1.99999 13.5 1.99999C13.2239 1.99999 13 1.77613 13 1.49999C13 1.22385 13.2239 0.999992 13.5 0.999993C13.7762 0.999993 14 1.22385 14 1.49999ZM7.50003 9.99999C7.77617 9.99999 8.00003 9.77614 8.00003 9.49999C8.00003 9.22385 7.77617 8.99999 7.50003 8.99999C7.22389 8.99999 7.00003 9.22385 7.00003 9.49999C7.00003 9.77613 7.22389 9.99999 7.50003 9.99999ZM14 9.49999C14 9.77613 13.7762 9.99999 13.5 9.99999C13.2239 9.99999 13 9.77613 13 9.49999C13 9.22385 13.2239 8.99999 13.5 8.99999C13.7762 8.99999 14 9.22385 14 9.49999ZM7.50003 12C7.77617 12 8.00003 11.7761 8.00003 11.5C8.00003 11.2239 7.77617 11 7.50003 11C7.22389 11 7.00003 11.2239 7.00003 11.5C7.00003 11.7761 7.22389 12 7.50003 12ZM14 11.5C14 11.7761 13.7762 12 13.5 12C13.2239 12 13 11.7761 13 11.5C13 11.2238 13.2239 11 13.5 11C13.7762 11 14 11.2238 14 11.5ZM7.50003 5.99999C7.77617 5.99999 8.00003 5.77613 8.00003 5.49999C8.00003 5.22385 7.77617 4.99999 7.50003 4.99999C7.22389 4.99999 7.00003 5.22385 7.00003 5.49999C7.00003 5.77613 7.22389 5.99999 7.50003 5.99999ZM14 5.49999C14 5.77613 13.7762 5.99999 13.5 5.99999C13.2239 5.99999 13 5.77613 13 5.49999C13 5.22385 13.2239 4.99999 13.5 4.99999C13.7762 4.99999 14 5.22385 14 5.49999ZM7.50003 3.99999C7.77617 3.99999 8.00003 3.77613 8.00003 3.49999C8.00003 3.22385 7.77617 2.99999 7.50003 2.99999C7.22389 2.99999 7.00003 3.22385 7.00003 3.49999C7.00003 3.77613 7.22389 3.99999 7.50003 3.99999ZM14 3.49999C14 3.77613 13.7762 3.99999 13.5 3.99999C13.2239 3.99999 13 3.77613 13 3.49999C13 3.22385 13.2239 2.99999 13.5 2.99999C13.7762 2.99999 14 3.22385 14 3.49999ZM5.50003 7.99999C5.77617 7.99999 6.00003 7.77614 6.00003 7.49999C6.00003 7.22385 5.77617 6.99999 5.50003 6.99999C5.22389 6.99999 5.00003 7.22385 5.00003 7.49999C5.00003 7.77614 5.22389 7.99999 5.50003 7.99999ZM6.00003 1.49999C6.00003 1.77614 5.77617 1.99999 5.50003 1.99999C5.22389 1.99999 5.00003 1.77614 5.00003 1.49999C5.00003 1.22385 5.22389 0.999994 5.50003 0.999994C5.77617 0.999994 6.00003 1.22385 6.00003 1.49999ZM3.50003 7.99999C3.77617 7.99999 4.00003 7.77614 4.00003 7.49999C4.00003 7.22385 3.77617 6.99999 3.50003 6.99999C3.22389 6.99999 3.00003 7.22385 3.00003 7.49999C3.00003 7.77614 3.22389 7.99999 3.50003 7.99999ZM4.00003 1.49999C4.00003 1.77614 3.77617 1.99999 3.50003 1.99999C3.22389 1.99999 3.00003 1.77614 3.00003 1.49999C3.00003 1.22385 3.22389 0.999994 3.50003 0.999994C3.77617 0.999994 4.00003 1.22385 4.00003 1.49999ZM9.50003 14C9.77617 14 10 13.7761 10 13.5C10 13.2238 9.77617 13 9.50003 13C9.22389 13 9.00003 13.2238 9.00003 13.5C9.00003 13.7761 9.22389 14 9.50003 14ZM12 13.5C12 13.7761 11.7762 14 11.5 14C11.2239 14 11 13.7761 11 13.5C11 13.2238 11.2239 13 11.5 13C11.7762 13 12 13.2238 12 13.5ZM7.50003 14C7.77617 14 8.00003 13.7761 8.00003 13.5C8.00003 13.2239 7.77617 13 7.50003 13C7.22389 13 7.00003 13.2238 7.00003 13.5C7.00003 13.7761 7.22389 14 7.50003 14ZM14 13.5C14 13.7761 13.7762 14 13.5 14C13.2239 14 13 13.7761 13 13.5C13 13.2238 13.2239 13 13.5 13C13.7762 13 14 13.2238 14 13.5ZM5.50003 14C5.77617 14 6.00003 13.7761 6.00003 13.5C6.00003 13.2239 5.77617 13 5.50003 13C5.22389 13 5.00003 13.2239 5.00003 13.5C5.00003 13.7761 5.22389 14 5.50003 14ZM4.00003 13.5C4.00003 13.7761 3.77617 14 3.50003 14C3.22389 14 3.00003 13.7761 3.00003 13.5C3.00003 13.2239 3.22389 13 3.50003 13C3.77617 13 4.00003 13.2239 4.00003 13.5Z"
    fill="currentColor"
  />
</svg>
