<svg width="15" height="15" fill="none" xmlns="http://www.w3.org/2000/svg">
  <path
    fill-rule="evenodd"
    clip-rule="evenodd"
    d="M3 4a2 2 0 00-2 2v3a2 2 0 002 2h9a2 2 0 002-2V6a2 2 0 00-2-2H3z"
    fill="currentColor"
    opacity=".2"
  />
  <path
    fill-rule="evenodd"
    clip-rule="evenodd"
    d="M3 5h9a1 1 0 011 1v3a1 1 0 01-1 1H3a1 1 0 01-1-1V6a1 1 0 011-1zM1 6a2 2 0 012-2h9a2 2 0 012 2v3a2 2 0 01-2 2H3a2 2 0 01-2-2V6zm3.5 1a.5.5 0 000 1h6a.5.5 0 000-1h-6z"
    fill="currentColor"
  />
</svg>
