<svg width="15" height="15" fill="none" xmlns="http://www.w3.org/2000/svg">
  <path
    fill-rule="evenodd"
    clip-rule="evenodd"
    d="M6.543 4.543a1 1 0 011.414 0l2.25 2.25a1 1 0 010 1.414l-2.25 2.25a1 1 0 11-1.414-1.414L8.086 7.5 6.543 5.957a1 1 0 010-1.414z"
    fill="currentColor"
    opacity=".2"
  />
  <path
    fill-rule="evenodd"
    clip-rule="evenodd"
    d="M6.932 4.932a.45.45 0 01.636 0l2.25 2.25a.45.45 0 010 .636l-2.25 2.25a.45.45 0 11-.636-.636L8.864 7.5 6.932 5.568a.45.45 0 010-.636z"
    fill="currentColor"
  />
</svg>
