<svg width="15" height="15" fill="none" xmlns="http://www.w3.org/2000/svg">
  <path
    fill-rule="evenodd"
    clip-rule="evenodd"
    d="M4.293 8.707a1 1 0 010-1.414l2.5-2.5a1 1 0 011.414 0l2.5 2.5a1 1 0 01-1.414 1.414L7.5 6.914 5.707 8.707a1 1 0 01-1.414 0z"
    fill="currentColor"
    opacity=".2"
  />
  <path
    fill-rule="evenodd"
    clip-rule="evenodd"
    d="M4.682 8.318a.45.45 0 010-.636l2.5-2.5a.45.45 0 01.636 0l2.5 2.5a.45.45 0 01-.636.636L7.5 6.136 5.318 8.318a.45.45 0 01-.636 0z"
    fill="currentColor"
  />
</svg>
