<svg width="15" height="15" fill="none" xmlns="http://www.w3.org/2000/svg">
  <path
    fill-rule="evenodd"
    clip-rule="evenodd"
    d="M8.707 4.293a1 1 0 010 1.414L6.914 7.5l1.793 1.793a1 1 0 01-1.414 1.414l-2.5-2.5a1 1 0 010-1.414l2.5-2.5a1 1 0 011.414 0z"
    fill="currentColor"
    opacity=".2"
  />
  <path
    fill-rule="evenodd"
    clip-rule="evenodd"
    d="M8.318 4.682a.45.45 0 010 .636L6.136 7.5l2.182 2.182a.45.45 0 01-.636.636l-2.5-2.5a.45.45 0 010-.636l2.5-2.5a.45.45 0 01.636 0z"
    fill="currentColor"
  />
</svg>
