<svg width="15" height="15" fill="none" xmlns="http://www.w3.org/2000/svg">
  <path
    fill-rule="evenodd"
    clip-rule="evenodd"
    d="M13.3977 7.49988C13.3977 10.7571 10.7571 13.3977 7.49988 13.3977C4.2426 13.3977 1.60205 10.7571 1.60205 7.49988C1.60205 4.2426 4.2426 1.60205 7.49988 1.60205C10.7571 1.60205 13.3977 4.2426 13.3977 7.49988Z"
    fill="currentColor"
    opacity=".2"
  />
  <path
    fill-rule="evenodd"
    clip-rule="evenodd"
    d="M7.49988 1.12705C3.98026 1.12705 1.12704 3.98027 1.12704 7.49988C1.12704 11.0195 3.98026 13.8727 7.49988 13.8727C11.0195 13.8727 13.8727 11.0195 13.8727 7.49988C13.8727 3.98027 11.0195 1.12705 7.49988 1.12705ZM2.07704 7.49988C2.07704 4.50494 4.50493 2.07705 7.49988 2.07705C10.4948 2.07705 12.9227 4.50494 12.9227 7.49988C12.9227 10.4948 10.4948 12.9227 7.49988 12.9227C4.50493 12.9227 2.07704 10.4948 2.07704 7.49988ZM9.91602 5.77735C10.0692 5.54759 10.0071 5.23715 9.77734 5.08398C9.54758 4.9308 9.23715 4.99289 9.08397 5.22265L6.75939 8.70952L5.85737 7.78767C5.66424 7.5903 5.34768 7.58686 5.1503 7.77999C4.95293 7.97312 4.94949 8.28968 5.14262 8.48705L6.47595 9.84969C6.58138 9.95744 6.7298 10.0119 6.87989 9.99783C7.02998 9.98379 7.16573 9.90278 7.24935 9.77735L9.91602 5.77735Z"
    fill="currentColor"
  />
</svg>
