<svg width="15" height="15" fill="none" xmlns="http://www.w3.org/2000/svg">
  <path
    fill-rule="evenodd"
    clip-rule="evenodd"
    d="M11.809 3.204a1.25 1.25 0 01.362 1.73l-4.25 6.5a1.25 1.25 0 01-1.887.24l-2.75-2.5a1.25 1.25 0 111.682-1.849L6.63 8.839l3.448-5.273a1.25 1.25 0 011.73-.362z"
    fill="currentColor"
    opacity=".2"
  />
  <path
    fill-rule="evenodd"
    clip-rule="evenodd"
    d="M11.467 3.727c.289.189.37.576.181.865l-4.25 6.5a.625.625 0 01-.944.12l-2.75-2.5a.625.625 0 01.841-.925l2.208 2.007 3.849-5.886a.625.625 0 01.865-.181z"
    fill="currentColor"
  />
</svg>
