<svg width="15" height="15" fill="none" xmlns="http://www.w3.org/2000/svg">
  <path
    fill-rule="evenodd"
    clip-rule="evenodd"
    d="M13.3977 7.49988C13.3977 10.7571 10.7571 13.3977 7.49988 13.3977C4.2426 13.3977 1.60205 10.7571 1.60205 7.49988C1.60205 4.2426 4.2426 1.60205 7.49988 1.60205C10.7571 1.60205 13.3977 4.2426 13.3977 7.49988Z"
    fill="currentColor"
    opacity=".2"
  />
  <path
    fill-rule="evenodd"
    clip-rule="evenodd"
    d="M7.49988 1.12705C3.98026 1.12705 1.12704 3.98027 1.12704 7.49988C1.12704 11.0195 3.98026 13.8727 7.49988 13.8727C11.0195 13.8727 13.8727 11.0195 13.8727 7.49988C13.8727 3.98027 11.0195 1.12705 7.49988 1.12705ZM2.07704 7.49988C2.07704 4.50494 4.50493 2.07705 7.49988 2.07705C10.4948 2.07705 12.9227 4.50494 12.9227 7.49988C12.9227 10.4948 10.4948 12.9227 7.49988 12.9227C4.50493 12.9227 2.07704 10.4948 2.07704 7.49988ZM10.1589 5.53775C10.3178 5.31192 10.2636 5.00002 10.0377 4.8411C9.81191 4.68218 9.50001 4.73642 9.34109 4.96225L6.51973 8.97155L5.35677 7.78707C5.16331 7.59002 4.84674 7.58712 4.6497 7.78058C4.45265 7.97405 4.44975 8.29062 4.64321 8.48766L6.22655 10.1003C6.33051 10.2062 6.47614 10.2604 6.62404 10.2483C6.77194 10.2363 6.90683 10.1591 6.99223 10.0377L10.1589 5.53775Z"
    fill="currentColor"
  />
</svg>
