<svg width="15" height="15" fill="none" xmlns="http://www.w3.org/2000/svg">
  <path
    fill-rule="evenodd"
    clip-rule="evenodd"
    d="M5.293 2.793a1 1 0 011.414 0l4 4a1 1 0 010 1.414l-4 4a1 1 0 11-1.414-1.414L8.586 7.5 5.293 4.207a1 1 0 010-1.414z"
    fill="currentColor"
    opacity=".2"
  />
  <path
    fill-rule="evenodd"
    clip-rule="evenodd"
    d="M5.647 3.146a.5.5 0 01.707 0l4 4a.5.5 0 010 .707l-4 4a.5.5 0 01-.707-.707L9.293 7.5 5.647 3.853a.5.5 0 010-.707z"
    fill="currentColor"
  />
</svg>
