<svg width="15" height="15" fill="none" xmlns="http://www.w3.org/2000/svg">
  <path
    fill-rule="evenodd"
    clip-rule="evenodd"
    d="M2.793 9.707a1 1 0 001.414 0L7.5 6.414l3.293 3.293a1 1 0 001.414-1.414l-4-4a1 1 0 00-1.414 0l-4 4a1 1 0 000 1.414z"
    fill="currentColor"
    opacity=".2"
  />
  <path
    fill-rule="evenodd"
    clip-rule="evenodd"
    d="M3.146 9.354a.5.5 0 00.708 0L7.5 5.707l3.646 3.647a.5.5 0 00.708-.708l-4-4a.5.5 0 00-.708 0l-4 4a.5.5 0 000 .708z"
    fill="currentColor"
  />
</svg>
