<svg width="15" height="15" fill="none" xmlns="http://www.w3.org/2000/svg">
  <path
    fill-rule="evenodd"
    clip-rule="evenodd"
    d="M5.5 2.5h4v10h-4v-10zm9.354 2.646a.5.5 0 010 .708L13.207 7.5l1.647 1.646a.5.5 0 01-.708.708l-2-2a.5.5 0 010-.708l2-2a.5.5 0 01.708 0zm-14.708 4a.5.5 0 10.708.708l2-2a.5.5 0 000-.708l-2-2a.5.5 0 10-.708.708L1.793 7.5.146 9.146z"
    fill="currentColor"
    opacity=".2"
  />
  <path
    fill-rule="evenodd"
    clip-rule="evenodd"
    d="M5 2h5v11H5V2zm4 1H6v9h3V3zm5.854 2.146a.5.5 0 010 .708L13.207 7.5l1.647 1.646a.5.5 0 01-.708.708l-2-2a.5.5 0 010-.708l2-2a.5.5 0 01.708 0zm-14.708 4a.5.5 0 10.708.708l2-2a.5.5 0 000-.708l-2-2a.5.5 0 10-.708.708L1.793 7.5.146 9.146z"
    fill="currentColor"
  />
</svg>
