<svg width="15" height="15" fill="none" xmlns="http://www.w3.org/2000/svg">
  <g opacity=".15" clip-path="url(#clip0)">
    <path
      fill-rule="evenodd"
      clip-rule="evenodd"
      d="M5 2h5v11H5V2zm9.854 3.146a.5.5 0 010 .708L13.207 7.5l1.647 1.646a.5.5 0 01-.708.708l-2-2a.5.5 0 010-.708l2-2a.5.5 0 01.708 0zm-14.708 4a.5.5 0 10.708.708l2-2a.5.5 0 000-.708l-2-2a.5.5 0 10-.708.708L1.793 7.5.146 9.146z"
      fill="currentColor"
    />
  </g>
  <g clip-path="url(#clip1)">
    <path
      fill-rule="evenodd"
      clip-rule="evenodd"
      d="M9 3H6v9h3V3zM6 2H5v11h5V2H6zm8.854 3.146a.5.5 0 010 .708L13.207 7.5l1.647 1.646a.5.5 0 01-.708.708l-2-2a.5.5 0 010-.708l2-2a.5.5 0 01.708 0zm-14.708 4a.5.5 0 10.708.708l2-2a.5.5 0 000-.708l-2-2a.5.5 0 10-.708.708L1.793 7.5.146 9.146z"
      fill="currentColor"
    />
  </g>
  <defs>
    <clipPath id="clip0"><path fill="currentColor" d="M0 0h15v15H0z" /></clipPath>
    <clipPath id="clip1"><path fill="currentColor" d="M0 0h15v15H0z" /></clipPath>
  </defs>
</svg>
