<svg width="15" height="15" fill="none" xmlns="http://www.w3.org/2000/svg">
  <path
    fill-rule="evenodd"
    clip-rule="evenodd"
    d="M5.5 2.5H9.5V12.5H5.5V2.5ZM14.8536 5.14645C15.0488 5.34171 15.0488 5.65829 14.8536 5.85355L13.2071 7.5L14.8536 9.14645C15.0488 9.34171 15.0488 9.65829 14.8536 9.85355C14.6583 10.0488 14.3417 10.0488 14.1464 9.85355L12.1464 7.85355C11.9512 7.65829 11.9512 7.34171 12.1464 7.14645L14.1464 5.14645C14.3417 4.95118 14.6583 4.95118 14.8536 5.14645ZM0.146447 9.14645C-0.0488155 9.34171 -0.0488154 9.65829 0.146447 9.85355C0.341709 10.0488 0.658291 10.0488 0.853553 9.85355L2.85355 7.85355C2.94732 7.75979 3 7.63261 3 7.5C3 7.36739 2.94732 7.24021 2.85355 7.14645L0.853553 5.14645C0.658291 4.95118 0.341709 4.95118 0.146447 5.14645C-0.0488156 5.34171 -0.0488155 5.65829 0.146447 5.85355L1.79289 7.5L0.146447 9.14645Z"
    fill="currentColor"
    opacity=".2"
  />
  <path
    fill-rule="evenodd"
    clip-rule="evenodd"
    d="M5 2.5C5 2.22386 5.22386 2 5.5 2H9.5C9.77614 2 10 2.22386 10 2.5V12.5C10 12.7761 9.77614 13 9.5 13H5.5C5.22386 13 5 12.7761 5 12.5V2.5ZM9 3H6V12H9V3ZM14.8536 5.14645C15.0488 5.34171 15.0488 5.65829 14.8536 5.85355L13.2071 7.5L14.8536 9.14645C15.0488 9.34171 15.0488 9.65829 14.8536 9.85355C14.6583 10.0488 14.3417 10.0488 14.1464 9.85355L12.1464 7.85355C11.9512 7.65829 11.9512 7.34171 12.1464 7.14645L14.1464 5.14645C14.3417 4.95118 14.6583 4.95118 14.8536 5.14645ZM0.146447 9.14645C-0.0488155 9.34171 -0.0488154 9.65829 0.146447 9.85355C0.341709 10.0488 0.658291 10.0488 0.853553 9.85355L2.85355 7.85355C2.94732 7.75979 3 7.63261 3 7.5C3 7.36739 2.94732 7.24021 2.85355 7.14645L0.853553 5.14645C0.658291 4.95118 0.341709 4.95118 0.146447 5.14645C-0.0488156 5.34171 -0.0488155 5.65829 0.146447 5.85355L1.79289 7.5L0.146447 9.14645Z"
    fill="currentColor"
  />
</svg>
