<svg width="15" height="15" fill="none" xmlns="http://www.w3.org/2000/svg">
  <path
    fill-rule="evenodd"
    clip-rule="evenodd"
    d="M8 .5a.5.5 0 00-1 0v2.655A4.375 4.375 0 003.155 7H.5a.5.5 0 000 1h2.655A4.375 4.375 0 007 11.845V14.5a.5.5 0 001 0v-2.656A4.375 4.375 0 0011.844 8H14.5a.5.5 0 000-1h-2.655A4.375 4.375 0 008 3.155V.5zM7 4.113A3.425 3.425 0 004.113 7H7V4.113zM8 7V4.113A3.425 3.425 0 0110.886 7H8zM7 8H4.113A3.425 3.425 0 007 10.886V8zm1 2.886V8h2.886A3.425 3.425 0 018 10.886z"
    fill="currentColor"
    opacity=".2"
  />
  <path
    fill-rule="evenodd"
    clip-rule="evenodd"
    d="M8 .5a.5.5 0 00-1 0v2.655A4.375 4.375 0 003.155 7H.5a.5.5 0 000 1h2.655A4.375 4.375 0 007 11.845V14.5a.5.5 0 001 0v-2.656A4.375 4.375 0 0011.844 8H14.5a.5.5 0 000-1h-2.655A4.375 4.375 0 008 3.155V.5zM7 4.113A3.425 3.425 0 004.113 7H7V4.113zM8 7V4.113A3.425 3.425 0 0110.886 7H8zM7 8H4.113A3.425 3.425 0 007 10.886V8zm1 2.886V8h2.886A3.425 3.425 0 018 10.886z"
    fill="currentColor"
  />
</svg>
