<svg width="15" height="15" fill="none" xmlns="http://www.w3.org/2000/svg">
  <path
    fill-rule="evenodd"
    clip-rule="evenodd"
    d="M7.5 1.5C7.61857 1.5 7.7275 1.54127 7.81321 1.61023C10.821 1.76767 13.2321 4.17866 13.3895 7.1865C13.4586 7.27225 13.5 7.38129 13.5 7.5C13.5 7.61871 13.4586 7.72776 13.3895 7.81352C13.2319 10.8211 10.8211 13.2319 7.81352 13.3895C7.72776 13.4586 7.61871 13.5 7.5 13.5C7.38129 13.5 7.27225 13.4586 7.1865 13.3895C4.17866 13.2321 1.76767 10.821 1.61023 7.8132C1.54127 7.7275 1.5 7.61857 1.5 7.5C1.5 7.38144 1.54127 7.27252 1.61022 7.18681C1.76754 4.17875 4.17874 1.76754 7.18681 1.61022C7.27252 1.54127 7.38144 1.5 7.5 1.5Z"
    fill="currentColor"
    opacity=".2"
  />
  <path
    fill-rule="evenodd"
    clip-rule="evenodd"
    d="M1.12708 7.49988C1.12708 3.98027 3.98029 1.12705 7.49991 1.12705C11.0195 1.12705 13.8727 3.98027 13.8727 7.49988C13.8727 11.0195 11.0195 13.8727 7.49991 13.8727C3.98029 13.8727 1.12708 11.0195 1.12708 7.49988ZM2.09981 7C2.33707 4.40399 4.40401 2.33705 7.00002 2.09979V4.5C7.00002 4.77614 7.22388 5 7.50002 5C7.77617 5 8.00002 4.77614 8.00002 4.5V2.09981C10.5959 2.33718 12.6627 4.40407 12.9 7H10.5C10.2239 7 10 7.22386 10 7.5C10 7.77614 10.2239 8 10.5 8H12.9C12.6626 10.5958 10.5958 12.6626 8.00002 12.9V10.5C8.00002 10.2239 7.77617 10 7.50002 10C7.22388 10 7.00002 10.2239 7.00002 10.5V12.9C4.4041 12.6627 2.3372 10.5959 2.09983 8H4.50002C4.77617 8 5.00002 7.77614 5.00002 7.5C5.00002 7.22386 4.77617 7 4.50002 7H2.09981Z"
    fill="currentColor"
  />
</svg>
