<svg width="15" height="15" fill="none" xmlns="http://www.w3.org/2000/svg">
  <path
    fill-rule="evenodd"
    clip-rule="evenodd"
    d="M8 .5a.5.5 0 00-1 0v2.527A4.502 4.502 0 003.027 7H.5a.5.5 0 000 1h2.527A4.502 4.502 0 007 11.973V14.5a.5.5 0 001 0v-2.527A4.502 4.502 0 0011.973 8H14.5a.5.5 0 000-1h-2.527A4.502 4.502 0 008 3.027V.5z"
    fill="currentColor"
    opacity=".2"
  />
  <path
    fill-rule="evenodd"
    clip-rule="evenodd"
    d="M8 .5a.5.5 0 00-1 0v2.527A4.502 4.502 0 003.027 7H.5a.5.5 0 000 1h2.527A4.502 4.502 0 007 11.973V14.5a.5.5 0 001 0v-2.527A4.502 4.502 0 0011.973 8H14.5a.5.5 0 000-1h-2.527A4.502 4.502 0 008 3.027V.5zM7 4.035A3.502 3.502 0 004.035 7H7V4.035zM8 7V4.035A3.502 3.502 0 0110.965 7H8zM7 8H4.035A3.502 3.502 0 007 10.965V8zm1 2.965V8h2.965A3.502 3.502 0 018 10.965z"
    fill="currentColor"
  />
</svg>
