<svg width="15" height="15" fill="none" xmlns="http://www.w3.org/2000/svg">
  <path
    fill-rule="evenodd"
    clip-rule="evenodd"
    d="M8.625 2.5a1.125 1.125 0 11-2.25 0 1.125 1.125 0 012.25 0zm0 5a1.125 1.125 0 11-2.25 0 1.125 1.125 0 012.25 0zM7.5 13.625a1.125 1.125 0 100-2.25 1.125 1.125 0 000 2.25z"
    fill="currentColor"
    opacity=".15"
  />
  <path
    fill-rule="evenodd"
    clip-rule="evenodd"
    d="M9.625 2.5a2.125 2.125 0 11-4.25 0 2.125 2.125 0 014.25 0zM7.5 3.625a1.125 1.125 0 100-2.25 1.125 1.125 0 000 2.25zM9.625 7.5a2.125 2.125 0 11-4.25 0 2.125 2.125 0 014.25 0zM7.5 8.625a1.125 1.125 0 100-2.25 1.125 1.125 0 000 2.25zm0 6a2.125 2.125 0 100-4.25 2.125 2.125 0 000 4.25zM8.625 12.5a1.125 1.125 0 11-2.25 0 1.125 1.125 0 012.25 0z"
    fill="currentColor"
  />
</svg>
