<svg width="15" height="15" fill="none" xmlns="http://www.w3.org/2000/svg">
  <path
    fill-rule="evenodd"
    clip-rule="evenodd"
    d="M4.207 1.793a1 1 0 00-1.414 1.414l4 4a1 1 0 001.414 0l4-4a1 1 0 00-1.414-1.414L7.5 5.086 4.207 1.793zm0 6a1 1 0 00-1.414 1.414l4 4a1 1 0 001.414 0l4-4a1 1 0 00-1.414-1.414L7.5 11.086 4.207 7.793z"
    fill="currentColor"
    opacity=".2"
  />
  <path
    fill-rule="evenodd"
    clip-rule="evenodd"
    d="M3.854 2.146a.5.5 0 10-.708.708l4 4a.5.5 0 00.708 0l4-4a.5.5 0 00-.708-.708L7.5 5.793 3.854 2.146zm0 6a.5.5 0 10-.708.708l4 4a.5.5 0 00.708 0l4-4a.5.5 0 00-.708-.708L7.5 11.793 3.854 8.146z"
    fill="currentColor"
  />
</svg>
