<svg width="15" height="15" fill="none" xmlns="http://www.w3.org/2000/svg">
  <g opacity=".2">
    <path d="M0 0h15v15H0V0z" fill="currentColor" />
    <path
      fill-rule="evenodd"
      clip-rule="evenodd"
      d="M7.07 1.5h.858l.356 1.568c.659.116 1.268.375 1.795.744l1.36-.857.607.606-.858 1.36c.37.527.628 1.137.744 1.795l1.568.356v.857l-1.568.355a4.476 4.476 0 01-.744 1.796l.857 1.36-.606.606-1.36-.857a4.476 4.476 0 01-1.795.743L7.928 13.5h-.857l-.356-1.568a4.477 4.477 0 01-1.794-.744l-1.36.858-.607-.606.858-1.36a4.476 4.476 0 01-.744-1.795L1.5 7.929v-.857l1.568-.356a4.476 4.476 0 01.744-1.794L2.954 3.56l.606-.606 1.36.857a4.476 4.476 0 011.795-.744L7.071 1.5z"
      fill="currentColor"
    />
  </g>
  <path d="M0 0h15v15H0V0z" fill="currentColor" />
  <path
    fill-rule="evenodd"
    clip-rule="evenodd"
    d="M7.071.65a.85.85 0 00-.829.662l-.238 1.05c-.379.11-.74.262-1.08.448l-.91-.574a.85.85 0 00-1.055.118l-.606.606a.85.85 0 00-.118 1.054l.574.912c-.186.339-.337.7-.447 1.079l-1.05.238a.85.85 0 00-.662.829v.857a.85.85 0 00.662.829l1.05.238c.11.379.261.74.448 1.08l-.575.91a.85.85 0 00.118 1.055l.606.606a.85.85 0 001.055.118l.911-.574c.339.186.7.337 1.079.447l.238 1.05a.85.85 0 00.829.662h.857a.85.85 0 00.83-.662l.237-1.05c.38-.11.74-.26 1.08-.447l.91.574a.85.85 0 001.055-.118l.606-.606a.85.85 0 00.118-1.054l-.574-.911c.187-.34.338-.7.448-1.08l1.05-.238a.85.85 0 00.662-.829v-.857a.85.85 0 00-.662-.83l-1.05-.237c-.11-.38-.26-.74-.447-1.08l.574-.91a.85.85 0 00-.118-1.055l-.606-.606a.85.85 0 00-1.055-.118l-.91.574a5.32 5.32 0 00-1.08-.448l-.239-1.05A.85.85 0 007.928.65h-.857zm-2.15 3.162a4.476 4.476 0 011.794-.744L7.071 1.5h.857l.356 1.568c.659.116 1.268.375 1.795.744l1.36-.857.607.606-.858 1.36c.37.527.628 1.136.744 1.795l1.568.356v.857l-1.568.355a4.475 4.475 0 01-.744 1.796l.857 1.36-.606.606-1.36-.857a4.477 4.477 0 01-1.795.743L7.928 13.5h-.857l-.356-1.568a4.476 4.476 0 01-1.794-.744l-1.36.858-.607-.606.858-1.36a4.476 4.476 0 01-.744-1.795L1.5 7.929v-.857l1.568-.356a4.475 4.475 0 01.744-1.794L2.954 3.56l.606-.606 1.36.857zM9.025 7.5a1.525 1.525 0 11-3.05 0 1.525 1.525 0 013.05 0zm.9 0a2.425 2.425 0 11-4.85 0 2.425 2.425 0 014.85 0z"
    fill="currentColor"
  />
</svg>
