<svg width="15" height="15" fill="none" xmlns="http://www.w3.org/2000/svg">
  <path
    fill-rule="evenodd"
    clip-rule="evenodd"
    d="M14 7.5a6.5 6.5 0 11-13 0 6.5 6.5 0 0113 0z"
    fill="currentColor"
    opacity=".15"
  />
  <path
    fill-rule="evenodd"
    clip-rule="evenodd"
    d="M7.5 13a5.5 5.5 0 100-11 5.5 5.5 0 000 11zm0 1a6.5 6.5 0 100-13 6.5 6.5 0 000 13zm0-8a.5.5 0 01.5.5v4a.5.5 0 01-1 0v-4a.5.5 0 01.5-.5zm0-.875a.625.625 0 100-1.25.625.625 0 000 1.25z"
    fill="currentColor"
  />
</svg>
