<svg width="15" height="15" fill="none" xmlns="http://www.w3.org/2000/svg">
  <path
    fill-rule="evenodd"
    clip-rule="evenodd"
    d="M7.5 13.398a5.898 5.898 0 100-11.796 5.898 5.898 0 000 11.796z"
    fill="currentColor"
    opacity=".2"
  />
  <path
    fill-rule="evenodd"
    clip-rule="evenodd"
    d="M1.127 7.5a6.373 6.373 0 1112.746 0 6.373 6.373 0 01-12.746 0zM7.5 2.077a5.423 5.423 0 100 10.846 5.423 5.423 0 000-10.846zM6 6h1.5a.5.5 0 01.5.5V10H9v1H6v-1H7V7H6V6zm1.505-.87a.625.625 0 100-1.25.625.625 0 000 1.25z"
    fill="currentColor"
  />
</svg>
