<svg width="15" height="15" fill="none" xmlns="http://www.w3.org/2000/svg">
  <path
    fill-rule="evenodd"
    clip-rule="evenodd"
    d="M7.49988 13.3977C10.7571 13.3977 13.3977 10.7571 13.3977 7.49988C13.3977 4.2426 10.7571 1.60205 7.49988 1.60205C4.2426 1.60205 1.60205 4.2426 1.60205 7.49988C1.60205 10.7571 4.2426 13.3977 7.49988 13.3977Z"
    fill="currentColor"
    opacity=".2"
  />
  <path
    fill-rule="evenodd"
    clip-rule="evenodd"
    d="M1.12708 7.49988C1.12708 3.98027 3.98029 1.12705 7.49991 1.12705C11.0195 1.12705 13.8727 3.98027 13.8727 7.49988C13.8727 11.0195 11.0195 13.8727 7.49991 13.8727C3.98029 13.8727 1.12708 11.0195 1.12708 7.49988ZM7.49991 2.07705C4.50496 2.07705 2.07708 4.50494 2.07708 7.49988C2.07708 10.4948 4.50497 12.9227 7.49991 12.9227C10.4948 12.9227 12.9227 10.4948 12.9227 7.49988C12.9227 4.50494 10.4948 2.07705 7.49991 2.07705ZM6.00002 6H6.50002H7.50002C7.77617 6 8.00002 6.22386 8.00002 6.5V10H8.00117H8.006H8.01087H8.01576H8.02068H8.02563H8.03061H8.03562H8.04066H8.04572H8.05082H8.05595H8.0611H8.06629H8.0715H8.07674H8.08202H8.08732H8.09266H8.09802H8.10341H8.10884H8.11429H8.11978H8.12529H8.13084H8.13641H8.14202H8.14766H8.15333H8.15903H8.16476H8.17052H8.17631H8.18213H8.18799H8.19388H8.1998H8.20574H8.21173H8.21774H8.22378H8.22986H8.23597H8.24211H8.24828H8.25449H8.26073H8.267H8.2733H8.27964H8.286H8.2924H8.29884H8.3053H8.3118H8.31833H8.3249H8.3315H8.33813H8.34479H8.35149H8.35822H8.36499H8.37179H8.37862H8.38549H8.39239H8.39932H8.40629H8.4133H8.42033H8.4274H8.43451H8.44165H8.44883H8.45603H8.46328H8.47056H8.47787H8.48522H8.49261H8.50002H9.00002V11H8.50002H8.49261H8.48522H8.47787H8.47056H8.46328H8.45603H8.44883H8.44165H8.43451H8.4274H8.42033H8.4133H8.40629H8.39932H8.39239H8.38549H8.37862H8.37179H8.36499H8.35822H8.35149H8.34479H8.33813H8.3315H8.3249H8.31833H8.3118H8.3053H8.29884H8.2924H8.286H8.27964H8.2733H8.267H8.26073H8.25449H8.24828H8.24211H8.23597H8.22986H8.22378H8.21774H8.21173H8.20574H8.1998H8.19388H8.18799H8.18213H8.17631H8.17052H8.16476H8.15903H8.15333H8.14766H8.14202H8.13641H8.13084H8.12529H8.11978H8.11429H8.10884H8.10341H8.09802H8.09266H8.08732H8.08202H8.07674H8.0715H8.06629H8.0611H8.05595H8.05082H8.04572H8.04066H8.03562H8.03061H8.02563H8.02068H8.01576H8.01087H8.006H8.00117H7.99636H7.99158H7.98683H7.98211H7.97742H7.97275H7.96811H7.96351H7.95892H7.95437H7.94985H7.94535H7.94088H7.93644H7.93202H7.92763H7.92327H7.91894H7.91463H7.91035H7.9061H7.90188H7.89768H7.89351H7.88936H7.88524H7.88115H7.87709H7.87305H7.86903H7.86505H7.86109H7.85715H7.85324H7.84936H7.8455H7.84167H7.83786H7.83408H7.83033H7.8266H7.8229H7.81922H7.81556H7.81193H7.80833H7.80475H7.8012H7.79767H7.79416H7.79068H7.78722H7.78379H7.78038H7.777H7.77364H7.77031H7.767H7.76371H7.76045H7.75721H7.75399H7.7508H7.74763H7.74448H7.74136H7.73826H7.73519H7.73213H7.7291H7.7261H7.72311H7.72015H7.71722H7.7143H7.71141H7.70854H7.70569H7.70286H7.70006H7.69728H7.69452H7.69178H7.68906H7.68637H7.6837H7.68104H7.67842H7.67581H7.67322H7.67066H7.66811H7.66559H7.66309H7.66061H7.65815H7.65571H7.65329H7.65089H7.64852H7.64616H7.64382H7.64151H7.63921H7.63694H7.63468H7.63245H7.63023H7.62804H7.62586H7.62371H7.62157H7.61945H7.61736H7.61528H7.61322H7.61118H7.60916H7.60716H7.60518H7.60321H7.60127H7.59934H7.59744H7.59555H7.59368H7.59183H7.58999H7.58818H7.58638H7.5846H7.58284H7.5811H7.57937H7.57767H7.57598H7.57431H7.57265H7.57101H7.56939H7.56779H7.56621H7.56464H7.56309H7.56155H7.56004H7.55854H7.55705H7.55558H7.55413H7.5527H7.55128H7.54988H7.5485H7.54713H7.54577H7.54444H7.54312H7.54181H7.54052H7.53925H7.53799H7.53675H7.53552H7.53431H7.53311H7.53193H7.53076H7.52961H7.52847H7.52735H7.52624H7.52515H7.52407H7.52391H7.52389H7.52387H7.52384H7.52382H7.52378H7.52377H7.52374H7.52373H7.52369H7.52368H7.52364H7.52362H7.52358H7.52355H7.52352H7.52348H7.52345H7.5234H7.52338H7.52331H7.5233H7.52322H7.52313H7.52312H7.52304H7.52301H7.52294H7.52289H7.52284H7.52277H7.52273H7.52264H7.52262H7.5225H7.52238H7.52235H7.52226H7.52219H7.52213H7.52203H7.52199H7.52196H7.52186H7.52172H7.52168H7.52157H7.52149H7.52142H7.5213H7.52127H7.52112H7.52109H7.52096H7.52093H7.52088H7.52079H7.52066H7.52063H7.52046H7.52043H7.52029H7.52019H7.52011H7.51994H7.51993H7.51991H7.51975H7.51969H7.51956H7.51942H7.51938H7.51919H7.51915H7.51899H7.5189H7.51887H7.5188H7.5186H7.51857H7.5184H7.51827H7.5182H7.51799H7.51796H7.51791H7.51779H7.51764H7.51758H7.51736H7.51731H7.51715H7.51697H7.51694H7.51672H7.51662H7.5165H7.51628H7.51626H7.51606H7.51597H7.51589H7.51584H7.51561H7.51551H7.51539H7.51516H7.51513H7.51502H7.51493H7.51473H7.5147H7.51447H7.51432H7.51424H7.51408H7.51401H7.5139H7.51378H7.51355H7.51347H7.51331H7.51316H7.51308H7.51303H7.51285H7.51261H7.51258H7.51238H7.51225H7.51214H7.51212H7.51191H7.51167H7.51164H7.51144H7.51135H7.5112H7.51116H7.51097H7.51073H7.51067H7.5105H7.51047H7.51027H7.51017H7.51004H7.5098H7.50965H7.5096H7.50957H7.50934H7.50912H7.50911H7.50888H7.50875H7.50866H7.50859H7.50843H7.50821H7.50804H7.50798H7.50791H7.50776H7.50754H7.50748H7.50732H7.5071H7.50708H7.50691H7.50689H7.50667H7.50646H7.50632H7.50626H7.50625H7.50604H7.50584H7.50573H7.50563H7.50546H7.50543H7.50523H7.50512H7.50504H7.50484H7.50467H7.50465H7.50451H7.50446H7.50427H7.50409H7.50391H7.50389H7.50388H7.50373H7.50356H7.50339H7.50324H7.50322H7.50313H7.50306H7.5029H7.50274H7.50258H7.50243H7.50238H7.50229H7.50214H7.50201H7.50192H7.50187H7.50174H7.50164H7.50161H7.50149H7.50137H7.50126H7.50124H7.50115H7.50104H7.50094H7.50091H7.50085H7.50076H7.50067H7.50059H7.50055H7.50052H7.50044H7.50038H7.50032H7.50026H7.50021H7.5002H7.50017H7.50013H7.5001H7.50007H7.50005H7.50004H7.50003H7.50001H7.5H7.49998H7.49995H7.49992H7.49988H7.49985H7.49983H7.49978H7.49973H7.49967H7.4996H7.49953H7.4995H7.49946H7.49938H7.49929H7.4992H7.49914H7.4991H7.499H7.4989H7.49881H7.49879H7.49868H7.49856H7.49844H7.49841H7.49831H7.49818H7.49813H7.49804H7.4979H7.49776H7.49767H7.49762H7.49747H7.49731H7.49715H7.49699H7.49692H7.49683H7.49681H7.49666H7.49649H7.49631H7.49617H7.49616H7.49614H7.49596H7.49577H7.49559H7.49554H7.4954H7.49538H7.49521H7.49501H7.49492H7.49482H7.49462H7.49459H7.49442H7.49432H7.49421H7.49401H7.4938H7.49379H7.49372H7.49359H7.49338H7.49316H7.49314H7.49297H7.49295H7.49273H7.49257H7.49251H7.49229H7.49214H7.49207H7.49201H7.49184H7.49162H7.49146H7.49139H7.4913H7.49116H7.49094H7.49092H7.49071H7.49048H7.49044H7.4904H7.49025H7.49001H7.48988H7.48978H7.48958H7.48955H7.48938H7.48931H7.48908H7.48889H7.48885H7.48869H7.48861H7.4884H7.48838H7.48814H7.48793H7.48791H7.4878H7.48767H7.48747H7.48744H7.4872H7.48702H7.48697H7.48689H7.48673H7.48658H7.4865H7.48627H7.48615H7.48604H7.48597H7.48581H7.48573H7.48557H7.48534H7.48532H7.48512H7.48503H7.48492H7.48489H7.48466H7.48453H7.48444H7.48421H7.48416H7.48408H7.48399H7.48379H7.48377H7.48355H7.48343H7.48333H7.48312H7.48308H7.4829H7.48274H7.48268H7.48247H7.48241H7.48226H7.48214H7.48209H7.48206H7.48185H7.48178H7.48165H7.48148H7.48145H7.48125H7.48118H7.48115H7.48106H7.4809H7.48086H7.48067H7.48063H7.48048H7.48036H7.4803H7.48014H7.48012H7.4801H7.47994H7.47986H7.47976H7.47962H7.47959H7.47942H7.47939H7.47926H7.47917H7.47912H7.47909H7.47895H7.47893H7.47878H7.47875H7.47863H7.47855H7.47848H7.47837H7.47833H7.47819H7.47809H7.47805H7.47802H7.47792H7.47785H7.47779H7.4777H7.47767H7.47755H7.47743H7.47741H7.47732H7.47728H7.47721H7.47716H7.47711H7.47704H7.47701H7.47693H7.47692H7.47683H7.47675H7.47674H7.47667H7.47665H7.4766H7.47657H7.47653H7.4765H7.47647H7.47643H7.47641H7.47637H7.47636H7.47632H7.47631H7.47627H7.47627H7.47624H7.4762H7.47618H7.47616H7.47615H7.47598H7.4749H7.47381H7.4727H7.47158H7.47044H7.46929H7.46812H7.46694H7.46574H7.46453H7.4633H7.46206H7.4608H7.45953H7.45824H7.45693H7.45561H7.45428H7.45292H7.45155H7.45017H7.44877H7.44735H7.44591H7.44446H7.443H7.44151H7.44001H7.4385H7.43696H7.43541H7.43384H7.43226H7.43065H7.42903H7.4274H7.42574H7.42407H7.42238H7.42067H7.41895H7.41721H7.41545H7.41367H7.41187H7.41005H7.40822H7.40637H7.4045H7.40261H7.4007H7.39878H7.39683H7.39487H7.39289H7.39089H7.38887H7.38683H7.38477H7.38269H7.38059H7.37848H7.37634H7.37419H7.37201H7.36982H7.3676H7.36537H7.36311H7.36084H7.35854H7.35622H7.35389H7.35153H7.34916H7.34676H7.34434H7.3419H7.33944H7.33696H7.33446H7.33194H7.32939H7.32683H7.32424H7.32163H7.319H7.31635H7.31368H7.31099H7.30827H7.30553H7.30277H7.29999H7.29719H7.29436H7.29151H7.28864H7.28575H7.28283H7.2799H7.27693H7.27395H7.27094H7.26791H7.26486H7.26179H7.25869H7.25556H7.25242H7.24925H7.24606H7.24284H7.2396H7.23634H7.23305H7.22974H7.22641H7.22305H7.21966H7.21626H7.21282H7.20937H7.20589H7.20238H7.19885H7.1953H7.19172H7.18812H7.18449H7.18083H7.17715H7.17345H7.16972H7.16596H7.16218H7.15838H7.15455H7.15069H7.14681H7.1429H7.13896H7.135H7.13101H7.127H7.12296H7.1189H7.11481H7.11069H7.10654H7.10237H7.09817H7.09395H7.08969H7.08542H7.08111H7.07678H7.07242H7.06803H7.06361H7.05917H7.0547H7.0502H7.04568H7.04112H7.03654H7.03193H7.0273H7.02263H7.01794H7.01322H7.00847H7.00369H6.99888H6.99405H6.98918H6.98429H6.97937H6.97442H6.96944H6.96443H6.95939H6.95433H6.94923H6.9441H6.93895H6.93376H6.92855H6.9233H6.91803H6.91273H6.90739H6.90203H6.89664H6.89121H6.88576H6.88027H6.87476H6.86921H6.86364H6.85803H6.85239H6.84672H6.84102H6.83529H6.82953H6.82374H6.81791H6.81206H6.80617H6.80025H6.7943H6.78832H6.78231H6.77626H6.77019H6.76408H6.75794H6.75176H6.74556H6.73932H6.73305H6.72675H6.72041H6.71405H6.70764H6.70121H6.69475H6.68825H6.68172H6.67515H6.66855H6.66192H6.65525H6.64856H6.64182H6.63506H6.62826H6.62143H6.61456H6.60766H6.60073H6.59376H6.58675H6.57972H6.57264H6.56554H6.5584H6.55122H6.54401H6.53677H6.52949H6.52218H6.51483H6.50744H6.50002H6.00002V10H6.50002H6.50744H6.51483H6.52218H6.52949H6.53677H6.54401H6.55122H6.5584H6.56554H6.57264H6.57972H6.58675H6.59376H6.60073H6.60766H6.61456H6.62143H6.62826H6.63506H6.64182H6.64856H6.65525H6.66192H6.66855H6.67515H6.68172H6.68825H6.69475H6.70121H6.70764H6.71405H6.72041H6.72675H6.73305H6.73932H6.74556H6.75176H6.75794H6.76408H6.77019H6.77626H6.78231H6.78832H6.7943H6.80025H6.80617H6.81206H6.81791H6.82374H6.82953H6.83529H6.84102H6.84672H6.85239H6.85803H6.86364H6.86921H6.87476H6.88027H6.88576H6.89121H6.89664H6.90203H6.90739H6.91273H6.91803H6.9233H6.92855H6.93376H6.93895H6.9441H6.94923H6.95433H6.95939H6.96443H6.96944H6.97442H6.97937H6.98429H6.98918H6.99405H6.99888H7.00002V7H6.50002H6.00002V6ZM7.50504 5.13C7.85021 5.13 8.13004 4.85018 8.13004 4.505C8.13004 4.15982 7.85021 3.88 7.50504 3.88C7.15986 3.88 6.88004 4.15982 6.88004 4.505C6.88004 4.85018 7.15986 5.13 7.50504 5.13Z"
    fill="currentColor"
  />
</svg>
