<svg width="15" height="15" fill="none" xmlns="http://www.w3.org/2000/svg">
  <g opacity=".2">
    <path d="M0 0h15v15H0V0z" fill="currentColor" />
    <path
      d="M0 6a1 1 0 011-1h13a1 1 0 011 1v3a1 1 0 01-1 1H1a1 1 0 01-1-1V6z"
      fill="currentColor"
    />
  </g>
  <path d="M0 0h15v15H0V0z" fill="currentColor" />
  <path
    fill-rule="evenodd"
    clip-rule="evenodd"
    d="M14 6H1v3h13V6zM1 5a1 1 0 00-1 1v3a1 1 0 001 1h13a1 1 0 001-1V6a1 1 0 00-1-1H1z"
    fill="currentColor"
  />
</svg>
