<svg width="15" height="15" fill="none" xmlns="http://www.w3.org/2000/svg">
  <g opacity=".2">
    <path d="M0 0h15v15H0V0z" fill="currentColor" />
    <path
      fill-rule="evenodd"
      clip-rule="evenodd"
      d="M1 5a1 1 0 011-1h11a1 1 0 011 1v5a1 1 0 01-1 1H2a1 1 0 01-1-1V5z"
      fill="currentColor"
    />
  </g>
  <path d="M0 0h15v15H0V0z" fill="currentColor" />
  <path
    fill-rule="evenodd"
    clip-rule="evenodd"
    d="M9 5H6v5h3V5zm1 0v5h3V5h-3zM2 5h3v5H2V5zm0-1a1 1 0 00-1 1v5a1 1 0 001 1h11a1 1 0 001-1V5a1 1 0 00-1-1H2z"
    fill="currentColor"
  />
</svg>
