<svg width="15" height="15" fill="none" xmlns="http://www.w3.org/2000/svg">
  <path
    fill-rule="evenodd"
    clip-rule="evenodd"
    d="M4 2.75a.5.5 0 01.463.31l3.385 8.25a.5.5 0 11-.925.38L5.84 9.05H2.174l-1.076 2.64a.5.5 0 11-.926-.378l3.365-8.25a.5.5 0 01.462-.312zM4 4.57l1.47 3.58H2.54l1.46-3.58zm6.898.637c-1.64 0-2.89 1.479-2.89 3.403 0 2.024 1.35 3.402 2.89 3.402a3.06 3.06 0 002.255-.99V11.53h.45-.45a.45.45 0 10.9 0h-.45.45V5.72a.45.45 0 00-.9 0V6.223A3.01 3.01 0 0010.9 5.207zm2.255 2.098v-.003c-.39-.721-1.213-1.244-2.067-1.244-.978 0-2.052.908-2.052 2.552 0 1.543.974 2.552 2.052 2.552.883 0 1.685-.667 2.067-1.364V7.305z"
    fill="currentColor"
  />
</svg>
