<svg width="15" height="15" fill="none" xmlns="http://www.w3.org/2000/svg">
  <path
    fill-rule="evenodd"
    clip-rule="evenodd"
    d="M5 1.5a.5.5 0 00-1 0V7a.5.5 0 001 0V1.5zm6 0a.5.5 0 00-1 0V3a.5.5 0 00.5.5 2 2 0 100 4 .5.5 0 00-.5.5v5.5a.5.5 0 001 0V8a.5.5 0 00-.5-.5 2 2 0 100-4A.5.5 0 0011 3V1.5zm-6.5 10a.5.5 0 01.5.5v1.5a.5.5 0 01-1 0V12a.5.5 0 01.5-.5zm0 0a2 2 0 110-4 2 2 0 010 4z"
    fill="currentColor"
    opacity=".15"
  />
  <path
    fill-rule="evenodd"
    clip-rule="evenodd"
    d="M5 1.5a.5.5 0 00-1 0V7c0 .017 0 .033.002.05a2.5 2.5 0 000 4.9A.506.506 0 004 12v1.5a.5.5 0 001 0V12c0-.017 0-.033-.002-.05a2.5 2.5 0 000-4.9A.507.507 0 005 7V1.5zm6 0a.5.5 0 00-1 0V3c0 .017 0 .033.002.05a2.5 2.5 0 000 4.9A.507.507 0 0010 8v5.5a.5.5 0 001 0V8c0-.017 0-.033-.002-.05a2.5 2.5 0 000-4.9A.507.507 0 0011 3V1.5zM4.5 8a1.5 1.5 0 100 3 1.5 1.5 0 000-3zM9 5.5a1.5 1.5 0 113 0 1.5 1.5 0 01-3 0z"
    fill="currentColor"
  />
</svg>
