<svg width="15" height="15" fill="none" xmlns="http://www.w3.org/2000/svg">
  <path
    fill-rule="evenodd"
    clip-rule="evenodd"
    d="M7 13v-.5H4.9c-.84 0-1.26 0-1.581-.164a1.5 1.5 0 01-.656-.655c-.163-.32-.163-.74-.163-1.581V8H2V7h.5V4.9c0-.84 0-1.26.163-1.581a1.5 1.5 0 01.656-.656c.32-.163.74-.163 1.581-.163H7V2h1v.5h2.1c.84 0 1.26 0 1.581.163a1.5 1.5 0 01.655.656c.164.32.164.74.164 1.581V7h.5v1h-.5v2.1c0 .84 0 1.26-.164 1.581a1.5 1.5 0 01-.655.655c-.32.164-.74.164-1.581.164H8v.5H7z"
    fill="currentColor"
    opacity=".2"
  />
  <path
    fill-rule="evenodd"
    clip-rule="evenodd"
    d="M4.88 2h5.24c.403 0 .735 0 1.006.022.281.023.54.072.782.196a2 2 0 01.874.874c.124.243.173.501.196.782.022.27.022.603.022 1.005v5.241c0 .403 0 .735-.022 1.006-.023.281-.072.54-.196.782a2 2 0 01-.874.874c-.243.124-.501.173-.782.196-.27.022-.603.022-1.005.022H4.88c-.403 0-.735 0-1.006-.022-.281-.023-.54-.072-.782-.196a2 2 0 01-.874-.874c-.124-.243-.173-.501-.196-.782A13.35 13.35 0 012 10.12V4.88c0-.403 0-.735.022-1.006.023-.281.072-.54.196-.782a2 2 0 01.874-.874c.243-.124.501-.173.782-.196C4.144 2 4.477 2 4.88 2zM3 8v2.1c0 .428 0 .72.019.944.018.22.05.332.09.41a1 1 0 00.437.437c.078.04.19.072.41.09.225.019.516.019.944.019H7V8H3zm4-1H3V4.9c0-.428 0-.72.019-.944.018-.22.05-.332.09-.41a1 1 0 01.437-.437c.078-.04.19-.072.41-.09C4.18 3 4.472 3 4.9 3H7v4zm1 1v4h2.1c.428 0 .72 0 .944-.019.22-.018.332-.05.41-.09a1 1 0 00.437-.437c.04-.078.072-.19.09-.41.019-.225.019-.516.019-.944V8H8zm4-1H8V3h2.1c.428 0 .72 0 .944.019.22.018.332.05.41.09a1 1 0 01.437.437c.04.078.072.19.09.41.019.225.019.516.019.944V7z"
    fill="currentColor"
  />
</svg>
