<svg width="15" height="15" fill="none" xmlns="http://www.w3.org/2000/svg">
  <path
    fill-rule="evenodd"
    clip-rule="evenodd"
    d="M2 1.5a.5.5 0 11-1 0 .5.5 0 011 0zm2 4A1.5 1.5 0 015.5 4h4A1.5 1.5 0 0111 5.5v4A1.5 1.5 0 019.5 11h-4A1.5 1.5 0 014 9.5v-4zM4.5 2a.5.5 0 100-1 .5.5 0 000 1zM8 1.5a.5.5 0 11-1 0 .5.5 0 011 0zm2.5.5a.5.5 0 100-1 .5.5 0 000 1zm3.5-.5a.5.5 0 11-1 0 .5.5 0 011 0zM1.5 14a.5.5 0 100-1 .5.5 0 000 1zm.5-3.5a.5.5 0 11-1 0 .5.5 0 011 0zM1.5 8a.5.5 0 100-1 .5.5 0 000 1zM2 4.5a.5.5 0 11-1 0 .5.5 0 011 0zM13.5 11a.5.5 0 100-1 .5.5 0 000 1zm.5-3.5a.5.5 0 11-1 0 .5.5 0 011 0zM13.5 5a.5.5 0 100-1 .5.5 0 000 1zM5 13.5a.5.5 0 11-1 0 .5.5 0 011 0zm2.5.5a.5.5 0 100-1 .5.5 0 000 1zm3.5-.5a.5.5 0 11-1 0 .5.5 0 011 0zm2.5.5a.5.5 0 100-1 .5.5 0 000 1z"
    fill="currentColor"
    opacity=".2"
  />
  <path
    fill-rule="evenodd"
    clip-rule="evenodd"
    d="M2 1.5a.5.5 0 11-1 0 .5.5 0 011 0zM5.5 5a.5.5 0 00-.5.5v4a.5.5 0 00.5.5h4a.5.5 0 00.5-.5v-4a.5.5 0 00-.5-.5h-4zm0-1A1.5 1.5 0 004 5.5v4A1.5 1.5 0 005.5 11h4A1.5 1.5 0 0011 9.5v-4A1.5 1.5 0 009.5 4h-4zm-1-2a.5.5 0 100-1 .5.5 0 000 1zM8 1.5a.5.5 0 11-1 0 .5.5 0 011 0zm2.5.5a.5.5 0 100-1 .5.5 0 000 1zm3.5-.5a.5.5 0 11-1 0 .5.5 0 011 0zM1.5 14a.5.5 0 100-1 .5.5 0 000 1zm.5-3.5a.5.5 0 11-1 0 .5.5 0 011 0zM1.5 8a.5.5 0 100-1 .5.5 0 000 1zM2 4.5a.5.5 0 11-1 0 .5.5 0 011 0zM13.5 11a.5.5 0 100-1 .5.5 0 000 1zm.5-3.5a.5.5 0 11-1 0 .5.5 0 011 0zM13.5 5a.5.5 0 100-1 .5.5 0 000 1zM5 13.5a.5.5 0 11-1 0 .5.5 0 011 0zm2.5.5a.5.5 0 100-1 .5.5 0 000 1zm3.5-.5a.5.5 0 11-1 0 .5.5 0 011 0zm2.5.5a.5.5 0 100-1 .5.5 0 000 1z"
    fill="currentColor"
  />
</svg>
