<svg width="15" height="15" fill="none" xmlns="http://www.w3.org/2000/svg">
  <path
    fill-rule="evenodd"
    clip-rule="evenodd"
    d="M2 1.5a.5.5 0 11-1 0 .5.5 0 011 0zM4 5a1 1 0 011-1h5a1 1 0 011 1v5a1 1 0 01-1 1H5a1 1 0 01-1-1V5zm.5-3a.5.5 0 100-1 .5.5 0 000 1zM8 1.5a.5.5 0 11-1 0 .5.5 0 011 0zm2.5.5a.5.5 0 100-1 .5.5 0 000 1zm3.5-.5a.5.5 0 11-1 0 .5.5 0 011 0zM1.5 14a.5.5 0 100-1 .5.5 0 000 1zm.5-3.5a.5.5 0 11-1 0 .5.5 0 011 0zM1.5 8a.5.5 0 100-1 .5.5 0 000 1zM2 4.5a.5.5 0 11-1 0 .5.5 0 011 0zM13.5 11a.5.5 0 100-1 .5.5 0 000 1zm.5-3.5a.5.5 0 11-1 0 .5.5 0 011 0zM13.5 5a.5.5 0 100-1 .5.5 0 000 1zM5 13.5a.5.5 0 11-1 0 .5.5 0 011 0zm2.5.5a.5.5 0 100-1 .5.5 0 000 1zm3.5-.5a.5.5 0 11-1 0 .5.5 0 011 0zm2.5.5a.5.5 0 100-1 .5.5 0 000 1z"
    fill="currentColor"
    opacity=".2"
  />
  <path
    fill-rule="evenodd"
    clip-rule="evenodd"
    d="M2 1.5a.5.5 0 11-1 0 .5.5 0 011 0zM5 4a1 1 0 00-1 1v5a1 1 0 001 1h5a1 1 0 001-1V5a1 1 0 00-1-1H5zm-.5-2a.5.5 0 100-1 .5.5 0 000 1zM8 1.5a.5.5 0 11-1 0 .5.5 0 011 0zm2.5.5a.5.5 0 100-1 .5.5 0 000 1zm3.5-.5a.5.5 0 11-1 0 .5.5 0 011 0zM1.5 14a.5.5 0 100-1 .5.5 0 000 1zm.5-3.5a.5.5 0 11-1 0 .5.5 0 011 0zM1.5 8a.5.5 0 100-1 .5.5 0 000 1zM2 4.5a.5.5 0 11-1 0 .5.5 0 011 0zM13.5 11a.5.5 0 100-1 .5.5 0 000 1zm.5-3.5a.5.5 0 11-1 0 .5.5 0 011 0zM13.5 5a.5.5 0 100-1 .5.5 0 000 1zM5 13.5a.5.5 0 11-1 0 .5.5 0 011 0zm2.5.5a.5.5 0 100-1 .5.5 0 000 1zm3.5-.5a.5.5 0 11-1 0 .5.5 0 011 0zm2.5.5a.5.5 0 100-1 .5.5 0 000 1zM5 5v5h5V5H5z"
    fill="currentColor"
  />
</svg>
