<svg width="15" height="15" fill="none" xmlns="http://www.w3.org/2000/svg">
  <path
    fill-rule="evenodd"
    clip-rule="evenodd"
    d="M8.5 3V2H6.5V3V6.5H3H2V8.5H3H6.5V12V13H8.5V12V8.5H12H13V6.5H12H8.5V3Z"
    fill="currentColor"
    opacity=".2"
  />
  <path
    fill-rule="evenodd"
    clip-rule="evenodd"
    d="M8 3C8 2.72386 7.77614 2.5 7.5 2.5C7.22386 2.5 7 2.72386 7 3V7H3C2.72386 7 2.5 7.22386 2.5 7.5C2.5 7.77614 2.72386 8 3 8H7V12C7 12.2761 7.22386 12.5 7.5 12.5C7.77614 12.5 8 12.2761 8 12V8H12C12.2761 8 12.5 7.77614 12.5 7.5C12.5 7.22386 12.2761 7 12 7H8V3Z"
    fill="currentColor"
  />
</svg>
