<svg width="15" height="15" fill="none" xmlns="http://www.w3.org/2000/svg">
  <g opacity=".2">
    <path d="M0 0h15v15H0V0z" fill="currentColor" />
    <path
      fill-rule="evenodd"
      clip-rule="evenodd"
      d="M13.398 7.5a5.898 5.898 0 01-9.7 4.509l-.344.345-.708-.708.345-.344a5.898 5.898 0 018.31-8.31l.345-.346.708.708-.345.344A5.874 5.874 0 0113.398 7.5z"
      fill="currentColor"
    />
  </g>
  <path d="M0 0h15v15H0V0z" fill="currentColor" />
  <path
    fill-rule="evenodd"
    clip-rule="evenodd"
    d="M7.5 1.127a6.373 6.373 0 00-4.846 10.512l-.008.007.116.116c.15.167.31.326.476.476l.116.116.007-.008a6.373 6.373 0 008.985-8.985l.008-.007-.116-.116a6.414 6.414 0 00-.476-.476l-.116-.116-.007.008a6.348 6.348 0 00-4.14-1.527zm3.465 2.201a5.423 5.423 0 00-7.637 7.637l7.637-7.637zm-6.93 8.344a5.423 5.423 0 007.636-7.637l-7.636 7.637z"
    fill="currentColor"
  />
</svg>
