<svg width="15" height="15" fill="none" xmlns="http://www.w3.org/2000/svg">
  <path
    fill-rule="evenodd"
    clip-rule="evenodd"
    d="M1.99999 6.5L7.49999 9.75L13 6.5L7.49999 3.25L1.99999 6.5ZM2.25435 9.31954C2.01661 9.17906 1.71001 9.2579 1.56952 9.49564C1.42904 9.73337 1.50788 10.04 1.74562 10.1805L7.24562 13.4305C7.40253 13.5232 7.59745 13.5232 7.75435 13.4305L13.2544 10.1805C13.4921 10.04 13.5709 9.73337 13.4305 9.49564C13.29 9.2579 12.9834 9.17906 12.7456 9.31954L7.49999 12.4192L2.25435 9.31954Z"
    fill="currentColor"
    opacity=".2"
  />
  <path
    fill-rule="evenodd"
    clip-rule="evenodd"
    d="M7.75435 2.81954C7.59745 2.72682 7.40253 2.72682 7.24562 2.81954L1.74562 6.06954C1.59339 6.15949 1.49999 6.32317 1.49999 6.5C1.49999 6.67683 1.59339 6.84051 1.74562 6.93046L7.24562 10.1805C7.40253 10.2732 7.59745 10.2732 7.75435 10.1805L13.2544 6.93046C13.4066 6.84051 13.5 6.67683 13.5 6.5C13.5 6.32317 13.4066 6.15949 13.2544 6.06954L7.75435 2.81954ZM7.49999 9.16923L2.98283 6.5L7.49999 3.83077L12.0171 6.5L7.49999 9.16923ZM2.25435 9.31954C2.01661 9.17906 1.71001 9.2579 1.56952 9.49564C1.42904 9.73337 1.50788 10.04 1.74562 10.1805L7.24562 13.4305C7.40253 13.5232 7.59745 13.5232 7.75435 13.4305L13.2544 10.1805C13.4921 10.04 13.5709 9.73337 13.4305 9.49564C13.29 9.2579 12.9834 9.17906 12.7456 9.31954L7.49999 12.4192L2.25435 9.31954Z"
    fill="currentColor"
  />
</svg>
