<svg width="15" height="15" fill="none" xmlns="http://www.w3.org/2000/svg">
  <path
    fill-rule="evenodd"
    clip-rule="evenodd"
    d="M6.5 4.5a2 2 0 11-4 0 2 2 0 014 0zm6 0a2 2 0 11-4 0 2 2 0 014 0zm-8 8a2 2 0 100-4 2 2 0 000 4zm8-2a2 2 0 11-4 0 2 2 0 014 0z"
    fill="currentColor"
    opacity=".2"
  />
  <path
    fill-rule="evenodd"
    clip-rule="evenodd"
    d="M4.5 2a2.5 2.5 0 100 5 2.5 2.5 0 000-5zM3 4.5a1.5 1.5 0 113 0 1.5 1.5 0 01-3 0zM10.5 2a2.5 2.5 0 100 5 2.5 2.5 0 000-5zM9 4.5a1.5 1.5 0 113 0 1.5 1.5 0 01-3 0zm-7 6a2.5 2.5 0 115 0 2.5 2.5 0 01-5 0zM4.5 9a1.5 1.5 0 100 3 1.5 1.5 0 000-3zm6-1a2.5 2.5 0 100 5 2.5 2.5 0 000-5zM9 10.5a1.5 1.5 0 113 0 1.5 1.5 0 01-3 0z"
    fill="currentColor"
  />
</svg>
