<svg width="15" height="15" fill="none" xmlns="http://www.w3.org/2000/svg">
  <path
    fill-rule="evenodd"
    clip-rule="evenodd"
    d="M1.50001 1C1.22386 1 1.00001 1.22386 1.00001 1.5V6H2.00001V2H6.00001V1H1.50001ZM9.00001 2H13V6H14V1.5C14 1.22386 13.7761 1 13.5 1H9.00001V2ZM1.00001 9V13.5C1.00001 13.7761 1.22386 14 1.50001 14H6.00001V13H2.00001V9H1.00001ZM13 9V13H9.50001V14H13.5C13.7761 14 14 13.7761 14 13.5V9H13ZM7 1.52505C7 1.24891 7.22386 1.02505 7.5 1.02505C7.77614 1.02505 8 1.24891 8 1.52505C8 1.80119 7.77614 2.02505 7.5 2.02505C7.22386 2.02505 7 1.80119 7 1.52505ZM7.5 3.02505C7.22386 3.02505 7 3.24891 7 3.52505C7 3.80119 7.22386 4.02505 7.5 4.02505C7.77614 4.02505 8 3.80119 8 3.52505C8 3.24891 7.77614 3.02505 7.5 3.02505ZM7.5 5.02505C7.22386 5.02505 7 5.24891 7 5.52505C7 5.80119 7.22386 6.02505 7.5 6.02505C7.77614 6.02505 8 5.80119 8 5.52505C8 5.24891 7.77614 5.02505 7.5 5.02505ZM7 7.52505C7 7.24891 7.22386 7.02505 7.5 7.02505C7.77614 7.02505 8 7.24891 8 7.52505C8 7.80119 7.77614 8.02505 7.5 8.02505C7.22386 8.02505 7 7.80119 7 7.52505ZM7.5 13.0254C7.22386 13.0254 7 13.2493 7 13.5254C7 13.8016 7.22386 14.0254 7.5 14.0254C7.77614 14.0254 8 13.8016 8 13.5254C8 13.2493 7.77614 13.0254 7.5 13.0254ZM13.5 7.02505C13.2239 7.02505 13 7.24891 13 7.52505C13 7.80119 13.2239 8.02505 13.5 8.02505C13.7761 8.02505 14 7.80119 14 7.52505C14 7.24891 13.7761 7.02505 13.5 7.02505ZM5 7.52505C5 7.24891 5.22386 7.02505 5.5 7.02505C5.77614 7.02505 6 7.24891 6 7.52505C6 7.80119 5.77614 8.02505 5.5 8.02505C5.22386 8.02505 5 7.80119 5 7.52505ZM3.5 7.02505C3.22386 7.02505 3 7.24891 3 7.52505C3 7.80119 3.22386 8.02505 3.5 8.02505C3.77614 8.02505 4 7.80119 4 7.52505C4 7.24891 3.77614 7.02505 3.5 7.02505ZM9 7.52505C9 7.24891 9.22386 7.02505 9.5 7.02505C9.77614 7.02505 10 7.24891 10 7.52505C10 7.80119 9.77614 8.02505 9.5 8.02505C9.22386 8.02505 9 7.80119 9 7.52505ZM11.5 7.02505C11.2239 7.02505 11 7.24891 11 7.52505C11 7.80119 11.2239 8.02505 11.5 8.02505C11.7761 8.02505 12 7.80119 12 7.52505C12 7.24891 11.7761 7.02505 11.5 7.02505ZM7 9.52505C7 9.24891 7.22386 9.02505 7.5 9.02505C7.77614 9.02505 8 9.24891 8 9.52505C8 9.80119 7.77614 10.025 7.5 10.025C7.22386 10.025 7 9.80119 7 9.52505ZM7.5 11.025C7.22386 11.025 7 11.2489 7 11.525C7 11.8012 7.22386 12.025 7.5 12.025C7.77614 12.025 8 11.8012 8 11.525C8 11.2489 7.77614 11.025 7.5 11.025ZM1 7.52505C1 7.24891 1.22386 7.02505 1.5 7.02505C1.77614 7.02505 2 7.24891 2 7.52505C2 7.80119 1.77614 8.02505 1.5 8.02505C1.22386 8.02505 1 7.80119 1 7.52505Z"
    fill="currentColor"
  />
</svg>
