<svg width="15" height="15" fill="none" xmlns="http://www.w3.org/2000/svg">
  <path
    fill-rule="evenodd"
    clip-rule="evenodd"
    d="M13.25 1L13.25 14L14.75 14L14.75 1L13.25 1ZM5.49997 7.00001C5.22383 7.00001 4.99997 7.22386 4.99997 7.50001C4.99997 7.77615 5.22383 8.00001 5.49997 8.00001C5.77611 8.00001 5.99997 7.77615 5.99997 7.50001C5.99997 7.22386 5.77611 7.00001 5.49997 7.00001ZM4.99997 13.5C4.99997 13.2239 5.22383 13 5.49997 13C5.77611 13 5.99997 13.2239 5.99997 13.5C5.99997 13.7761 5.77611 14 5.49997 14C5.22383 14 4.99997 13.7761 4.99997 13.5ZM3.49997 7.00001C3.22383 7.00001 2.99997 7.22386 2.99997 7.50001C2.99997 7.77615 3.22383 8.00001 3.49997 8.00001C3.77611 8.00001 3.99997 7.77615 3.99997 7.50001C3.99997 7.22386 3.77611 7.00001 3.49997 7.00001ZM2.99997 13.5C2.99997 13.2239 3.22383 13 3.49997 13C3.77611 13 3.99997 13.2239 3.99997 13.5C3.99997 13.7761 3.77611 14 3.49997 14C3.22383 14 2.99997 13.7761 2.99997 13.5ZM7.49997 7.00001C7.22383 7.00001 6.99997 7.22386 6.99997 7.50001C6.99997 7.77615 7.22383 8.00001 7.49997 8.00001C7.77611 8.00001 7.99997 7.77615 7.99997 7.50001C7.99997 7.22386 7.77611 7.00001 7.49997 7.00001ZM0.999969 7.50001C0.999969 7.22386 1.22383 7.00001 1.49997 7.00001C1.77611 7.00001 1.99997 7.22386 1.99997 7.50001C1.99997 7.77615 1.77611 8.00001 1.49997 8.00001C1.22383 8.00001 0.999969 7.77615 0.999969 7.50001ZM7.49997 13C7.22383 13 6.99997 13.2239 6.99997 13.5C6.99997 13.7761 7.22383 14 7.49997 14C7.77611 14 7.99997 13.7761 7.99997 13.5C7.99997 13.2239 7.77611 13 7.49997 13ZM0.999969 13.5C0.999969 13.2239 1.22383 13 1.49997 13C1.77611 13 1.99997 13.2239 1.99997 13.5C1.99997 13.7761 1.77611 14 1.49997 14C1.22383 14 0.999969 13.7761 0.999969 13.5ZM7.49997 5.00001C7.22383 5.00001 6.99997 5.22386 6.99997 5.50001C6.99997 5.77615 7.22383 6.00001 7.49997 6.00001C7.77611 6.00001 7.99997 5.77615 7.99997 5.50001C7.99997 5.22386 7.77611 5.00001 7.49997 5.00001ZM0.99997 5.50001C0.99997 5.22386 1.22383 5.00001 1.49997 5.00001C1.77611 5.00001 1.99997 5.22386 1.99997 5.50001C1.99997 5.77615 1.77611 6.00001 1.49997 6.00001C1.22383 6.00001 0.99997 5.77615 0.99997 5.50001ZM7.49997 3.00001C7.22383 3.00001 6.99997 3.22386 6.99997 3.50001C6.99997 3.77615 7.22383 4.00001 7.49997 4.00001C7.77611 4.00001 7.99997 3.77615 7.99997 3.50001C7.99997 3.22386 7.77611 3.00001 7.49997 3.00001ZM0.999969 3.50001C0.999969 3.22386 1.22383 3.00001 1.49997 3.00001C1.77611 3.00001 1.99997 3.22386 1.99997 3.50001C1.99997 3.77615 1.77611 4.00001 1.49997 4.00001C1.22383 4.00001 0.999969 3.77615 0.999969 3.50001ZM7.49997 9.00001C7.22383 9.00001 6.99997 9.22386 6.99997 9.50001C6.99997 9.77615 7.22383 10 7.49997 10C7.77611 10 7.99997 9.77615 7.99997 9.50001C7.99997 9.22386 7.77611 9.00001 7.49997 9.00001ZM0.999969 9.50001C0.999969 9.22386 1.22383 9.00001 1.49997 9.00001C1.77611 9.00001 1.99997 9.22386 1.99997 9.50001C1.99997 9.77615 1.77611 10 1.49997 10C1.22383 10 0.999969 9.77615 0.999969 9.50001ZM7.49997 11C7.22383 11 6.99997 11.2239 6.99997 11.5C6.99997 11.7761 7.22383 12 7.49997 12C7.77611 12 7.99997 11.7761 7.99997 11.5C7.99997 11.2239 7.77611 11 7.49997 11ZM0.99997 11.5C0.99997 11.2239 1.22383 11 1.49997 11C1.77611 11 1.99997 11.2239 1.99997 11.5C1.99997 11.7761 1.77611 12 1.49997 12C1.22383 12 0.99997 11.7761 0.99997 11.5ZM9.49997 7.00001C9.22383 7.00001 8.99997 7.22386 8.99997 7.50001C8.99997 7.77615 9.22383 8.00001 9.49997 8.00001C9.77611 8.00001 9.99997 7.77615 9.99997 7.50001C9.99997 7.22386 9.77611 7.00001 9.49997 7.00001ZM8.99997 13.5C8.99997 13.2239 9.22383 13 9.49997 13C9.77611 13 9.99997 13.2239 9.99997 13.5C9.99997 13.7761 9.77611 14 9.49997 14C9.22383 14 8.99997 13.7761 8.99997 13.5ZM11.5 7.00001C11.2238 7.00001 11 7.22386 11 7.50001C11 7.77615 11.2238 8.00001 11.5 8.00001C11.7761 8.00001 12 7.77615 12 7.50001C12 7.22386 11.7761 7.00001 11.5 7.00001ZM11 13.5C11 13.2239 11.2238 13 11.5 13C11.7761 13 12 13.2239 12 13.5C12 13.7761 11.7761 14 11.5 14C11.2238 14 11 13.7761 11 13.5ZM5.49997 1.00001C5.22383 1.00001 4.99997 1.22386 4.99997 1.50001C4.99997 1.77615 5.22383 2.00001 5.49997 2.00001C5.77611 2.00001 5.99997 1.77615 5.99997 1.50001C5.99997 1.22386 5.77611 1.00001 5.49997 1.00001ZM2.99997 1.50001C2.99997 1.22386 3.22383 1.00001 3.49997 1.00001C3.77611 1.00001 3.99997 1.22386 3.99997 1.50001C3.99997 1.77615 3.77611 2.00001 3.49997 2.00001C3.22383 2.00001 2.99997 1.77615 2.99997 1.50001ZM7.49997 1.00001C7.22383 1.00001 6.99997 1.22386 6.99997 1.50001C6.99997 1.77615 7.22383 2.00001 7.49997 2.00001C7.77611 2.00001 7.99997 1.77615 7.99997 1.50001C7.99997 1.22386 7.77611 1.00001 7.49997 1.00001ZM0.999969 1.50001C0.999969 1.22386 1.22383 1.00001 1.49997 1.00001C1.77611 1.00001 1.99997 1.22386 1.99997 1.50001C1.99997 1.77615 1.77611 2.00001 1.49997 2.00001C1.22383 2.00001 0.999969 1.77615 0.999969 1.50001ZM9.49997 1.00001C9.22383 1.00001 8.99997 1.22386 8.99997 1.50001C8.99997 1.77615 9.22383 2.00001 9.49997 2.00001C9.77611 2.00001 9.99997 1.77615 9.99997 1.50001C9.99997 1.22386 9.77611 1.00001 9.49997 1.00001ZM11 1.50001C11 1.22386 11.2238 1.00001 11.5 1.00001C11.7761 1.00001 12 1.22386 12 1.50001C12 1.77615 11.7761 2.00001 11.5 2.00001C11.2238 2.00001 11 1.77615 11 1.50001Z"
    fill="currentColor"
  />
</svg>
