<svg width="15" height="15" fill="none" xmlns="http://www.w3.org/2000/svg">
  <path
    fill-rule="evenodd"
    clip-rule="evenodd"
    d="M1.12705 7.49988C1.12705 3.98027 3.98027 1.12705 7.49988 1.12705C11.0195 1.12705 13.8727 3.98027 13.8727 7.49988C13.8727 11.0195 11.0195 13.8727 7.49988 13.8727C3.98027 13.8727 1.12705 11.0195 1.12705 7.49988ZM2.09979 7C2.33705 4.40399 4.40399 2.33705 7 2.09979V4.5C7 4.77614 7.22386 5 7.5 5C7.77614 5 8 4.77614 8 4.5V2.09981C10.5959 2.33718 12.6627 4.40407 12.9 7H10.5C10.2239 7 10 7.22386 10 7.5C10 7.77614 10.2239 8 10.5 8H12.9C12.6626 10.5958 10.5958 12.6626 8 12.9V10.5C8 10.2239 7.77614 10 7.5 10C7.22386 10 7 10.2239 7 10.5V12.9C4.40407 12.6627 2.33718 10.5959 2.09981 8H4.5C4.77614 8 5 7.77614 5 7.5C5 7.22386 4.77614 7 4.5 7H2.09979Z"
    fill="currentColor"
  />
</svg>
