<svg width="15" height="15" fill="none" xmlns="http://www.w3.org/2000/svg">
  <path
    fill-rule="evenodd"
    clip-rule="evenodd"
    d="M3 2C2.44772 2 2 2.44772 2 3V12C2 12.5523 2.44772 13 3 13H12C12.5523 13 13 12.5523 13 12V9.07143H12V12H3V3L5.92857 3V2H3ZM12.8536 2.14645C12.9015 2.19439 12.9377 2.24964 12.9621 2.30861C12.9861 2.36669 12.9996 2.4303 13 2.497L13 2.5V2.50049V6C13 6.27614 12.7761 6.5 12.5 6.5C12.2239 6.5 12 6.27614 12 6V3.70711L6.85355 8.85355C6.65829 9.04882 6.34171 9.04882 6.14645 8.85355C5.95118 8.65829 5.95118 8.34171 6.14645 8.14645L11.2929 3H9C8.72386 3 8.5 2.77614 8.5 2.5C8.5 2.22386 8.72386 2 9 2H12.4999H12.5C12.5678 2 12.6324 2.01349 12.6914 2.03794C12.7504 2.06234 12.8056 2.09851 12.8536 2.14645Z"
    fill="currentColor"
  />
</svg>
