<svg width="15" height="15" fill="none" xmlns="http://www.w3.org/2000/svg">
  <path
    fill-rule="evenodd"
    clip-rule="evenodd"
    d="M4.5002 0C4.77634 0 5.00019 0.223853 5.00019 0.49999V2.49995C5.00019 2.77609 4.77634 2.99994 4.5002 2.99994C4.22407 2.99994 4.00021 2.77609 4.00021 2.49995V0.49999C4.00021 0.223853 4.22407 0 4.5002 0ZM12.0001 10.4998C12.0001 10.2237 12.2239 9.99981 12.5 9.99981H14.5C14.7761 9.99981 15 10.2237 15 10.4998C15 10.7759 14.7761 10.9998 14.5 10.9998H12.5C12.2239 10.9998 12.0001 10.7759 12.0001 10.4998ZM10.5001 11.9998C10.7762 11.9998 11.0001 12.2236 11.0001 12.4998V14.4997C11.0001 14.7759 10.7762 14.9997 10.5001 14.9997C10.224 14.9997 10.0001 14.7759 10.0001 14.4997V12.4998C10.0001 12.2236 10.224 11.9998 10.5001 11.9998ZM12.8533 12.1462C12.658 11.951 12.3415 11.951 12.1462 12.1462C11.951 12.3415 11.951 12.6581 12.1462 12.8533L13.6462 14.3533C13.8414 14.5486 14.158 14.5486 14.3533 14.3533C14.5485 14.158 14.5485 13.8415 14.3533 13.6462L12.8533 12.1462ZM1.35353 0.646471C1.15827 0.451212 0.841695 0.451212 0.646437 0.646471C0.451179 0.841729 0.451179 1.15831 0.646437 1.35356L2.14641 2.85353C2.34167 3.04879 2.65824 3.04879 2.8535 2.85353C3.04876 2.65828 3.04876 2.3417 2.8535 2.14644L1.35353 0.646471ZM0.000289911 4.49991C0.000289911 4.22378 0.224143 3.99992 0.50028 3.99992H2.50024C2.77638 3.99992 3.00023 4.22378 3.00023 4.49991C3.00023 4.77605 2.77638 4.9999 2.50024 4.9999H0.50028C0.224143 4.9999 0.000289911 4.77605 0.000289911 4.49991ZM7.76477 3.69939C8.19177 3.27239 8.35723 3.11009 8.5116 3.00523C9.18794 2.54578 10.0431 2.53678 10.6784 2.95402C10.8227 3.04876 10.9767 3.19912 11.3886 3.611C11.8005 4.02288 11.9509 4.17695 12.0456 4.32121C12.4628 4.95654 12.4539 5.81169 11.9944 6.48803C11.8895 6.64239 11.7272 6.80786 11.3002 7.23485L10.6815 7.85356C10.4863 8.04882 10.4863 8.36539 10.6815 8.56065C10.8768 8.75591 11.1934 8.75591 11.3886 8.56065L12.0073 7.94195L12.0502 7.89904C12.4199 7.52951 12.6564 7.29304 12.8216 7.04995C13.4968 6.05599 13.5316 4.76231 12.8815 3.77229C12.7229 3.53084 12.4918 3.29983 12.1404 2.94854L12.0957 2.90391L12.0511 2.85926C11.6998 2.50783 11.4688 2.27673 11.2273 2.11817C10.2373 1.46799 8.94363 1.50284 7.94968 2.17806C7.70658 2.3432 7.47012 2.57974 7.10059 2.94938L7.05768 2.99229L6.43898 3.611C6.24372 3.80626 6.24372 4.12284 6.43898 4.31809C6.63423 4.51335 6.95081 4.51335 7.14607 4.31809L7.76477 3.69939ZM2.9919 7.05808L2.94898 7.10099C2.57934 7.47052 2.34281 7.70698 2.17766 7.95008C1.50245 8.94403 1.46759 10.2377 2.11777 11.2277C2.27634 11.4692 2.50744 11.7002 2.85887 12.0515L2.90351 12.0961L2.94814 12.1408C3.29943 12.4922 3.53044 12.7233 3.77189 12.8819C4.76192 13.532 6.0556 13.4972 7.04955 12.822C7.29265 12.6568 7.52911 12.4203 7.89864 12.0506L7.94155 12.0077L8.56025 11.389C8.75551 11.1938 8.75551 10.8772 8.56025 10.6819C8.365 10.4867 8.04842 10.4867 7.85316 10.6819L7.23446 11.3006C6.80746 11.7276 6.642 11.8899 6.48764 11.9948C5.81129 12.4542 4.95614 12.4632 4.32081 12.046C4.17655 11.9513 4.02248 11.8009 3.6106 11.389C3.19872 10.9771 3.04836 10.8231 2.95362 10.6788C2.53638 10.0435 2.54538 9.18834 3.00484 8.51199C3.1097 8.35763 3.272 8.19217 3.69899 7.76517L4.3177 7.14647C4.51295 6.95121 4.51295 6.63463 4.3177 6.43937C4.12244 6.24411 3.80586 6.24411 3.6106 6.43937L2.9919 7.05808Z"
    fill="currentColor"
  />
</svg>
