<svg width="15" height="15" fill="none" xmlns="http://www.w3.org/2000/svg">
  <path
    fill-rule="evenodd"
    clip-rule="evenodd"
    d="M3.2 2H11.8C12.3766 2 12.7488 2.00078 13.0322 2.02393C13.3038 2.04612 13.4045 2.0838 13.454 2.10899C13.6422 2.20487 13.7951 2.35785 13.891 2.54601C13.9162 2.59545 13.9539 2.69617 13.9761 2.96784C13.9992 3.25117 14 3.62345 14 4.2V10.8C14 11.3766 13.9992 11.7488 13.9761 12.0322C13.9539 12.3038 13.9162 12.4045 13.891 12.454C13.7951 12.6422 13.6422 12.7951 13.454 12.891C13.4045 12.9162 13.3038 12.9539 13.0322 12.9761C12.7488 12.9992 12.3766 13 11.8 13H3.2C2.62345 13 2.25117 12.9992 1.96784 12.9761C1.69617 12.9539 1.59545 12.9162 1.54601 12.891C1.35785 12.7951 1.20487 12.6422 1.10899 12.454C1.0838 12.4045 1.04612 12.3038 1.02393 12.0322C1.00078 11.7488 1 11.3766 1 10.8V4.2C1 3.62345 1.00078 3.25117 1.02393 2.96784C1.04612 2.69617 1.0838 2.59545 1.10899 2.54601C1.20487 2.35785 1.35785 2.20487 1.54601 2.10899C1.59545 2.0838 1.69617 2.04612 1.96784 2.02393C2.25117 2.00078 2.62345 2 3.2 2ZM0 4.2C0 3.0799 0 2.51984 0.217987 2.09202C0.409734 1.71569 0.715695 1.40973 1.09202 1.21799C1.51984 1 2.0799 1 3.2 1H11.8C12.9201 1 13.4802 1 13.908 1.21799C14.2843 1.40973 14.5903 1.71569 14.782 2.09202C15 2.51984 15 3.0799 15 4.2V10.8C15 11.9201 15 12.4802 14.782 12.908C14.5903 13.2843 14.2843 13.5903 13.908 13.782C13.4802 14 12.9201 14 11.8 14H3.2C2.07989 14 1.51984 14 1.09202 13.782C0.715695 13.5903 0.409734 13.2843 0.217987 12.908C0 12.4802 0 11.9201 0 10.8V4.2ZM4.875 7.5C4.875 6.05025 6.05025 4.875 7.5 4.875C8.94975 4.875 10.125 6.05025 10.125 7.5C10.125 8.94975 8.94975 10.125 7.5 10.125C6.05025 10.125 4.875 8.94975 4.875 7.5ZM7.5 3.875C5.49797 3.875 3.875 5.49797 3.875 7.5C3.875 9.50203 5.49797 11.125 7.5 11.125C9.50203 11.125 11.125 9.50203 11.125 7.5C11.125 5.49797 9.50203 3.875 7.5 3.875Z"
    fill="currentColor"
  />
</svg>
