<svg width="15" height="15" fill="none" xmlns="http://www.w3.org/2000/svg">
  <path
    fill-rule="evenodd"
    clip-rule="evenodd"
    d="M0.877041 7.49972C0.877041 3.84204 3.84219 0.876892 7.49987 0.876892C11.1575 0.876892 14.1227 3.84204 14.1227 7.49972C14.1227 11.1574 11.1575 14.1226 7.49987 14.1226C3.84219 14.1226 0.877041 11.1574 0.877041 7.49972ZM7.49987 1.82689C4.36686 1.82689 1.82704 4.36671 1.82704 7.49972C1.82704 10.6327 4.36686 13.1726 7.49987 13.1726C10.6329 13.1726 13.1727 10.6327 13.1727 7.49972C13.1727 4.36671 10.6329 1.82689 7.49987 1.82689ZM8.24989 10.5C8.24989 10.9142 7.91411 11.25 7.49989 11.25C7.08568 11.25 6.74989 10.9142 6.74989 10.5C6.74989 10.0858 7.08568 9.75 7.49989 9.75C7.91411 9.75 8.24989 10.0858 8.24989 10.5ZM6.05 6.25C6.05 5.57211 6.63507 4.925 7.5 4.925C8.36493 4.925 8.95 5.57211 8.95 6.25C8.95 6.74118 8.67999 6.99212 8.21444 7.27494C8.16247 7.30651 8.10255 7.34131 8.03844 7.37854L8.03838 7.37858C7.85518 7.48497 7.63784 7.61119 7.47446 7.73849C7.23211 7.92732 6.95 8.23198 6.95 8.7C6.95 9.00376 7.19624 9.25 7.5 9.25C7.80237 9.25 8.04774 9.00601 8.04998 8.70417L8.05053 8.7033C8.05921 8.6896 8.0849 8.65735 8.15054 8.6062C8.25204 8.52712 8.36505 8.46163 8.51563 8.37436L8.51568 8.37433C8.59419 8.32883 8.68292 8.27741 8.78556 8.21506C9.32001 7.89038 10.05 7.35382 10.05 6.25C10.05 4.92789 8.93507 3.825 7.5 3.825C6.06493 3.825 4.95 4.92789 4.95 6.25C4.95 6.55376 5.19624 6.8 5.5 6.8C5.80376 6.8 6.05 6.55376 6.05 6.25Z"
    fill="currentColor"
  />
</svg>
