<svg width="15" height="15" fill="none" xmlns="http://www.w3.org/2000/svg">
  <path
    fill-rule="evenodd"
    clip-rule="evenodd"
    d="M7.49988 1.12704C3.98026 1.12704 1.12704 3.98026 1.12704 7.49988C1.12704 11.0195 3.98026 13.8727 7.49988 13.8727C11.0195 13.8727 13.8727 11.0195 13.8727 7.49988C13.8727 3.98026 11.0195 1.12704 7.49988 1.12704ZM2.07704 7.49988C2.07704 4.50493 4.50493 2.07704 7.49988 2.07704C10.4948 2.07704 12.9227 4.50493 12.9227 7.49988C12.9227 10.4948 10.4948 12.9227 7.49988 12.9227C4.50493 12.9227 2.07704 10.4948 2.07704 7.49988ZM7.5 9.5C8.60457 9.5 9.5 8.60457 9.5 7.5C9.5 6.39543 8.60457 5.5 7.5 5.5C6.39543 5.5 5.5 6.39543 5.5 7.5C5.5 8.60457 6.39543 9.5 7.5 9.5Z"
    fill="currentColor"
  />
</svg>
