<svg width="15" height="15" fill="none" xmlns="http://www.w3.org/2000/svg">
  <path
    fill-rule="evenodd"
    clip-rule="evenodd"
    d="M6.5 1C6.22386 1 6 1.22386 6 1.5C6 1.77614 6.22386 2 6.5 2C7.12671 2 7.45718 2.20028 7.65563 2.47812C7.8781 2.78957 8 3.28837 8 4V10C8 10.7116 7.8781 11.2104 7.65563 11.5219C7.45718 11.7997 7.12671 12 6.5 12C6.22386 12 6 12.2239 6 12.5C6 12.7761 6.22386 13 6.5 13C7.37329 13 8.04282 12.7003 8.46937 12.1031C8.47976 12.0886 8.48997 12.0739 8.5 12.0591C8.51003 12.0739 8.52024 12.0886 8.53063 12.1031C8.95718 12.7003 9.62671 13 10.5 13C10.7761 13 11 12.7761 11 12.5C11 12.2239 10.7761 12 10.5 12C9.87329 12 9.54282 11.7997 9.34437 11.5219C9.1219 11.2104 9 10.7116 9 10V4C9 3.28837 9.1219 2.78957 9.34437 2.47812C9.54282 2.20028 9.87329 2 10.5 2C10.7761 2 11 1.77614 11 1.5C11 1.22386 10.7761 1 10.5 1C9.62671 1 8.95718 1.29972 8.53063 1.89688C8.52024 1.91143 8.51003 1.92611 8.5 1.9409C8.48997 1.92611 8.47976 1.91143 8.46937 1.89688C8.04282 1.29972 7.37329 1 6.5 1ZM13 5H11V4H13C13.5523 4 14 4.44772 14 5V9C14 9.55228 13.5523 10 13 10H11V9H13V5ZM6 4V5H2L2 9H6V10H2C1.44772 10 1 9.55228 1 9V5C1 4.44772 1.44772 4 2 4H6Z"
    fill="currentColor"
  />
</svg>
