<svg width="15" height="15" fill="none" xmlns="http://www.w3.org/2000/svg">
  <path
    fill-rule="evenodd"
    clip-rule="evenodd"
    d="M7.65354 3.05353L7.65356 3.05351C8.29811 2.40899 9.42858 1.96172 10.5519 1.80125C11.1056 1.72217 11.6291 1.71725 12.0564 1.78124C12.4987 1.84748 12.7698 1.97696 12.8964 2.10357C13.0231 2.23018 13.1525 2.50125 13.2188 2.94357C13.2828 3.37086 13.2779 3.89439 13.1988 4.44801C13.0383 5.57139 12.591 6.70188 11.9464 7.34645L11.1464 8.14646L8.14643 11.1465L7.49999 11.7929L6.35353 10.6465C6.15827 10.4512 5.84168 10.4512 5.64642 10.6465C5.45116 10.8417 5.45116 11.1583 5.64643 11.3536L7.14644 12.8536C7.3417 13.0488 7.65828 13.0488 7.85354 12.8536L8.40072 12.3064L9.57123 14.2572C9.65045 14.3893 9.78607 14.4774 9.93889 14.4963C10.0917 14.5151 10.2447 14.4624 10.3535 14.3536L12.3535 12.3536C12.4648 12.2423 12.5172 12.0851 12.495 11.9293L12.0303 8.67679L12.6535 8.05355L12.3 7.7L12.6536 8.05355C13.509 7.19808 14.0117 5.82855 14.1887 4.58943C14.2784 3.9618 14.2891 3.33847 14.2078 2.79546C14.1287 2.26748 13.9519 1.74482 13.6035 1.39645C13.2552 1.04809 12.7325 0.871332 12.2045 0.792264C11.6615 0.710945 11.0382 0.721644 10.4105 0.8113C9.17142 0.988306 7.8019 1.49098 6.94645 2.34641L6.94643 2.34642L6.32321 2.96968L3.07071 2.50504C2.91491 2.48278 2.75773 2.53517 2.64644 2.64646L0.646443 4.64645C0.537571 4.75533 0.48493 4.90829 0.503743 5.0611C0.522555 5.21391 0.610723 5.34954 0.742749 5.42876L2.69363 6.59928L2.14646 7.14645C2.05269 7.24022 2.00001 7.3674 2.00001 7.50001C2.00001 7.63261 2.05269 7.75979 2.14646 7.85356L3.64646 9.35356C3.84172 9.54883 4.1583 9.54883 4.35357 9.35356C4.54883 9.1583 4.54883 8.84172 4.35357 8.64646L3.20712 7.50001L3.85356 6.85356L3.50001 6.50001L3.85357 6.85356L6.85355 3.85356L6.85356 3.85355L7.65354 3.05353ZM10.0993 13.1936L9.12959 11.5775L11.1464 9.56067L11.4697 11.8232L10.0993 13.1936ZM3.4225 5.87041L5.43934 3.85356L3.17677 3.53034L1.80637 4.90074L3.4225 5.87041ZM2.35355 10.3535C2.54881 10.1583 2.54881 9.8417 2.35355 9.64644C2.15829 9.45118 1.84171 9.45118 1.64644 9.64644L0.646443 10.6464C0.451181 10.8417 0.451181 11.1583 0.646443 11.3535C0.841705 11.5488 1.15829 11.5488 1.35355 11.3535L2.35355 10.3535ZM3.85357 11.8536C4.04884 11.6583 4.04884 11.3417 3.85358 11.1465C3.65832 10.9512 3.34174 10.9512 3.14647 11.1465L1.14645 13.1464C0.951183 13.3417 0.951179 13.6583 1.14644 13.8535C1.3417 14.0488 1.65828 14.0488 1.85355 13.8536L3.85357 11.8536ZM5.35355 13.3535C5.54881 13.1583 5.54881 12.8417 5.35355 12.6464C5.15829 12.4512 4.8417 12.4512 4.64644 12.6464L3.64644 13.6464C3.45118 13.8417 3.45118 14.1583 3.64644 14.3535C3.8417 14.5488 4.15829 14.5488 4.35355 14.3535L5.35355 13.3535ZM8.52498 5.45004C8.52498 4.93917 8.93912 4.52504 9.44998 4.52504C9.96084 4.52504 10.375 4.93917 10.375 5.45004C10.375 5.9609 9.96084 6.37504 9.44998 6.37504C8.93912 6.37504 8.52498 5.9609 8.52498 5.45004ZM9.44998 3.67504C8.46968 3.67504 7.67498 4.46973 7.67498 5.45004C7.67498 6.43034 8.46968 7.22504 9.44998 7.22504C10.4303 7.22504 11.225 6.43034 11.225 5.45004C11.225 4.46973 10.4303 3.67504 9.44998 3.67504Z"
    fill="currentColor"
  />
</svg>
