<svg width="15" height="15" fill="none" xmlns="http://www.w3.org/2000/svg">
  <path
    fill-rule="evenodd"
    clip-rule="evenodd"
    d="M3.5 2.04999C2.69918 2.04999 2.04999 2.69918 2.05 3.5L2.05 3.99999C2.05001 4.24852 2.25148 4.44999 2.50001 4.44999C2.74854 4.44999 2.95001 4.24851 2.95 3.99998L2.95 3.49999C2.94999 3.19623 3.19624 2.94999 3.5 2.94999H4C4.24853 2.94999 4.45 2.74852 4.45 2.49999C4.45 2.25146 4.24853 2.04999 4 2.04999H3.5ZM6.49999 2.04999C6.25146 2.04999 6.04999 2.25146 6.04999 2.49999C6.04999 2.74852 6.25146 2.94999 6.49999 2.94999H8.49999C8.74852 2.94999 8.94999 2.74852 8.94999 2.49999C8.94999 2.25146 8.74852 2.04999 8.49999 2.04999H6.49999ZM6.04999 12.5C6.04999 12.2515 6.25146 12.05 6.49999 12.05H8.49999C8.74852 12.05 8.94999 12.2515 8.94999 12.5C8.94999 12.7485 8.74852 12.95 8.49999 12.95H6.49999C6.25146 12.95 6.04999 12.7485 6.04999 12.5ZM2.95 6.49999C2.95 6.25146 2.74853 6.04999 2.5 6.04999C2.25147 6.04999 2.05 6.25146 2.05 6.49999V8.49999C2.05 8.74852 2.25147 8.94999 2.5 8.94999C2.74853 8.94999 2.95 8.74852 2.95 8.49999V6.49999ZM12.5 6.04999C12.7485 6.04999 12.95 6.25146 12.95 6.49999V8.49999C12.95 8.74852 12.7485 8.94999 12.5 8.94999C12.2515 8.94999 12.05 8.74852 12.05 8.49999V6.49999C12.05 6.25146 12.2515 6.04999 12.5 6.04999ZM11 2.04999C10.7515 2.04999 10.55 2.25146 10.55 2.49999C10.55 2.74852 10.7515 2.94999 11 2.94999H11.001H11.002H11.003H11.004H11.005H11.006H11.0071H11.0081H11.0091H11.0101H11.0111H11.0121H11.0131H11.0141H11.0151H11.0161H11.0171H11.0181H11.0191H11.0201H11.0212H11.0222H11.0232H11.0242H11.0252H11.0262H11.0272H11.0282H11.0292H11.0302H11.0312H11.0322H11.0332H11.0342H11.0352H11.0362H11.0372H11.0383H11.0393H11.0403H11.0413H11.0423H11.0433H11.0443H11.0453H11.0463H11.0473H11.0483H11.0493H11.0503H11.0513H11.0523H11.0533H11.0543H11.0553H11.0563H11.0573H11.0583H11.0593H11.0603H11.0613H11.0624H11.0634H11.0644H11.0654H11.0664H11.0674H11.0684H11.0694H11.0704H11.0714H11.0724H11.0734H11.0744H11.0754H11.0764H11.0774H11.0784H11.0794H11.0804H11.0814H11.0824H11.0834H11.0844H11.0854H11.0864H11.0874H11.0884H11.0894H11.0904H11.0914H11.0924H11.0934H11.0944H11.0954H11.0964H11.0974H11.0984H11.0994H11.1004H11.1014H11.1024H11.1034H11.1044H11.1054H11.1064H11.1074H11.1084H11.1094H11.1104H11.1114H11.1124H11.1134H11.1144H11.1154H11.1164H11.1174H11.1184H11.1194H11.1204H11.1214H11.1224H11.1234H11.1244H11.1254H11.1264H11.1273H11.1283H11.1293H11.1303H11.1313H11.1323H11.1333H11.1343H11.1353H11.1363H11.1373H11.1383H11.1393H11.1403H11.1413H11.1423H11.1433H11.1443H11.1453H11.1463H11.1473H11.1483H11.1492H11.1502H11.1512H11.1522H11.1532H11.1542H11.1552H11.1562H11.1572H11.1582H11.1592H11.1602H11.1612H11.1622H11.1632H11.1641H11.1651H11.1661H11.1671H11.1681H11.1691H11.1701H11.1711H11.1721H11.1731H11.1741H11.1751H11.176H11.177H11.178H11.179H11.18H11.181H11.182H11.183H11.184H11.185H11.186H11.1869H11.1879H11.1889H11.1899H11.1909H11.1919H11.1929H11.1939H11.1949H11.1958H11.1968H11.1978H11.1988H11.1998H11.2008H11.2018H11.2028H11.2037H11.2047H11.2057H11.2067H11.2077H11.2087H11.2097H11.2107H11.2116H11.2126H11.2136H11.2146H11.2156H11.2166H11.2176H11.2185H11.2195H11.2205H11.2215H11.2225H11.2235H11.2245H11.2254H11.2264H11.2274H11.2284H11.2294H11.2304H11.2313H11.2323H11.2333H11.2343H11.2353H11.2363H11.2372H11.2382H11.2392H11.2402H11.2412H11.2421H11.2431H11.2441H11.2451H11.2461H11.2471H11.248H11.249H11.25H11.251H11.252H11.2529H11.2539H11.2549H11.2559H11.2569H11.2578H11.2588H11.2598H11.2608H11.2618H11.2627H11.2637H11.2647H11.2657H11.2667H11.2676H11.2686H11.2696H11.2706H11.2715H11.2725H11.2735H11.2745H11.2754H11.2764H11.2774H11.2784H11.2794H11.2803H11.2813H11.2823H11.2833H11.2842H11.2852H11.2862H11.2872H11.2881H11.2891H11.2901H11.2911H11.292H11.293H11.294H11.295H11.2959H11.2969H11.2979H11.2988H11.2998H11.3008H11.3018H11.3027H11.3037H11.3047H11.3057H11.3066H11.3076H11.3086H11.3095H11.3105H11.3115H11.3125H11.3134H11.3144H11.3154H11.3163H11.3173H11.3183H11.3192H11.3202H11.3212H11.3221H11.3231H11.3241H11.3251H11.326H11.327H11.328H11.3289H11.3299H11.3309H11.3318H11.3328H11.3338H11.3347H11.3357H11.3367H11.3376H11.3386H11.3396H11.3405H11.3415H11.3425H11.3434H11.3444H11.3454H11.3463H11.3473H11.3482H11.3492H11.3502H11.3511H11.3521H11.3531H11.354H11.355H11.356H11.3569H11.3579H11.3588H11.3598H11.3608H11.3617H11.3627H11.3637H11.3646H11.3656H11.3665H11.3675H11.3685H11.3694H11.3704H11.3713H11.3723H11.3733H11.3742H11.3752H11.3761H11.3771H11.3781H11.379H11.38H11.3809H11.3819H11.3828H11.3838H11.3848H11.3857H11.3867H11.3876H11.3886H11.3895H11.3905H11.3915H11.3924H11.3934H11.3943H11.3953H11.3962H11.3972H11.3981H11.3991H11.4H11.401H11.402H11.4029H11.4039H11.4048H11.4058H11.4067H11.4077H11.4086H11.4096H11.4105H11.4115H11.4124H11.4134H11.4143H11.4153H11.4162H11.4172H11.4181H11.4191H11.42H11.421H11.4219H11.4229H11.4238H11.4248H11.4257H11.4267H11.4276H11.4286H11.4295H11.4305H11.4314H11.4324H11.4333H11.4343H11.4352H11.4362H11.4371H11.4381H11.439H11.4399H11.4409H11.4418H11.4428H11.4437H11.4447H11.4456H11.4466H11.4475H11.4484H11.4494H11.4503H11.4513H11.4522H11.4532H11.4541H11.455H11.456H11.4569H11.4579H11.4588H11.4598H11.4607H11.4616H11.4626H11.4635H11.4645H11.4654H11.4663H11.4673H11.4682H11.4692H11.4701H11.471H11.472H11.4729H11.4738H11.4748H11.4757H11.4767H11.4776H11.4785H11.4795H11.4804H11.4813H11.4823H11.4832H11.4841H11.4851H11.486H11.487H11.4879H11.4888H11.4898H11.4907H11.4916H11.4926H11.4935H11.4944H11.4954H11.4963H11.4972H11.4982H11.4991H11.5C11.8038 2.94999 12.05 3.19621 12.05 3.49999V3.99999C12.05 4.24852 12.2515 4.44999 12.5 4.44999C12.7485 4.44999 12.95 4.24852 12.95 3.99999V3.49999C12.95 2.69919 12.3008 2.04999 11.5 2.04999H11.4991H11.4982H11.4972H11.4963H11.4954H11.4944H11.4935H11.4926H11.4916H11.4907H11.4898H11.4888H11.4879H11.487H11.486H11.4851H11.4841H11.4832H11.4823H11.4813H11.4804H11.4795H11.4785H11.4776H11.4767H11.4757H11.4748H11.4738H11.4729H11.472H11.471H11.4701H11.4692H11.4682H11.4673H11.4663H11.4654H11.4645H11.4635H11.4626H11.4616H11.4607H11.4598H11.4588H11.4579H11.4569H11.456H11.455H11.4541H11.4532H11.4522H11.4513H11.4503H11.4494H11.4484H11.4475H11.4466H11.4456H11.4447H11.4437H11.4428H11.4418H11.4409H11.4399H11.439H11.4381H11.4371H11.4362H11.4352H11.4343H11.4333H11.4324H11.4314H11.4305H11.4295H11.4286H11.4276H11.4267H11.4257H11.4248H11.4238H11.4229H11.4219H11.421H11.42H11.4191H11.4181H11.4172H11.4162H11.4153H11.4143H11.4134H11.4124H11.4115H11.4105H11.4096H11.4086H11.4077H11.4067H11.4058H11.4048H11.4039H11.4029H11.402H11.401H11.4H11.3991H11.3981H11.3972H11.3962H11.3953H11.3943H11.3934H11.3924H11.3915H11.3905H11.3895H11.3886H11.3876H11.3867H11.3857H11.3848H11.3838H11.3828H11.3819H11.3809H11.38H11.379H11.3781H11.3771H11.3761H11.3752H11.3742H11.3733H11.3723H11.3713H11.3704H11.3694H11.3685H11.3675H11.3665H11.3656H11.3646H11.3637H11.3627H11.3617H11.3608H11.3598H11.3588H11.3579H11.3569H11.356H11.355H11.354H11.3531H11.3521H11.3511H11.3502H11.3492H11.3482H11.3473H11.3463H11.3454H11.3444H11.3434H11.3425H11.3415H11.3405H11.3396H11.3386H11.3376H11.3367H11.3357H11.3347H11.3338H11.3328H11.3318H11.3309H11.3299H11.3289H11.328H11.327H11.326H11.3251H11.3241H11.3231H11.3221H11.3212H11.3202H11.3192H11.3183H11.3173H11.3163H11.3154H11.3144H11.3134H11.3125H11.3115H11.3105H11.3095H11.3086H11.3076H11.3066H11.3057H11.3047H11.3037H11.3027H11.3018H11.3008H11.2998H11.2988H11.2979H11.2969H11.2959H11.295H11.294H11.293H11.292H11.2911H11.2901H11.2891H11.2881H11.2872H11.2862H11.2852H11.2842H11.2833H11.2823H11.2813H11.2803H11.2794H11.2784H11.2774H11.2764H11.2754H11.2745H11.2735H11.2725H11.2715H11.2706H11.2696H11.2686H11.2676H11.2667H11.2657H11.2647H11.2637H11.2627H11.2618H11.2608H11.2598H11.2588H11.2578H11.2569H11.2559H11.2549H11.2539H11.2529H11.252H11.251H11.25H11.249H11.248H11.2471H11.2461H11.2451H11.2441H11.2431H11.2421H11.2412H11.2402H11.2392H11.2382H11.2372H11.2363H11.2353H11.2343H11.2333H11.2323H11.2313H11.2304H11.2294H11.2284H11.2274H11.2264H11.2254H11.2245H11.2235H11.2225H11.2215H11.2205H11.2195H11.2185H11.2176H11.2166H11.2156H11.2146H11.2136H11.2126H11.2116H11.2107H11.2097H11.2087H11.2077H11.2067H11.2057H11.2047H11.2037H11.2028H11.2018H11.2008H11.1998H11.1988H11.1978H11.1968H11.1958H11.1949H11.1939H11.1929H11.1919H11.1909H11.1899H11.1889H11.1879H11.1869H11.186H11.185H11.184H11.183H11.182H11.181H11.18H11.179H11.178H11.177H11.176H11.1751H11.1741H11.1731H11.1721H11.1711H11.1701H11.1691H11.1681H11.1671H11.1661H11.1651H11.1641H11.1632H11.1622H11.1612H11.1602H11.1592H11.1582H11.1572H11.1562H11.1552H11.1542H11.1532H11.1522H11.1512H11.1502H11.1492H11.1483H11.1473H11.1463H11.1453H11.1443H11.1433H11.1423H11.1413H11.1403H11.1393H11.1383H11.1373H11.1363H11.1353H11.1343H11.1333H11.1323H11.1313H11.1303H11.1293H11.1283H11.1273H11.1264H11.1254H11.1244H11.1234H11.1224H11.1214H11.1204H11.1194H11.1184H11.1174H11.1164H11.1154H11.1144H11.1134H11.1124H11.1114H11.1104H11.1094H11.1084H11.1074H11.1064H11.1054H11.1044H11.1034H11.1024H11.1014H11.1004H11.0994H11.0984H11.0974H11.0964H11.0954H11.0944H11.0934H11.0924H11.0914H11.0904H11.0894H11.0884H11.0874H11.0864H11.0854H11.0844H11.0834H11.0824H11.0814H11.0804H11.0794H11.0784H11.0774H11.0764H11.0754H11.0744H11.0734H11.0724H11.0714H11.0704H11.0694H11.0684H11.0674H11.0664H11.0654H11.0644H11.0634H11.0624H11.0613H11.0603H11.0593H11.0583H11.0573H11.0563H11.0553H11.0543H11.0533H11.0523H11.0513H11.0503H11.0493H11.0483H11.0473H11.0463H11.0453H11.0443H11.0433H11.0423H11.0413H11.0403H11.0393H11.0383H11.0372H11.0362H11.0352H11.0342H11.0332H11.0322H11.0312H11.0302H11.0292H11.0282H11.0272H11.0262H11.0252H11.0242H11.0232H11.0222H11.0212H11.0201H11.0191H11.0181H11.0171H11.0161H11.0151H11.0141H11.0131H11.0121H11.0111H11.0101H11.0091H11.0081H11.0071H11.006H11.005H11.004H11.003H11.002H11.001H11ZM2.49999 10.55C2.74852 10.55 2.94999 10.7515 2.94999 11V11.5C2.94999 11.8037 3.19623 12.05 3.49999 12.05H4C4.24853 12.05 4.45 12.2515 4.45 12.5C4.45 12.7485 4.24853 12.95 4 12.95H3.49999C2.69917 12.95 2.04999 12.3008 2.04999 11.5V11C2.04999 10.7515 2.25146 10.55 2.49999 10.55ZM12.95 11C12.95 10.7515 12.7485 10.55 12.5 10.55C12.2515 10.55 12.05 10.7515 12.05 11L12.05 11.5C12.05 11.8038 11.8038 12.05 11.5 12.05H11.4991H11.4982H11.4972H11.4963H11.4954H11.4944H11.4935H11.4926H11.4916H11.4907H11.4898H11.4888H11.4879H11.487H11.486H11.4851H11.4842H11.4832H11.4823H11.4813H11.4804H11.4795H11.4785H11.4776H11.4767H11.4757H11.4748H11.4739H11.4729H11.472H11.471H11.4701H11.4692H11.4682H11.4673H11.4663H11.4654H11.4645H11.4635H11.4626H11.4616H11.4607H11.4598H11.4588H11.4579H11.4569H11.456H11.4551H11.4541H11.4532H11.4522H11.4513H11.4503H11.4494H11.4485H11.4475H11.4466H11.4456H11.4447H11.4437H11.4428H11.4418H11.4409H11.44H11.439H11.4381H11.4371H11.4362H11.4352H11.4343H11.4333H11.4324H11.4314H11.4305H11.4295H11.4286H11.4276H11.4267H11.4257H11.4248H11.4238H11.4229H11.4219H11.421H11.42H11.4191H11.4181H11.4172H11.4162H11.4153H11.4143H11.4134H11.4124H11.4115H11.4105H11.4096H11.4086H11.4077H11.4067H11.4058H11.4048H11.4039H11.4029H11.402H11.401H11.4001H11.3991H11.3981H11.3972H11.3962H11.3953H11.3943H11.3934H11.3924H11.3915H11.3905H11.3895H11.3886H11.3876H11.3867H11.3857H11.3848H11.3838H11.3828H11.3819H11.3809H11.38H11.379H11.3781H11.3771H11.3761H11.3752H11.3742H11.3733H11.3723H11.3713H11.3704H11.3694H11.3685H11.3675H11.3665H11.3656H11.3646H11.3637H11.3627H11.3617H11.3608H11.3598H11.3589H11.3579H11.3569H11.356H11.355H11.354H11.3531H11.3521H11.3511H11.3502H11.3492H11.3483H11.3473H11.3463H11.3454H11.3444H11.3434H11.3425H11.3415H11.3405H11.3396H11.3386H11.3376H11.3367H11.3357H11.3347H11.3338H11.3328H11.3318H11.3309H11.3299H11.3289H11.328H11.327H11.326H11.3251H11.3241H11.3231H11.3222H11.3212H11.3202H11.3192H11.3183H11.3173H11.3163H11.3154H11.3144H11.3134H11.3125H11.3115H11.3105H11.3095H11.3086H11.3076H11.3066H11.3057H11.3047H11.3037H11.3027H11.3018H11.3008H11.2998H11.2989H11.2979H11.2969H11.2959H11.295H11.294H11.293H11.292H11.2911H11.2901H11.2891H11.2881H11.2872H11.2862H11.2852H11.2842H11.2833H11.2823H11.2813H11.2803H11.2794H11.2784H11.2774H11.2764H11.2755H11.2745H11.2735H11.2725H11.2715H11.2706H11.2696H11.2686H11.2676H11.2667H11.2657H11.2647H11.2637H11.2627H11.2618H11.2608H11.2598H11.2588H11.2578H11.2569H11.2559H11.2549H11.2539H11.2529H11.252H11.251H11.25H11.249H11.248H11.2471H11.2461H11.2451H11.2441H11.2431H11.2422H11.2412H11.2402H11.2392H11.2382H11.2372H11.2363H11.2353H11.2343H11.2333H11.2323H11.2313H11.2304H11.2294H11.2284H11.2274H11.2264H11.2254H11.2245H11.2235H11.2225H11.2215H11.2205H11.2195H11.2185H11.2176H11.2166H11.2156H11.2146H11.2136H11.2126H11.2116H11.2107H11.2097H11.2087H11.2077H11.2067H11.2057H11.2047H11.2037H11.2028H11.2018H11.2008H11.1998H11.1988H11.1978H11.1968H11.1958H11.1949H11.1939H11.1929H11.1919H11.1909H11.1899H11.1889H11.1879H11.1869H11.186H11.185H11.184H11.183H11.182H11.181H11.18H11.179H11.178H11.177H11.1761H11.1751H11.1741H11.1731H11.1721H11.1711H11.1701H11.1691H11.1681H11.1671H11.1661H11.1651H11.1642H11.1632H11.1622H11.1612H11.1602H11.1592H11.1582H11.1572H11.1562H11.1552H11.1542H11.1532H11.1522H11.1512H11.1502H11.1493H11.1483H11.1473H11.1463H11.1453H11.1443H11.1433H11.1423H11.1413H11.1403H11.1393H11.1383H11.1373H11.1363H11.1353H11.1343H11.1333H11.1323H11.1313H11.1303H11.1293H11.1283H11.1274H11.1264H11.1254H11.1244H11.1234H11.1224H11.1214H11.1204H11.1194H11.1184H11.1174H11.1164H11.1154H11.1144H11.1134H11.1124H11.1114H11.1104H11.1094H11.1084H11.1074H11.1064H11.1054H11.1044H11.1034H11.1024H11.1014H11.1004H11.0994H11.0984H11.0974H11.0964H11.0954H11.0944H11.0934H11.0924H11.0914H11.0904H11.0894H11.0884H11.0874H11.0864H11.0854H11.0844H11.0834H11.0824H11.0814H11.0804H11.0794H11.0784H11.0774H11.0764H11.0754H11.0744H11.0734H11.0724H11.0714H11.0704H11.0694H11.0684H11.0674H11.0664H11.0654H11.0644H11.0634H11.0624H11.0613H11.0603H11.0593H11.0583H11.0573H11.0563H11.0553H11.0543H11.0533H11.0523H11.0513H11.0503H11.0493H11.0483H11.0473H11.0463H11.0453H11.0443H11.0433H11.0423H11.0413H11.0403H11.0393H11.0383H11.0372H11.0362H11.0352H11.0342H11.0332H11.0322H11.0312H11.0302H11.0292H11.0282H11.0272H11.0262H11.0252H11.0242H11.0232H11.0222H11.0212H11.0201H11.0191H11.0181H11.0171H11.0161H11.0151H11.0141H11.0131H11.0121H11.0111H11.0101H11.0091H11.0081H11.0071H11.006H11.005H11.004H11.003H11.002H11.001H11C10.7515 12.05 10.55 12.2515 10.55 12.5C10.55 12.7485 10.7515 12.95 11 12.95H11.001H11.002H11.003H11.004H11.005H11.006H11.0071H11.0081H11.0091H11.0101H11.0111H11.0121H11.0131H11.0141H11.0151H11.0161H11.0171H11.0181H11.0191H11.0201H11.0212H11.0222H11.0232H11.0242H11.0252H11.0262H11.0272H11.0282H11.0292H11.0302H11.0312H11.0322H11.0332H11.0342H11.0352H11.0362H11.0372H11.0383H11.0393H11.0403H11.0413H11.0423H11.0433H11.0443H11.0453H11.0463H11.0473H11.0483H11.0493H11.0503H11.0513H11.0523H11.0533H11.0543H11.0553H11.0563H11.0573H11.0583H11.0593H11.0603H11.0613H11.0624H11.0634H11.0644H11.0654H11.0664H11.0674H11.0684H11.0694H11.0704H11.0714H11.0724H11.0734H11.0744H11.0754H11.0764H11.0774H11.0784H11.0794H11.0804H11.0814H11.0824H11.0834H11.0844H11.0854H11.0864H11.0874H11.0884H11.0894H11.0904H11.0914H11.0924H11.0934H11.0944H11.0954H11.0964H11.0974H11.0984H11.0994H11.1004H11.1014H11.1024H11.1034H11.1044H11.1054H11.1064H11.1074H11.1084H11.1094H11.1104H11.1114H11.1124H11.1134H11.1144H11.1154H11.1164H11.1174H11.1184H11.1194H11.1204H11.1214H11.1224H11.1234H11.1244H11.1254H11.1264H11.1274H11.1283H11.1293H11.1303H11.1313H11.1323H11.1333H11.1343H11.1353H11.1363H11.1373H11.1383H11.1393H11.1403H11.1413H11.1423H11.1433H11.1443H11.1453H11.1463H11.1473H11.1483H11.1493H11.1502H11.1512H11.1522H11.1532H11.1542H11.1552H11.1562H11.1572H11.1582H11.1592H11.1602H11.1612H11.1622H11.1632H11.1642H11.1651H11.1661H11.1671H11.1681H11.1691H11.1701H11.1711H11.1721H11.1731H11.1741H11.1751H11.1761H11.177H11.178H11.179H11.18H11.181H11.182H11.183H11.184H11.185H11.186H11.1869H11.1879H11.1889H11.1899H11.1909H11.1919H11.1929H11.1939H11.1949H11.1958H11.1968H11.1978H11.1988H11.1998H11.2008H11.2018H11.2028H11.2037H11.2047H11.2057H11.2067H11.2077H11.2087H11.2097H11.2107H11.2116H11.2126H11.2136H11.2146H11.2156H11.2166H11.2176H11.2185H11.2195H11.2205H11.2215H11.2225H11.2235H11.2245H11.2254H11.2264H11.2274H11.2284H11.2294H11.2304H11.2313H11.2323H11.2333H11.2343H11.2353H11.2363H11.2372H11.2382H11.2392H11.2402H11.2412H11.2422H11.2431H11.2441H11.2451H11.2461H11.2471H11.248H11.249H11.25H11.251H11.252H11.2529H11.2539H11.2549H11.2559H11.2569H11.2578H11.2588H11.2598H11.2608H11.2618H11.2627H11.2637H11.2647H11.2657H11.2667H11.2676H11.2686H11.2696H11.2706H11.2715H11.2725H11.2735H11.2745H11.2755H11.2764H11.2774H11.2784H11.2794H11.2803H11.2813H11.2823H11.2833H11.2842H11.2852H11.2862H11.2872H11.2881H11.2891H11.2901H11.2911H11.292H11.293H11.294H11.295H11.2959H11.2969H11.2979H11.2989H11.2998H11.3008H11.3018H11.3027H11.3037H11.3047H11.3057H11.3066H11.3076H11.3086H11.3095H11.3105H11.3115H11.3125H11.3134H11.3144H11.3154H11.3163H11.3173H11.3183H11.3192H11.3202H11.3212H11.3222H11.3231H11.3241H11.3251H11.326H11.327H11.328H11.3289H11.3299H11.3309H11.3318H11.3328H11.3338H11.3347H11.3357H11.3367H11.3376H11.3386H11.3396H11.3405H11.3415H11.3425H11.3434H11.3444H11.3454H11.3463H11.3473H11.3483H11.3492H11.3502H11.3511H11.3521H11.3531H11.354H11.355H11.356H11.3569H11.3579H11.3589H11.3598H11.3608H11.3617H11.3627H11.3637H11.3646H11.3656H11.3665H11.3675H11.3685H11.3694H11.3704H11.3713H11.3723H11.3733H11.3742H11.3752H11.3761H11.3771H11.3781H11.379H11.38H11.3809H11.3819H11.3828H11.3838H11.3848H11.3857H11.3867H11.3876H11.3886H11.3895H11.3905H11.3915H11.3924H11.3934H11.3943H11.3953H11.3962H11.3972H11.3981H11.3991H11.4001H11.401H11.402H11.4029H11.4039H11.4048H11.4058H11.4067H11.4077H11.4086H11.4096H11.4105H11.4115H11.4124H11.4134H11.4143H11.4153H11.4162H11.4172H11.4181H11.4191H11.42H11.421H11.4219H11.4229H11.4238H11.4248H11.4257H11.4267H11.4276H11.4286H11.4295H11.4305H11.4314H11.4324H11.4333H11.4343H11.4352H11.4362H11.4371H11.4381H11.439H11.44H11.4409H11.4418H11.4428H11.4437H11.4447H11.4456H11.4466H11.4475H11.4485H11.4494H11.4503H11.4513H11.4522H11.4532H11.4541H11.4551H11.456H11.4569H11.4579H11.4588H11.4598H11.4607H11.4616H11.4626H11.4635H11.4645H11.4654H11.4663H11.4673H11.4682H11.4692H11.4701H11.471H11.472H11.4729H11.4739H11.4748H11.4757H11.4767H11.4776H11.4785H11.4795H11.4804H11.4813H11.4823H11.4832H11.4842H11.4851H11.486H11.487H11.4879H11.4888H11.4898H11.4907H11.4916H11.4926H11.4935H11.4944H11.4954H11.4963H11.4972H11.4982H11.4991H11.5C12.3008 12.95 12.95 12.3008 12.95 11.5L12.95 11Z"
    fill="currentColor"
  />
</svg>
