<svg width="15" height="15" fill="none" xmlns="http://www.w3.org/2000/svg">
  <path
    fill-rule="evenodd"
    clip-rule="evenodd"
    d="M14 8.09793V6.90207L14 6.83793C14.0001 6.04925 14.0001 5.35811 13.9228 4.79559C13.8386 4.18235 13.6493 3.60185 13.1855 3.10867C12.729 2.62315 12.1798 2.39541 11.5847 2.27227C11.0461 2.16083 10.385 2.12019 9.64063 2.07443L9.57599 2.07046C8.89885 2.02878 8.18457 2 7.50001 2C6.81545 2 6.10116 2.02878 5.42402 2.07046L5.35938 2.07443C4.615 2.12019 3.95392 2.16083 3.41535 2.27227C2.82025 2.39541 2.27105 2.62315 1.81449 3.10867C1.35074 3.60185 1.16144 4.18235 1.07719 4.79559C0.999898 5.35811 0.999947 6.04925 1 6.83793L1.00001 6.90207V8.09793L1 8.16207C0.999947 8.95075 0.999898 9.64189 1.07719 10.2044C1.16144 10.8177 1.35074 11.3982 1.81449 11.8913C2.27105 12.3769 2.82025 12.6046 3.41535 12.7277C3.95392 12.8392 4.615 12.8798 5.35938 12.9256L5.42402 12.9295C6.10116 12.9712 6.81545 13 7.50001 13C8.18457 13 8.89885 12.9712 9.57599 12.9295L9.64063 12.9256C10.385 12.8798 11.0461 12.8392 11.5847 12.7277C12.1798 12.6046 12.729 12.3769 13.1855 11.8913C13.6493 11.3982 13.8386 10.8177 13.9228 10.2044C14.0001 9.64189 14.0001 8.95075 14 8.16207L14 8.09793ZM2.00001 6.90207C2.00001 5.21479 2.00001 4.37116 2.543 3.79371C3.08599 3.21627 3.88581 3.16704 5.48546 3.06857C6.14906 3.02772 6.84186 3 7.50001 3C8.15815 3 8.85096 3.02772 9.51455 3.06857C11.1142 3.16704 11.914 3.21627 12.457 3.79371C13 4.37116 13 5.21479 13 6.90207V8.09793C13 9.78521 13 10.6288 12.457 11.2063C11.914 11.7837 11.1142 11.833 9.51455 11.9314C8.85096 11.9723 8.15815 12 7.50001 12C6.84186 12 6.14906 11.9723 5.48546 11.9314C3.88581 11.833 3.08599 11.7837 2.543 11.2063C2.00001 10.6288 2.00001 9.78521 2.00001 8.09793V6.90207ZM5.25001 10V5L10.95 7.5L5.25001 10Z"
    fill="currentColor"
  />
</svg>
